<?xml version="1.0" encoding="utf-8"?>
<svg xmlns="http://www.w3.org/2000/svg" xmlns:xlink="http://www.w3.org/1999/xlink" width="600" height="400" viewBox="0 0 2400 1600">
<defs>
  <clipPath id="clip820">
    <rect x="0" y="0" width="2400" height="1600"/>
  </clipPath>
</defs>
<path clip-path="url(#clip820)" d="
M0 1600 L2400 1600 L2400 0 L0 0  Z
  " fill="#ffffff" fill-rule="evenodd" fill-opacity="1"/>
<defs>
  <clipPath id="clip821">
    <rect x="480" y="0" width="1681" height="1600"/>
  </clipPath>
</defs>
<path clip-path="url(#clip820)" d="
M147.848 1486.45 L2352.76 1486.45 L2352.76 47.2441 L147.848 47.2441  Z
  " fill="#ffffff" fill-rule="evenodd" fill-opacity="1"/>
<defs>
  <clipPath id="clip822">
    <rect x="147" y="47" width="2206" height="1440"/>
  </clipPath>
</defs>
<polyline clip-path="url(#clip822)" style="stroke:#000000; stroke-width:2; stroke-opacity:0.1; fill:none" points="
  210.251,1486.45 210.251,47.2441 
  "/>
<polyline clip-path="url(#clip822)" style="stroke:#000000; stroke-width:2; stroke-opacity:0.1; fill:none" points="
  730.277,1486.45 730.277,47.2441 
  "/>
<polyline clip-path="url(#clip822)" style="stroke:#000000; stroke-width:2; stroke-opacity:0.1; fill:none" points="
  1250.3,1486.45 1250.3,47.2441 
  "/>
<polyline clip-path="url(#clip822)" style="stroke:#000000; stroke-width:2; stroke-opacity:0.1; fill:none" points="
  1770.33,1486.45 1770.33,47.2441 
  "/>
<polyline clip-path="url(#clip822)" style="stroke:#000000; stroke-width:2; stroke-opacity:0.1; fill:none" points="
  2290.35,1486.45 2290.35,47.2441 
  "/>
<polyline clip-path="url(#clip820)" style="stroke:#000000; stroke-width:4; stroke-opacity:1; fill:none" points="
  147.848,1486.45 2352.76,1486.45 
  "/>
<polyline clip-path="url(#clip820)" style="stroke:#000000; stroke-width:4; stroke-opacity:1; fill:none" points="
  210.251,1486.45 210.251,1469.18 
  "/>
<polyline clip-path="url(#clip820)" style="stroke:#000000; stroke-width:4; stroke-opacity:1; fill:none" points="
  730.277,1486.45 730.277,1469.18 
  "/>
<polyline clip-path="url(#clip820)" style="stroke:#000000; stroke-width:4; stroke-opacity:1; fill:none" points="
  1250.3,1486.45 1250.3,1469.18 
  "/>
<polyline clip-path="url(#clip820)" style="stroke:#000000; stroke-width:4; stroke-opacity:1; fill:none" points="
  1770.33,1486.45 1770.33,1469.18 
  "/>
<polyline clip-path="url(#clip820)" style="stroke:#000000; stroke-width:4; stroke-opacity:1; fill:none" points="
  2290.35,1486.45 2290.35,1469.18 
  "/>
<path clip-path="url(#clip820)" d="M 0 0 M210.251 1515.64 Q206.64 1515.64 204.812 1519.2 Q203.006 1522.75 203.006 1529.87 Q203.006 1536.98 204.812 1540.55 Q206.64 1544.09 210.251 1544.09 Q213.886 1544.09 215.691 1540.55 Q217.52 1536.98 217.52 1529.87 Q217.52 1522.75 215.691 1519.2 Q213.886 1515.64 210.251 1515.64 M210.251 1511.93 Q216.061 1511.93 219.117 1516.54 Q222.196 1521.12 222.196 1529.87 Q222.196 1538.6 219.117 1543.21 Q216.061 1547.79 210.251 1547.79 Q204.441 1547.79 201.362 1543.21 Q198.307 1538.6 198.307 1529.87 Q198.307 1521.12 201.362 1516.54 Q204.441 1511.93 210.251 1511.93 Z" fill="#000000" fill-rule="evenodd" fill-opacity="1" /><path clip-path="url(#clip820)" d="M 0 0 M720.659 1543.18 L728.298 1543.18 L728.298 1516.82 L719.987 1518.49 L719.987 1514.23 L728.251 1512.56 L732.927 1512.56 L732.927 1543.18 L740.566 1543.18 L740.566 1547.12 L720.659 1547.12 L720.659 1543.18 Z" fill="#000000" fill-rule="evenodd" fill-opacity="1" /><path clip-path="url(#clip820)" d="M 0 0 M1244.95 1543.18 L1261.27 1543.18 L1261.27 1547.12 L1239.33 1547.12 L1239.33 1543.18 Q1241.99 1540.43 1246.58 1535.8 Q1251.18 1531.15 1252.36 1529.81 Q1254.61 1527.28 1255.49 1525.55 Q1256.39 1523.79 1256.39 1522.1 Q1256.39 1519.34 1254.45 1517.61 Q1252.52 1515.87 1249.42 1515.87 Q1247.22 1515.87 1244.77 1516.63 Q1242.34 1517.4 1239.56 1518.95 L1239.56 1514.23 Q1242.39 1513.09 1244.84 1512.51 Q1247.29 1511.93 1249.33 1511.93 Q1254.7 1511.93 1257.89 1514.62 Q1261.09 1517.31 1261.09 1521.8 Q1261.09 1523.93 1260.28 1525.85 Q1259.49 1527.74 1257.39 1530.34 Q1256.81 1531.01 1253.7 1534.23 Q1250.6 1537.42 1244.95 1543.18 Z" fill="#000000" fill-rule="evenodd" fill-opacity="1" /><path clip-path="url(#clip820)" d="M 0 0 M1774.58 1528.49 Q1777.93 1529.2 1779.81 1531.47 Q1781.7 1533.74 1781.7 1537.07 Q1781.7 1542.19 1778.19 1544.99 Q1774.67 1547.79 1768.19 1547.79 Q1766.01 1547.79 1763.7 1547.35 Q1761.4 1546.93 1758.95 1546.08 L1758.95 1541.56 Q1760.89 1542.7 1763.21 1543.28 Q1765.52 1543.86 1768.05 1543.86 Q1772.45 1543.86 1774.74 1542.12 Q1777.05 1540.38 1777.05 1537.07 Q1777.05 1534.02 1774.9 1532.31 Q1772.77 1530.57 1768.95 1530.57 L1764.92 1530.57 L1764.92 1526.73 L1769.14 1526.73 Q1772.58 1526.73 1774.41 1525.36 Q1776.24 1523.97 1776.24 1521.38 Q1776.24 1518.72 1774.34 1517.31 Q1772.47 1515.87 1768.95 1515.87 Q1767.03 1515.87 1764.83 1516.29 Q1762.63 1516.7 1759.99 1517.58 L1759.99 1513.42 Q1762.65 1512.68 1764.97 1512.31 Q1767.31 1511.93 1769.37 1511.93 Q1774.69 1511.93 1777.79 1514.37 Q1780.89 1516.77 1780.89 1520.89 Q1780.89 1523.76 1779.25 1525.75 Q1777.61 1527.72 1774.58 1528.49 Z" fill="#000000" fill-rule="evenodd" fill-opacity="1" /><path clip-path="url(#clip820)" d="M 0 0 M2293.36 1516.63 L2281.56 1535.08 L2293.36 1535.08 L2293.36 1516.63 M2292.14 1512.56 L2298.01 1512.56 L2298.01 1535.08 L2302.95 1535.08 L2302.95 1538.97 L2298.01 1538.97 L2298.01 1547.12 L2293.36 1547.12 L2293.36 1538.97 L2277.76 1538.97 L2277.76 1534.46 L2292.14 1512.56 Z" fill="#000000" fill-rule="evenodd" fill-opacity="1" /><polyline clip-path="url(#clip822)" style="stroke:#000000; stroke-width:2; stroke-opacity:0.1; fill:none" points="
  147.848,1445.72 2352.76,1445.72 
  "/>
<polyline clip-path="url(#clip822)" style="stroke:#000000; stroke-width:2; stroke-opacity:0.1; fill:none" points="
  147.848,1106.28 2352.76,1106.28 
  "/>
<polyline clip-path="url(#clip822)" style="stroke:#000000; stroke-width:2; stroke-opacity:0.1; fill:none" points="
  147.848,766.846 2352.76,766.846 
  "/>
<polyline clip-path="url(#clip822)" style="stroke:#000000; stroke-width:2; stroke-opacity:0.1; fill:none" points="
  147.848,427.411 2352.76,427.411 
  "/>
<polyline clip-path="url(#clip822)" style="stroke:#000000; stroke-width:2; stroke-opacity:0.1; fill:none" points="
  147.848,87.9763 2352.76,87.9763 
  "/>
<polyline clip-path="url(#clip820)" style="stroke:#000000; stroke-width:4; stroke-opacity:1; fill:none" points="
  147.848,1486.45 147.848,47.2441 
  "/>
<polyline clip-path="url(#clip820)" style="stroke:#000000; stroke-width:4; stroke-opacity:1; fill:none" points="
  147.848,1445.72 174.307,1445.72 
  "/>
<polyline clip-path="url(#clip820)" style="stroke:#000000; stroke-width:4; stroke-opacity:1; fill:none" points="
  147.848,1106.28 174.307,1106.28 
  "/>
<polyline clip-path="url(#clip820)" style="stroke:#000000; stroke-width:4; stroke-opacity:1; fill:none" points="
  147.848,766.846 174.307,766.846 
  "/>
<polyline clip-path="url(#clip820)" style="stroke:#000000; stroke-width:4; stroke-opacity:1; fill:none" points="
  147.848,427.411 174.307,427.411 
  "/>
<polyline clip-path="url(#clip820)" style="stroke:#000000; stroke-width:4; stroke-opacity:1; fill:none" points="
  147.848,87.9763 174.307,87.9763 
  "/>
<path clip-path="url(#clip820)" d="M 0 0 M62.9365 1431.51 Q59.3254 1431.51 57.4967 1435.08 Q55.6912 1438.62 55.6912 1445.75 Q55.6912 1452.86 57.4967 1456.42 Q59.3254 1459.96 62.9365 1459.96 Q66.5707 1459.96 68.3763 1456.42 Q70.205 1452.86 70.205 1445.75 Q70.205 1438.62 68.3763 1435.08 Q66.5707 1431.51 62.9365 1431.51 M62.9365 1427.81 Q68.7467 1427.81 71.8022 1432.42 Q74.8809 1437 74.8809 1445.75 Q74.8809 1454.48 71.8022 1459.08 Q68.7467 1463.67 62.9365 1463.67 Q57.1264 1463.67 54.0477 1459.08 Q50.9921 1454.48 50.9921 1445.75 Q50.9921 1437 54.0477 1432.42 Q57.1264 1427.81 62.9365 1427.81 Z" fill="#000000" fill-rule="evenodd" fill-opacity="1" /><path clip-path="url(#clip820)" d="M 0 0 M79.9503 1457.12 L84.8345 1457.12 L84.8345 1463 L79.9503 1463 L79.9503 1457.12 Z" fill="#000000" fill-rule="evenodd" fill-opacity="1" /><path clip-path="url(#clip820)" d="M 0 0 M99.9039 1431.51 Q96.2928 1431.51 94.4641 1435.08 Q92.6586 1438.62 92.6586 1445.75 Q92.6586 1452.86 94.4641 1456.42 Q96.2928 1459.96 99.9039 1459.96 Q103.538 1459.96 105.344 1456.42 Q107.172 1452.86 107.172 1445.75 Q107.172 1438.62 105.344 1435.08 Q103.538 1431.51 99.9039 1431.51 M99.9039 1427.81 Q105.714 1427.81 108.77 1432.42 Q111.848 1437 111.848 1445.75 Q111.848 1454.48 108.77 1459.08 Q105.714 1463.67 99.9039 1463.67 Q94.0937 1463.67 91.0151 1459.08 Q87.9595 1454.48 87.9595 1445.75 Q87.9595 1437 91.0151 1432.42 Q94.0937 1427.81 99.9039 1427.81 Z" fill="#000000" fill-rule="evenodd" fill-opacity="1" /><path clip-path="url(#clip820)" d="M 0 0 M63.9319 1092.08 Q60.3208 1092.08 58.4921 1095.64 Q56.6865 1099.19 56.6865 1106.32 Q56.6865 1113.42 58.4921 1116.99 Q60.3208 1120.53 63.9319 1120.53 Q67.5661 1120.53 69.3717 1116.99 Q71.2004 1113.42 71.2004 1106.32 Q71.2004 1099.19 69.3717 1095.64 Q67.5661 1092.08 63.9319 1092.08 M63.9319 1088.38 Q69.742 1088.38 72.7976 1092.98 Q75.8763 1097.57 75.8763 1106.32 Q75.8763 1115.04 72.7976 1119.65 Q69.742 1124.23 63.9319 1124.23 Q58.1217 1124.23 55.043 1119.65 Q51.9875 1115.04 51.9875 1106.32 Q51.9875 1097.57 55.043 1092.98 Q58.1217 1088.38 63.9319 1088.38 Z" fill="#000000" fill-rule="evenodd" fill-opacity="1" /><path clip-path="url(#clip820)" d="M 0 0 M80.9457 1117.68 L85.8299 1117.68 L85.8299 1123.56 L80.9457 1123.56 L80.9457 1117.68 Z" fill="#000000" fill-rule="evenodd" fill-opacity="1" /><path clip-path="url(#clip820)" d="M 0 0 M90.9456 1089 L109.302 1089 L109.302 1092.94 L95.228 1092.94 L95.228 1101.41 Q96.2465 1101.06 97.265 1100.9 Q98.2835 1100.71 99.3021 1100.71 Q105.089 1100.71 108.469 1103.89 Q111.848 1107.06 111.848 1112.47 Q111.848 1118.05 108.376 1121.15 Q104.904 1124.23 98.5845 1124.23 Q96.4085 1124.23 94.14 1123.86 Q91.8947 1123.49 89.4873 1122.75 L89.4873 1118.05 Q91.5706 1119.19 93.7928 1119.74 Q96.015 1120.3 98.4919 1120.3 Q102.496 1120.3 104.834 1118.19 Q107.172 1116.08 107.172 1112.47 Q107.172 1108.86 104.834 1106.76 Q102.496 1104.65 98.4919 1104.65 Q96.6169 1104.65 94.7419 1105.07 Q92.89 1105.48 90.9456 1106.36 L90.9456 1089 Z" fill="#000000" fill-rule="evenodd" fill-opacity="1" /><path clip-path="url(#clip820)" d="M 0 0 M54.9736 780.191 L62.6124 780.191 L62.6124 753.825 L54.3023 755.492 L54.3023 751.233 L62.5661 749.566 L67.242 749.566 L67.242 780.191 L74.8809 780.191 L74.8809 784.126 L54.9736 784.126 L54.9736 780.191 Z" fill="#000000" fill-rule="evenodd" fill-opacity="1" /><path clip-path="url(#clip820)" d="M 0 0 M79.9503 778.246 L84.8345 778.246 L84.8345 784.126 L79.9503 784.126 L79.9503 778.246 Z" fill="#000000" fill-rule="evenodd" fill-opacity="1" /><path clip-path="url(#clip820)" d="M 0 0 M99.9039 752.645 Q96.2928 752.645 94.4641 756.209 Q92.6586 759.751 92.6586 766.881 Q92.6586 773.987 94.4641 777.552 Q96.2928 781.094 99.9039 781.094 Q103.538 781.094 105.344 777.552 Q107.172 773.987 107.172 766.881 Q107.172 759.751 105.344 756.209 Q103.538 752.645 99.9039 752.645 M99.9039 748.941 Q105.714 748.941 108.77 753.547 Q111.848 758.131 111.848 766.881 Q111.848 775.608 108.77 780.214 Q105.714 784.797 99.9039 784.797 Q94.0937 784.797 91.0151 780.214 Q87.9595 775.608 87.9595 766.881 Q87.9595 758.131 91.0151 753.547 Q94.0937 748.941 99.9039 748.941 Z" fill="#000000" fill-rule="evenodd" fill-opacity="1" /><path clip-path="url(#clip820)" d="M 0 0 M55.969 440.756 L63.6078 440.756 L63.6078 414.39 L55.2977 416.057 L55.2977 411.798 L63.5615 410.131 L68.2374 410.131 L68.2374 440.756 L75.8763 440.756 L75.8763 444.691 L55.969 444.691 L55.969 440.756 Z" fill="#000000" fill-rule="evenodd" fill-opacity="1" /><path clip-path="url(#clip820)" d="M 0 0 M80.9457 438.812 L85.8299 438.812 L85.8299 444.691 L80.9457 444.691 L80.9457 438.812 Z" fill="#000000" fill-rule="evenodd" fill-opacity="1" /><path clip-path="url(#clip820)" d="M 0 0 M90.9456 410.131 L109.302 410.131 L109.302 414.066 L95.228 414.066 L95.228 422.538 Q96.2465 422.191 97.265 422.029 Q98.2835 421.844 99.3021 421.844 Q105.089 421.844 108.469 425.015 Q111.848 428.187 111.848 433.603 Q111.848 439.182 108.376 442.284 Q104.904 445.362 98.5845 445.362 Q96.4085 445.362 94.14 444.992 Q91.8947 444.622 89.4873 443.881 L89.4873 439.182 Q91.5706 440.316 93.7928 440.872 Q96.015 441.427 98.4919 441.427 Q102.496 441.427 104.834 439.321 Q107.172 437.214 107.172 433.603 Q107.172 429.992 104.834 427.886 Q102.496 425.779 98.4919 425.779 Q96.6169 425.779 94.7419 426.196 Q92.89 426.613 90.9456 427.492 L90.9456 410.131 Z" fill="#000000" fill-rule="evenodd" fill-opacity="1" /><path clip-path="url(#clip820)" d="M 0 0 M58.5615 101.321 L74.8809 101.321 L74.8809 105.256 L52.9366 105.256 L52.9366 101.321 Q55.5986 98.5665 60.1819 93.9369 Q64.7883 89.2841 65.9689 87.9416 Q68.2143 85.4184 69.0939 83.6823 Q69.9967 81.9231 69.9967 80.2333 Q69.9967 77.4786 68.0522 75.7425 Q66.1309 74.0064 63.0291 74.0064 Q60.83 74.0064 58.3763 74.7703 Q55.9458 75.5342 53.168 77.0851 L53.168 72.3629 Q55.9921 71.2287 58.4458 70.65 Q60.8995 70.0713 62.9365 70.0713 Q68.3068 70.0713 71.5013 72.7565 Q74.6957 75.4416 74.6957 79.9323 Q74.6957 82.062 73.8855 83.9832 Q73.0985 85.8814 70.992 88.474 Q70.4133 89.1453 67.3115 92.3628 Q64.2096 95.5573 58.5615 101.321 Z" fill="#000000" fill-rule="evenodd" fill-opacity="1" /><path clip-path="url(#clip820)" d="M 0 0 M79.9503 99.3767 L84.8345 99.3767 L84.8345 105.256 L79.9503 105.256 L79.9503 99.3767 Z" fill="#000000" fill-rule="evenodd" fill-opacity="1" /><path clip-path="url(#clip820)" d="M 0 0 M99.9039 73.775 Q96.2928 73.775 94.4641 77.3398 Q92.6586 80.8814 92.6586 88.011 Q92.6586 95.1174 94.4641 98.6822 Q96.2928 102.224 99.9039 102.224 Q103.538 102.224 105.344 98.6822 Q107.172 95.1174 107.172 88.011 Q107.172 80.8814 105.344 77.3398 Q103.538 73.775 99.9039 73.775 M99.9039 70.0713 Q105.714 70.0713 108.77 74.6777 Q111.848 79.261 111.848 88.011 Q111.848 96.7378 108.77 101.344 Q105.714 105.928 99.9039 105.928 Q94.0937 105.928 91.0151 101.344 Q87.9595 96.7378 87.9595 88.011 Q87.9595 79.261 91.0151 74.6777 Q94.0937 70.0713 99.9039 70.0713 Z" fill="#000000" fill-rule="evenodd" fill-opacity="1" /><circle clip-path="url(#clip822)" cx="730.277" cy="87.9763" r="14" fill="#009af9" fill-rule="evenodd" fill-opacity="1" stroke="#000000" stroke-opacity="1" stroke-width="3.2"/>
<circle clip-path="url(#clip822)" cx="1250.3" cy="1445.72" r="14" fill="#009af9" fill-rule="evenodd" fill-opacity="1" stroke="#000000" stroke-opacity="1" stroke-width="3.2"/>
<circle clip-path="url(#clip822)" cx="1770.33" cy="766.846" r="14" fill="#009af9" fill-rule="evenodd" fill-opacity="1" stroke="#000000" stroke-opacity="1" stroke-width="3.2"/>
<path clip-path="url(#clip820)" d="
M1910.08 216.178 L2279.26 216.178 L2279.26 95.2176 L1910.08 95.2176  Z
  " fill="#ffffff" fill-rule="evenodd" fill-opacity="1"/>
<polyline clip-path="url(#clip820)" style="stroke:#000000; stroke-width:4; stroke-opacity:1; fill:none" points="
  1910.08,216.178 2279.26,216.178 2279.26,95.2176 1910.08,95.2176 1910.08,216.178 
  "/>
<circle clip-path="url(#clip820)" cx="2008.08" cy="155.698" r="23" fill="#009af9" fill-rule="evenodd" fill-opacity="1" stroke="#000000" stroke-opacity="1" stroke-width="5.12"/>
<path clip-path="url(#clip820)" d="M 0 0 M2110.35 169.089 L2110.35 182.839 L2106.07 182.839 L2106.07 147.052 L2110.35 147.052 L2110.35 150.987 Q2111.7 148.672 2113.73 147.561 Q2115.79 146.427 2118.64 146.427 Q2123.36 146.427 2126.3 150.177 Q2129.27 153.927 2129.27 160.038 Q2129.27 166.149 2126.3 169.899 Q2123.36 173.649 2118.64 173.649 Q2115.79 173.649 2113.73 172.538 Q2111.7 171.403 2110.35 169.089 M2124.84 160.038 Q2124.84 155.339 2122.9 152.677 Q2120.98 149.992 2117.6 149.992 Q2114.22 149.992 2112.28 152.677 Q2110.35 155.339 2110.35 160.038 Q2110.35 164.737 2112.28 167.422 Q2114.22 170.084 2117.6 170.084 Q2120.98 170.084 2122.9 167.422 Q2124.84 164.737 2124.84 160.038 Z" fill="#000000" fill-rule="evenodd" fill-opacity="1" /><path clip-path="url(#clip820)" d="M 0 0 M2143.78 150.038 Q2140.35 150.038 2138.36 152.723 Q2136.37 155.385 2136.37 160.038 Q2136.37 164.691 2138.34 167.376 Q2140.33 170.038 2143.78 170.038 Q2147.18 170.038 2149.17 167.353 Q2151.16 164.667 2151.16 160.038 Q2151.16 155.431 2149.17 152.746 Q2147.18 150.038 2143.78 150.038 M2143.78 146.427 Q2149.34 146.427 2152.51 150.038 Q2155.68 153.649 2155.68 160.038 Q2155.68 166.404 2152.51 170.038 Q2149.34 173.649 2143.78 173.649 Q2138.2 173.649 2135.03 170.038 Q2131.88 166.404 2131.88 160.038 Q2131.88 153.649 2135.03 150.038 Q2138.2 146.427 2143.78 146.427 Z" fill="#000000" fill-rule="evenodd" fill-opacity="1" /><path clip-path="url(#clip820)" d="M 0 0 M2160.15 147.052 L2164.4 147.052 L2164.4 172.978 L2160.15 172.978 L2160.15 147.052 M2160.15 136.959 L2164.4 136.959 L2164.4 142.353 L2160.15 142.353 L2160.15 136.959 Z" fill="#000000" fill-rule="evenodd" fill-opacity="1" /><path clip-path="url(#clip820)" d="M 0 0 M2190.42 157.329 L2190.42 172.978 L2186.16 172.978 L2186.16 157.468 Q2186.16 153.788 2184.73 151.959 Q2183.29 150.13 2180.42 150.13 Q2176.97 150.13 2174.98 152.33 Q2172.99 154.529 2172.99 158.325 L2172.99 172.978 L2168.71 172.978 L2168.71 147.052 L2172.99 147.052 L2172.99 151.08 Q2174.52 148.742 2176.58 147.584 Q2178.66 146.427 2181.37 146.427 Q2185.84 146.427 2188.13 149.205 Q2190.42 151.959 2190.42 157.329 Z" fill="#000000" fill-rule="evenodd" fill-opacity="1" /><path clip-path="url(#clip820)" d="M 0 0 M2199.1 139.691 L2199.1 147.052 L2207.88 147.052 L2207.88 150.362 L2199.1 150.362 L2199.1 164.436 Q2199.1 167.607 2199.96 168.51 Q2200.84 169.413 2203.5 169.413 L2207.88 169.413 L2207.88 172.978 L2203.5 172.978 Q2198.57 172.978 2196.7 171.149 Q2194.82 169.297 2194.82 164.436 L2194.82 150.362 L2191.7 150.362 L2191.7 147.052 L2194.82 147.052 L2194.82 139.691 L2199.1 139.691 Z" fill="#000000" fill-rule="evenodd" fill-opacity="1" /><path clip-path="url(#clip820)" d="M 0 0 M2228.87 147.816 L2228.87 151.843 Q2227.07 150.917 2225.12 150.455 Q2223.18 149.992 2221.09 149.992 Q2217.92 149.992 2216.33 150.964 Q2214.75 151.936 2214.75 153.88 Q2214.75 155.362 2215.89 156.218 Q2217.02 157.052 2220.45 157.816 L2221.9 158.14 Q2226.44 159.112 2228.34 160.894 Q2230.26 162.654 2230.26 165.825 Q2230.26 169.436 2227.39 171.542 Q2224.54 173.649 2219.54 173.649 Q2217.46 173.649 2215.19 173.232 Q2212.95 172.839 2210.45 172.028 L2210.45 167.63 Q2212.81 168.857 2215.1 169.482 Q2217.39 170.084 2219.64 170.084 Q2222.65 170.084 2224.27 169.066 Q2225.89 168.024 2225.89 166.149 Q2225.89 164.413 2224.71 163.487 Q2223.55 162.561 2219.59 161.704 L2218.11 161.357 Q2214.15 160.524 2212.39 158.811 Q2210.63 157.075 2210.63 154.066 Q2210.63 150.408 2213.22 148.418 Q2215.82 146.427 2220.59 146.427 Q2222.95 146.427 2225.03 146.774 Q2227.11 147.121 2228.87 147.816 Z" fill="#000000" fill-rule="evenodd" fill-opacity="1" /></svg>
