<?xml version="1.0" standalone="no"?>
<!DOCTYPE svg PUBLIC "-//W3C//DTD SVG 1.1//EN" "http://www.w3.org/Graphics/SVG/1.1/DTD/svg11.dtd" >
<svg xmlns="http://www.w3.org/2000/svg">
<metadata></metadata>
<defs>
<font id="salome_stencilregular" horiz-adv-x="868" >
<font-face units-per-em="2048" ascent="1536" descent="-512" />
<missing-glyph horiz-adv-x="538" />
<glyph unicode="&#x2e;&#x2e;&#x2e;" horiz-adv-x="1857" d="M76 176q0 95 57 156t162 61t163 -61t58 -156q0 -96 -58 -155.5t-163 -59.5t-162 59.5t-57 155.5zM709 176q0 95 57 156t162 61t163 -61t58 -156q0 -96 -58 -155.5t-163 -59.5t-162 59.5t-57 155.5zM1341 176q0 95 57.5 156t162.5 61t163 -61t58 -156q0 -96 -58 -155.5 t-163 -59.5t-162.5 59.5t-57.5 155.5z" />
<glyph unicode="ff" horiz-adv-x="1529" d="M35 0v18q59 0 89 38t30 106v807h-86v14h86q0 150 72.5 260t191.5 166.5t272 63.5v-17q-27 -15 -44.5 -48.5t-25 -82.5t-10 -90t-2.5 -96v-156h254v21q0 21 4 57q-78 25 -131 84q27 38 46.5 96.5t19.5 106.5q0 86 -39 110v17q178 0 295 -62q149 124 364 148v-15 q-45 -22 -74.5 -95t-29.5 -187v-281h194v-12h-194v-871q0 -46 24 -66t78 -20v-14q-136 6 -329 6q-87 0 -169.5 -1.5t-121.5 -2.5l-39 -2v14q50 0 76 38t26 106v811h-254v-865q0 -48 17.5 -67t68.5 -19v-18q-120 6 -313 6q-87 0 -173.5 -1.5t-129.5 -2.5zM1438 1235 q27 38 48 99.5t21 109.5q0 86 -37 104v17q65 0 127.5 -11.5t121 -35.5t94.5 -68.5t36 -103.5q0 -87 -55.5 -140t-153.5 -53q-59 0 -115.5 23.5t-86.5 58.5z" />
<glyph unicode="fi" horiz-adv-x="1492" d="M35 0v14q59 0 89 38t30 106v811h-86v14h86q0 239 156 394.5t403 183.5v-15q-45 -22 -75 -95.5t-30 -186.5v-281h170q138 0 281 10.5t217 20.5l74 10v-932q0 -78 80 -78v-14q-99 6 -306 6q-91 0 -177.5 -1.5t-127.5 -2.5l-41 -2v14q58 0 87.5 38t29.5 106v700 q0 59 -26.5 86t-82.5 27h-178v-871q0 -46 24.5 -66t78.5 -20v-14q-137 6 -330 6q-87 0 -173.5 -1.5t-129.5 -2.5zM737 1198q33 34 59.5 99.5t26.5 121.5q0 101 -43 131v15q50 0 99 -5.5t101 -17.5t96 -33.5t79.5 -50t55.5 -70.5t20 -92q0 -93 -68 -148.5t-184 -55.5 q-70 0 -139 31.5t-103 74.5z" />
<glyph unicode="fl" horiz-adv-x="1492" d="M35 0v14q59 0 89 38t30 106v811h-86v14h86q0 239 156 394.5t403 183.5v-15q-45 -22 -75 -95.5t-30 -186.5v-281h197v-12h-197v-871q0 -46 24.5 -66t78.5 -20v-14q-137 6 -330 6q-87 0 -173.5 -1.5t-129.5 -2.5zM735 1235q31 34 50.5 84.5t19.5 99.5q0 97 -25 131v15 q100 0 186.5 -27.5t137.5 -71.5q65 13 126.5 30.5t90.5 28.5l29 11v-1444q0 -78 80 -78v-14q-99 6 -306 6q-91 0 -177.5 -1.5t-127.5 -2.5l-41 -2v14q58 0 87.5 38t29.5 106v987q-44 8 -90 33t-70 57z" />
<glyph unicode="ffi" horiz-adv-x="2201" d="M35 0v18q59 0 89 38t30 106v807h-86v14h86q0 150 72.5 260t191.5 166.5t272 63.5v-17q-27 -15 -44.5 -48.5t-25 -82.5t-10 -90t-2.5 -96v-156h254v21q0 21 4 57q-78 25 -131 84q27 38 46.5 96.5t19.5 106.5q0 86 -39 110v17q178 0 295 -62q149 124 364 148v-15 q-45 -22 -74.5 -95t-29.5 -187v-281h170q138 0 281 10.5t216 20.5l74 10v-932q0 -78 80 -78v-14q-98 6 -305 6q-91 0 -177.5 -1.5t-127.5 -2.5l-41 -2v14q58 0 87.5 38t29.5 106v700q0 59 -26.5 86t-82.5 27h-178v-871q0 -46 24 -66t78 -20v-14q-136 6 -329 6 q-87 0 -169.5 -1.5t-121.5 -2.5l-39 -2v14q50 0 76 38t26 106v811h-254v-865q0 -48 17.5 -67t68.5 -19v-18q-120 6 -313 6q-87 0 -173.5 -1.5t-129.5 -2.5zM1446 1198q33 34 59.5 99.5t26.5 121.5q0 101 -43 131v15q77 0 150.5 -13.5t143.5 -42t113 -84t43 -129.5 q0 -93 -67.5 -148.5t-183.5 -55.5q-70 0 -139 31.5t-103 74.5z" />
<glyph unicode="ffl" horiz-adv-x="2201" d="M35 0v18q59 0 89 38t30 106v807h-86v14h86q0 150 72.5 260t191.5 166.5t272 63.5v-17q-27 -15 -44.5 -48.5t-25 -82.5t-10 -90t-2.5 -96v-156h254v21q0 21 4 57q-78 25 -131 84q27 38 46.5 96.5t19.5 106.5q0 86 -39 110v17q178 0 295 -62q149 124 364 148v-15 q-45 -22 -74.5 -95t-29.5 -187v-281h196v-12h-196v-871q0 -46 24 -66t78 -20v-14q-136 6 -329 6q-87 0 -169.5 -1.5t-121.5 -2.5l-39 -2v14q50 0 76 38t26 106v811h-254v-865q0 -48 17.5 -67t68.5 -19v-18q-120 6 -313 6q-87 0 -173.5 -1.5t-129.5 -2.5zM1438 1235 q27 38 48 99.5t21 109.5q0 86 -37 104v17q96 0 187.5 -25t142.5 -78q67 14 131.5 32.5t95.5 29.5l31 12v-1444q0 -78 80 -78v-14q-106 6 -307 6q-90 0 -176 -1.5t-127 -2.5l-41 -2v14q58 0 87.5 38t29.5 106v997q-50 6 -95.5 28t-70.5 52z" />
<glyph unicode="Th" horiz-adv-x="2672" d="M47 987l37 447q131 -2 334 -4v-13q-133 -21 -230 -143.5t-127 -292.5zM383 0v14q77 0 115.5 67t38.5 189v1157h213q128 0 266 3v-1233q0 -105 35.5 -144t117.5 -39v-14q-180 6 -393 6zM1133 1417v13q502 0 737 106v-1440q0 -78 80 -78v-18q-107 6 -308 6q-90 0 -176 -1.5 t-127 -2.5l-41 -2v18q58 0 87.5 38t29.5 106v989q0 147 -60.5 202.5t-221.5 63.5zM1946 868v15q34 15 95.5 54t117 63t112.5 24q124 0 191 -74.5t67 -214.5v-612q0 -66 25 -87.5t88 -21.5v-14q-135 6 -338 6q-84 0 -160.5 -1.5t-110.5 -2.5l-34 -2v14q41 0 58.5 22t17.5 75 v677q0 43 -21 68t-53 25q-20 0 -55 -13z" />
<glyph unicode="fj" horiz-adv-x="1492" d="M35 0v14q59 0 89 38t30 106v811h-86v14h86q0 239 156 394.5t403 183.5v-15q-45 -22 -75 -95.5t-30 -186.5v-281h170q138 0 281 10.5t217 20.5l74 10v-903q0 -151 -47 -259.5t-158 -178.5q-64 -40 -167.5 -66.5t-197 -52.5t-145.5 -66l-10 10q23 23 68.5 57t83 68.5 t61.5 75.5q38 66 47.5 140t9.5 210v803q0 59 -26 84t-83 25h-178v-871q0 -46 24.5 -66t78.5 -20v-14q-137 6 -330 6q-87 0 -173.5 -1.5t-129.5 -2.5zM737 1198q33 34 59.5 99.5t26.5 121.5q0 101 -43 131v15q50 0 99 -5.5t101 -17.5t96 -33.5t79.5 -50t55.5 -70.5t20 -92 q0 -93 -68 -148.5t-184 -55.5q-70 0 -139 31.5t-103 74.5z" />
<glyph unicode="ffj" horiz-adv-x="2201" d="M35 0v18q59 0 89 38t30 106v807h-86v14h86q0 150 72.5 260t191.5 166.5t272 63.5v-17q-27 -15 -44.5 -48.5t-25 -82.5t-10 -90t-2.5 -96v-156h254v21q0 21 4 57q-78 25 -131 84q27 38 46.5 96.5t19.5 106.5q0 86 -39 110v17q178 0 295 -62q149 124 364 148v-15 q-45 -22 -74.5 -95t-29.5 -187v-281h170q138 0 281 10.5t216 20.5l74 10v-903q0 -151 -47 -259.5t-158 -178.5q-64 -40 -167.5 -66.5t-197 -52.5t-145.5 -66l-10 10q23 23 68.5 57t83 68.5t61.5 75.5q38 66 48 141t10 209v803q0 59 -26 84t-83 25h-178v-871q0 -46 24 -66 t78 -20v-14q-136 6 -329 6q-87 0 -169.5 -1.5t-121.5 -2.5l-39 -2v14q50 0 76 38t26 106v811h-254v-865q0 -48 17.5 -67t68.5 -19v-18q-120 6 -313 6q-87 0 -173.5 -1.5t-129.5 -2.5zM1446 1198q33 34 59.5 99.5t26.5 121.5q0 101 -43 131v15q77 0 150.5 -13.5t143.5 -42 t113 -84t43 -129.5q0 -93 -67.5 -148.5t-183.5 -55.5q-70 0 -139 31.5t-103 74.5z" />
<glyph unicode="fb" horiz-adv-x="2101" d="M35 0v14q59 0 89 38t30 106v811h-86v14h86q0 242 149 396.5t393 181.5v-15q-40 -16 -64 -106t-24 -246v-211h197v-12h-197v-871q0 -45 27.5 -65.5t85.5 -20.5v-14q-147 6 -340 6q-87 0 -173.5 -1.5t-129.5 -2.5zM729 1235q27 38 48.5 99.5t21.5 109.5q0 86 -37 104v17 q96 0 187.5 -25t142.5 -78q67 14 131.5 32.5t95.5 29.5l31 12v-1372q0 -166 69 -187v-18q-195 0 -352 98l-223 -73l-8 12q36 35 47.5 90t11.5 141v928q-50 6 -95.5 28t-70.5 52zM1415 889v16q8 5 66.5 45.5t103 57t101.5 16.5q167 0 272.5 -133t105.5 -330 q0 -249 -156.5 -414.5t-422.5 -185.5v16q96 60 96 498q0 121 -10.5 208t-29.5 132t-39.5 64.5t-45.5 19.5q-21 0 -41 -10z" />
<glyph unicode="ffb" horiz-adv-x="2809" d="M35 0v18q59 0 89 38t30 106v807h-86v14h86q0 150 72.5 260t191.5 166.5t272 63.5v-17q-27 -15 -44.5 -48.5t-25 -82.5t-10 -90t-2.5 -96v-156h254v21q0 21 4 57q-78 25 -131 84q27 38 46.5 96.5t19.5 106.5q0 86 -39 110v17q178 0 295 -62q149 124 364 148v-15 q-45 -22 -74.5 -95t-29.5 -187v-281h196v-12h-196v-871q0 -46 24 -66t78 -20v-14q-136 6 -329 6q-87 0 -169.5 -1.5t-121.5 -2.5l-39 -2v14q50 0 76 38t26 106v811h-254v-865q0 -48 17.5 -67t68.5 -19v-18q-120 6 -313 6q-87 0 -173.5 -1.5t-129.5 -2.5zM1438 1235 q27 38 48 99.5t21 109.5q0 86 -37 104v17q96 0 187.5 -25t142.5 -78q67 14 131.5 32.5t95.5 29.5l31 12v-1372q0 -166 70 -187v-18q-195 0 -352 98l-224 -73l-8 12q36 35 48 90.5t12 140.5v928q-50 6 -95.5 28t-70.5 52zM2124 889v16q18 10 54.5 35.5t61.5 41t67.5 29 t86.5 13.5q111 0 198 -62t134 -167t47 -234q0 -249 -157 -414.5t-423 -185.5v16q97 61 97 498q0 121 -10.5 208t-29.5 132t-39.5 64.5t-45.5 19.5q-21 0 -41 -10z" />
<glyph unicode="fh" horiz-adv-x="2162" d="M35 0v14q59 0 89 38t30 106v811h-86v14h86q0 242 149 396.5t393 181.5v-15q-40 -16 -64 -106t-24 -246v-211h197v-12h-197v-871q0 -45 27.5 -65.5t85.5 -20.5v-14q-147 6 -340 6q-87 0 -173.5 -1.5t-129.5 -2.5zM729 1235q27 38 48.5 99.5t21.5 109.5q0 86 -37 104v17 q96 0 187.5 -25t142.5 -78q67 14 131.5 32.5t95.5 29.5l31 12v-1444q0 -78 80 -78v-14q-107 6 -308 6q-90 0 -176 -1.5t-127 -2.5l-41 -2v14q58 0 87.5 38t29.5 106v997q-50 6 -95.5 28t-70.5 52zM1436 868v15q34 15 95.5 54t117 63t112.5 24q124 0 191 -74.5t67 -214.5 v-612q0 -66 25 -87.5t88 -21.5v-14q-135 6 -338 6q-84 0 -160.5 -1.5t-110.5 -2.5l-34 -2v14q41 0 58.5 22t17.5 75v677q0 43 -21 68t-53 25q-20 0 -55 -13z" />
<glyph unicode="ffh" horiz-adv-x="2871" d="M35 0v18q59 0 89 38t30 106v807h-86v14h86q0 150 72.5 260t191.5 166.5t272 63.5v-17q-27 -15 -44.5 -48.5t-25 -82.5t-10 -90t-2.5 -96v-156h254v21q0 21 4 57q-78 25 -131 84q27 38 46.5 96.5t19.5 106.5q0 86 -39 110v17q178 0 295 -62q149 124 364 148v-15 q-45 -22 -74.5 -95t-29.5 -187v-281h196v-12h-196v-871q0 -46 24 -66t78 -20v-14q-136 6 -329 6q-87 0 -169.5 -1.5t-121.5 -2.5l-39 -2v14q50 0 76 38t26 106v811h-254v-865q0 -48 17.5 -67t68.5 -19v-18q-120 6 -313 6q-87 0 -173.5 -1.5t-129.5 -2.5zM1438 1235 q27 38 48 99.5t21 109.5q0 86 -37 104v17q96 0 187.5 -25t142.5 -78q67 14 131.5 32.5t95.5 29.5l31 12v-1444q0 -78 80 -78v-14q-106 6 -307 6q-90 0 -176 -1.5t-127 -2.5l-41 -2v14q58 0 87.5 38t29.5 106v997q-50 6 -95.5 28t-70.5 52zM2144 868v15q34 15 96 54t117.5 63 t112.5 24q124 0 191 -74.5t67 -214.5v-612q0 -66 25 -87.5t88 -21.5v-14q-135 6 -338 6q-84 0 -160.5 -1.5t-110.5 -2.5l-34 -2v14q41 0 58 22t17 75v677q0 43 -20.5 68t-52.5 25q-21 0 -56 -13z" />
<glyph unicode="fk" horiz-adv-x="2195" d="M35 0v14q59 0 89 38t30 106v811h-86v14h86q0 242 149 396.5t393 181.5v-15q-40 -16 -64 -106t-24 -246v-211h197v-12h-197v-871q0 -45 27.5 -65.5t85.5 -20.5v-14q-147 6 -340 6q-87 0 -173.5 -1.5t-129.5 -2.5zM729 1235q27 38 48.5 99.5t21.5 109.5q0 86 -37 104v17 q96 0 187.5 -25t142.5 -78q67 14 131.5 32.5t95.5 29.5l31 12v-1444q0 -78 80 -78v-14q-107 6 -308 6q-90 0 -176 -1.5t-127 -2.5l-41 -2v14q58 0 87.5 38t29.5 106v997q-50 6 -95.5 28t-70.5 52zM1401 432l268 318l389 -592q41 -62 73.5 -89.5t74.5 -27.5v-10 q-13 -8 -36.5 -20t-98.5 -32t-152 -20q-139 0 -226.5 55.5t-156.5 178.5zM1569 969v14h540v-14q-138 0 -219 -39.5t-172 -138.5l-8 10q31 39 31 80t-43.5 64.5t-128.5 23.5z" />
<glyph unicode="ffk" horiz-adv-x="2904" d="M35 0v18q59 0 89 38t30 106v807h-86v14h86q0 150 72.5 260t191.5 166.5t272 63.5v-17q-27 -15 -44.5 -48.5t-25 -82.5t-10 -90t-2.5 -96v-156h254v21q0 21 4 57q-78 25 -131 84q27 38 46.5 96.5t19.5 106.5q0 86 -39 110v17q178 0 295 -62q149 124 364 148v-15 q-45 -22 -74.5 -95t-29.5 -187v-281h196v-12h-196v-871q0 -46 24 -66t78 -20v-14q-136 6 -329 6q-87 0 -169.5 -1.5t-121.5 -2.5l-39 -2v14q50 0 76 38t26 106v811h-254v-865q0 -48 17.5 -67t68.5 -19v-18q-120 6 -313 6q-87 0 -173.5 -1.5t-129.5 -2.5zM1438 1235 q27 38 48 99.5t21 109.5q0 86 -37 104v17q96 0 187.5 -25t142.5 -78q67 14 131.5 32.5t95.5 29.5l31 12v-1444q0 -78 80 -78v-14q-106 6 -307 6q-90 0 -176 -1.5t-127 -2.5l-41 -2v14q58 0 87.5 38t29.5 106v997q-50 6 -95.5 28t-70.5 52zM2109 432l269 318l389 -592 q41 -63 73 -90t74 -27v-10q-13 -8 -36 -20t-98 -32t-152 -20q-139 0 -226.5 55.5t-156.5 178.5zM2277 969v14h541v-14q-138 0 -219 -39.5t-172 -138.5l-8 10q30 38 30 80q0 41 -43.5 64.5t-128.5 23.5z" />
<glyph unicode="fr" horiz-adv-x="1894" d="M35 0v14q59 0 89 38t30 106v811h-86v14h86q0 242 149 396.5t393 181.5v-15q-40 -16 -64 -106t-24 -246v-211h197q133 1 269 11t206 20l70 10v-918q0 -47 25.5 -69.5t82.5 -22.5v-14q-127 6 -334 6q-91 0 -177.5 -1.5t-127.5 -2.5l-41 -2v14q58 0 87.5 38t29.5 106v706 q0 58 -27.5 82.5t-85.5 24.5h-174v-871q0 -45 27.5 -65.5t85.5 -20.5v-14q-147 6 -340 6q-87 0 -173.5 -1.5t-129.5 -2.5zM729 1235q27 38 48.5 99.5t21.5 109.5q0 86 -37 104v17q65 0 127.5 -11.5t121 -35.5t94.5 -68.5t36 -103.5q0 -87 -55.5 -140t-153.5 -53 q-59 0 -116 23.5t-87 58.5zM1430 856q20 12 49.5 43t53.5 57t62 47t80 21q87 0 143 -57t56 -140q0 -89 -57.5 -153t-155.5 -64q-35 0 -74 12t-59 29q24 48 24 94q0 43 -22 72t-64 29q-19 0 -34 -6z" />
<glyph unicode="ffr" horiz-adv-x="2603" d="M35 0v18q59 0 89 38t30 106v807h-86v14h86q0 150 72.5 260t191.5 166.5t272 63.5v-17q-27 -15 -44.5 -48.5t-25 -82.5t-10 -90t-2.5 -96v-156h254v21q0 21 4 57q-83 28 -131 84q27 38 46.5 96.5t19.5 106.5q0 86 -39 110v17q176 0 289 -60q140 122 354 146v-15 q-40 -16 -64 -106t-24 -246v-211h196q133 1 269 11t206 20l70 10v-918q0 -47 26 -69.5t83 -22.5v-14q-127 6 -334 6q-91 0 -177.5 -1.5t-127.5 -2.5l-41 -2v14q58 0 87.5 38t29.5 106v706q0 58 -27.5 82.5t-85.5 24.5h-174v-871q0 -45 27.5 -65.5t85.5 -20.5v-14 q-147 6 -340 6q-87 0 -169.5 -1.5t-121.5 -2.5l-39 -2v14q50 0 76 38t26 106v811h-254v-865q0 -48 17.5 -67t68.5 -19v-18q-120 6 -313 6q-87 0 -173.5 -1.5t-129.5 -2.5zM1438 1235q27 38 48 99.5t21 109.5q0 86 -37 104v17q65 0 127.5 -11.5t121 -35.5t94.5 -68.5 t36 -103.5q0 -87 -55.5 -140t-153.5 -53q-59 0 -115.5 23.5t-86.5 58.5zM2138 856q20 12 49.5 43t53.5 57t62.5 47t80.5 21q87 0 143 -57t56 -140q0 -89 -57.5 -153t-155.5 -64q-35 0 -74.5 12t-59.5 29q25 50 25 94q0 43 -22 72t-64 29q-20 0 -35 -6z" />
<glyph unicode="ft" horiz-adv-x="1564" d="M35 0v14q59 0 89 38t30 106v811h-86v14h86q0 242 149 396.5t393 181.5v-15q-40 -16 -64 -106t-24 -246v-211h232q144 0 277 82t218 205l13 -4v-283h125v-14h-125v-789q0 -47 23.5 -70.5t58.5 -23.5q58 0 104 37l8 -8q-52 -73 -146 -114.5t-204 -41.5q-142 0 -219.5 65.5 t-77.5 221.5v725h-287v-871q0 -45 27.5 -65.5t85.5 -20.5v-14q-147 6 -340 6q-87 0 -173.5 -1.5t-129.5 -2.5zM729 1235q27 38 48.5 99.5t21.5 109.5q0 86 -37 104v17q65 0 127.5 -11.5t121 -35.5t94.5 -68.5t36 -103.5q0 -87 -55.5 -140t-153.5 -53q-59 0 -116 23.5 t-87 58.5z" />
<glyph unicode="fft" horiz-adv-x="2271" d="M35 0v18q59 0 89 38t30 106v807h-86v14h86q0 150 72.5 260t191.5 166.5t272 63.5v-17q-27 -15 -44.5 -48.5t-25 -82.5t-10 -90t-2.5 -96v-156h254v21q0 34 4 57q-83 28 -131 84q27 38 46.5 96.5t19.5 106.5q0 86 -39 110v17q176 0 289 -60q144 122 354 146v-15 q-40 -16 -64 -106t-24 -246v-211h237q143 0 274 81.5t216 205.5l12 -4v-283h125v-14h-125v-789q0 -47 23.5 -70.5t58.5 -23.5q59 0 105 37l8 -8q-52 -73 -146 -114.5t-204 -41.5q-142 0 -219.5 65.5t-77.5 221.5v725h-287v-860q0 -97 113 -97v-14q-147 6 -340 6 q-87 0 -169.5 -1.5t-121.5 -2.5l-39 -2v14q50 0 76 38t26 106v811h-254v-865q0 -48 17.5 -67t68.5 -19v-18q-120 6 -313 6q-87 0 -173.5 -1.5t-129.5 -2.5zM1438 1235q27 38 48 99.5t21 109.5q0 86 -37 104v17q65 0 127.5 -11.5t121 -35.5t94.5 -68.5t36 -103.5 q0 -87 -55.5 -140t-153.5 -53q-59 0 -115.5 23.5t-86.5 58.5z" />
<glyph unicode="fu" horiz-adv-x="2183" d="M35 0v14q59 0 89 38t30 106v811h-86v14h86q0 242 149 396.5t393 181.5v-15q-40 -16 -64 -106t-24 -246v-211h207l549 18l16 -16v-790q0 -43 21 -68t53 -25q20 0 55 13v-15q-37 -15 -81 -42t-74.5 -47.5t-76 -36t-93.5 -15.5q-124 0 -191 74.5t-67 214.5v612 q0 68 -24 89.5t-87 21.5h-207v-871q0 -45 27.5 -65.5t85.5 -20.5v-14q-147 6 -340 6q-87 0 -173.5 -1.5t-129.5 -2.5zM729 1235q27 38 48.5 99.5t21.5 109.5q0 86 -37 104v17q65 0 127.5 -11.5t121 -35.5t94.5 -68.5t36 -103.5q0 -87 -55.5 -140t-153.5 -53q-59 0 -116 23.5 t-87 58.5zM1507 971v12l516 18l17 -16v-807q0 -58 27 -81t85 -23l5 -15q-87 0 -176 -10.5t-154 -25t-117 -29t-79 -24.5l-27 -11l-19 160v774q0 78 -78 78z" />
<glyph unicode="ffu" horiz-adv-x="2889" d="M35 0v18q59 0 89 38t30 106v807h-86v14h86q0 150 72.5 260t191.5 166.5t272 63.5v-17q-27 -15 -44.5 -48.5t-25 -82.5t-10 -90t-2.5 -96v-156h254v21q0 21 4 57q-78 25 -131 84q27 38 46.5 96.5t19.5 106.5q0 86 -39 110v17q178 0 295 -62q149 124 364 148v-15 q-45 -22 -74.5 -95t-29.5 -187v-281h209l545 18l16 -16v-790q0 -43 21 -68t53 -25q20 0 55 13v-15q-37 -15 -81 -42t-75 -47.5t-76.5 -36t-93.5 -15.5q-124 0 -191 74.5t-67 214.5v612q0 66 -23 87.5t-83 23.5h-209v-871q0 -46 24 -66t78 -20v-14q-136 6 -329 6 q-87 0 -169.5 -1.5t-121.5 -2.5l-39 -2v14q50 0 76 38t26 106v811h-254v-865q0 -48 17.5 -67t68.5 -19v-18q-120 6 -313 6q-87 0 -173.5 -1.5t-129.5 -2.5zM1438 1235q27 38 48 99.5t21 109.5q0 86 -37 104v17q65 0 127.5 -11.5t121 -35.5t94.5 -68.5t36 -103.5 q0 -87 -55.5 -140t-153.5 -53q-59 0 -115.5 23.5t-86.5 58.5zM2214 971v12l516 18l16 -16v-807q0 -58 27.5 -81t85.5 -23l4 -15q-87 0 -176 -10.5t-154 -25t-117 -29t-79 -24.5l-27 -11l-18 160v774q0 78 -78 78z" />
<glyph unicode="fy" horiz-adv-x="2041" d="M35 0v14q59 0 89 38t30 106v811h-86v14h86q0 242 149 396.5t393 181.5v-15q-40 -16 -64 -106t-24 -246v-211h840v-18q-40 0 -60 -21.5t-20 -54.5t25 -103l213 -591l-68 -195h-319l-347 864q-22 55 -51.5 81t-91.5 26h-121v-871q0 -45 27.5 -65.5t85.5 -20.5v-14 q-147 6 -340 6q-87 0 -173.5 -1.5t-129.5 -2.5zM729 1235q27 38 48.5 99.5t21.5 109.5q0 86 -37 104v17q65 0 127.5 -11.5t121 -35.5t94.5 -68.5t36 -103.5q0 -87 -55.5 -140t-153.5 -53q-59 0 -116 23.5t-87 58.5zM866 -256q0 88 61.5 147.5t164.5 59.5q97 0 150.5 -57 t53.5 -123q-62 -13 -97.5 -50.5t-35.5 -82.5q0 -31 18 -51.5t48 -20.5q59 0 112.5 61t96.5 156l14 -8q-26 -57 -53.5 -100t-65 -80.5t-86 -57.5t-106.5 -20q-128 0 -201.5 64t-73.5 163zM1614 969v14q90 -8 219 -8q49 0 95.5 2t68.5 4l22 2v-14q-150 0 -233 -252l-35 -107 l-14 4q41 139 41 199q0 69 -39 112.5t-125 43.5z" />
<glyph unicode="ffy" horiz-adv-x="2742" d="M35 0v18q59 0 89 38t30 106v807h-86v14h86q0 150 72.5 260t191.5 166.5t272 63.5v-17q-27 -15 -44.5 -48.5t-25 -82.5t-10 -90t-2.5 -96v-156h254v21q0 21 4 57q-83 28 -131 84q27 38 46.5 96.5t19.5 106.5q0 86 -39 110v17q176 0 289 -60q140 122 354 146v-15 q-40 -16 -64 -106t-24 -246v-211h840v-18q-40 0 -60 -21.5t-20 -54.5q0 -35 24 -103l213 -591l-67 -195h-320l-346 864q-22 55 -51.5 81t-91.5 26h-121v-871q0 -45 27.5 -65.5t85.5 -20.5v-14q-147 6 -340 6q-87 0 -169.5 -1.5t-121.5 -2.5l-39 -2v14q50 0 76 38t26 106v811 h-254v-865q0 -48 17.5 -67t68.5 -19v-18q-120 6 -313 6q-87 0 -173.5 -1.5t-129.5 -2.5zM1438 1235q27 38 48 99.5t21 109.5q0 86 -37 104v17q65 0 127.5 -11.5t121 -35.5t94.5 -68.5t36 -103.5q0 -87 -55.5 -140t-153.5 -53q-59 0 -115.5 23.5t-86.5 58.5zM1569 -256 q0 88 61 147.5t164 59.5q97 0 151 -57t54 -123q-62 -13 -97.5 -50.5t-35.5 -82.5q0 -32 17.5 -52t47.5 -20q59 0 112.5 61t96.5 156l14 -8q-26 -57 -53.5 -100t-65 -80.5t-86 -57.5t-106.5 -20q-128 0 -201 64t-73 163zM2316 969v14q90 -8 219 -8q49 0 96 2t69 4l22 2v-14 q-151 0 -234 -252l-34 -107l-15 4q41 139 41 199q0 69 -39 112.5t-125 43.5z" />
<glyph unicode="f&#xe4;" horiz-adv-x="2035" d="M35 0v14q59 0 89 38t30 106v811h-86v14h86q0 234 169 389t455 184v-16q-170 -62 -170 -428v-129h217v-14h-217v-869q0 -45 27.5 -65.5t85.5 -20.5v-14q-147 6 -340 6q-87 0 -173.5 -1.5t-129.5 -2.5zM840 180q0 148 143 235t408 97l-2 -18q-53 -31 -76 -106.5t-23 -166.5 q0 -72 26.5 -117t72.5 -45q8 0 22 3.5t16 3.5l7 -13q-14 -5 -78.5 -34.5t-120.5 -44.5t-119 -15q-119 0 -197.5 55.5t-78.5 165.5zM907 756q0 69 61.5 126t154 90t204.5 46v-14q-37 -10 -58.5 -52t-21.5 -96q0 -109 60 -184q-40 -31 -103 -51.5t-114 -20.5q-83 0 -133 43.5 t-50 112.5zM909 1548v15q110 0 199 -24t143.5 -64t83.5 -88.5t29 -100.5q0 -77 -46 -125.5t-134 -48.5q-83 0 -128.5 48.5t-45.5 125.5q0 113 -21.5 182t-79.5 80zM1393 1008v14q18 2 43 2q258 0 362.5 -97.5t104.5 -314.5q0 -104 -10.5 -235.5t-10.5 -196.5q0 -133 78 -133 q33 0 59 33l9 -6q-29 -51 -100.5 -80t-164.5 -29q-168 0 -239.5 87.5t-71.5 277.5q0 63 8 216.5t8 262.5q0 101 -14.5 147t-60.5 52zM1479 1286q0 76 45.5 126t128.5 50q88 0 134 -49.5t46 -126.5t-46 -125.5t-134 -48.5q-83 0 -128.5 48.5t-45.5 125.5z" />
<glyph unicode="ff&#xe4;" horiz-adv-x="2742" d="M35 0v14q59 0 89 38t30 106v811h-86v14h86q0 119 39 209t112 147.5t169.5 89.5t217.5 41v-14q-47 -24 -65.5 -108t-18.5 -244v-121h252v10q0 43 4 66q-83 27 -129 86q27 38 46.5 96.5t19.5 106.5q0 95 -35 114v13q190 0 305 -66q160 120 414 147v-16q-170 -62 -170 -428 v-129h217v-14h-217v-869q0 -45 27 -65.5t85 -20.5v-14q-147 6 -340 6q-87 0 -173.5 -1.5t-129.5 -2.5l-43 -2v14q59 0 89 38t30 106v811h-252v-869q0 -48 17.5 -67t68.5 -19v-14q-120 6 -313 6q-87 0 -173.5 -1.5t-129.5 -2.5zM1546 180q0 148 143 235t408 97l-2 -18 q-98 -57 -98 -273q0 -72 26 -117t72 -45q8 0 23 3.5t16 3.5l6 -13q-14 -5 -78 -34.5t-120 -44.5t-119 -15q-120 0 -198.5 55.5t-78.5 165.5zM1614 756q0 69 61.5 126t154 90t204.5 46v-14q-37 -10 -58.5 -52t-21.5 -96q0 -111 59 -184q-40 -31 -103 -51.5t-114 -20.5 q-83 0 -132.5 43t-49.5 113zM1616 1548v15q110 0 199 -24t143.5 -64t83.5 -88.5t29 -100.5q0 -77 -46 -125.5t-135 -48.5q-83 0 -128.5 48.5t-45.5 125.5q0 114 -21 182.5t-79 79.5zM2099 1008v14q18 2 43 2q258 0 362.5 -97.5t104.5 -314.5q0 -104 -10 -235.5t-10 -196.5 q0 -133 77 -133q34 0 60 33l8 -6q-29 -51 -100 -80t-164 -29q-168 0 -239.5 87.5t-71.5 277.5q0 63 8 216.5t8 262.5q0 100 -15 146.5t-61 52.5zM2185 1286q0 76 45.5 126t128.5 50q88 0 134.5 -50t46.5 -126q0 -77 -46 -125.5t-135 -48.5q-83 0 -128.5 48.5t-45.5 125.5z " />
<glyph unicode="f&#xeb;" horiz-adv-x="2019" d="M35 0v14q59 0 89 38t30 106v811h-86v14h86q0 234 169 389t455 184v-16q-170 -62 -170 -428v-129h217v-14h-217v-869q0 -45 27.5 -65.5t85.5 -20.5v-14q-147 6 -340 6q-87 0 -173.5 -1.5t-129.5 -2.5zM856 467q0 107 44.5 205.5t121.5 172t186 121.5t232 56v-18 q-105 -47 -105 -467q0 -463 293 -463q153 0 281 88l8 -8q-84 -99 -199.5 -147t-275.5 -48q-282 0 -434 137t-152 371zM909 1548v15q110 0 199 -24t143.5 -64t83.5 -88.5t29 -100.5q0 -77 -46 -125.5t-134 -48.5q-83 0 -128.5 48.5t-45.5 125.5q0 113 -21.5 182t-79.5 80z M1409 600v14l160 17q8 55 8 127q0 97 -20.5 168t-53.5 80v18q211 -5 340 -106.5t139 -292.5l-20 -25h-553zM1470 1286q0 76 46 126t129 50q88 0 134 -49.5t46 -126.5t-46 -125.5t-134 -48.5q-83 0 -129 48.5t-46 125.5z" />
<glyph unicode="ff&#xeb;" horiz-adv-x="2723" d="M35 0v14q59 0 89 38t30 106v811h-86v14h86q0 119 39 209t112 147.5t169.5 89.5t217.5 41v-14q-47 -24 -65.5 -108t-18.5 -244v-121h252v10q0 43 4 66q-83 27 -129 86q27 38 46.5 96.5t19.5 106.5q0 95 -35 114v13q190 0 305 -66q160 120 414 147v-16q-170 -62 -170 -428 v-129h217v-14h-217v-869q0 -45 27 -65.5t85 -20.5v-14q-147 6 -340 6q-87 0 -173.5 -1.5t-129.5 -2.5l-43 -2v14q59 0 89 38t30 106v811h-252v-869q0 -48 17.5 -67t68.5 -19v-14q-120 6 -313 6q-87 0 -173.5 -1.5t-129.5 -2.5zM1561 467q0 143 75.5 266t209.5 200.5 t298 88.5v-18q-56 -25 -80 -142.5t-24 -324.5q0 -463 293 -463q152 0 280 88l8 -8q-84 -99 -199.5 -147t-275.5 -48q-282 0 -433.5 137t-151.5 371zM1616 1548v15q110 0 199 -24t143.5 -64t83.5 -88.5t29 -100.5q0 -77 -46 -125.5t-135 -48.5q-83 0 -128.5 48.5t-45.5 125.5 q0 114 -21 182.5t-79 79.5zM2114 600v14l159 17q8 55 8 127q0 98 -20 168.5t-53 79.5v18q211 -5 340 -106.5t139 -292.5l-21 -25h-552zM2175 1286q0 76 45.5 126t128.5 50q88 0 134 -49.5t46 -126.5t-46 -125.5t-134 -48.5q-83 0 -128.5 48.5t-45.5 125.5z" />
<glyph unicode="f&#xef;" horiz-adv-x="1574" d="M35 0v14q59 0 89 38t30 106v809h-86v16h86q0 256 150 408t421 172v-17q-117 -44 -117 -352v-211h260q136 0 277 10.5t214 20.5l73 10v-932q0 -78 79 -78v-14q-98 6 -305 6q-91 0 -177.5 -1.5t-127.5 -2.5l-41 -2v14q58 0 87.5 38t29.5 106v702q0 59 -26 84t-83 25h-260 v-869q0 -45 27.5 -65.5t85.5 -20.5v-14q-147 6 -340 6q-87 0 -173.5 -1.5t-129.5 -2.5zM791 1286q0 47 20 112.5t20 90.5q0 48 -26 61v15q85 -4 152 -29t107 -64t60.5 -86.5t20.5 -99.5q0 -77 -46 -125.5t-134 -48.5q-83 0 -128.5 48.5t-45.5 125.5zM1251 1286 q0 76 45.5 126t128.5 50q88 0 134.5 -50t46.5 -126q0 -77 -46 -125.5t-135 -48.5q-83 0 -128.5 48.5t-45.5 125.5z" />
<glyph unicode="ff&#xef;" horiz-adv-x="2281" d="M35 0v14q59 0 89 38t30 106v811h-86v14h86q0 119 39 209t112 147.5t169.5 89.5t217.5 41v-14q-47 -24 -65.5 -108t-18.5 -244v-121h252v10q0 43 4 66q-83 27 -129 86q27 38 46.5 96.5t19.5 106.5q0 95 -35 114v13q167 0 278 -54q149 124 388 142v-17q-117 -44 -117 -352 v-211h260q136 0 277 10.5t214 20.5l72 10v-932q0 -78 80 -78v-14q-98 6 -305 6q-91 0 -177.5 -1.5t-127.5 -2.5l-41 -2v14q58 0 87 38t29 106v702q0 59 -25.5 84t-82.5 25h-260v-873q0 -45 27 -63.5t85 -18.5v-14q-147 6 -340 6q-87 0 -173.5 -1.5t-129.5 -2.5l-43 -2v14 q59 0 89 36.5t30 103.5v815h-252v-869q0 -48 17.5 -67t68.5 -19v-14q-120 6 -313 6q-87 0 -173.5 -1.5t-129.5 -2.5zM1497 1286q0 47 20.5 112.5t20.5 90.5q0 47 -27 61v15q85 -4 152 -29t107 -64t60.5 -86.5t20.5 -99.5q0 -77 -46 -125.5t-134 -48.5q-83 0 -128.5 48.5 t-45.5 125.5zM1958 1286q0 76 45.5 126t128.5 50q88 0 134 -49.5t46 -126.5t-46 -125.5t-134 -48.5q-83 0 -128.5 48.5t-45.5 125.5z" />
<glyph unicode="f&#xf6;" horiz-adv-x="2062" d="M35 0v14q59 0 89 38t30 106v811h-86v14h86q0 234 169 389t455 184v-16q-170 -62 -170 -428v-129h217v-14h-217v-869q0 -45 27.5 -65.5t85.5 -20.5v-14q-147 2 -340 2zM809 467q0 100 38 193.5t107.5 169.5t176.5 127t237 63v-16q-41 -31 -60.5 -149.5t-19.5 -346.5 q0 -216 29 -357.5t82 -170.5v-21q-118 0 -223.5 34t-187.5 97t-130.5 160.5t-48.5 216.5zM909 1548v15q110 0 199 -24t143.5 -64t83.5 -88.5t29 -100.5q0 -77 -46 -125.5t-134 -48.5q-83 0 -128.5 48.5t-45.5 125.5q0 113 -21.5 182t-79.5 80zM1434 1006v18 q117 0 222.5 -33.5t188 -95.5t131.5 -160t49 -219q0 -100 -37.5 -193.5t-107 -169.5t-177.5 -127t-239 -63v14q43 29 62.5 148t19.5 350q0 476 -112 531zM1468 1286q0 76 45.5 126t128.5 50q88 0 134.5 -50t46.5 -126q0 -77 -46 -125.5t-135 -48.5q-83 0 -128.5 48.5 t-45.5 125.5z" />
<glyph unicode="ff&#xf6;" horiz-adv-x="2768" d="M35 0v14q59 0 89 38t30 106v811h-86v14h86q0 119 39 209t112 147.5t169.5 89.5t217.5 41v-14q-47 -24 -65.5 -108t-18.5 -244v-121h252v10q0 43 4 66q-83 27 -129 86q27 38 46.5 96.5t19.5 106.5q0 95 -35 114v13q190 0 305 -66q160 120 414 147v-16q-170 -62 -170 -428 v-129h217v-14h-217v-869q0 -45 27 -65.5t85 -20.5v-14q-147 6 -340 6q-87 0 -173.5 -1.5t-129.5 -2.5l-43 -2v14q59 0 89 38t30 106v811h-252v-869q0 -48 17.5 -67t68.5 -19v-14q-120 6 -313 6q-87 0 -173.5 -1.5t-129.5 -2.5zM1516 467q0 100 38 193.5t107.5 169.5 t176.5 127t237 63v-16q-41 -31 -60.5 -149.5t-19.5 -346.5q0 -217 28.5 -358t81.5 -170v-21q-118 0 -223.5 34t-187.5 97t-130 160.5t-48 216.5zM1616 1548v15q110 0 199 -24t143.5 -64t83.5 -88.5t29 -100.5q0 -77 -46 -125.5t-135 -48.5q-83 0 -128.5 48.5t-45.5 125.5 q0 114 -21 182.5t-79 79.5zM2140 1006v18q117 0 222.5 -33.5t188.5 -95.5t132 -160t49 -219q0 -100 -37.5 -193.5t-107 -169.5t-177.5 -127t-239 -63v14q43 29 62.5 148t19.5 350q0 476 -113 531zM2175 1286q0 76 45.5 126t128.5 50q88 0 134 -49.5t46 -126.5t-46 -125.5 t-134 -48.5q-83 0 -128.5 48.5t-45.5 125.5z" />
<glyph unicode="f&#xfc;" horiz-adv-x="2181" d="M35 0v14q59 0 89 38t30 106v811h-86v14h86q0 233 176.5 388t464.5 185v-16q-187 -49 -187 -397v-160h205l549 18l16 -16v-790q0 -43 21 -68t53 -25q20 0 55 13v-15q-37 -15 -81 -42t-74.5 -47.5t-76 -36t-93.5 -15.5q-124 0 -191 74.5t-67 214.5v612q0 68 -24 89.5 t-87 21.5h-205v-871q0 -45 27.5 -65.5t85.5 -20.5v-14q-147 6 -340 6q-87 0 -173.5 -1.5t-129.5 -2.5zM938 1548v15q225 0 354 -76t129 -201q0 -77 -46 -125.5t-134 -48.5q-83 0 -128.5 48.5t-45.5 125.5q0 103 -34 176.5t-95 85.5zM1505 971v12l516 18l17 -16v-807 q0 -58 27 -81t85 -23l4 -15q-138 0 -276 -25t-207 -50l-69 -25l-19 160v774q0 78 -78 78zM1526 1286q0 76 45.5 126t128.5 50q88 0 134 -49.5t46 -126.5t-46 -125.5t-134 -48.5q-83 0 -128.5 48.5t-45.5 125.5z" />
<glyph unicode="ff&#xfc;" horiz-adv-x="2887" d="M35 0v14q59 0 89 38t30 106v811h-86v14h86q0 119 39 209t112 147.5t169.5 89.5t217.5 41v-14q-47 -24 -65.5 -108t-18.5 -244v-121h252v10q0 43 4 66q-83 27 -129 86q27 38 46.5 96.5t19.5 106.5q0 95 -35 114v13q83 0 173 -18t140 -52q164 123 422 151v-16 q-186 -48 -186 -397v-160h205l548 18l17 -16v-790q0 -43 21 -68t53 -25q20 0 55 13v-15q-37 -15 -81 -42t-75 -47.5t-76.5 -36t-93.5 -15.5q-124 0 -191 74.5t-67 214.5v612q0 68 -23.5 89.5t-86.5 21.5h-205v-871q0 -45 27 -65.5t85 -20.5v-14q-147 6 -340 6 q-87 0 -173.5 -1.5t-129.5 -2.5l-43 -2v14q59 0 89 38t30 106v811h-252v-869q0 -48 17.5 -67t68.5 -19v-14q-120 6 -313 6q-87 0 -173.5 -1.5t-129.5 -2.5zM1645 1548v15q225 0 354 -76t129 -201q0 -77 -46 -125.5t-134 -48.5q-83 0 -128.5 48.5t-45.5 125.5 q0 103 -34 176.5t-95 85.5zM2212 971v12l516 18l16 -16v-807q0 -58 27.5 -81t85.5 -23l4 -15q-87 0 -176 -10.5t-154 -25t-117 -29t-79 -24.5l-27 -11l-18 160v774q0 78 -78 78zM2232 1286q0 76 45.5 126t128.5 50q88 0 134.5 -50t46.5 -126q0 -77 -46 -125.5t-135 -48.5 q-83 0 -128.5 48.5t-45.5 125.5z" />
<glyph unicode="f&#xe3;" horiz-adv-x="2066" d="M35 0v14q59 0 89 38t30 106v811h-86v14h86q0 245 137 398.5t377 179.5v-15q-36 -14 -48 -95.5t-12 -256.5v-211h213v-12h-213v-871q0 -45 27.5 -65.5t85.5 -20.5v-14q-147 6 -340 6q-87 0 -173.5 -1.5t-129.5 -2.5zM690 1235q26 37 45 98.5t19 110.5q0 88 -37 106v15 q63 0 123.5 -13t113 -38.5t85 -69.5t32.5 -101q0 -89 -54 -135.5t-143 -46.5q-53 0 -103.5 20.5t-80.5 53.5zM870 180q0 148 143 235t408 97l-2 -18q-98 -57 -98 -273q0 -72 26 -117t72 -45q8 0 23 3.5t16 3.5l6 -13q-14 -5 -78 -34.5t-120 -44.5t-119 -15 q-120 0 -198.5 55.5t-78.5 165.5zM938 756q0 69 61.5 126t154 90t204.5 46v-14q-37 -10 -58.5 -52t-21.5 -96q0 -111 59 -184q-40 -31 -103 -51.5t-114 -20.5q-83 0 -132.5 43t-49.5 113zM1102 1149q0 151 61 227t172 76q53 0 106 -16.5t90 -36.5t85.5 -36.5t93.5 -16.5 t79 26t44 84l12 -8q0 -152 -61 -227.5t-172 -75.5q-53 0 -106 16.5t-89.5 36.5t-85.5 36.5t-94 16.5q-44 0 -78.5 -26t-44.5 -84zM1423 1008v14q18 2 43 2q258 0 362.5 -97.5t104.5 -314.5q0 -104 -10 -235.5t-10 -196.5q0 -133 78 -133q33 0 59 33l8 -6q-29 -51 -100 -80 t-164 -29q-168 0 -239.5 87.5t-71.5 277.5q0 63 8 216.5t8 262.5q0 100 -15 146.5t-61 52.5z" />
<glyph unicode="f&#xf5;" horiz-adv-x="2113" d="M35 0v14q59 0 89 38t30 106v811h-86v14h86q0 245 137 398.5t377 179.5v-15q-36 -14 -48 -95.5t-12 -256.5v-211h213v-12h-213v-871q0 -45 27.5 -65.5t85.5 -20.5v-14q-147 6 -340 6q-87 0 -173.5 -1.5t-129.5 -2.5zM690 1235q26 37 45 98.5t19 110.5q0 88 -37 106v15 q63 0 123.5 -13t113 -38.5t85 -69.5t32.5 -101q0 -89 -54 -135.5t-143 -46.5q-53 0 -103.5 20.5t-80.5 53.5zM860 467q0 100 38 193.5t107.5 169.5t176.5 127t237 63v-16q-41 -31 -60.5 -149.5t-19.5 -346.5q0 -216 29 -357.5t82 -170.5v-21q-118 0 -223.5 34t-187.5 97 t-130.5 160.5t-48.5 216.5zM1102 1149q0 151 61 227t172 76q53 0 106 -16.5t90 -36.5t85.5 -36.5t93.5 -16.5t79 26t44 84l12 -8q0 -152 -61 -227.5t-172 -75.5q-53 0 -106 16.5t-89.5 36.5t-85.5 36.5t-94 16.5q-44 0 -78.5 -26t-44.5 -84zM1485 1006v18q117 0 222.5 -33.5 t188.5 -95.5t132 -160t49 -219q0 -100 -37.5 -193.5t-107 -169.5t-177.5 -127t-239 -63v14q43 29 62 147.5t19 350.5q0 476 -112 531z" />
<glyph unicode="&#x164;h" horiz-adv-x="2672" d="M47 987l37 447q131 -2 334 -4v-13q-133 -21 -230 -143.5t-127 -292.5zM383 0v14q77 0 115.5 67t38.5 189v1157h213q128 0 266 3v-1233q0 -105 35.5 -144t117.5 -39v-14q-180 6 -393 6zM420 1837l6 10l354 -106l355 106l6 -10l-297 -301h-127zM1133 1417v13q502 0 737 106 v-1440q0 -78 80 -78v-18q-107 6 -308 6q-90 0 -176 -1.5t-127 -2.5l-41 -2v18q58 0 87.5 38t29.5 106v989q0 147 -60.5 202.5t-221.5 63.5zM1946 868v15q34 15 95.5 54t117 63t112.5 24q124 0 191 -74.5t67 -214.5v-612q0 -66 25 -87.5t88 -21.5v-14q-135 6 -338 6 q-84 0 -160.5 -1.5t-110.5 -2.5l-34 -2v14q41 0 58.5 22t17.5 75v677q0 43 -21 68t-53 25q-20 0 -55 -13z" />
<glyph unicode="&#x162;h" horiz-adv-x="2672" d="M47 987l37 447q131 -2 334 -4v-13q-133 -21 -230 -143.5t-127 -292.5zM383 0v14q77 0 115.5 67t38.5 189v1157h213q128 0 266 3v-1233q0 -105 35.5 -144t117.5 -39v-14q-180 6 -393 6zM473 -406q0 38 30.5 63.5t74.5 25.5q40 0 75 -21q-24 -34 -24 -86q0 -72 61 -72 q31 0 50.5 24t19.5 62q0 35 -24 65.5t-52 49.5t-52 47.5t-24 59.5q0 40 34 72t68 44l35 13l13 -7q-41 -26 -41 -59q0 -16 23.5 -30t56.5 -28t66.5 -32t57 -49t23.5 -72q0 -76 -78.5 -126t-195.5 -50q-84 0 -140.5 27.5t-56.5 78.5zM1133 1417v13q502 0 737 106v-1440 q0 -78 80 -78v-18q-107 6 -308 6q-90 0 -176 -1.5t-127 -2.5l-41 -2v18q58 0 87.5 38t29.5 106v989q0 147 -60.5 202.5t-221.5 63.5zM1946 868v15q34 15 95.5 54t117 63t112.5 24q124 0 191 -74.5t67 -214.5v-612q0 -66 25 -87.5t88 -21.5v-14q-135 6 -338 6 q-84 0 -160.5 -1.5t-110.5 -2.5l-34 -2v14q41 0 58.5 22t17.5 75v677q0 43 -21 68t-53 25q-20 0 -55 -13z" />
<glyph unicode="&#xd;" horiz-adv-x="538" />
<glyph unicode=" "  horiz-adv-x="538" />
<glyph unicode="&#x09;" horiz-adv-x="538" />
<glyph unicode="&#xa0;" horiz-adv-x="538" />
<glyph unicode="!" horiz-adv-x="614" d="M41 1204q0 112 75.5 190.5t192.5 78.5t193 -78.5t76 -190.5q0 -63 -19 -121t-48 -101t-62.5 -90.5t-62.5 -88.5t-48 -95.5t-19 -111.5q0 -31 1.5 -58t3.5 -38l2 -11h-33q6 37 6 107q0 50 -14 96.5t-37 85t-50.5 76t-55 76.5t-50.5 79t-37 90.5t-14 104.5zM84 176 q0 95 57 156t162 61t163 -61t58 -156q0 -96 -58 -155.5t-163 -59.5t-162 59.5t-57 155.5z" />
<glyph unicode="&#x22;" horiz-adv-x="909" d="M41 1278q0 81 55 138t140 57t139.5 -57t54.5 -138q0 -65 -29 -126t-63 -101.5t-63 -98t-29 -116.5q0 -23 1.5 -42.5t2.5 -27.5l2 -8h-31q4 27 4 78q0 49 -19 94.5t-46 82.5t-54 75t-46 87t-19 103zM483 1278q0 81 55 138t140 57t139.5 -57t54.5 -138q0 -65 -29 -126 t-63 -101.5t-63 -98t-29 -116.5q0 -23 1.5 -42.5t2.5 -27.5l2 -8h-30q4 27 4 78q0 49 -19 94.5t-46 82.5t-54.5 75t-46.5 87t-19 103z" />
<glyph unicode="#" horiz-adv-x="1206" d="M63 555l7 18h229l-6 -18h-230zM164 924l6 18h229l-6 -18h-229zM258 174l309 1147h21l-309 -1147h-21zM446 555l7 18h198l-6 -18h-199zM547 924l6 18h199l-7 -18h-198zM612 174l310 1147h20l-309 -1147h-21zM801 555l6 18h233l-6 -18h-233zM901 924l6 18h234l-6 -18h-234z " />
<glyph unicode="$" horiz-adv-x="1249" d="M68 1030q0 204 148.5 323.5t418.5 119.5l57 -3l33 197h18l-317 -1905h-18l34 215q-21 4 -67.5 14.5t-76.5 16t-86.5 10.5t-121.5 5l-20 514h14q46 -216 137.5 -353t224.5 -190l84 510q-178 99 -251 155q-190 144 -209 327q-2 21 -2 44zM440 1276q0 -76 46 -133t132 -113 l72 422q-30 6 -61 6q-83 0 -136 -49.5t-53 -132.5zM506 -238l317 1905h19l-35 -211q127 -26 285 -26l-19 -424l-14 -2q-22 153 -91 259.5t-169 161.5l-74 -454q176 -90 250 -143q194 -139 216 -328q3 -26 3 -54q0 -148 -83.5 -260.5t-215 -168.5t-285.5 -56q-37 0 -53 2 l-33 -201h-18zM561 -20q17 -3 27 -3q121 0 183.5 59.5t62.5 149.5q0 74 -51 133.5t-146 120.5z" />
<glyph unicode="%" horiz-adv-x="1413" d="M63 1112q0 135 83 237.5t231 120.5v-16q-51 -42 -51 -315q0 -157 14.5 -239.5t50.5 -96.5v-19q-154 0 -241 93.5t-87 234.5zM225 -51l934 1536h25l-934 -1536h-25zM428 1454v19q154 0 241 -93.5t87 -234.5q0 -135 -83 -238t-231 -121v17q52 42 52 315q0 156 -14.5 239 t-51.5 97zM657 289q0 135 83 237.5t231 120.5v-16q-51 -42 -51 -316q0 -157 14.5 -239t50.5 -96v-19q-154 0 -241 93.5t-87 234.5zM1022 631v18q154 0 241 -93t87 -234q0 -135 -83 -238t-231 -121v17q51 42 51 315q0 157 -14.5 239.5t-50.5 96.5z" />
<glyph unicode="&#x26;" horiz-adv-x="1607" d="M59 260q0 67 23.5 125t63.5 101.5t95 77t115.5 53.5t126.5 30q-105 126 -156 221.5t-51 196.5q0 87 41 160.5t109 122.5t151.5 79.5t174.5 40.5v-12q-45 -15 -71 -65t-26 -117q0 -75 32 -141.5t104 -159.5l548 -701q43 -56 67 -82t61.5 -47.5t80.5 -21.5q40 0 72 16l6 -8 q-6 -7 -17 -18t-48 -40t-77.5 -51.5t-104 -40.5t-128.5 -18q-136 0 -220.5 41t-168.5 150l-366 481q-39 -59 -39 -160q0 -87 30 -171t92 -143t142 -59q24 0 53 11l6 -13q-165 -137 -372 -137q-166 0 -257.5 85t-91.5 214zM864 1114q66 95 66 184q0 134 -64 164v11 q163 -7 257 -73t94 -159q0 -84 -58 -130t-141 -46q-92 0 -154 49zM1057 862v15q182 -9 284 -9q55 0 118 2t99 4l35 3v-15q-66 0 -121 -20.5t-99.5 -61t-77.5 -85.5t-70 -109l-11 10q39 78 41.5 137.5t-48 94t-150.5 34.5z" />
<glyph unicode="'" horiz-adv-x="471" d="M41 1278q0 81 55 138t140 57t139.5 -57t54.5 -138q0 -65 -29 -126t-63 -101.5t-63 -98t-29 -116.5q0 -23 1.5 -42.5t2.5 -27.5l2 -8h-31q4 27 4 78q0 49 -19 94.5t-46 82.5t-54 75t-46 87t-19 103z" />
<glyph unicode="(" horiz-adv-x="790" d="M41 614q0 137 38.5 265t103 230t152.5 192.5t181 156t195 115.5l6 -8q-75 -107 -127.5 -239t-76.5 -264t-33 -237t-9 -211q0 -82 5 -162.5t20.5 -188t41.5 -204t72 -202.5t107 -193l-6 -8q-102 50 -195 115.5t-181 155.5t-152.5 192t-103 230t-38.5 265z" />
<glyph unicode=")" horiz-adv-x="790" d="M74 -336q245 349 245 950q0 602 -245 951l6 8q102 -50 195 -115.5t181 -156t152.5 -192.5t103 -230t38.5 -265t-38.5 -265t-103 -230t-152.5 -192t-181 -155.5t-195 -115.5z" />
<glyph unicode="*" horiz-adv-x="604" d="M68 1116q0 39 33.5 60.5t84.5 21.5q8 0 22.5 -1t27 -1t22.5 2l12 -20q-10 -12 -32.5 -53t-45 -61t-55.5 -20q-29 0 -49 20.5t-20 51.5zM68 1300q0 30 20.5 51t48.5 21q19 0 39 -10q33 -18 61 -67.5t33 -55.5l-14 -22q-12 2 -66 2q-48 0 -85 20t-37 61zM229 1026 q0 37 29 87t31 56l24 -2q1 -3 30.5 -53t29.5 -88q0 -31 -20 -51.5t-52 -20.5t-52 20.5t-20 51.5zM229 1391q0 31 20 51t52 20t52 -20t20 -51q0 -28 -10.5 -52.5t-27 -49.5t-22.5 -40h-24q-2 5 -31 55t-29 87zM332 1178l14 20h70q52 0 85.5 -22t33.5 -60q0 -31 -20.5 -51.5 t-49.5 -20.5q-33 0 -55.5 20t-45 61t-32.5 53zM332 1241q11 13 24.5 39t29.5 47t40 35q20 10 39 10q28 0 49 -21t21 -51q0 -41 -37.5 -61t-85.5 -20q-54 0 -66 -2z" />
<glyph unicode="+" horiz-adv-x="903" d="M0 545v20h440v432h23v-432h440v-20h-440v-434h-23v434h-440z" />
<glyph unicode="," horiz-adv-x="620" d="M76 182q0 95 62.5 153t156.5 58q100 0 160.5 -64.5t60.5 -164.5q0 -144 -96 -275.5t-246 -236.5l-12 12q102 102 102 217q0 76 -46.5 139t-133.5 97q-8 40 -8 65z" />
<glyph unicode="-" horiz-adv-x="735" d="M49 584v16h637v-16h-637z" />
<glyph unicode="." horiz-adv-x="591" d="M76 176q0 95 57 156t162 61t163 -61t58 -156q0 -96 -58 -155.5t-163 -59.5t-162 59.5t-57 155.5z" />
<glyph unicode="/" horiz-adv-x="851" d="M113 -393l596 1929h28l-596 -1929h-28z" />
<glyph unicode="0" horiz-adv-x="1521" d="M57 684q0 198 80 369t224 282t323 133v-20q-55 -40 -73.5 -204.5t-18.5 -504.5q0 -307 37 -520.5t106 -238.5v-19q-301 5 -489.5 206t-188.5 517zM786 1456v17q197 -5 351 -96t240.5 -254t86.5 -371q0 -197 -79.5 -368t-224 -282.5t-324.5 -134.5v17q56 40 74 201.5 t18 508.5q0 313 -35.5 524.5t-106.5 237.5z" />
<glyph unicode="1" horiz-adv-x="864" d="M41 0v14q77 0 115.5 67t38.5 189v865q0 141 -33 188t-121 47v16q162 0 338 22t291 65v-1276q0 -105 35.5 -144t117.5 -39v-14q-178 6 -391 6z" />
<glyph unicode="2" horiz-adv-x="1345" d="M47 53q0 84 30 154.5t80.5 118.5t117.5 82t141 49.5t151 15.5q107 0 292 -28.5t286 -28.5q120 0 135 110h16q0 -293 -107.5 -429t-350.5 -136q-90 0 -185 21t-160 46.5t-138.5 46.5t-127.5 21q-79 0 -117 -39.5t-38 -93.5l-13 -2q-12 40 -12 92zM72 1116 q0 115 89.5 207.5t266.5 128.5v-16q-43 -20 -68.5 -62.5t-25.5 -89.5q0 -78 45.5 -118.5t114.5 -45.5q8 -24 8 -55q0 -74 -56.5 -131t-148.5 -57q-61 0 -106.5 22t-70 59t-36.5 76.5t-12 81.5zM221 442q41 42 106 97.5t114 96t104.5 100t91.5 118t60 141.5t24 179 q0 127 -54.5 200.5t-138.5 75.5v16q65 7 115 7q174 0 312.5 -48t219 -139t80.5 -209q0 -91 -31.5 -161.5t-84 -115t-126 -80t-152.5 -56.5t-168 -45.5t-169 -46t-158.5 -58t-132.5 -82.5z" />
<glyph unicode="3" horiz-adv-x="1316" d="M37 317q0 41 14 81t40.5 75.5t71.5 57.5t101 22q91 0 143 -59.5t52 -135.5q0 -24 -6 -45q-66 -5 -113 -50.5t-47 -117.5q0 -53 24.5 -93t59.5 -56v-14q-172 38 -256 129t-84 206zM90 1116q0 117 87 210t265 128v-16q-42 -19 -66 -62.5t-24 -91.5q0 -78 45.5 -118.5 t114.5 -45.5q8 -24 8 -55q0 -74 -56.5 -131t-148.5 -57q-61 0 -106.5 22t-70 59t-36.5 76.5t-12 81.5zM432 752q132 51 218.5 174t86.5 278q0 107 -53.5 174t-140.5 72v18q83 5 102 5q268 0 414.5 -94.5t146.5 -231.5q0 -261 -420 -340l5 -14q66 16 118 16q170 0 269.5 -96 t99.5 -232q0 -97 -44 -188t-126.5 -166t-216.5 -120.5t-299 -45.5q-64 0 -117 6l2 15q127 0 225.5 134.5t98.5 336.5q0 131 -69.5 215t-188.5 84q-45 0 -103 -15z" />
<glyph unicode="4" horiz-adv-x="1329" d="M53 348l312 414q145 196 145 375q0 142 -78 235q44 44 107.5 72.5t132.5 28.5q118 0 191 -76.5t73 -175.5q0 -189 -252 -390l-621 -493zM469 0v14q77 0 115.5 67t38.5 189v420l475 248v-580h178v-18h-178v-143q0 -105 35.5 -144t117.5 -39v-14q-178 6 -391 6z" />
<glyph unicode="5" horiz-adv-x="1320" d="M51 317q0 89 55.5 157.5t163.5 68.5q92 0 147.5 -55.5t55.5 -129.5q0 -24 -6 -45q-68 -5 -114 -45.5t-46 -111.5q0 -55 26.5 -98.5t72.5 -63.5v-14q-120 24 -202 78t-117.5 119t-35.5 140zM178 670q75 139 212 205.5t298 66.5q144 0 258.5 -40.5t184 -108t105.5 -150 t36 -172.5q0 -78 -19.5 -148t-67.5 -137.5t-121.5 -116t-189 -78.5t-262.5 -30q-36 0 -106 4v12q42 0 82.5 17.5t74.5 51t55 90.5t21 128q0 119 -76 212.5t-203.5 143.5t-281.5 50zM231 1124l35 310q542 -33 658 -33q95 0 147.5 13.5t70 36t17.5 60.5h12q27 -73 27 -168 q0 -169 -100.5 -259.5t-272.5 -90.5q-93 0 -198.5 30t-210 63t-185.5 38z" />
<glyph unicode="6" horiz-adv-x="1376" d="M57 612q0 117 41.5 234t129.5 228t212.5 199.5t304 149t390.5 76.5l4 -10q-146 -37 -256 -135.5t-172.5 -235t-92.5 -287.5t-30 -315q0 -189 12.5 -306.5t31.5 -164t48 -61.5v-21q-286 11 -454.5 184.5t-168.5 464.5zM676 739l2 19q8 4 60 39t100.5 54t105.5 19 q160 0 267.5 -111t107.5 -272q0 -126 -44 -225.5t-123 -163t-183 -98t-228 -37.5v19q66 16 66 424q0 81 -7.5 144t-19.5 99t-27 58.5t-28.5 30t-26.5 7.5q-4 0 -22 -6z" />
<glyph unicode="7" horiz-adv-x="1310" d="M31 907q0 144 20 244.5t68 175t132 110.5t208 36q90 0 186.5 -21.5t164.5 -46.5t145.5 -46.5t134.5 -21.5q80 0 122.5 40t42.5 93l13 3q12 -40 12 -93q0 -83 -25 -150t-62.5 -109.5t-92.5 -74t-104.5 -47.5t-110 -25t-96.5 -11t-76 -2q-87 0 -269 28.5t-260 28.5 q-124 0 -139 -111h-14zM293 240q0 74 35.5 146.5t89 129t135 118.5t152 106.5t164 104t149.5 99.5l10 -12q-54 -50 -92 -93t-80 -104t-64 -132.5t-22 -149.5t13.5 -146.5t27.5 -104t41 -91.5q-36 -65 -104.5 -107.5t-161.5 -42.5q-133 0 -213 77t-80 202z" />
<glyph unicode="8" horiz-adv-x="1366" d="M37 283q0 61 23.5 108.5t64 78.5t82 54t91.5 50.5t79 52.5q-63 42 -109.5 81.5t-93 93t-71.5 117.5t-25 134q0 174 159 289.5t435 127.5v-12q-113 -34 -113 -170q0 -59 29 -116t81.5 -106t105.5 -86t122 -77q1 9 21 101.5t20 177.5q0 117 -41 189.5t-109 86.5v12 q101 -3 199 -38.5t167 -102.5t69 -149q0 -49 -18 -88.5t-45 -63t-63 -44t-69 -32.5t-66.5 -27.5t-50.5 -29.5q165 -93 230 -143q159 -124 182 -289q4 -30 4 -62q0 -96 -37.5 -171t-100.5 -123.5t-153.5 -81t-188 -47t-212.5 -17.5v12q61 4 105 68t44 149q0 45 -16 86 t-43.5 77.5t-79.5 80.5t-108.5 84.5t-145.5 99.5q-3 -21 -33 -124t-30 -181q0 -149 50.5 -235.5t135.5 -100.5v-16q-105 3 -189 25.5t-137 55t-88 74.5t-49 83.5t-14 83.5z" />
<glyph unicode="9" horiz-adv-x="1376" d="M57 946q0 126 44 225.5t123 163t183 98t228 37.5v-18q-66 -16 -66 -424q0 -81 7.5 -144t19.5 -99t27 -59t28.5 -30.5t26.5 -7.5q4 0 22 6l-2 -18q-9 -5 -60.5 -40t-100 -54t-105.5 -19q-160 0 -267.5 111t-107.5 272zM238 -55q118 30 212.5 101t156.5 165.5t103.5 213.5 t59.5 241t18 252q0 189 -12.5 306.5t-31.5 164t-48 61.5v20q286 -11 454.5 -184.5t168.5 -464.5q0 -97 -30 -195t-87.5 -193t-149 -179t-207.5 -150.5t-271 -111.5t-332 -58z" />
<glyph unicode=":" horiz-adv-x="591" d="M76 176q0 95 57 156t162 61t163 -61t58 -156q0 -96 -58 -155.5t-163 -59.5t-162 59.5t-57 155.5zM76 807q0 95 57 156t162 61t163 -61t58 -156q0 -96 -58 -155.5t-163 -59.5t-162 59.5t-57 155.5z" />
<glyph unicode=";" horiz-adv-x="591" d="M76 182q0 95 62.5 153t156.5 58q105 0 163 -61t58 -156q0 -145 -97 -282.5t-245 -241.5l-12 12q102 102 102 217q0 76 -46.5 139t-133.5 97q-8 40 -8 65zM76 807q0 95 57 156t162 61t163 -61t58 -156q0 -96 -58 -155.5t-163 -59.5t-162 59.5t-57 155.5z" />
<glyph unicode="&#x3c;" horiz-adv-x="903" d="M0 547v16l903 414v-23l-874 -399l874 -399v-23z" />
<glyph unicode="=" horiz-adv-x="903" d="M0 360v21h903v-21h-903zM0 729v21h903v-21h-903z" />
<glyph unicode="&#x3e;" horiz-adv-x="903" d="M0 133v23l874 399l-874 399v23l903 -414v-16z" />
<glyph unicode="?" horiz-adv-x="1042" d="M59 1241q0 103 86 167.5t250 64.5v-11q-40 -7 -60 -37t-20 -65q0 -36 21 -66.5t55 -48.5q4 -20 4 -31q0 -55 -40.5 -96t-108.5 -41q-86 0 -136.5 50.5t-50.5 113.5zM250 176q0 95 57 156t162 61t163 -61t58 -156q0 -96 -58 -155.5t-163 -59.5t-162 59.5t-57 155.5z M313 721q0 55 18 100.5t46.5 78.5t63.5 63l70 60t63.5 63t46.5 78.5t18 99.5q0 79 -42 130t-103 62l2 10q214 -24 349.5 -139t135.5 -254q0 -84 -29.5 -150t-77.5 -106.5t-105 -71.5t-114.5 -52t-105.5 -40.5t-77.5 -45t-29.5 -58.5q0 -31 23 -70l-6 -6q-55 36 -100.5 104.5 t-45.5 143.5z" />
<glyph unicode="@" horiz-adv-x="1705" d="M78 387q0 72 14.5 146t47.5 150.5t81.5 146.5t121 132.5t161 109.5t206.5 77.5t253 36.5l-2 -12q-112 -11 -207.5 -67.5t-160 -138.5t-110.5 -183t-67 -201.5t-21 -194.5q0 -97 18 -184.5t58.5 -166t100 -135.5t149.5 -90.5t201 -33.5q138 0 270.5 60.5t187.5 119.5l9 -8 q-81 -92 -232.5 -157.5t-322.5 -65.5q-355 0 -555.5 176.5t-200.5 482.5zM518 383q0 116 52 213.5t148 156.5t216 60l-2 -12q-53 -16 -86 -160t-33 -268q0 -37 5.5 -63.5t14.5 -38.5t17.5 -16.5t17.5 -4.5q18 0 37 16l6 -8q-32 -55 -84.5 -88t-105.5 -33q-95 0 -149 69 t-54 177zM963 266q0 79 27.5 231.5t27.5 217.5q0 77 -31 88l2 8q30 -3 95.5 -18t111.5 -15q38 0 68.5 8.5t41.5 17.5l11 9l-82 -563q-2 -16 -2 -39q0 -31 24 -31q32 0 73.5 40.5t79.5 105.5t64.5 159t26.5 189q0 89 -27 173.5t-79.5 156t-138.5 119t-195 55.5l2 10 q127 -6 234.5 -50.5t179 -114t111.5 -158t40 -183.5q0 -136 -71 -262t-192 -204.5t-255 -78.5q-35 0 -65.5 9.5t-56 40.5t-25.5 79z" />
<glyph unicode="A" horiz-adv-x="1615" d="M18 0v14q160 0 258 291l23 66l16 -2l-20 -68q-17 -57 -25 -95q-6 -30 -5 -61v-17q2 -40 21.5 -62.5t61 -37t107.5 -14.5v-14q-111 6 -248 6zM393 586l6 20h402l-197 664l35 100l352 107l445 -1321q49 -142 161 -142v-14q-113 6 -395 6q-122 0 -217.5 -1.5t-130.5 -2.5 l-35 -2v14q113 0 113 101q0 40 -33 159l-92 312h-414z" />
<glyph unicode="B" horiz-adv-x="1536" d="M41 0v14q77 0 115.5 67t38.5 189v967q0 105 -36 143.5t-118 38.5v15q180 -7 393 -7q15 0 240 5v-1235q0 -169 59 -181v-14q-30 0 -144 2t-155 2zM793 764v12q72 14 102.5 97t30.5 229q0 284 -133 317v13q18 2 75 2q83 0 158.5 -10t148 -34.5t125 -61.5t85 -95t32.5 -131 q0 -100 -61 -174t-165 -113t-239 -43v-8q240 -7 387.5 -114t147.5 -259q0 -85 -29 -152t-80 -111.5t-124 -73.5t-156.5 -41.5t-182.5 -12.5h-55v14q28 9 48 33t32 56t18.5 79.5t8.5 93t2 107.5q0 371 -176 381z" />
<glyph unicode="C" horiz-adv-x="1519" d="M49 684q0 164 56.5 308.5t157.5 251t250 168t325 61.5v-19q-53 -6 -94.5 -41.5t-76 -113t-53 -219t-18.5 -341.5q0 -703 242 -759v-19q-193 0 -344 53t-248 149.5t-147 228.5t-50 292zM969 -14q145 33 281.5 183.5t193.5 373.5h14l-63 -498q-112 0 -255 -35t-171 -39v15z M969 1448v16q57 -6 133.5 -21t153.5 -25.5t171 -10.5v-412h-14q-40 195 -165.5 310t-278.5 143z" />
<glyph unicode="D" horiz-adv-x="1675" d="M41 -2v14q77 0 115.5 67t38.5 189v967q0 105 -36 143.5t-118 38.5v15q180 -7 393 -7q15 0 240 5v-1235q0 -169 59 -181v-14q-30 0 -144 2t-155 2zM793 1419v15q383 0 608 -182t225 -500q0 -234 -96 -404t-268 -258t-402 -90v14q52 4 95.5 42t79 115.5t55.5 210.5t20 312 q0 329 -80.5 522t-236.5 203z" />
<glyph unicode="E" horiz-adv-x="1388" d="M41 0v14q77 0 115.5 67t38.5 189v967q0 105 -36 143.5t-118 38.5v15q180 -7 393 -7q15 0 240 5v-1235q0 -169 59 -181v-14q-30 0 -144 2t-155 2zM793 752v14q118 0 186 75t68 218h14v-656h-14q0 54 -6.5 100.5t-23.5 93.5t-44.5 80t-73.5 54t-106 21zM793 1417v13 q89 0 475 4v-439h-15q-23 199 -147.5 310.5t-312.5 111.5zM860 2v16q172 0 301 145t174 398h17l-95 -561q-272 0 -397 2z" />
<glyph unicode="F" horiz-adv-x="1327" d="M41 0v14q77 0 115.5 67t38.5 189v967q0 105 -36 143.5t-118 38.5v15q180 -7 393 -7q76 0 136 1.5t82 2.5l22 1v-1235q0 -102 44.5 -142.5t129.5 -40.5v-14q-201 6 -414 6zM793 723v14q118 0 186 75t68 218h14v-655h-14q0 54 -6.5 100.5t-23.5 93.5t-44.5 80t-73.5 53.5 t-106 20.5zM793 1417v13q89 0 475 4v-439h-15q-23 199 -147.5 310.5t-312.5 111.5z" />
<glyph unicode="G" horiz-adv-x="1714" d="M49 684q0 164 56.5 308.5t157.5 251t250 168t325 61.5v-19q-53 -6 -94.5 -41.5t-76 -113t-53 -219t-18.5 -341.5q0 -703 242 -759v-19q-193 0 -344 53t-248 149.5t-147 228.5t-50 292zM895 676v14h778v-14q-76 0 -114.5 -66.5t-38.5 -189.5v-375q-124 0 -212.5 -13 t-176.5 -33.5t-162 -29.5v15q80 17 80 161v349q0 105 -36 143.5t-118 38.5zM969 1448v16q57 -6 133.5 -21t153.5 -25.5t171 -10.5v-412h-14q-40 195 -165.5 310t-278.5 143z" />
<glyph unicode="H" horiz-adv-x="1746" d="M41 0v14q77 0 115.5 67t38.5 189v967q0 105 -36 143.5t-118 38.5v15q180 -7 393 -7q95 0 193 1.5t149 3.5l51 2v-15q-76 0 -114.5 -66.5t-38.5 -189.5v-966q0 -105 35.5 -144t117.5 -39v-14q-180 6 -393 6zM805 737v21h268v479q0 105 -35.5 143.5t-117.5 38.5v15 q180 -7 393 -7q95 0 193 1.5t149 3.5l51 2v-15q-77 0 -115.5 -67t-38.5 -189v-966q0 -105 36 -144t118 -39v-14q-180 6 -393 6l-393 -6v14q76 0 114.5 66.5t38.5 189.5v467h-268z" />
<glyph unicode="I" d="M41 0v14q77 0 115.5 67t38.5 189v967q0 105 -36 143.5t-118 38.5v15q180 -7 393 -7q95 0 193 1.5t149 3.5l51 2v-15q-76 0 -114.5 -66.5t-38.5 -189.5v-966q0 -105 35.5 -144t117.5 -39v-14q-180 6 -393 6z" />
<glyph unicode="J" d="M0 -449q19 30 63.5 79t69.5 87q62 92 62 301v1219q0 105 -36 143.5t-118 38.5v15q180 -7 393 -7q95 0 193 1.5t149 3.5l51 2v-15q-76 0 -114.5 -66.5t-38.5 -189.5v-1005q0 -135 -35.5 -222t-110.5 -151q-51 -43 -126.5 -73.5t-139.5 -45t-135.5 -46.5t-118.5 -79z" />
<glyph unicode="K" horiz-adv-x="1732" d="M41 0v14q77 0 115.5 67t38.5 189v967q0 105 -36 143.5t-118 38.5v15q180 -7 393 -7q95 0 193 1.5t149 3.5l51 2v-15q-76 0 -114.5 -66.5t-38.5 -189.5v-966q0 -105 35.5 -144t117.5 -39v-14q-180 6 -393 6zM770 670l307 389l516 -891q36 -61 74.5 -92t89.5 -31v-16 q-11 -8 -32.5 -19t-97 -30t-161.5 -19q-171 0 -285 62t-186 204zM1044 1419v15q103 -7 320 -7q90 0 163 1.5t101 3.5l27 2v-15q-146 0 -258 -49.5t-207 -173.5l-10 10q41 52 41 97q0 57 -46.5 86.5t-130.5 29.5z" />
<glyph unicode="L" horiz-adv-x="1380" d="M41 0v14q77 0 115.5 67t38.5 189v967q0 105 -36 143.5t-118 38.5v15q180 -7 393 -7q95 0 193 1.5t149 3.5l51 2v-15q-76 0 -114.5 -66.5t-38.5 -189.5v-966q0 -169 59 -181v-14q-30 0 -144 2t-155 2zM860 2v16q114 0 214.5 83.5t167.5 214.5t101 290h17l-86 -606 q-289 0 -414 2z" />
<glyph unicode="M" horiz-adv-x="2029" d="M20 0v14q37 0 65.5 12.5t54.5 42.5t43 87t24 139l6 82l18 -2q-2 -31 -2 -59q0 -141 54 -214q65 -88 178 -88v-14q-158 6 -258 6zM125 1419v15q288 -7 668 -7q0 -119 36 -237l242 -809l-96 -381l-246 -37l-426 1280q-34 103 -68.5 139.5t-109.5 36.5zM1210 0v14 q148 0 148 209q0 26 -2 56l-70 923q-5 72 -14.5 128t-15.5 76l-7 21l664 7v-15q-83 0 -120 -39q-34 -36 -34 -128v-15l92 -1040q9 -107 42 -145t112 -38v-14q-160 6 -383 6z" />
<glyph unicode="N" horiz-adv-x="1554" d="M31 0v14q153 0 153 297v66h19v-66q0 -297 295 -297v-14q-221 6 -293 6zM31 1419v15q314 -7 694 -7q7 -67 94 -198l541 -809v-420l-316 -37l-856 1329q-48 74 -77.5 100.5t-79.5 26.5zM1069 1419v15q213 -7 285 -7l184 7v-15q-76 0 -127 -72.5t-51 -224.5v-69h-19v69 q0 154 -74.5 225.5t-197.5 71.5z" />
<glyph unicode="O" horiz-adv-x="1628" d="M49 684q0 204 79.5 372t233 278t359.5 134v-14q-72 -35 -99.5 -208.5t-27.5 -506.5q0 -341 47 -540.5t137 -223.5v-14q-230 5 -395.5 97t-249.5 252.5t-84 373.5zM852 1460v13q229 -5 394 -96.5t249 -251.5t84 -373q0 -204 -78.5 -372.5t-232 -279t-359.5 -133.5v13 q72 35 99.5 205t27.5 509q0 337 -49 545.5t-135 220.5z" />
<glyph unicode="P" horiz-adv-x="1447" d="M41 0v14q77 0 115.5 67t38.5 189v967q0 105 -36 143.5t-118 38.5v15q180 -7 393 -7l240 5v-1233q0 -102 44 -143.5t126 -41.5v-14q-197 6 -410 6zM793 600v12q147 23 147 408q0 75 -6.5 139.5t-22 125.5t-45.5 97t-73 37v13q18 2 57 2q264 0 412.5 -105.5t148.5 -302.5 q0 -196 -156.5 -311t-461.5 -115z" />
<glyph unicode="Q" horiz-adv-x="1628" d="M49 684q0 204 79.5 372t233 278t359.5 134v-14q-72 -35 -99.5 -208.5t-27.5 -506.5q0 -329 47.5 -530.5t136.5 -231.5v-16q-230 5 -395.5 97t-249.5 252.5t-84 373.5zM852 1456v17q229 -5 394 -96.5t249 -251.5t84 -373q0 -204 -78.5 -372.5t-232 -279t-359.5 -133.5v13 q72 35 99.5 205t27.5 509q0 335 -47 533.5t-137 228.5zM893 -86l4 14q115 -11 288.5 -48.5t324.5 -73.5t367 -65.5t423 -29.5q181 0 376.5 36t321.5 103l8 -6q-59 -79 -111.5 -137.5t-126 -118.5t-151 -98t-180 -62t-219.5 -24q-120 0 -232.5 24t-205 63.5t-180 88 t-172 100.5t-166 98t-177.5 83t-192 53z" />
<glyph unicode="R" horiz-adv-x="1611" d="M41 0v14q77 0 115.5 67t38.5 189v967q0 105 -36 143.5t-118 38.5v15q180 -7 393 -7q123 0 240 3v-1233q0 -105 35.5 -144t117.5 -39v-14q-180 6 -393 6zM793 678v14q49 4 81 35t52 111.5t20 212.5q0 163 -39 261t-114 105v15q1 0 23.5 1t33.5 1q94 0 177 -11.5 t159.5 -38.5t131.5 -68t87.5 -103.5t32.5 -141.5q0 -76 -26.5 -135.5t-88 -110t-170.5 -84t-266 -49.5v-8q239 0 362.5 -71.5t169.5 -237.5l64 -228q16 -57 40 -88.5t68 -31.5q18 0 39 6l2 -10q-40 -24 -130 -43t-181 -19q-387 0 -422 332l-27 252q-8 71 -24.5 100t-54.5 33 z" />
<glyph unicode="S" horiz-adv-x="1249" d="M68 1030q0 191 130 308t369 132v-14q-56 -14 -91.5 -63t-35.5 -117q0 -54 26 -101t69.5 -83.5t100 -70t119 -66.5t125 -68t119 -78.5t100 -94t69.5 -119.5t26 -149q0 -109 -45.5 -200t-123 -151.5t-177.5 -95t-211 -38.5v14q96 11 146.5 71.5t50.5 139.5q0 52 -26 98.5 t-70.5 84t-102 73.5t-121 72t-127 73.5t-121 83t-102 96.5t-70.5 118.5t-26 144.5zM70 537h14q48 -227 155 -374.5t267 -180.5v-15q-49 5 -111.5 20t-134.5 25.5t-170 10.5zM698 1456v14q31 -3 170 -21.5t224 -18.5l-19 -424h-14q-25 170 -121 299.5t-240 150.5z" />
<glyph unicode="T" horiz-adv-x="1554" d="M47 987l37 447q131 -2 334 -4v-13q-133 -21 -230 -143.5t-127 -292.5zM383 0v14q77 0 115.5 67t38.5 189v1157h213q128 0 266 3v-1233q0 -105 35.5 -144t117.5 -39v-14q-180 6 -393 6zM1133 1417v13l372 4l-37 -453l-14 6q0 187 -82 298.5t-239 131.5z" />
<glyph unicode="U" horiz-adv-x="1546" d="M41 1419v15q180 -7 393 -7q95 0 193 1.5t149 3.5l51 2v-15q-76 0 -114.5 -66.5t-38.5 -189.5v-698q0 -233 81 -340t251 -107q105 0 183 50t116 147l18 -4q-30 -77 -80.5 -127t-124 -74t-146.5 -32.5t-177 -8.5q-600 0 -600 500v768q0 105 -36 143.5t-118 38.5zM1069 1419 v15q213 -7 285 -7l184 7v-15q-76 0 -127 -72.5t-51 -224.5v-69h-19v69q0 154 -74.5 225.5t-197.5 71.5z" />
<glyph unicode="V" horiz-adv-x="1597" d="M33 1419v15q152 -7 383 -7q96 0 199.5 1.5t158.5 3.5l55 2v-15q-61 0 -91.5 -21t-30.5 -73q0 -32 26 -121l287 -987l-68 -217l-344 -37l-407 1297q-30 97 -64 128t-104 31zM1128 1419v15q88 -7 242 -7q55 0 103.5 1.5t70.5 3.5l21 2v-15q-75 0 -135.5 -67.5 t-118.5 -229.5l-25 -69l-14 4l20 65q27 88 27 152q0 76 -48 110.5t-143 34.5z" />
<glyph unicode="W" horiz-adv-x="2217" d="M23 1419v15q223 -7 397 -7q79 0 170 1.5t142 3.5l52 2v-15q-84 0 -84 -86q0 -32 17 -94l233 -846l-110 -393l-240 -37l-418 1333q-19 62 -56.5 92.5t-102.5 30.5zM831 1419v15q216 -7 357 -7q87 0 154.5 1.5t91.5 3.5l24 2q0 -65 31 -195l219 -856l-115 -381l-266 -39 l-362 1331q-19 67 -47 96t-87 29zM1741 1419v15q150 -7 252 -7q49 0 97 1.5t72 3.5l23 2v-15q-41 0 -74.5 -14t-69.5 -50t-69 -106t-63 -174l-15 6q35 115 35 193q0 76 -47.5 110.5t-140.5 34.5z" />
<glyph unicode="X" horiz-adv-x="1656" d="M47 0v14q51 0 101.5 20.5t93 53t87 83t79.5 99t75 111.5l47 78l19 -10q-88 -148 -88 -240q0 -87 62 -141t182 -54v-14q-281 6 -375 6zM86 1419v15q147 -7 397 -7q107 0 213.5 1.5t159.5 3.5l53 2v-15q-56 0 -80 -35q-18 -26 -18 -60q0 -11 2 -24q8 -49 39 -100l647 -1034 q46 -75 97.5 -113.5t134.5 -38.5v-14q-322 6 -431 6l-452 -6v14q129 0 129 88q0 52 -45 125l-666 1059q-49 77 -82.5 105t-97.5 28zM1016 1419v15q241 -7 321 -7l273 7v-15q-97 0 -192.5 -60.5t-178.5 -187.5l-63 -96l-11 15q70 113 70 184q0 67 -58 106t-161 39z" />
<glyph unicode="Y" horiz-adv-x="1540" d="M33 1419v15q167 -7 409 -7q120 0 221 1.5t142 3.5l41 2v-15q-49 0 -79 -25.5t-30 -64.5q0 -52 49 -137l232 -416v-579q0 -105 35.5 -144t117.5 -39v-14q-180 6 -393 6l-393 -6v14q77 0 115.5 67t38.5 189v482l-346 559q-41 65 -78 86.5t-82 21.5zM1049 1419v15 q94 -7 260 -7q54 0 103.5 1.5t71.5 3.5l23 2v-15q-63 0 -143 -68.5t-150 -197.5l-55 -102l-14 6q84 158 84 239q0 59 -40.5 91t-139.5 32z" />
<glyph unicode="Z" horiz-adv-x="1470" d="M55 20l811 1414h520l9 -21l-801 -1413h-531zM100 938l64 496h565v-17q-130 -4 -225 -28t-174 -78t-132 -146t-83 -227h-15zM735 0v18q282 17 442.5 160t223.5 400h14l-80 -578h-600z" />
<glyph unicode="[" horiz-adv-x="737" d="M82 -344v1917h532v-21h-122v-1878h122v-18h-532z" />
<glyph unicode="\" horiz-adv-x="851" d="M115 1536h28l596 -1929h-28z" />
<glyph unicode="]" horiz-adv-x="737" d="M123 -326h123v1878h-123v21h532v-1917h-532v18z" />
<glyph unicode="^" horiz-adv-x="745" d="M0 848l365 688h16l364 -688h-22l-350 663l-350 -663h-23z" />
<glyph unicode="_" horiz-adv-x="1155" d="M0 -135h1155v-21h-1155v21z" />
<glyph unicode="`" horiz-adv-x="555" d="M70 1409q0 53 39 90t106 37l270 -422l-4 -6q-107 23 -198.5 66t-152 105.5t-60.5 129.5z" />
<glyph unicode="a" horiz-adv-x="1243" d="M47 180q0 148 143 235t408 97l-2 -18q-98 -57 -98 -273q0 -72 26 -117t72 -45q8 0 23 3.5t16 3.5l6 -13q-14 -5 -78 -34.5t-120 -44.5t-119 -15q-120 0 -198.5 55.5t-78.5 165.5zM115 756q0 69 61.5 126t154 90t204.5 46v-14q-37 -10 -58.5 -52t-21.5 -96q0 -111 59 -184 q-40 -31 -103 -51.5t-114 -20.5q-83 0 -132.5 43t-49.5 113zM600 1008v14q18 2 43 2q258 0 362.5 -97.5t104.5 -314.5q0 -104 -10 -235.5t-10 -196.5q0 -133 77 -133q34 0 60 33l8 -6q-29 -51 -100 -80t-164 -29q-169 0 -240.5 87.5t-71.5 277.5q0 63 8.5 216.5t8.5 262.5 q0 100 -15 146.5t-61 52.5z" />
<glyph unicode="b" horiz-adv-x="1359" d="M37 1434q138 0 281 25.5t216 50.5l74 26v-1372q0 -166 70 -187v-18q-195 0 -352 98l-224 -73l-8 12q36 35 48 90.5t12 140.5v1088q0 58 -27.5 81t-85.5 23zM674 889v16q18 10 54.5 35.5t61.5 41t67.5 29t86.5 13.5q111 0 198 -62t134 -167t47 -234q0 -249 -157 -414.5 t-423 -185.5v16q97 61 97 498q0 121 -10.5 208t-29.5 132t-39.5 64.5t-45.5 19.5q-21 0 -41 -10z" />
<glyph unicode="c" horiz-adv-x="1169" d="M37 467q0 111 47.5 212t130.5 176.5t201 121t252 47.5v-16q-65 -26 -108.5 -158t-43.5 -338q0 -194 77.5 -317t223.5 -123q154 0 285 88l6 -6q-84 -99 -198.5 -147t-274.5 -48q-283 0 -440.5 138t-157.5 370zM733 1006v16q184 -7 292 -75.5t108 -176.5q0 -72 -57 -121 t-156 -49q-49 0 -99.5 17t-81.5 45q56 83 56 194q0 54 -15.5 95.5t-46.5 54.5z" />
<glyph unicode="d" horiz-adv-x="1347" d="M37 422q0 249 156.5 414.5t422.5 185.5v-16q-96 -60 -96 -498q0 -121 10.5 -208t29.5 -132t39.5 -64.5t45.5 -19.5q21 0 41 10v-16q-18 -10 -54.5 -35.5t-61.5 -41t-67.5 -29t-86.5 -13.5q-111 0 -198 62t-134 167t-47 234zM633 1434q88 0 179 10.5t158 25.5t122 30 t84 26l28 10v-1354q0 -58 26 -82t83 -24l10 -17q-88 0 -177 -10.5t-154 -25t-117.5 -29t-79.5 -24.5l-27 -11l-16 160v725q0 139 -70 162v18q22 0 68 -4v295q0 58 -27.5 81t-85.5 23z" />
<glyph unicode="e" horiz-adv-x="1200" d="M37 467q0 107 44.5 205.5t121.5 172t186 121.5t232 56v-18q-105 -47 -105 -467q0 -463 293 -463q153 0 281 88l8 -8q-84 -99 -199.5 -147t-275.5 -48q-282 0 -434 137t-152 371zM590 600v14l160 17q8 55 8 127q0 97 -20.5 168t-53.5 80v18q211 -5 340 -106.5t139 -292.5 l-20 -25h-553z" />
<glyph unicode="f" horiz-adv-x="823" d="M35 0v14q59 0 89 38t30 106v811h-86v14h86q0 242 149 396.5t393 181.5v-15q-40 -16 -64 -106t-24 -246v-211h197v-14h-197v-869q0 -45 27.5 -65.5t85.5 -20.5v-14q-147 6 -340 6q-87 0 -173.5 -1.5t-129.5 -2.5zM729 1235q27 38 48.5 99.5t21.5 109.5q0 86 -37 104v17 q65 0 127.5 -11.5t121 -35.5t94.5 -68.5t36 -103.5q0 -87 -55.5 -140t-153.5 -53q-59 0 -116 23.5t-87 58.5z" />
<glyph unicode="g" horiz-adv-x="1312" d="M-2 -317q0 75 51 117t113 42q83 0 129 -43q-27 -27 -42.5 -64.5t-15.5 -66.5q0 -165 183 -205v-14q-200 11 -309 70.5t-109 163.5zM43 639q0 144 122.5 254.5t338.5 128.5v-16q-28 -16 -36.5 -94t-8.5 -244q0 -146 15 -247.5t46 -111.5v-18q-62 0 -125.5 11.5t-127.5 38 t-113 65t-80 99t-31 134.5zM68 63q0 51 26 91t68 64t84 37.5t84 18.5l10 -8q-21 -12 -21 -33q0 -25 44.5 -34t142.5 -9h156q259 0 398.5 -83t139.5 -234q0 -77 -32 -142t-90 -112t-128.5 -80t-156.5 -55l-7 16q45 23 72 66.5t27 99.5q0 77 -71 125.5t-187 48.5h-121 q-83 0 -158 12t-139.5 37.5t-102.5 70t-38 103.5zM569 1008v16q81 0 164.5 -20.5t160.5 -60.5t126 -110.5t49 -160.5q0 -142 -132.5 -252t-352.5 -127v14q41 10 55 88t14 252q0 131 -25 242.5t-59 118.5zM942 971q179 3 264 84q56 -7 86.5 -44t30.5 -81q0 -52 -31.5 -85.5 t-87.5 -33.5q-35 0 -71 19t-62 43t-62.5 53.5t-66.5 44.5z" />
<glyph unicode="h" horiz-adv-x="1421" d="M37 0v14q58 0 87.5 38t29.5 106v1157q0 58 -27.5 81t-85.5 23l-4 15q138 0 281 25.5t216 50.5l74 26v-1444q0 -78 80 -78v-14q-106 6 -307 6q-90 0 -176 -1.5t-127 -2.5zM694 868v15q34 15 96 54t117.5 63t112.5 24q124 0 191 -74.5t67 -214.5v-612q0 -66 25 -87.5 t88 -21.5v-14q-135 6 -338 6q-84 0 -160.5 -1.5t-110.5 -2.5l-34 -2v14q41 0 58 22t17 75v677q0 43 -20.5 68t-52.5 25q-21 0 -56 -13z" />
<glyph unicode="i" horiz-adv-x="751" d="M37 0v14q58 0 87.5 38t29.5 106v647q0 58 -27.5 81t-85.5 23l-4 15q138 0 281 25t216 50l74 25v-932q0 -78 80 -78v-14q-98 6 -305 6q-91 0 -177.5 -1.5t-127.5 -2.5zM143 1288q0 90 60 146.5t174 56.5t174.5 -56.5t60.5 -146.5q0 -88 -60 -142t-175 -54q-114 0 -174 54 t-60 142z" />
<glyph unicode="j" horiz-adv-x="761" d="M-106 -492q24 24 69 56.5t82 66t61 74.5q38 66 48 141t10 209v750q0 58 -27.5 81t-85.5 23l-4 15q138 0 281 25t216 50l74 25v-903q0 -151 -46.5 -259.5t-157.5 -178.5q-64 -40 -167.5 -66.5t-197 -52.5t-145.5 -66zM154 1288q0 91 59.5 147t173.5 56t175 -56.5 t61 -146.5q0 -88 -60.5 -142t-175.5 -54q-114 0 -173.5 53.5t-59.5 142.5z" />
<glyph unicode="k" horiz-adv-x="1454" d="M37 0v14q58 0 87.5 38t29.5 106v1157q0 58 -27.5 81t-85.5 23l-4 15q138 0 281 25.5t216 50.5l74 26v-1444q0 -78 80 -78v-14q-98 6 -305 6q-91 0 -177.5 -1.5t-127.5 -2.5zM659 432l269 318l389 -592q41 -63 73 -90t74 -27v-10q-13 -8 -36 -20t-98 -32t-152 -20 q-139 0 -226.5 55.5t-156.5 178.5zM827 969v14h541v-14q-138 0 -219 -39.5t-172 -138.5l-8 10q30 38 30 80q0 41 -43.5 64.5t-128.5 23.5z" />
<glyph unicode="l" horiz-adv-x="751" d="M37 0v14q58 0 87.5 38t29.5 106v1157q0 58 -27.5 81t-85.5 23l-4 15q138 0 281 25.5t216 50.5l74 26v-1444q0 -78 80 -78v-14q-98 6 -305 6q-91 0 -177.5 -1.5t-127.5 -2.5z" />
<glyph unicode="m" horiz-adv-x="2066" d="M37 0v14q58 0 87.5 38t29.5 106v645q0 59 -26 83.5t-83 24.5l-8 13q138 0 281 25t216 50l74 25v-932q0 -78 80 -78v-14q-98 6 -305 6q-91 0 -177.5 -1.5t-127.5 -2.5zM676 868v15q34 15 97 54t119.5 63t113.5 24q124 0 191 -74.5t67 -214.5v-612q0 -67 16 -88t63 -21v-14 q-102 6 -305 6q-84 0 -160.5 -1.5t-110.5 -2.5l-34 -2v14q41 0 58.5 22t17.5 75v677q0 43 -21 68t-53 25q-24 0 -59 -13zM1329 868v15q33 14 98.5 53.5t123 63.5t114.5 24q124 0 191 -74.5t67 -214.5v-612q0 -66 25 -87.5t88 -21.5v-14q-135 6 -338 6q-84 0 -160.5 -1.5 t-110.5 -2.5l-34 -2v14q41 0 58 22t17 75v677q0 43 -20.5 68t-52.5 25q-31 0 -66 -13z" />
<glyph unicode="n" horiz-adv-x="1406" d="M37 0v14q58 0 87.5 38t29.5 106v647q0 58 -27.5 81t-85.5 23l-4 15q138 0 281 25t216 50l74 25v-932q0 -78 80 -78v-14q-98 6 -305 6q-91 0 -177.5 -1.5t-127.5 -2.5zM682 868v15q34 15 96 54t117.5 63t112.5 24q124 0 191 -74.5t67 -214.5v-612q0 -66 24.5 -87.5 t87.5 -21.5v-14q-135 6 -338 6q-84 0 -160.5 -1.5t-110.5 -2.5l-34 -2v14q41 0 58.5 22t17.5 75v677q0 43 -21 68t-53 25q-20 0 -55 -13z" />
<glyph unicode="o" horiz-adv-x="1290" d="M37 467q0 100 38 193.5t107.5 169.5t176.5 127t237 63v-16q-41 -31 -60.5 -149.5t-19.5 -346.5q0 -216 29 -357.5t82 -170.5v-21q-118 0 -223.5 34t-187.5 97t-130.5 160.5t-48.5 216.5zM662 1006v18q117 0 222.5 -33.5t188 -95.5t131.5 -160t49 -219 q0 -100 -37.5 -193.5t-107 -169.5t-177.5 -127t-239 -63v14q43 29 62.5 148t19.5 350q0 476 -112 531z" />
<glyph unicode="p" horiz-adv-x="1355" d="M35 -500q119 0 119 146v1155q0 58 -26 82t-83 24l-10 17q88 0 177 10.5t154 25t117.5 29t79.5 25.5l27 10l16 -160v-725q0 -151 70 -162v-18q-22 0 -68 4v-317q0 -69 29 -107.5t88 -38.5v-12h-690v12zM672 889v16q18 10 54.5 35.5t61.5 41t67.5 29t86.5 13.5 q111 0 198 -62t134 -167t47 -234q0 -174 -70 -309.5t-202.5 -213t-307.5 -77.5v16q50 26 73.5 145t23.5 353q0 121 -10.5 208t-29.5 132t-39.5 64.5t-45.5 19.5q-21 0 -41 -10z" />
<glyph unicode="q" horiz-adv-x="1347" d="M37 422q0 249 156.5 414.5t422.5 185.5v-16q-96 -47 -96 -498q0 -121 10.5 -208t29.5 -132t39.5 -64.5t45.5 -19.5q21 0 41 10v-16q-18 -10 -54.5 -35.5t-61.5 -41t-67.5 -29t-86.5 -13.5q-111 0 -198 62t-134 167t-47 234zM633 -500q59 0 89 38.5t30 107.5v1200 q0 81 -16.5 118.5t-53.5 45.5v14q214 0 348 -98l227 73l9 -10q-62 -67 -62 -231v-1180q0 -78 80 -78v-12h-651v12z" />
<glyph unicode="r" horiz-adv-x="1153" d="M37 0v14q58 0 87.5 38t29.5 106v647q0 58 -27.5 81t-85.5 23l-4 15q138 0 281 25t216 50l74 25v-918q0 -47 26 -69.5t83 -22.5v-14q-127 6 -334 6q-91 0 -177.5 -1.5t-127.5 -2.5zM688 856q20 12 49.5 43t53.5 57t62.5 47t80.5 21q87 0 143 -57t56 -140q0 -89 -57.5 -153 t-155.5 -64q-35 0 -74.5 12t-59.5 29q25 50 25 94q0 43 -22 72t-64 29q-20 0 -35 -6z" />
<glyph unicode="s" horiz-adv-x="1060" d="M70 694q0 154 123.5 240.5t336.5 89.5v-14q-33 -6 -52 -31t-19 -64q0 -46 30.5 -86t78.5 -72t107 -64t117.5 -69t106.5 -79.5t78.5 -102.5t30.5 -131q0 -163 -128.5 -257t-367.5 -95v18q48 1 71 30.5t23 74.5q0 48 -29.5 90t-77 76t-104.5 67.5t-114 71t-104.5 79.5 t-77 100.5t-29.5 127.5zM74 371h12q26 -148 128.5 -261t227.5 -130v-19q-32 3 -80.5 15t-112.5 20t-157 8zM600 1008v14q39 -3 144 -24t184 -21l-13 -311h-14q-18 127 -100 226t-201 116z" />
<glyph unicode="t" horiz-adv-x="790" d="M45 969v14q146 0 290.5 83.5t227.5 203.5l12 -4v-283h125v-14h-125v-789q0 -47 23.5 -70.5t58.5 -23.5q59 0 105 37l8 -8q-52 -73 -146 -114.5t-204 -41.5q-142 0 -219.5 65.5t-77.5 221.5v723h-78z" />
<glyph unicode="u" horiz-adv-x="1400" d="M33 971v12l549 18l16 -16v-790q0 -43 21 -68t53 -25q20 0 55 13v-15q-37 -15 -81 -42t-75 -47.5t-76.5 -36t-93.5 -15.5q-124 0 -191 74.5t-67 214.5v612q0 68 -23.5 89.5t-86.5 21.5zM725 971v12l516 18l16 -16v-807q0 -58 27.5 -81t85.5 -23l4 -15q-87 0 -176 -10.5 t-154 -25t-117 -29t-79 -24.5l-27 -11l-18 160v774q0 78 -78 78z" />
<glyph unicode="v" horiz-adv-x="1320" d="M23 969v14q186 -8 395 -8q93 0 170.5 2t109.5 4l31 2v-14q-40 0 -60 -21.5t-20 -54.5q0 -32 25 -102l213 -598l-68 -193h-319l-346 868q-21 54 -47.5 77.5t-83.5 23.5zM895 969v14q90 -8 219 -8q49 0 95.5 2t68.5 4l22 2v-14q-150 0 -233 -252l-35 -107l-14 4 q41 139 41 199q0 69 -38.5 112.5t-125.5 43.5z" />
<glyph unicode="w" horiz-adv-x="2019" d="M23 969v14q176 -4 385 -4l311 4v-14q-76 0 -76 -72q0 -43 16 -106l170 -607l-65 -184h-307l-303 868q-20 56 -46.5 78.5t-84.5 22.5zM801 969v14q120 -8 282 -8l347 8v-14q0 -66 24 -164l156 -619l-56 -186h-333l-263 813q-49 156 -157 156zM1589 969v14q90 -8 219 -8 q49 0 96 2t69 4l22 2v-14q-78 0 -139.5 -68.5t-94.5 -183.5l-30 -107l-15 4q37 136 37 199q0 67 -38.5 109.5t-125.5 46.5z" />
<glyph unicode="x" horiz-adv-x="1286" d="M-16 0v12q111 0 211 81t202 229l9 -9q-28 -45 -46 -85t-24 -81q-2 -14 -3 -27q1 -24 9 -42q12 -28 51 -47t105 -19v-12q-158 8 -295 8zM49 971v12q194 -8 393 -8q84 0 168 2t126 4l42 2v-12q-67 0 -67 -64q0 -36 24 -82l410 -700q68 -113 164 -113v-12q-189 8 -379 8 q-68 0 -154.5 -2t-139.5 -4l-52 -2v12q80 0 80 54q0 26 -33 86l-424 714q-36 61 -66.5 83t-91.5 22zM860 971v12q82 -8 178 -8q40 0 83.5 2t66.5 4l24 2v-12q-139 0 -280 -209l-23 -33l-8 10q20 29 34.5 58t22.5 61.5t3 56.5t-30 40t-71 16z" />
<glyph unicode="y" horiz-adv-x="1323" d="M23 965v18q186 -8 395 -8q93 0 170.5 2t109.5 4l31 2v-18q-40 0 -60 -21.5t-20 -54.5t25 -103l213 -591l-68 -195h-319l-346 864q-21 54 -47.5 77.5t-83.5 23.5zM147 -256q0 88 61.5 147.5t164.5 59.5q97 0 151 -57t54 -123q-62 -13 -98 -50.5t-36 -82.5q0 -31 18 -51.5 t48 -20.5q59 0 112.5 61t96.5 156l14 -8q-26 -57 -53.5 -100t-65 -80.5t-86 -57.5t-106.5 -20q-128 0 -201.5 64t-73.5 163zM895 969v14q90 -8 219 -8q49 0 95.5 2t68.5 4l22 2v-14q-150 0 -233 -252l-35 -107l-14 4q41 139 41 199q0 69 -39 112.5t-125 43.5z" />
<glyph unicode="z" horiz-adv-x="1130" d="M43 18l537 965h483l8 -18l-541 -965h-475zM86 582l64 401h325v-12q-133 -15 -229.5 -115t-147.5 -274h-12zM651 0v12q144 7 255.5 133t166.5 334h12l-73 -479h-361z" />
<glyph unicode="{" horiz-adv-x="874" d="M41 606v17q160 0 160 170q0 51 -24.5 189.5t-24.5 215.5q0 56 10 103t27 83t45 64t58 48t71.5 34t80 22t90 13t95.5 6.5t100 1.5v-14q-77 0 -112 -39t-35 -134q0 -71 15 -205t15 -202q0 -100 -30.5 -170t-92.5 -110.5t-144.5 -59.5t-197.5 -21v-8q115 -2 197 -20.5 t144.5 -59.5t93 -110.5t30.5 -169.5q0 -68 -15 -202.5t-15 -205.5q0 -94 35 -133t112 -39v-14q-56 0 -100 1.5t-95.5 6.5t-90 13t-80 22t-71.5 34t-58 48t-45 64t-27 83t-10 103q0 77 24.5 215.5t24.5 189.5q0 170 -160 170z" />
<glyph unicode="|" horiz-adv-x="327" d="M154 -549v2257h20v-2257h-20z" />
<glyph unicode="}" horiz-adv-x="874" d="M145 -330q77 0 112.5 39t35.5 133q0 71 -15.5 205.5t-15.5 202.5q0 100 30.5 169.5t93 110.5t144.5 59.5t197 20.5v8q-115 2 -197.5 21t-144.5 59.5t-92.5 110.5t-30.5 170q0 68 15.5 202t15.5 205q0 94 -35.5 133.5t-112.5 39.5v14q74 0 129 -2.5t118.5 -11.5t108.5 -25 t89.5 -44t72 -67t44 -96t16.5 -129q0 -77 -24.5 -215.5t-24.5 -189.5q0 -170 160 -170v-17q-160 0 -160 -170q0 -51 24.5 -189.5t24.5 -215.5q0 -72 -16.5 -129t-44 -96t-72 -67t-89.5 -44t-108.5 -25t-118.5 -11.5t-129 -2.5v14z" />
<glyph unicode="~" horiz-adv-x="931" d="M55 575q46 168 193 168q57 0 118 -28t105.5 -61t104 -61t112.5 -28q128 0 174 154l19 -6q-46 -168 -193 -168q-57 0 -118 28t-105.5 61t-104 61t-112.5 28q-128 0 -174 -154z" />
<glyph unicode="&#xa1;" horiz-adv-x="614" d="M41 -197q0 74 26.5 141.5t64.5 119.5t76 103t64.5 114t26.5 131q0 31 -1.5 57.5t-3.5 37.5l-1 11h33q-7 -36 -7 -106q0 -57 19 -112t48 -96t62.5 -88.5t62.5 -90t48 -101t19 -121.5q0 -112 -76 -190t-193 -78t-192.5 78t-75.5 190zM84 831q0 96 57 156t162 60t163 -60 t58 -156q0 -95 -58 -156t-163 -61t-162 61t-57 156z" />
<glyph unicode="&#xa2;" horiz-adv-x="1169" d="M37 467q0 159 82 284t219.5 194t308.5 77l-4 -18q-56 -20 -91.5 -157t-35.5 -335q0 -57 9 -115t31.5 -117t56 -104t86.5 -73.5t118 -28.5q152 0 283 88l8 -8q-84 -99 -198.5 -147t-274.5 -48l-68 2l-32 -199h-21l33 201q-244 23 -377 157t-133 347zM721 1006l37 215h18 l-33 -199q60 -3 120 -16.5t124.5 -40.5t105 -77.5t40.5 -117.5q0 -72 -57 -121t-156 -49q-48 0 -96.5 16.5t-80.5 45.5q56 83 56 194q0 50 -18.5 94.5t-59.5 55.5z" />
<glyph unicode="&#xa3;" horiz-adv-x="1316" d="M47 731v17h105q-50 112 -50 225q0 138 80 250t213.5 176t294.5 71v-16q-40 -12 -70.5 -44.5t-49.5 -87.5t-31 -113t-17.5 -142t-7.5 -153t-2 -166h342v-17h-342q-1 -84 -19.5 -169.5t-61.5 -186.5t-129 -203.5t-206 -189.5l-12 18q89 79 132.5 152.5t43.5 181.5 q0 165 -100 397h-113zM303 121q99 135 189 187t194 52q79 0 209 -32.5t172 -32.5q87 0 131.5 39t56.5 135h17q0 -248 -118 -378t-325 -130q-73 0 -149 24t-127.5 53t-109.5 53t-99 24q-15 0 -35 -4zM791 1087q36 45 57.5 106.5t21.5 117.5q0 54 -20 95.5t-59 49.5v12 q207 -11 315 -89t108 -187q0 -85 -56.5 -139t-151.5 -54q-130 0 -215 88z" />
<glyph unicode="&#xa4;" horiz-adv-x="1161" d="M98 143l138 140q-132 146 -132 329q0 184 132 330l-138 139l15 15l137 -140q104 101 248 127l6 -20q-161 -28 -270 -155.5t-109 -295.5t109 -295t270 -155l-6 -21q-144 26 -248 127l-137 -139zM657 162q161 28 270 155t109 295t-109 295.5t-270 155.5l7 20 q142 -25 247 -127l138 140l14 -15l-137 -139q131 -145 131 -330q0 -184 -131 -329l137 -140l-14 -14l-138 139q-105 -102 -247 -127z" />
<glyph unicode="&#xa5;" horiz-adv-x="1540" d="M33 1419v15q167 -7 409 -7q120 0 221 1.5t142 3.5l41 2v-15q-49 0 -79 -25.5t-30 -64.5q0 -52 49 -137l232 -416v-90h231v-20h-942v20h232v66l-346 559q-41 65 -78 86.5t-82 21.5zM307 459v20h942v-20h-231v-262q0 -105 35.5 -144t117.5 -39v-14q-180 6 -393 6l-393 -6 v14q77 0 115.5 67t38.5 189v189h-232zM1049 1419v15q94 -7 260 -7q54 0 103.5 1.5t71.5 3.5l23 2v-15q-63 0 -143 -68.5t-150 -197.5l-55 -102l-14 6q84 158 84 239q0 59 -40.5 91t-139.5 32z" />
<glyph unicode="&#xa7;" horiz-adv-x="1157" d="M47 938q0 153 96 274t263 199l6 -6q-72 -69 -106 -151.5t-34 -194.5q0 -85 31.5 -170t81.5 -157t110.5 -144t121 -142.5t110.5 -140.5t81.5 -150t31.5 -159q0 -40 -8.5 -82.5t-35 -94.5t-68 -92t-114.5 -67t-168 -27q-140 0 -216 52t-76 122q0 58 40 97t117 39 q92 0 148 -39q-37 -71 -37 -146q0 -104 94 -104q33 0 65.5 13.5t62.5 40t48.5 74.5t18.5 109q0 68 -36.5 137t-95 131t-129.5 127t-142 136.5t-129.5 147t-95 171t-36.5 197.5zM317 1110q0 40 8.5 82.5t35 94.5t68 92t114.5 67t168 27q141 0 217 -48t76 -116 q0 -60 -39.5 -103t-118.5 -43q-92 0 -148 39q37 71 37 146q0 104 -94 104q-33 0 -65.5 -13.5t-62.5 -40.5t-48.5 -75t-18.5 -109q0 -68 36.5 -140t95 -137t129.5 -133.5t142 -141.5t129.5 -148t95 -165t36.5 -181q0 -153 -96 -274t-262 -199l-7 6q72 69 106 151.5t34 194.5 q0 88 -31.5 174.5t-81.5 160t-110.5 146.5t-121 143t-110.5 139t-81.5 146.5t-31.5 153.5z" />
<glyph unicode="&#xa8;" horiz-adv-x="1193" d="M190 1286q0 76 46 126t131 50t131.5 -50t46.5 -126q0 -77 -46 -125.5t-132 -48.5t-131.5 48.5t-45.5 125.5zM649 1286q0 76 45.5 126t128.5 50q88 0 134.5 -50t46.5 -126q0 -77 -46 -125.5t-135 -48.5q-83 0 -128.5 48.5t-45.5 125.5z" />
<glyph unicode="&#xa9;" horiz-adv-x="1705" d="M117 717q0 197 88.5 365t245.5 271.5t350 116.5v-30q-181 -13 -329 -111t-233 -259.5t-85 -352.5q0 -143 50 -272t135.5 -224.5t205.5 -156t256 -70.5v-31q-193 13 -350 117t-245.5 272t-88.5 365zM389 702q0 205 137 339.5t355 134.5v-13q-28 -2 -49.5 -12.5t-43 -39 t-35.5 -74.5t-23 -123.5t-9 -180.5q0 -217 39.5 -334t103.5 -125v-16q-217 0 -346 114t-129 330zM901 -6q134 9 254 69t206.5 155.5t137.5 225.5t51 273q0 144 -50.5 274t-137 225t-206.5 155t-255 69v30q193 -12 350.5 -115.5t246.5 -271.5t89 -366q0 -197 -89 -365.5 t-246.5 -272.5t-350.5 -116v31zM965 268v15q83 24 155.5 103.5t104.5 203.5h12l-35 -277q-47 0 -85.5 -7t-81.5 -20t-70 -18zM981 1151v14q18 -3 64 -11t86 -12.5t90 -4.5v-250h-11q-22 104 -85.5 172t-143.5 92z" />
<glyph unicode="&#xaa;" horiz-adv-x="966" d="M47 621v20h871v-20h-871zM78 897q0 99 93 158.5t265 68.5v-12q-53 -30 -53 -160q0 -55 18 -90t50 -35q12 0 20 4l6 -16q-12 -5 -42 -19.5t-50 -23t-53 -16.5t-66 -8q-81 0 -134.5 37.5t-53.5 111.5zM123 1290q0 70 80.5 116.5t197.5 59.5v-12q-47 -15 -47 -96 q0 -71 41 -125q-66 -49 -147 -49q-56 0 -90.5 30t-34.5 76zM463 1458v15q68 0 117 -6.5t92.5 -24.5t70.5 -49t42.5 -80.5t15.5 -118.5q0 -72 -6.5 -160.5t-6.5 -132.5q0 -90 52 -90q22 0 41 23l8 -9q-20 -34 -69.5 -53.5t-112.5 -19.5q-103 0 -158 63.5t-55 183.5 q0 48 6 156t6 172q0 66 -7.5 95t-35.5 36z" />
<glyph unicode="&#xab;" horiz-adv-x="901" d="M57 526v41l502 471l12 -12l-221 -479l221 -479l-12 -13zM428 526v41l403 381l13 -12l-158 -389l158 -395l-13 -13z" />
<glyph unicode="&#xac;" horiz-adv-x="903" d="M0 711v20h903v-455h-22v435h-881z" />
<glyph unicode="&#xad;" horiz-adv-x="735" d="M49 584v16h637v-16h-637z" />
<glyph unicode="&#xae;" horiz-adv-x="581" d="M51 1233q0 95 57.5 160.5t149.5 76.5v-14q-85 -11 -137.5 -72.5t-52.5 -150.5t52.5 -150.5t137.5 -72.5v-15q-92 10 -149.5 76.5t-57.5 161.5zM147 1096v10q29 0 29 49v172q0 35 -29 35v10q35 -2 76 -2q33 0 45 2v-231q0 -35 31 -35v-10q-35 2 -76 2zM295 1225v8 q29 8 29 70q0 61 -29 61v8q123 0 123 -69q0 -70 -92 -70v-4q75 0 88 -60l8 -36q6 -25 29 -25l2 -6q-24 -12 -62 -12q-65 0 -74 63l-6 45q-3 24 -16 27zM324 995v15q85 11 137.5 72.5t52.5 150.5t-52.5 150.5t-137.5 72.5v14q91 -11 148.5 -76.5t57.5 -160.5t-57.5 -161 t-148.5 -77z" />
<glyph unicode="&#xaf;" horiz-adv-x="768" d="M66 1239v21h636v-21h-636z" />
<glyph unicode="&#xb0;" horiz-adv-x="643" d="M63 1225q0 96 65 165t163 80v-22q-87 -11 -145 -73.5t-58 -149.5q0 -84 58 -146t145 -73v-23q-97 11 -162.5 80t-65.5 162zM356 983v23q87 11 145 73t58 146q0 87 -58 149.5t-145 73.5v22q98 -11 163 -80t65 -165q0 -93 -65.5 -162t-162.5 -80z" />
<glyph unicode="&#xb1;" horiz-adv-x="903" d="M0 66v20h903v-20h-903zM0 545v20h440v432h23v-432h440v-20h-440v-426h-23v426h-440z" />
<glyph unicode="&#xb2;" horiz-adv-x="761" d="M37 877q0 108 77.5 169.5t182.5 61.5q56 0 167.5 -15.5t170.5 -15.5q67 0 76 60h14q0 -160 -60 -235t-194 -75q-80 0 -185 37t-147 37q-44 0 -65 -22t-21 -52h-10q-6 30 -6 50zM51 1462q0 62 48 112t143 71v-11q-47 -24 -47 -82q0 -42 24.5 -63.5t63.5 -24.5q4 -16 4 -26 q0 -42 -29.5 -73.5t-83.5 -31.5q-61 0 -92 37t-31 92zM109 1075q15 20 46 46.5t62.5 50t67 58t62 71t44 88t17.5 108.5q0 61 -22.5 100t-59.5 48v10q16 2 39 2q147 0 242 -59.5t95 -157.5q0 -85 -43.5 -136.5t-114 -74t-146 -38t-155.5 -45t-126 -77.5z" />
<glyph unicode="&#xb3;" horiz-adv-x="743" d="M31 1024q0 47 33 87t92 40q49 0 77.5 -32t28.5 -72q0 -13 -4 -25q-36 -3 -62 -28.5t-26 -63.5q0 -47 37 -76l-6 -8q-79 17 -124.5 66.5t-45.5 111.5zM59 1462q0 62 48 112t143 71v-11q-47 -24 -47 -82q0 -42 24.5 -63.5t63.5 -24.5q4 -16 4 -26q0 -42 -29.5 -73.5 t-83.5 -31.5q-61 0 -92 37t-31 92zM248 1266q73 27 120.5 92.5t47.5 150.5q0 55 -21 92.5t-61 43.5v10q15 2 31 2q152 0 233.5 -48.5t81.5 -129.5q0 -78 -60.5 -121.5t-177.5 -63.5l2 -10q31 8 72 8q87 0 142 -48.5t55 -123.5q0 -122 -99 -207.5t-278 -85.5q-39 0 -57 2 l2 13q76 7 123 79t47 177q0 71 -38.5 117.5t-103.5 46.5q-30 0 -57 -9z" />
<glyph unicode="&#xb4;" horiz-adv-x="555" d="M70 1114l270 422q67 0 106 -37t39 -90q0 -67 -60.5 -129.5t-152 -105.5t-198.5 -66z" />
<glyph unicode="&#xb6;" horiz-adv-x="1124" d="M39 -190q0 69 47.5 104t112.5 35q31 0 63 -9t47 -22q-30 -62 -30 -133q0 -61 26 -102t76 -41q71 0 124 44t82.5 119t43.5 160t14 180v437h-110q-486 0 -486 424q0 99 27 174t72 122.5t111.5 77.5t138.5 42t159 12q68 0 107 -2v-1287q0 -78 -8.5 -150t-30 -141t-53 -120 t-80.5 -82t-111 -31q-99 0 -173 18t-121.5 61.5t-47.5 109.5zM614 -322q83 55 123.5 176t40.5 371v1202h47q77 0 141.5 1.5t90.5 3.5l26 2v-15q-76 0 -114.5 -66.5t-38.5 -189.5v-833q0 -105 -11.5 -194t-28 -150.5t-44.5 -113t-52 -82.5t-59.5 -58t-58 -39.5t-55.5 -28.5z " />
<glyph unicode="&#xb7;" horiz-adv-x="591" d="M76 627q0 95 57 156t162 61t163 -61t58 -156q0 -96 -58 -155.5t-163 -59.5t-162 59.5t-57 155.5z" />
<glyph unicode="&#xb8;" horiz-adv-x="681" d="M104 -406q0 38 30.5 63.5t74.5 25.5q41 0 76 -21q-25 -36 -25 -86q0 -72 62 -72q31 0 50 24t19 62q0 29 -15.5 52.5t-37.5 40t-44.5 33t-38 38t-15.5 47.5q0 25 14 47.5t34 37t40.5 25t34.5 15.5l14 4l12 -6q-41 -26 -41 -59q0 -16 23.5 -29t56.5 -25.5t66.5 -29 t57 -46.5t23.5 -71q0 -76 -78.5 -126t-195.5 -50q-84 0 -140.5 27.5t-56.5 78.5z" />
<glyph unicode="&#xb9;" horiz-adv-x="495" d="M33 848v12q84 0 84 139v469q0 77 -18.5 103t-65.5 26v13q89 0 186 12t160 35v-699q0 -57 19.5 -77.5t64.5 -20.5v-12q-98 4 -215 4z" />
<glyph unicode="&#xba;" horiz-adv-x="966" d="M47 621v20h871v-20h-871zM68 1092q0 142 100.5 250t273.5 126v-14q-55 -47 -55 -334q0 -140 19 -236t57 -118v-18q-167 0 -281 95.5t-114 248.5zM504 1454v19q108 0 197 -42t142.5 -122t53.5 -183q0 -140 -100.5 -248t-272.5 -126v14q32 25 43 103t11 229q0 316 -74 356z " />
<glyph unicode="&#xbb;" horiz-adv-x="903" d="M57 152l158 395l-158 389l13 12l403 -381v-41l-403 -387zM330 68l221 479l-221 479l12 12l502 -471v-41l-502 -471z" />
<glyph unicode="&#xbc;" horiz-adv-x="1341" d="M33 664v12q84 0 84 139v469q0 77 -18.5 103t-65.5 26v12q87 0 185 12.5t161 35.5v-699q0 -57 19.5 -77.5t64.5 -20.5v-12q-98 4 -215 4zM377 -20l559 1474h22l-557 -1474h-24zM631 190l172 230q80 106 80 205q0 80 -43 131q49 53 125 53q66 0 106.5 -40.5t40.5 -94.5 q0 -58 -33 -108.5t-110 -114.5l-332 -269zM860 0v12q84 0 84 140v227l262 137v-319h97v-15h-97v-71q0 -58 19.5 -78.5t64.5 -20.5v-12q-98 4 -215 4z" />
<glyph unicode="&#xbd;" horiz-adv-x="1507" d="M33 664v12q84 0 84 139v469q0 77 -18.5 103t-65.5 26v12q87 0 185 12.5t161 35.5v-699q0 -57 19.5 -77.5t64.5 -20.5v-12q-98 4 -215 4zM377 -20l559 1474h22l-557 -1474h-24zM782 10q0 108 78 170t182 62q56 0 167.5 -15.5t170.5 -15.5q67 0 76 59h14 q0 -160 -59.5 -234.5t-193.5 -74.5q-80 0 -185 37t-147 37q-44 0 -65 -22t-21 -52h-11q-6 30 -6 49zM797 596q0 62 47.5 111.5t142.5 70.5v-10q-47 -24 -47 -82q0 -42 24.5 -63.5t63.5 -24.5q4 -16 4 -27q0 -42 -29 -73t-83 -31q-61 0 -92 37t-31 92zM854 209q15 20 46 46.5 t62.5 50t67 58t62 71t44 88t17.5 108.5q0 61 -22.5 99.5t-59.5 47.5v10q24 3 39 3q147 0 242.5 -60t95.5 -158q0 -62 -23 -106t-63.5 -68.5t-90 -41t-107 -29t-111 -26t-105.5 -38.5t-86 -61z" />
<glyph unicode="&#xbe;" horiz-adv-x="1474" d="M31 840q0 47 33 87t92 40q49 0 77.5 -32t28.5 -73q0 -12 -4 -24q-36 -3 -62 -29t-26 -64q0 -46 37 -75l-6 -8q-79 17 -124.5 66.5t-45.5 111.5zM59 1278q0 62 48 111.5t143 70.5v-10q-47 -24 -47 -82q0 -42 24.5 -63.5t63.5 -24.5q4 -16 4 -27q0 -42 -29.5 -73t-83.5 -31 q-61 0 -92 37t-31 92zM248 1081q73 27 120.5 93t47.5 151q0 55 -21 92t-61 43v10q15 3 31 3q152 0 233.5 -49t81.5 -130q0 -78 -60.5 -121t-177.5 -63l2 -10q31 8 72 8q87 0 142 -48.5t55 -123.5q0 -122 -99 -207.5t-278 -85.5q-39 0 -57 2l2 12q76 7 123 79t47 177 q0 71 -38.5 117.5t-103.5 46.5q-33 0 -57 -8zM516 -20l559 1474h23l-557 -1474h-25zM766 190l172 230q80 106 80 205q0 80 -43 131q49 53 125 53q66 0 106.5 -40.5t40.5 -94.5q0 -58 -33 -108.5t-110 -114.5l-332 -269zM995 0v12q84 0 84 140v227l262 137v-319h97v-15h-97 v-71q0 -58 19.5 -78.5t64.5 -20.5v-12q-98 4 -215 4z" />
<glyph unicode="&#xbf;" horiz-adv-x="1042" d="M61 -66q0 84 29.5 150t77.5 106.5t105 71.5t114.5 52t105.5 41t77.5 45.5t29.5 58.5q0 32 -22 69l6 7q55 -36 100 -104.5t45 -143.5q0 -55 -18 -100.5t-46.5 -78.5t-63.5 -63l-70 -60t-63.5 -63t-46.5 -78.5t-18 -99.5q0 -79 42.5 -130.5t103.5 -62.5l-2 -10 q-214 24 -350 139t-136 254zM352 831q0 96 58 156t163 60t162.5 -60t57.5 -156q0 -95 -57.5 -156t-162.5 -61t-163 61t-58 156zM647 -207q0 55 41 96t109 41q86 0 136 -50t50 -113q0 -103 -86 -167.5t-250 -64.5v10q39 7 59.5 37.5t20.5 65.5t-21 65.5t-55 48.5q-4 20 -4 31 z" />
<glyph unicode="&#xc0;" horiz-adv-x="1615" d="M18 0v14q160 0 258 291l23 66l16 -2l-20 -68q-17 -57 -24.5 -95t-5.5 -77.5t21.5 -62.5t61 -37.5t107.5 -14.5v-14q-111 6 -248 6zM393 586l6 20h402l-197 664l35 100l352 107l445 -1321q49 -142 161 -142v-14q-113 6 -395 6q-122 0 -217.5 -1.5t-130.5 -2.5l-35 -2v14 q113 0 113 101q0 40 -33 159l-92 312h-414zM565 1837q0 53 39.5 90t106.5 37l270 -422l-4 -6q-107 23 -198.5 66t-152.5 105.5t-61 129.5z" />
<glyph unicode="&#xc1;" horiz-adv-x="1615" d="M18 0v14q160 0 258 291l23 66l16 -2l-20 -68q-17 -57 -24.5 -95t-5.5 -77.5t21.5 -62.5t61 -37.5t107.5 -14.5v-14q-111 6 -248 6zM393 586l6 20h402l-197 664l35 100l352 107l445 -1321q49 -142 161 -142v-14q-113 6 -395 6q-122 0 -217.5 -1.5t-130.5 -2.5l-35 -2v14 q113 0 113 101q0 40 -33 159l-92 312h-414zM645 1542l270 422q67 0 106.5 -37t39.5 -90q0 -67 -61 -129.5t-152.5 -105.5t-198.5 -66z" />
<glyph unicode="&#xc2;" horiz-adv-x="1615" d="M18 0v14q160 0 258 291l23 66l16 -2l-20 -68q-17 -57 -24.5 -95t-5.5 -77.5t21.5 -62.5t61 -37.5t107.5 -14.5v-14q-111 6 -248 6zM393 586l6 20h402l-197 664l35 100l352 107l445 -1321q49 -142 161 -142v-14q-113 6 -395 6q-122 0 -217.5 -1.5t-130.5 -2.5l-35 -2v14 q113 0 113 101q0 40 -33 159l-92 312h-414zM467 1526l297 301h127l297 -301l-6 -10l-355 106l-354 -106z" />
<glyph unicode="&#xc3;" horiz-adv-x="1615" d="M18 0v14q160 0 258 291l23 66l16 -2l-20 -68q-17 -57 -24.5 -95t-5.5 -77.5t21.5 -62.5t61 -37.5t107.5 -14.5v-14q-111 6 -248 6zM393 586l6 20h402l-197 664l35 100l352 107l445 -1321q49 -142 161 -142v-14q-113 6 -395 6q-122 0 -217.5 -1.5t-130.5 -2.5l-35 -2v14 q113 0 113 101q0 40 -33 159l-92 312h-414zM449 1540q15 303 243 303q60 0 116 -16.5t92.5 -36.5t84 -36.5t92.5 -16.5t79 27t44 85l12 -10q-15 -303 -243 -303q-60 0 -116 16.5t-92 36.5t-84 36.5t-93 16.5q-44 0 -78.5 -27t-44.5 -85z" />
<glyph unicode="&#xc4;" horiz-adv-x="1615" d="M18 0v14q160 0 258 291l23 66l16 -2l-20 -68q-17 -57 -24.5 -95t-5.5 -77.5t21.5 -62.5t61 -37.5t107.5 -14.5v-14q-111 6 -248 6zM393 586l6 20h402l-197 664l35 100l352 107l445 -1321q49 -142 161 -142v-14q-113 6 -395 6q-122 0 -217.5 -1.5t-130.5 -2.5l-35 -2v14 q113 0 113 101q0 40 -33 159l-92 312h-414zM401 1710q0 76 46 126t131 50t131.5 -50t46.5 -126q0 -77 -46 -125.5t-132 -48.5t-131.5 48.5t-45.5 125.5zM860 1710q0 76 45.5 126t128.5 50q88 0 134 -49.5t46 -126.5t-46 -125.5t-134 -48.5q-83 0 -128.5 48.5t-45.5 125.5z " />
<glyph unicode="&#xc5;" horiz-adv-x="1615" d="M18 0v14q160 0 258 291l23 66l16 -2l-20 -68q-17 -57 -24.5 -95t-5.5 -77.5t21.5 -62.5t61 -37.5t107.5 -14.5v-14q-111 6 -248 6zM393 586l6 20h402l-197 664l35 100l352 107l445 -1321q49 -142 161 -142v-14q-113 6 -395 6q-122 0 -217.5 -1.5t-130.5 -2.5l-35 -2v14 q113 0 113 101q0 40 -33 159l-92 312h-414zM582 1724q0 74 47.5 129t132.5 70v-14q-47 -25 -47 -170q0 -76 17.5 -127.5t49.5 -61.5v-14q-84 2 -142 51.5t-58 136.5zM827 1911v16q83 -3 140 -53t57 -135q0 -74 -46 -128t-130 -71v16q43 30 43 168q0 75 -17 125t-47 62z" />
<glyph unicode="&#xc6;" horiz-adv-x="2172" d="M4 0v14q81 0 172 77.5t180 213.5l41 64l21 -11l-12 -18q-82 -130 -82 -201q0 -125 157 -125v-14q-153 6 -288 6zM559 588l12 22h408v627q0 105 -36 143.5t-118 38.5v15q181 -7 394 -7q14 0 239 5v-1235q0 -169 60 -181v-14q-30 0 -144 2t-155 2l-394 -6v14q77 0 115.5 67 t38.5 189v318h-420zM1577 752v14q118 0 186 75t68 218h14v-656h-14q0 54 -6.5 100.5t-23.5 93.5t-44.5 80t-73.5 54t-106 21zM1577 1417v13q89 0 475 4v-439h-14q-23 198 -147.5 310t-313.5 112zM1645 2v16q172 0 301 145t174 398h16l-94 -561q-272 0 -397 2z" />
<glyph unicode="&#xc7;" horiz-adv-x="1519" d="M49 684q0 164 56.5 308.5t157.5 251t250 168t325 61.5v-19q-53 -6 -94.5 -41.5t-76 -113t-53 -219t-18.5 -341.5q0 -703 242 -759v-19q-193 0 -344 53t-248 149.5t-147 228.5t-50 292zM561 -406q0 38 30.5 63.5t74.5 25.5q40 0 75 -21q-24 -34 -24 -86q0 -72 61 -72 q31 0 50.5 24t19.5 62q0 35 -24 63.5t-52 45.5t-52 44t-24 58q0 25 14 47.5t34.5 37t41 25t34.5 15.5l14 4l12 -6q-41 -26 -41 -59q0 -16 23.5 -29t56.5 -25.5t66.5 -29t57 -46.5t23.5 -71q0 -76 -78.5 -126t-195.5 -50q-84 0 -140.5 27.5t-56.5 78.5zM969 -14 q145 33 281.5 183.5t193.5 373.5h14l-63 -498q-112 0 -255 -35t-171 -39v15zM969 1448v16q57 -6 133.5 -21t153.5 -25.5t171 -10.5v-412h-14q-40 195 -165.5 310t-278.5 143z" />
<glyph unicode="&#xc8;" horiz-adv-x="1388" d="M41 0v14q77 0 115.5 67t38.5 189v967q0 105 -36 143.5t-118 38.5v15q180 -7 393 -7q15 0 240 5v-1235q0 -169 59 -181v-14q-30 0 -144 2t-155 2zM485 1837q0 53 39.5 90t106.5 37l270 -422l-4 -6q-107 23 -198.5 66t-152.5 105.5t-61 129.5zM793 752v14q118 0 186 75 t68 218h14v-656h-14q0 54 -6.5 100.5t-23.5 93.5t-44.5 80t-73.5 54t-106 21zM793 1417v13q89 0 475 4v-439h-15q-23 199 -147.5 310.5t-312.5 111.5zM860 2v16q172 0 301 145t174 398h17l-95 -561q-272 0 -397 2z" />
<glyph unicode="&#xc9;" horiz-adv-x="1388" d="M41 0v14q77 0 115.5 67t38.5 189v967q0 105 -36 143.5t-118 38.5v15q180 -7 393 -7q15 0 240 5v-1235q0 -169 59 -181v-14q-30 0 -144 2t-155 2zM563 1542l271 422q67 0 106 -37t39 -90q0 -67 -61 -129.5t-152.5 -105.5t-198.5 -66zM793 752v14q118 0 186 75t68 218h14 v-656h-14q0 54 -6.5 100.5t-23.5 93.5t-44.5 80t-73.5 54t-106 21zM793 1417v13q89 0 475 4v-439h-15q-23 199 -147.5 310.5t-312.5 111.5zM860 2v16q172 0 301 145t174 398h17l-95 -561q-272 0 -397 2z" />
<glyph unicode="&#xca;" horiz-adv-x="1388" d="M41 0v14q77 0 115.5 67t38.5 189v967q0 105 -36 143.5t-118 38.5v15q180 -7 393 -7q15 0 240 5v-1235q0 -169 59 -181v-14q-30 0 -144 2t-155 2zM342 1526l297 301h127l297 -301l-6 -10l-355 106l-354 -106zM793 752v14q118 0 186 75t68 218h14v-656h-14q0 54 -6.5 100.5 t-23.5 93.5t-44.5 80t-73.5 54t-106 21zM793 1417v13q89 0 475 4v-439h-15q-23 199 -147.5 310.5t-312.5 111.5zM860 2v16q172 0 301 145t174 398h17l-95 -561q-272 0 -397 2z" />
<glyph unicode="&#xcb;" horiz-adv-x="1388" d="M41 0v14q77 0 115.5 67t38.5 189v967q0 105 -36 143.5t-118 38.5v15q180 -7 393 -7q15 0 240 5v-1235q0 -169 59 -181v-14q-30 0 -144 2t-155 2zM287 1710q0 76 45.5 126t130.5 50t131.5 -50t46.5 -126q0 -77 -46 -125.5t-132 -48.5t-131 48.5t-45 125.5zM745 1710 q0 76 46 126t129 50q88 0 134 -49.5t46 -126.5t-46 -125.5t-134 -48.5q-83 0 -129 48.5t-46 125.5zM793 752v14q118 0 186 75t68 218h14v-656h-14q0 54 -6.5 100.5t-23.5 93.5t-44.5 80t-73.5 54t-106 21zM793 1417v13q89 0 475 4v-439h-15q-23 199 -147.5 310.5 t-312.5 111.5zM860 2v16q172 0 301 145t174 398h17l-95 -561q-272 0 -397 2z" />
<glyph unicode="&#xcc;" d="M41 0v14q77 0 115.5 67t38.5 189v967q0 105 -36 143.5t-118 38.5v15q180 -7 393 -7q95 0 193 1.5t149 3.5l51 2v-15q-76 0 -114.5 -66.5t-38.5 -189.5v-966q0 -105 35.5 -144t117.5 -39v-14q-180 6 -393 6zM225 1837q0 53 39.5 90t106.5 37l270 -422l-4 -6 q-107 23 -198.5 66t-152.5 105.5t-61 129.5z" />
<glyph unicode="&#xcd;" d="M41 0v14q77 0 115.5 67t38.5 189v967q0 105 -36 143.5t-118 38.5v15q180 -7 393 -7q95 0 193 1.5t149 3.5l51 2v-15q-76 0 -114.5 -66.5t-38.5 -189.5v-966q0 -105 35.5 -144t117.5 -39v-14q-180 6 -393 6zM250 1542l270 422q67 0 106.5 -37t39.5 -90q0 -67 -61 -129.5 t-152.5 -105.5t-198.5 -66z" />
<glyph unicode="&#xce;" d="M41 0v14q77 0 115.5 67t38.5 189v967q0 105 -36 143.5t-118 38.5v15q180 -7 393 -7q95 0 193 1.5t149 3.5l51 2v-15q-76 0 -114.5 -66.5t-38.5 -189.5v-966q0 -105 35.5 -144t117.5 -39v-14q-180 6 -393 6zM82 1526l297 301h127l297 -301l-6 -10l-355 106l-354 -106z" />
<glyph unicode="&#xcf;" d="M29 1710q0 76 45.5 126t130.5 50t131.5 -50t46.5 -126q0 -77 -46 -125.5t-132 -48.5t-131 48.5t-45 125.5zM41 0v14q77 0 115.5 67t38.5 189v967q0 105 -36 143.5t-118 38.5v15q180 -7 393 -7q95 0 193 1.5t149 3.5l51 2v-15q-76 0 -114.5 -66.5t-38.5 -189.5v-966 q0 -105 35.5 -144t117.5 -39v-14q-180 6 -393 6zM487 1710q0 76 46 126t129 50q88 0 134 -49.5t46 -126.5t-46 -125.5t-134 -48.5q-83 0 -129 48.5t-46 125.5z" />
<glyph unicode="&#xd0;" horiz-adv-x="1675" d="M41 -2v14q77 0 115.5 67t38.5 189v453h-146v20h146v494q0 105 -36 143.5t-118 38.5v15q180 -7 393 -7q15 0 240 5v-689h252v-20h-252v-526q0 -169 59 -181v-14q-30 0 -144 2t-155 2zM793 1419v15q383 0 608 -182t225 -500q0 -234 -96 -404t-268 -258t-402 -90v14 q52 4 95.5 42t79 115.5t55.5 210.5t20 312q0 329 -80.5 522t-236.5 203z" />
<glyph unicode="&#xd1;" horiz-adv-x="1554" d="M31 0v14q153 0 153 297v66h19v-66q0 -297 295 -297v-14q-221 6 -293 6zM31 1419v15q314 -7 694 -7q7 -67 94 -198l541 -809v-420l-316 -37l-856 1329q-48 74 -77.5 100.5t-79.5 26.5zM432 1540q7 152 70 227.5t174 75.5q60 0 116 -16.5t92.5 -36.5t84 -36.5t92.5 -16.5 t79 27t44 85l12 -10q-7 -152 -70 -227.5t-174 -75.5q-60 0 -116 16.5t-92 36.5t-84 36.5t-93 16.5q-44 0 -78.5 -27t-44.5 -85zM1069 1419v15q213 -7 285 -7l184 7v-15q-76 0 -127 -72.5t-51 -224.5v-69h-19v69q0 154 -74.5 225.5t-197.5 71.5z" />
<glyph unicode="&#xd2;" horiz-adv-x="1628" d="M49 684q0 204 79.5 372t233 278t359.5 134v-14q-72 -35 -99.5 -208.5t-27.5 -506.5q0 -341 47 -540.5t137 -223.5v-14q-230 5 -395.5 97t-249.5 252.5t-84 373.5zM606 1837q0 53 39.5 90t106.5 37l270 -422l-4 -6q-107 23 -198.5 66t-152.5 105.5t-61 129.5zM852 1460v13 q229 -5 394 -96.5t249 -251.5t84 -373q0 -204 -78.5 -372.5t-232 -279t-359.5 -133.5v13q72 35 99.5 205t27.5 509q0 337 -49 545.5t-135 220.5z" />
<glyph unicode="&#xd3;" horiz-adv-x="1628" d="M49 684q0 204 79.5 372t233 278t359.5 134v-14q-72 -35 -99.5 -208.5t-27.5 -506.5q0 -341 47 -540.5t137 -223.5v-14q-230 5 -395.5 97t-249.5 252.5t-84 373.5zM590 1542l270 422q67 0 106.5 -37t39.5 -90q0 -67 -61 -129.5t-152.5 -105.5t-198.5 -66zM852 1460v13 q229 -5 394 -96.5t249 -251.5t84 -373q0 -204 -78.5 -372.5t-232 -279t-359.5 -133.5v13q72 35 99.5 205t27.5 509q0 337 -49 545.5t-135 220.5z" />
<glyph unicode="&#xd4;" horiz-adv-x="1628" d="M49 684q0 204 79.5 372t233 278t359.5 134v-14q-72 -35 -99.5 -208.5t-27.5 -506.5q0 -341 47 -540.5t137 -223.5v-14q-230 5 -395.5 97t-249.5 252.5t-84 373.5zM451 1526l297 301h126l297 -301l-6 -10l-354 106l-354 -106zM852 1460v13q229 -5 394 -96.5t249 -251.5 t84 -373q0 -204 -78.5 -372.5t-232 -279t-359.5 -133.5v13q72 35 99.5 205t27.5 509q0 337 -49 545.5t-135 220.5z" />
<glyph unicode="&#xd5;" horiz-adv-x="1628" d="M49 684q0 204 79.5 372t233 278t359.5 134v-14q-72 -35 -99.5 -208.5t-27.5 -506.5q0 -341 47 -540.5t137 -223.5v-14q-230 5 -395.5 97t-249.5 252.5t-84 373.5zM432 1540q7 152 70 227.5t174 75.5q60 0 116 -16.5t92.5 -36.5t84 -36.5t92.5 -16.5t79 27t44 85l12 -10 q-7 -152 -70 -227.5t-174 -75.5q-60 0 -116 16.5t-92 36.5t-84 36.5t-93 16.5q-44 0 -78.5 -27t-44.5 -85zM852 1460v13q229 -5 394 -96.5t249 -251.5t84 -373q0 -204 -78.5 -372.5t-232 -279t-359.5 -133.5v13q72 35 99.5 205t27.5 509q0 337 -49 545.5t-135 220.5z" />
<glyph unicode="&#xd6;" horiz-adv-x="1628" d="M49 684q0 204 79.5 372t233 278t359.5 134v-14q-72 -35 -99.5 -208.5t-27.5 -506.5q0 -341 47 -540.5t137 -223.5v-14q-230 5 -395.5 97t-249.5 252.5t-84 373.5zM408 1710q0 76 45.5 126t130.5 50t131.5 -50t46.5 -126q0 -77 -46 -125.5t-132 -48.5t-131 48.5t-45 125.5 zM852 1460v13q229 -5 394 -96.5t249 -251.5t84 -373q0 -204 -78.5 -372.5t-232 -279t-359.5 -133.5v13q72 35 99.5 205t27.5 509q0 337 -49 545.5t-135 220.5zM866 1710q0 76 45.5 126t128.5 50q88 0 134.5 -50t46.5 -126q0 -77 -46 -125.5t-135 -48.5q-83 0 -128.5 48.5 t-45.5 125.5z" />
<glyph unicode="&#xd7;" horiz-adv-x="651" d="M0 246l311 311l-311 311l14 15l312 -312l311 312l14 -15l-311 -311l311 -311l-14 -15l-311 312l-312 -312z" />
<glyph unicode="&#xd8;" horiz-adv-x="1628" d="M49 684q0 204 79.5 372t233 278t359.5 134v-14q-72 -35 -99.5 -208.5t-27.5 -506.5q0 -167 12 -299l410 627q-42 346 -164 389v17q216 -6 375 -87l98 150h29l-107 -162q161 -91 246.5 -250.5t85.5 -371.5q0 -204 -78.5 -372.5t-232 -279t-359.5 -133.5v13q72 35 99.5 205 t27.5 509q0 179 -16 336l-412 -627q43 -383 170 -426v-16q-227 6 -395 96l-80 -120h-29l88 133q-153 90 -233 248.5t-80 365.5z" />
<glyph unicode="&#xd9;" horiz-adv-x="1546" d="M41 1419v15q180 -7 393 -7q95 0 193 1.5t149 3.5l51 2v-15q-76 0 -114.5 -66.5t-38.5 -189.5v-698q0 -233 81 -340t251 -107q105 0 183 50t116 147l18 -4q-30 -77 -80.5 -127t-124 -74t-146.5 -32.5t-177 -8.5q-600 0 -600 500v768q0 105 -36 143.5t-118 38.5zM682 1837 q0 53 39 90t106 37l271 -422l-4 -6q-107 23 -198.5 66t-152.5 105.5t-61 129.5zM1069 1419v15q213 -7 285 -7l184 7v-15q-76 0 -127 -72.5t-51 -224.5v-69h-19v69q0 154 -74.5 225.5t-197.5 71.5z" />
<glyph unicode="&#xda;" horiz-adv-x="1546" d="M41 1419v15q180 -7 393 -7q95 0 193 1.5t149 3.5l51 2v-15q-76 0 -114.5 -66.5t-38.5 -189.5v-698q0 -233 81 -340t251 -107q105 0 183 50t116 147l18 -4q-30 -77 -80.5 -127t-124 -74t-146.5 -32.5t-177 -8.5q-600 0 -600 500v768q0 105 -36 143.5t-118 38.5zM786 1540 l271 422q67 0 106 -37t39 -90q0 -67 -60.5 -129.5t-152 -105.5t-198.5 -66zM1069 1419v15q213 -7 285 -7l184 7v-15q-76 0 -127 -72.5t-51 -224.5v-69h-19v69q0 154 -74.5 225.5t-197.5 71.5z" />
<glyph unicode="&#xdb;" horiz-adv-x="1546" d="M41 1419v15q180 -7 393 -7q95 0 193 1.5t149 3.5l51 2v-15q-76 0 -114.5 -66.5t-38.5 -189.5v-698q0 -233 81 -340t251 -107q105 0 183 50t116 147l18 -4q-30 -77 -80.5 -127t-124 -74t-146.5 -32.5t-177 -8.5q-600 0 -600 500v768q0 105 -36 143.5t-118 38.5zM555 1524 l297 301h127l297 -301l-6 -11l-355 107l-354 -107zM1069 1419v15q213 -7 285 -7l184 7v-15q-76 0 -127 -72.5t-51 -224.5v-69h-19v69q0 154 -74.5 225.5t-197.5 71.5z" />
<glyph unicode="&#xdc;" horiz-adv-x="1546" d="M41 1419v15q180 -7 393 -7q95 0 193 1.5t149 3.5l51 2v-15q-76 0 -114.5 -66.5t-38.5 -189.5v-698q0 -233 81 -340t251 -107q105 0 183 50t116 147l18 -4q-30 -77 -80.5 -127t-124 -74t-146.5 -32.5t-177 -8.5q-600 0 -600 500v768q0 105 -36 143.5t-118 38.5zM512 1710 q0 76 45.5 126t130.5 50t131.5 -50t46.5 -126q0 -77 -46 -125.5t-132 -48.5t-131 48.5t-45 125.5zM971 1710q0 76 45.5 126t128.5 50q88 0 134 -49.5t46 -126.5t-46 -125.5t-134 -48.5q-83 0 -128.5 48.5t-45.5 125.5zM1069 1419v15q213 -7 285 -7l184 7v-15 q-76 0 -127 -72.5t-51 -224.5v-69h-19v69q0 154 -74.5 225.5t-197.5 71.5z" />
<glyph unicode="&#xdd;" horiz-adv-x="1540" d="M33 1419v15q167 -7 409 -7q120 0 221 1.5t142 3.5l41 2v-15q-49 0 -79 -25.5t-30 -64.5q0 -52 49 -137l232 -416v-579q0 -105 35.5 -144t117.5 -39v-14q-180 6 -393 6l-393 -6v14q77 0 115.5 67t38.5 189v482l-346 559q-41 65 -78 86.5t-82 21.5zM788 1542l271 422 q67 0 106 -37t39 -90q0 -67 -60.5 -129.5t-152 -105.5t-198.5 -66zM1049 1419v15q94 -7 260 -7q54 0 103.5 1.5t71.5 3.5l23 2v-15q-63 0 -143 -68.5t-150 -197.5l-55 -102l-14 6q84 158 84 239q0 59 -40.5 91t-139.5 32z" />
<glyph unicode="&#xde;" horiz-adv-x="1454" d="M41 0v14q77 0 115.5 67t38.5 189v967q0 105 -36 143.5t-118 38.5v15q180 -7 393 -7q95 0 193 1.5t149 3.5l51 2v-15q-76 0 -114.5 -66.5t-38.5 -189.5v-966q0 -105 35.5 -144t117.5 -39v-14q-180 6 -393 6zM793 311v13q147 23 147 407q0 75 -6.5 139.5t-22 125.5 t-45.5 97t-73 37v13q18 2 57 2q264 0 412.5 -105.5t148.5 -302.5q0 -196 -156.5 -311t-461.5 -115z" />
<glyph unicode="&#xdf;" horiz-adv-x="1675" d="M35 0v14q59 0 89 38t30 106v811h-86v14h86q0 256 162.5 413t426.5 169v-17q-135 -20 -135 -305v-1243q-135 6 -262 6zM694 752q0 49 16 96t42 85.5t57 76.5t62.5 75t57.5 74t42 81t16 89q0 80 -43.5 141t-120.5 78v15q162 -10 255 -96t93 -216q0 -62 -44 -173t-44 -165 q0 -40 29.5 -78t77.5 -70t105 -65t114.5 -72t105.5 -82.5t77.5 -104.5t29.5 -130q0 -163 -128.5 -257t-367.5 -95v18q48 1 71.5 30.5t23.5 74.5q0 48 -29 94t-75.5 84.5t-102.5 78t-112.5 83t-103 91t-75.5 109t-29 130.5zM698 371h13q27 -150 124.5 -262t221.5 -129v-19 q-32 3 -78 14.5t-107.5 20t-154.5 8.5z" />
<glyph unicode="&#xe0;" horiz-adv-x="1243" d="M47 180q0 148 143 235t408 97l-2 -18q-98 -57 -98 -273q0 -72 26 -117t72 -45q8 0 23 3.5t16 3.5l6 -13q-14 -5 -78 -34.5t-120 -44.5t-119 -15q-120 0 -198.5 55.5t-78.5 165.5zM115 756q0 69 61.5 126t154 90t204.5 46v-14q-37 -10 -58.5 -52t-21.5 -96q0 -111 59 -184 q-40 -31 -103 -51.5t-114 -20.5q-83 0 -132.5 43t-49.5 113zM414 1409q0 53 39 90t106 37l270 -422l-4 -6q-107 23 -198.5 66t-152 105.5t-60.5 129.5zM600 1008v14q18 2 43 2q258 0 362.5 -97.5t104.5 -314.5q0 -104 -10 -235.5t-10 -196.5q0 -133 77 -133q34 0 60 33l8 -6 q-29 -51 -100 -80t-164 -29q-169 0 -240.5 87.5t-71.5 277.5q0 63 8.5 216.5t8.5 262.5q0 100 -15 146.5t-61 52.5z" />
<glyph unicode="&#xe1;" horiz-adv-x="1243" d="M47 180q0 148 143 235t408 97l-2 -18q-98 -57 -98 -273q0 -72 26 -117t72 -45q8 0 23 3.5t16 3.5l6 -13q-14 -5 -78 -34.5t-120 -44.5t-119 -15q-120 0 -198.5 55.5t-78.5 165.5zM115 756q0 69 61.5 126t154 90t204.5 46v-14q-37 -10 -58.5 -52t-21.5 -96q0 -111 59 -184 q-40 -31 -103 -51.5t-114 -20.5q-83 0 -132.5 43t-49.5 113zM414 1114l270 422q67 0 106 -37t39 -90q0 -67 -60.5 -129.5t-152 -105.5t-198.5 -66zM600 1008v14q18 2 43 2q258 0 362.5 -97.5t104.5 -314.5q0 -104 -10 -235.5t-10 -196.5q0 -133 77 -133q34 0 60 33l8 -6 q-29 -51 -100 -80t-164 -29q-169 0 -240.5 87.5t-71.5 277.5q0 63 8.5 216.5t8.5 262.5q0 100 -15 146.5t-61 52.5z" />
<glyph unicode="&#xe2;" horiz-adv-x="1243" d="M47 180q0 148 143 235t408 97l-2 -18q-98 -57 -98 -273q0 -72 26 -117t72 -45q8 0 23 3.5t16 3.5l6 -13q-14 -5 -78 -34.5t-120 -44.5t-119 -15q-120 0 -198.5 55.5t-78.5 165.5zM115 756q0 69 61.5 126t154 90t204.5 46v-14q-37 -10 -58.5 -52t-21.5 -96q0 -111 59 -184 q-40 -31 -103 -51.5t-114 -20.5q-83 0 -132.5 43t-49.5 113zM266 1133l297 301h127l297 -301l-6 -11l-354 107l-355 -107zM600 1008v14q18 2 43 2q258 0 362.5 -97.5t104.5 -314.5q0 -104 -10 -235.5t-10 -196.5q0 -133 77 -133q34 0 60 33l8 -6q-29 -51 -100 -80t-164 -29 q-169 0 -240.5 87.5t-71.5 277.5q0 63 8.5 216.5t8.5 262.5q0 100 -15 146.5t-61 52.5z" />
<glyph unicode="&#xe3;" horiz-adv-x="1243" d="M47 180q0 148 143 235t408 97l-2 -18q-98 -57 -98 -273q0 -72 26 -117t72 -45q8 0 23 3.5t16 3.5l6 -13q-14 -5 -78 -34.5t-120 -44.5t-119 -15q-120 0 -198.5 55.5t-78.5 165.5zM115 756q0 69 61.5 126t154 90t204.5 46v-14q-37 -10 -58.5 -52t-21.5 -96q0 -111 59 -184 q-40 -31 -103 -51.5t-114 -20.5q-83 0 -132.5 43t-49.5 113zM240 1149q15 303 243 303q60 0 116 -16.5t92.5 -36.5t84 -36.5t92.5 -16.5t79 27t44 85l13 -10q-7 -152 -70 -227.5t-174 -75.5q-60 0 -116 16.5t-92 36.5t-84 36.5t-93 16.5q-44 0 -78.5 -27t-44.5 -85z M600 1008v14q18 2 43 2q258 0 362.5 -97.5t104.5 -314.5q0 -104 -10 -235.5t-10 -196.5q0 -133 77 -133q34 0 60 33l8 -6q-29 -51 -100 -80t-164 -29q-169 0 -240.5 87.5t-71.5 277.5q0 63 8.5 216.5t8.5 262.5q0 100 -15 146.5t-61 52.5z" />
<glyph unicode="&#xe4;" horiz-adv-x="1243" d="M47 180q0 148 143 235t408 97l-2 -18q-98 -57 -98 -273q0 -72 26 -117t72 -45q8 0 23 3.5t16 3.5l6 -13q-14 -5 -78 -34.5t-120 -44.5t-119 -15q-120 0 -198.5 55.5t-78.5 165.5zM115 756q0 69 61.5 126t154 90t204.5 46v-14q-37 -10 -58.5 -52t-21.5 -96q0 -111 59 -184 q-40 -31 -103 -51.5t-114 -20.5q-83 0 -132.5 43t-49.5 113zM227 1286q0 76 45.5 126t130.5 50q86 0 132.5 -50t46.5 -126q0 -77 -46.5 -125.5t-132.5 -48.5t-131 48.5t-45 125.5zM600 1008v14q18 2 43 2q258 0 362.5 -97.5t104.5 -314.5q0 -104 -10 -235.5t-10 -196.5 q0 -133 77 -133q34 0 60 33l8 -6q-29 -51 -100 -80t-164 -29q-169 0 -240.5 87.5t-71.5 277.5q0 63 8.5 216.5t8.5 262.5q0 100 -15 146.5t-61 52.5zM686 1286q0 76 45.5 126t128.5 50q88 0 134 -49.5t46 -126.5t-46 -125.5t-134 -48.5q-83 0 -128.5 48.5t-45.5 125.5z" />
<glyph unicode="&#xe5;" horiz-adv-x="1243" d="M47 180q0 148 143 235t408 97l-2 -18q-98 -57 -98 -273q0 -72 26 -117t72 -45q8 0 23 3.5t16 3.5l6 -13q-14 -5 -78 -34.5t-120 -44.5t-119 -15q-120 0 -198.5 55.5t-78.5 165.5zM115 756q0 69 61.5 126t154 90t204.5 46v-14q-37 -10 -58.5 -52t-21.5 -96q0 -111 59 -184 q-40 -31 -103 -51.5t-114 -20.5q-83 0 -132.5 43t-49.5 113zM412 1280q0 74 47.5 129t132.5 70v-15q-47 -25 -47 -170q0 -76 17.5 -127t49.5 -61v-14q-84 2 -142 51.5t-58 136.5zM600 1008v14q18 2 43 2q258 0 362.5 -97.5t104.5 -314.5q0 -104 -10 -235.5t-10 -196.5 q0 -133 77 -133q34 0 60 33l8 -6q-29 -51 -100 -80t-164 -29q-169 0 -240.5 87.5t-71.5 277.5q0 63 8.5 216.5t8.5 262.5q0 100 -15 146.5t-61 52.5zM657 1466v17q83 -3 140 -53.5t57 -135.5q0 -74 -46 -127.5t-130 -70.5v16q43 30 43 168q0 74 -17 124t-47 62z" />
<glyph unicode="&#xe6;" horiz-adv-x="1785" d="M47 180q0 148 143 235t408 97l-2 -18q-98 -57 -98 -273q0 -72 26 -117t72 -45q8 0 23 3.5t16 3.5l6 -13q-14 -5 -78 -34.5t-120 -44.5t-119 -15q-120 0 -198.5 55.5t-78.5 165.5zM115 756q0 69 61.5 126t154 90t204.5 46v-14q-37 -10 -58.5 -52t-21.5 -96q0 -111 59 -184 q-40 -31 -103 -51.5t-114 -20.5q-83 0 -132.5 43t-49.5 113zM600 1008v14q18 2 43 2q188 0 318 -68q110 57 243 66v-21q-56 -25 -80 -141t-24 -323q0 -463 293 -463q152 0 280 88l8 -8q-84 -99 -199.5 -147t-275.5 -48q-127 0 -225 25t-172 78.5t-113 145t-39 218.5 q0 60 9.5 186t9.5 197q0 100 -15 146.5t-61 52.5zM1174 600v14l159 17q8 55 8 127q0 98 -20 167.5t-53 78.5v20q211 -5 340 -106.5t139 -292.5l-21 -25h-552z" />
<glyph unicode="&#xe7;" horiz-adv-x="1169" d="M37 467q0 111 47.5 212t130.5 176.5t201 121t252 47.5v-16q-65 -26 -108.5 -158t-43.5 -338q0 -194 77.5 -317t223.5 -123q154 0 285 88l6 -6q-84 -99 -198.5 -147t-274.5 -48q-283 0 -440.5 138t-157.5 370zM348 -406q0 38 30.5 63.5t74.5 25.5q40 0 75 -21 q-24 -34 -24 -86q0 -72 61 -72q31 0 50.5 24t19.5 62q0 29 -15.5 52.5t-38 40l-45 33t-38 38t-15.5 47.5q0 25 14 47.5t34.5 37t41 25t34.5 15.5l14 4l12 -6q-41 -26 -41 -59q0 -16 23.5 -29t57 -25.5t66.5 -29t56.5 -46.5t23.5 -71q0 -76 -78.5 -126t-195.5 -50 q-84 0 -140.5 27.5t-56.5 78.5zM733 1006v16q184 -7 292 -75.5t108 -176.5q0 -72 -57 -121t-156 -49q-49 0 -99.5 17t-81.5 45q56 83 56 194q0 54 -15.5 95.5t-46.5 54.5z" />
<glyph unicode="&#xe8;" horiz-adv-x="1200" d="M37 467q0 107 44.5 205.5t121.5 172t186 121.5t232 56v-18q-105 -47 -105 -467q0 -463 293 -463q153 0 281 88l8 -8q-84 -99 -199.5 -147t-275.5 -48q-282 0 -434 137t-152 371zM391 1409q0 53 39.5 90t106.5 37l270 -422l-4 -6q-107 23 -198.5 66t-152.5 105.5 t-61 129.5zM590 600v14l160 17q8 55 8 127q0 97 -20.5 168t-53.5 80v18q211 -5 340 -106.5t139 -292.5l-20 -25h-553z" />
<glyph unicode="&#xe9;" horiz-adv-x="1200" d="M37 467q0 107 44.5 205.5t121.5 172t186 121.5t232 56v-18q-105 -47 -105 -467q0 -463 293 -463q153 0 281 88l8 -8q-84 -99 -199.5 -147t-275.5 -48q-282 0 -434 137t-152 371zM432 1114l270 422q67 0 106.5 -37t39.5 -90q0 -67 -61 -129.5t-152.5 -105.5t-198.5 -66z M590 600v14l160 17q8 55 8 127q0 97 -20.5 168t-53.5 80v18q211 -5 340 -106.5t139 -292.5l-20 -25h-553z" />
<glyph unicode="&#xea;" horiz-adv-x="1200" d="M37 467q0 107 44.5 205.5t121.5 172t186 121.5t232 56v-18q-105 -47 -105 -467q0 -463 293 -463q153 0 281 88l8 -8q-84 -99 -199.5 -147t-275.5 -48q-282 0 -434 137t-152 371zM283 1133l297 301h127l297 -301l-7 -11l-354 107l-354 -107zM590 600v14l160 17q8 55 8 127 q0 97 -20.5 168t-53.5 80v18q211 -5 340 -106.5t139 -292.5l-20 -25h-553z" />
<glyph unicode="&#xeb;" horiz-adv-x="1200" d="M37 467q0 107 44.5 205.5t121.5 172t186 121.5t232 56v-18q-105 -47 -105 -467q0 -463 293 -463q153 0 281 88l8 -8q-84 -99 -199.5 -147t-275.5 -48q-282 0 -434 137t-152 371zM217 1286q0 76 45.5 126t130.5 50t131.5 -50t46.5 -126q0 -77 -46 -125.5t-132 -48.5 t-131 48.5t-45 125.5zM590 600v14l160 17q8 55 8 127q0 97 -20.5 168t-53.5 80v18q211 -5 340 -106.5t139 -292.5l-20 -25h-553zM676 1286q0 76 45.5 126t128.5 50q88 0 134 -49.5t46 -126.5t-46 -125.5t-134 -48.5q-83 0 -128.5 48.5t-45.5 125.5z" />
<glyph unicode="&#xec;" horiz-adv-x="751" d="M37 0v14q58 0 87.5 38t29.5 106v647q0 58 -27.5 81t-85.5 23l-4 15q138 0 281 25t216 50l74 25v-932q0 -78 80 -78v-14q-98 6 -305 6q-91 0 -177.5 -1.5t-127.5 -2.5zM141 1409q0 53 39.5 90t106.5 37l270 -422l-4 -6q-107 23 -198.5 66t-152.5 105.5t-61 129.5z" />
<glyph unicode="&#xed;" horiz-adv-x="751" d="M37 0v14q58 0 87.5 38t29.5 106v647q0 58 -27.5 81t-85.5 23l-4 15q138 0 281 25t216 50l74 25v-932q0 -78 80 -78v-14q-98 6 -305 6q-91 0 -177.5 -1.5t-127.5 -2.5zM180 1114l271 422q67 0 106 -37t39 -90q0 -67 -61 -129.5t-152.5 -105.5t-198.5 -66z" />
<glyph unicode="&#xee;" horiz-adv-x="751" d="M16 1133l297 301h127l297 -301l-6 -11l-354 107l-354 -107zM37 0v14q58 0 87.5 38t29.5 106v647q0 58 -27.5 81t-85.5 23l-4 15q138 0 281 25t216 50l74 25v-932q0 -78 80 -78v-14q-98 6 -305 6q-91 0 -177.5 -1.5t-127.5 -2.5z" />
<glyph unicode="&#xef;" horiz-adv-x="751" d="M-31 1286q0 76 45.5 126t130.5 50q86 0 132.5 -50t46.5 -126q0 -77 -46.5 -125.5t-132.5 -48.5t-131 48.5t-45 125.5zM37 0v14q58 0 87.5 38t29.5 106v647q0 58 -27.5 81t-85.5 23l-4 15q138 0 281 25t216 50l74 25v-932q0 -78 80 -78v-14q-98 6 -305 6 q-91 0 -177.5 -1.5t-127.5 -2.5zM428 1286q0 76 45.5 126t128.5 50q88 0 134 -49.5t46 -126.5t-46 -125.5t-134 -48.5q-83 0 -128.5 48.5t-45.5 125.5z" />
<glyph unicode="&#xf0;" horiz-adv-x="1290" d="M37 487q0 128 42 233t112 171.5t159 102.5t185 36q58 0 102 -12l4 -21q-19 1 -36.5 -14.5t-34 -52.5t-28.5 -92.5t-19 -141t-7 -192.5q0 -473 105 -522v-23q-157 0 -290 66t-213.5 188t-80.5 274zM332 1133v24l276 109q-84 140 -243 227l6 12q228 -52 413 -168l295 117 v-24l-270 -107q235 -152 345 -349t110 -409q0 -82 -20.5 -161.5t-65.5 -155t-110.5 -135t-161.5 -100t-212 -50.5v25q36 25 57 152.5t21 334.5q0 116 -4 198t-18 187.5t-46.5 202t-82.5 184.5z" />
<glyph unicode="&#xf1;" horiz-adv-x="1406" d="M37 0v14q58 0 87.5 38t29.5 106v647q0 58 -27.5 81t-85.5 23l-4 15q138 0 281 25t216 50l74 25v-932q0 -78 80 -78v-14q-98 6 -305 6q-91 0 -177.5 -1.5t-127.5 -2.5zM367 1149q15 303 243 303q60 0 116 -16.5t92.5 -36.5t84 -36.5t92.5 -16.5t79 27t44 85l12 -10 q-15 -303 -243 -303q-60 0 -116 16.5t-92 36.5t-84 36.5t-93 16.5q-44 0 -78.5 -27t-44.5 -85zM682 868v15q34 15 96 54t117.5 63t112.5 24q124 0 191 -74.5t67 -214.5v-612q0 -66 24.5 -87.5t87.5 -21.5v-14q-135 6 -338 6q-84 0 -160.5 -1.5t-110.5 -2.5l-34 -2v14 q41 0 58.5 22t17.5 75v677q0 43 -21 68t-53 25q-20 0 -55 -13z" />
<glyph unicode="&#xf2;" horiz-adv-x="1290" d="M37 467q0 100 38 193.5t107.5 169.5t176.5 127t237 63v-16q-41 -31 -60.5 -149.5t-19.5 -346.5q0 -216 29 -357.5t82 -170.5v-21q-118 0 -223.5 34t-187.5 97t-130.5 160.5t-48.5 216.5zM401 1409q0 53 39.5 90t106.5 37l270 -422l-4 -6q-107 23 -198.5 66t-152.5 105.5 t-61 129.5zM662 1006v18q117 0 222.5 -33.5t188 -95.5t131.5 -160t49 -219q0 -100 -37.5 -193.5t-107 -169.5t-177.5 -127t-239 -63v14q43 29 62.5 148t19.5 350q0 476 -112 531z" />
<glyph unicode="&#xf3;" horiz-adv-x="1290" d="M37 467q0 100 38 193.5t107.5 169.5t176.5 127t237 63v-16q-41 -31 -60.5 -149.5t-19.5 -346.5q0 -216 29 -357.5t82 -170.5v-21q-118 0 -223.5 34t-187.5 97t-130.5 160.5t-48.5 216.5zM436 1114l271 422q67 0 106 -37t39 -90q0 -67 -61 -129.5t-152.5 -105.5 t-198.5 -66zM662 1006v18q117 0 222.5 -33.5t188 -95.5t131.5 -160t49 -219q0 -100 -37.5 -193.5t-107 -169.5t-177.5 -127t-239 -63v14q43 29 62.5 148t19.5 350q0 476 -112 531z" />
<glyph unicode="&#xf4;" horiz-adv-x="1290" d="M37 467q0 100 38 193.5t107.5 169.5t176.5 127t237 63v-16q-41 -31 -60.5 -149.5t-19.5 -346.5q0 -216 29 -357.5t82 -170.5v-21q-118 0 -223.5 34t-187.5 97t-130.5 160.5t-48.5 216.5zM285 1133l297 301h127l297 -301l-7 -11l-354 107l-354 -107zM662 1006v18 q117 0 222.5 -33.5t188 -95.5t131.5 -160t49 -219q0 -100 -37.5 -193.5t-107 -169.5t-177.5 -127t-239 -63v14q43 29 62.5 148t19.5 350q0 476 -112 531z" />
<glyph unicode="&#xf5;" horiz-adv-x="1290" d="M37 467q0 100 38 193.5t107.5 169.5t176.5 127t237 63v-16q-41 -31 -60.5 -149.5t-19.5 -346.5q0 -216 29 -357.5t82 -170.5v-21q-118 0 -223.5 34t-187.5 97t-130.5 160.5t-48.5 216.5zM262 1149q7 152 70 227.5t174 75.5q60 0 116 -16.5t92.5 -36.5t84 -36.5 t92.5 -16.5t79 27t44 85l12 -10q-7 -152 -70 -227.5t-174 -75.5q-60 0 -116 16.5t-92 36.5t-84 36.5t-93 16.5q-44 0 -78.5 -27t-44.5 -85zM662 1006v18q117 0 222.5 -33.5t188 -95.5t131.5 -160t49 -219q0 -100 -37.5 -193.5t-107 -169.5t-177.5 -127t-239 -63v14 q43 29 62.5 148t19.5 350q0 476 -112 531z" />
<glyph unicode="&#xf6;" horiz-adv-x="1290" d="M37 467q0 100 38 193.5t107.5 169.5t176.5 127t237 63v-16q-41 -31 -60.5 -149.5t-19.5 -346.5q0 -216 29 -357.5t82 -170.5v-21q-118 0 -223.5 34t-187.5 97t-130.5 160.5t-48.5 216.5zM238 1286q0 76 45.5 126t130.5 50t131.5 -50t46.5 -126q0 -77 -46 -125.5 t-132 -48.5t-131 48.5t-45 125.5zM662 1006v18q117 0 222.5 -33.5t188 -95.5t131.5 -160t49 -219q0 -100 -37.5 -193.5t-107 -169.5t-177.5 -127t-239 -63v14q43 29 62.5 148t19.5 350q0 476 -112 531zM696 1286q0 76 45.5 126t128.5 50q88 0 134.5 -50t46.5 -126 q0 -77 -46 -125.5t-135 -48.5q-83 0 -128.5 48.5t-45.5 125.5z" />
<glyph unicode="&#xf7;" horiz-adv-x="903" d="M-4 545v20h903v-20h-903zM360 254q0 41 30 70.5t73 29.5t72.5 -29.5t29.5 -70.5q0 -44 -29.5 -74t-72.5 -30t-73 30t-30 74zM360 860q0 41 30 71t73 30t72.5 -29.5t29.5 -71.5q0 -44 -29.5 -74t-72.5 -30t-73 30t-30 74z" />
<glyph unicode="&#xf8;" horiz-adv-x="1290" d="M37 467q0 100 38 193.5t107.5 169.5t176.5 127t237 63v-16q-41 -31 -60.5 -149.5t-19.5 -346.5q0 -100 6 -186l242 397q-26 248 -102 287v18q152 0 280 -55l80 121h33l-86 -132q131 -63 207.5 -175.5t76.5 -266.5q0 -100 -37.5 -193.5t-107 -169.5t-177.5 -127t-239 -63 v14q43 29 62.5 148t19.5 350q0 122 -8 203l-240 -399q11 -122 37 -200.5t64 -98.5v-21q-151 0 -281 53l-78 -118h-32l86 131q-132 63 -208.5 175.5t-76.5 266.5z" />
<glyph unicode="&#xf9;" horiz-adv-x="1400" d="M33 971v12l549 18l16 -16v-790q0 -43 21 -68t53 -25q20 0 55 13v-15q-37 -15 -81 -42t-75 -47.5t-76.5 -36t-93.5 -15.5q-124 0 -191 74.5t-67 214.5v612q0 68 -23.5 89.5t-86.5 21.5zM442 1409q0 53 39.5 90t106.5 37l270 -422l-4 -6q-107 23 -198.5 66t-152.5 105.5 t-61 129.5zM725 971v12l516 18l16 -16v-807q0 -58 27.5 -81t85.5 -23l4 -15q-87 0 -176 -10.5t-154 -25t-117 -29t-79 -24.5l-27 -11l-18 160v774q0 78 -78 78z" />
<glyph unicode="&#xfa;" horiz-adv-x="1400" d="M33 971v12l549 18l16 -16v-790q0 -43 21 -68t53 -25q20 0 55 13v-15q-37 -15 -81 -42t-75 -47.5t-76.5 -36t-93.5 -15.5q-124 0 -191 74.5t-67 214.5v612q0 68 -23.5 89.5t-86.5 21.5zM539 1114l270 422q67 0 106 -37t39 -90q0 -67 -60.5 -129.5t-152 -105.5t-198.5 -66z M725 971v12l516 18l16 -16v-807q0 -58 27.5 -81t85.5 -23l4 -15q-87 0 -176 -10.5t-154 -25t-117 -29t-79 -24.5l-27 -11l-18 160v774q0 78 -78 78z" />
<glyph unicode="&#xfb;" horiz-adv-x="1400" d="M33 971v12l549 18l16 -16v-790q0 -43 21 -68t53 -25q20 0 55 13v-15q-37 -15 -81 -42t-75 -47.5t-76.5 -36t-93.5 -15.5q-124 0 -191 74.5t-67 214.5v612q0 68 -23.5 89.5t-86.5 21.5zM340 1133l297 301h127l297 -301l-6 -11l-355 107l-354 -107zM725 971v12l516 18 l16 -16v-807q0 -58 27.5 -81t85.5 -23l4 -15q-87 0 -176 -10.5t-154 -25t-117 -29t-79 -24.5l-27 -11l-18 160v774q0 78 -78 78z" />
<glyph unicode="&#xfc;" horiz-adv-x="1400" d="M33 971v12l549 18l16 -16v-790q0 -43 21 -68t53 -25q20 0 55 13v-15q-37 -15 -81 -42t-75 -47.5t-76.5 -36t-93.5 -15.5q-124 0 -191 74.5t-67 214.5v612q0 68 -23.5 89.5t-86.5 21.5zM293 1286q0 76 45.5 126t130.5 50t131.5 -50t46.5 -126q0 -77 -46 -125.5t-132 -48.5 t-131 48.5t-45 125.5zM725 971v12l516 18l16 -16v-807q0 -58 27.5 -81t85.5 -23l4 -15q-87 0 -176 -10.5t-154 -25t-117 -29t-79 -24.5l-27 -11l-18 160v774q0 78 -78 78zM752 1286q0 76 45.5 126t128.5 50q88 0 134 -49.5t46 -126.5t-46 -125.5t-134 -48.5 q-83 0 -128.5 48.5t-45.5 125.5z" />
<glyph unicode="&#xfd;" horiz-adv-x="1323" d="M23 965v18q186 -8 395 -8q93 0 170.5 2t109.5 4l31 2v-18q-40 0 -60 -21.5t-20 -54.5t25 -103l213 -591l-68 -195h-319l-346 864q-21 54 -47.5 77.5t-83.5 23.5zM147 -256q0 88 61.5 147.5t164.5 59.5q97 0 151 -57t54 -123q-62 -13 -98 -50.5t-36 -82.5q0 -31 18 -51.5 t48 -20.5q59 0 112.5 61t96.5 156l14 -8q-26 -57 -53.5 -100t-65 -80.5t-86 -57.5t-106.5 -20q-128 0 -201.5 64t-73.5 163zM623 1114l270 422q67 0 106 -37t39 -90q0 -67 -60.5 -129.5t-152 -105.5t-198.5 -66zM895 969v14q90 -8 219 -8q49 0 95.5 2t68.5 4l22 2v-14 q-150 0 -233 -252l-35 -107l-14 4q41 139 41 199q0 69 -39 112.5t-125 43.5z" />
<glyph unicode="&#xfe;" horiz-adv-x="1355" d="M35 -500q119 0 119 146v1667q0 58 -27.5 82t-85.5 24l-4 15q88 0 178.5 10.5t157.5 25.5t122 30t83 26l28 10v-1397q0 -151 70 -162v-18q-22 0 -68 4v-317q0 -69 29 -107.5t88 -38.5v-12h-690v12zM672 889v16q18 10 54.5 35.5t61.5 41t67.5 29t86.5 13.5q111 0 198 -62 t134 -167t47 -234q0 -174 -70 -309.5t-202.5 -213t-307.5 -77.5v16q50 26 73.5 145t23.5 353q0 121 -10.5 208t-29.5 132t-39.5 64.5t-45.5 19.5q-21 0 -41 -10z" />
<glyph unicode="&#xff;" horiz-adv-x="1323" d="M23 965v18q186 -8 395 -8q93 0 170.5 2t109.5 4l31 2v-18q-40 0 -60 -21.5t-20 -54.5t25 -103l213 -591l-68 -195h-319l-346 864q-21 54 -47.5 77.5t-83.5 23.5zM147 -256q0 88 61.5 147.5t164.5 59.5q97 0 151 -57t54 -123q-62 -13 -98 -50.5t-36 -82.5q0 -31 18 -51.5 t48 -20.5q59 0 112.5 61t96.5 156l14 -8q-26 -57 -53.5 -100t-65 -80.5t-86 -57.5t-106.5 -20q-128 0 -201.5 64t-73.5 163zM324 1286q0 76 45.5 126t130.5 50t131.5 -50t46.5 -126q0 -77 -46 -125.5t-132 -48.5t-131 48.5t-45 125.5zM782 1286q0 76 45.5 126t128.5 50 q88 0 134.5 -50t46.5 -126q0 -77 -46 -125.5t-135 -48.5q-83 0 -128.5 48.5t-45.5 125.5zM895 969v14q90 -8 219 -8q49 0 95.5 2t68.5 4l22 2v-14q-150 0 -233 -252l-35 -107l-14 4q41 139 41 199q0 69 -39 112.5t-125 43.5z" />
<glyph unicode="&#x100;" horiz-adv-x="1615" d="M18 0v14q160 0 258 291l23 66l16 -2l-20 -68q-17 -57 -24.5 -95t-5.5 -77.5t21.5 -62.5t61 -37.5t107.5 -14.5v-14q-111 6 -248 6zM393 586l6 20h402l-197 664l35 100l352 107l445 -1321q49 -142 161 -142v-14q-113 6 -395 6q-122 0 -217.5 -1.5t-130.5 -2.5l-35 -2v14 q113 0 113 101q0 40 -33 159l-92 312h-414zM504 1575v20h637v-20h-637z" />
<glyph unicode="&#x101;" horiz-adv-x="1243" d="M47 180q0 148 143 235t408 97l-2 -18q-98 -57 -98 -273q0 -72 26 -117t72 -45q8 0 23 3.5t16 3.5l6 -13q-14 -5 -78 -34.5t-120 -44.5t-119 -15q-120 0 -198.5 55.5t-78.5 165.5zM115 756q0 69 61.5 126t154 90t204.5 46v-14q-37 -10 -58.5 -52t-21.5 -96q0 -111 59 -184 q-40 -31 -103 -51.5t-114 -20.5q-83 0 -132.5 43t-49.5 113zM322 1239v21h636v-21h-636zM600 1008v14q18 2 43 2q258 0 362.5 -97.5t104.5 -314.5q0 -104 -10 -235.5t-10 -196.5q0 -133 77 -133q34 0 60 33l8 -6q-29 -51 -100 -80t-164 -29q-169 0 -240.5 87.5t-71.5 277.5 q0 63 8.5 216.5t8.5 262.5q0 100 -15 146.5t-61 52.5z" />
<glyph unicode="&#x102;" horiz-adv-x="1615" d="M18 0v14q160 0 258 291l23 66l16 -2l-20 -68q-17 -57 -24.5 -95t-5.5 -77.5t21.5 -62.5t61 -37.5t107.5 -14.5v-14q-111 6 -248 6zM393 586l6 20h402l-197 664l35 100l352 107l445 -1321q49 -142 161 -142v-14q-113 6 -395 6q-122 0 -217.5 -1.5t-130.5 -2.5l-35 -2v14 q113 0 113 101q0 40 -33 159l-92 312h-414zM496 1833h237q0 -79 50 -128.5t132 -49.5q88 0 139.5 49.5t51.5 128.5h14q0 -132 -73.5 -214.5t-217.5 -82.5q-166 0 -249.5 75.5t-83.5 221.5z" />
<glyph unicode="&#x103;" horiz-adv-x="1243" d="M47 180q0 148 143 235t408 97l-2 -18q-98 -57 -98 -273q0 -72 26 -117t72 -45q8 0 23 3.5t16 3.5l6 -13q-14 -5 -78 -34.5t-120 -44.5t-119 -15q-120 0 -198.5 55.5t-78.5 165.5zM115 756q0 69 61.5 126t154 90t204.5 46v-14q-37 -10 -58.5 -52t-21.5 -96q0 -111 59 -184 q-40 -31 -103 -51.5t-114 -20.5q-83 0 -132.5 43t-49.5 113zM328 1399h237q0 -79 50 -128.5t133 -49.5q88 0 139 49.5t51 128.5h14q0 -132 -73 -214.5t-217 -82.5q-166 0 -250 75.5t-84 221.5zM600 1008v14q18 2 43 2q258 0 362.5 -97.5t104.5 -314.5q0 -104 -10 -235.5 t-10 -196.5q0 -133 77 -133q34 0 60 33l8 -6q-29 -51 -100 -80t-164 -29q-169 0 -240.5 87.5t-71.5 277.5q0 63 8.5 216.5t8.5 262.5q0 100 -15 146.5t-61 52.5z" />
<glyph unicode="&#x104;" horiz-adv-x="1615" d="M18 0v14q160 0 258 291l23 66l16 -2l-20 -68q-17 -57 -24.5 -95t-5.5 -77.5t21.5 -62.5t61 -37.5t107.5 -14.5v-14q-111 6 -248 6zM393 586l6 20h402l-197 664l35 100l352 107l445 -1321q49 -142 161 -142v-14q-113 6 -395 6q-122 0 -217.5 -1.5t-130.5 -2.5l-35 -2v14 q113 0 113 101q0 40 -33 159l-92 312h-414zM1233 -311q0 91 92 163t227 99l7 -6q-40 -46 -63 -111t-23 -131q0 -70 30 -104.5t74 -34.5q42 0 84 20l6 -14q-26 -18 -87 -34.5t-110 -16.5q-237 0 -237 170z" />
<glyph unicode="&#x105;" horiz-adv-x="1243" d="M47 180q0 148 143 235t408 97l-2 -18q-98 -57 -98 -273q0 -72 26 -117t72 -45q8 0 23 3.5t16 3.5l6 -13q-14 -5 -78 -34.5t-120 -44.5t-119 -15q-120 0 -198.5 55.5t-78.5 165.5zM115 756q0 69 61.5 126t154 90t204.5 46v-14q-37 -10 -58.5 -52t-21.5 -96q0 -111 59 -184 q-40 -31 -103 -51.5t-114 -20.5q-83 0 -132.5 43t-49.5 113zM600 1008v14q18 2 43 2q258 0 362.5 -97.5t104.5 -314.5q0 -104 -10 -235.5t-10 -196.5q0 -133 77 -133q34 0 60 33l8 -6q-29 -51 -100 -80t-164 -29q-169 0 -240.5 87.5t-71.5 277.5q0 63 8.5 216.5t8.5 262.5 q0 100 -15 146.5t-61 52.5zM784 -311q0 90 92.5 162.5t227.5 99.5l6 -6q-40 -46 -63 -111t-23 -131q0 -70 30 -104.5t74 -34.5q42 0 84 20l7 -14q-26 -18 -87 -34.5t-110 -16.5q-238 0 -238 170z" />
<glyph unicode="&#x106;" horiz-adv-x="1519" d="M49 684q0 164 56.5 308.5t157.5 251t250 168t325 61.5v-19q-53 -6 -94.5 -41.5t-76 -113t-53 -219t-18.5 -341.5q0 -703 242 -759v-19q-193 0 -344 53t-248 149.5t-147 228.5t-50 292zM657 1542l271 422q67 0 106 -37t39 -90q0 -67 -60.5 -129.5t-152 -105.5t-198.5 -66z M969 -14q145 33 281.5 183.5t193.5 373.5h14l-63 -498q-112 0 -255 -35t-171 -39v15zM969 1448v16q57 -6 133.5 -21t153.5 -25.5t171 -10.5v-412h-14q-40 195 -165.5 310t-278.5 143z" />
<glyph unicode="&#x107;" horiz-adv-x="1169" d="M37 467q0 111 47.5 212t130.5 176.5t201 121t252 47.5v-16q-65 -26 -108.5 -158t-43.5 -338q0 -194 77.5 -317t223.5 -123q154 0 285 88l6 -6q-84 -99 -198.5 -147t-274.5 -48q-283 0 -440.5 138t-157.5 370zM459 1114l270 422q67 0 106 -37t39 -90q0 -67 -60.5 -129.5 t-152 -105.5t-198.5 -66zM733 1006v16q184 -7 292 -75.5t108 -176.5q0 -72 -57 -121t-156 -49q-49 0 -99.5 17t-81.5 45q56 83 56 194q0 54 -15.5 95.5t-46.5 54.5z" />
<glyph unicode="&#x108;" horiz-adv-x="1519" d="M49 684q0 164 56.5 308.5t157.5 251t250 168t325 61.5v-19q-53 -6 -94.5 -41.5t-76 -113t-53 -219t-18.5 -341.5q0 -703 242 -759v-19q-193 0 -344 53t-248 149.5t-147 228.5t-50 292zM477 1546l297 301h127l297 -301l-6 -10l-354 106l-355 -106zM969 -14 q145 33 281.5 183.5t193.5 373.5h14l-63 -498q-112 0 -255 -35t-171 -39v15zM969 1448v16q57 -6 133.5 -21t153.5 -25.5t171 -10.5v-412h-14q-40 195 -165.5 310t-278.5 143z" />
<glyph unicode="&#x109;" horiz-adv-x="1169" d="M37 467q0 111 47.5 212t130.5 176.5t201 121t252 47.5v-16q-65 -26 -108.5 -158t-43.5 -338q0 -194 77.5 -317t223.5 -123q154 0 285 88l6 -6q-84 -99 -198.5 -147t-274.5 -48q-283 0 -440.5 138t-157.5 370zM315 1133l297 301h127l297 -301l-6 -11l-354 107l-354 -107z M733 1006v16q184 -7 292 -75.5t108 -176.5q0 -72 -57 -121t-156 -49q-49 0 -99.5 17t-81.5 45q56 83 56 194q0 54 -15.5 95.5t-46.5 54.5z" />
<glyph unicode="&#x10a;" horiz-adv-x="1519" d="M49 684q0 164 56.5 308.5t157.5 251t250 168t325 61.5v-19q-53 -6 -94.5 -41.5t-76 -113t-53 -219t-18.5 -341.5q0 -703 242 -759v-19q-193 0 -344 53t-248 149.5t-147 228.5t-50 292zM668 1735q0 87 52 143.5t148 56.5q99 0 153 -56.5t54 -143.5q0 -88 -54 -143.5 t-153 -55.5q-96 0 -148 55.5t-52 143.5zM969 -14q145 33 281.5 183.5t193.5 373.5h14l-63 -498q-112 0 -255 -35t-171 -39v15zM969 1448v16q57 -6 133.5 -21t153.5 -25.5t171 -10.5v-412h-14q-40 195 -165.5 310t-278.5 143z" />
<glyph unicode="&#x10b;" horiz-adv-x="1169" d="M37 467q0 111 47.5 212t130.5 176.5t201 121t252 47.5v-16q-65 -26 -108.5 -158t-43.5 -338q0 -194 77.5 -317t223.5 -123q154 0 285 88l6 -6q-84 -99 -198.5 -147t-274.5 -48q-283 0 -440.5 138t-157.5 370zM465 1286q0 87 52.5 144t148.5 57q99 0 152.5 -57t53.5 -144 q0 -88 -53.5 -143.5t-152.5 -55.5q-96 0 -148.5 55.5t-52.5 143.5zM733 1006v16q184 -7 292 -75.5t108 -176.5q0 -72 -57 -121t-156 -49q-49 0 -99.5 17t-81.5 45q56 83 56 194q0 54 -15.5 95.5t-46.5 54.5z" />
<glyph unicode="&#x10c;" horiz-adv-x="1519" d="M49 684q0 164 56.5 308.5t157.5 251t250 168t325 61.5v-19q-53 -6 -94.5 -41.5t-76 -113t-53 -219t-18.5 -341.5q0 -703 242 -759v-19q-193 0 -344 53t-248 149.5t-147 228.5t-50 292zM479 1835l6 10l355 -106l354 106l6 -10l-297 -301h-127zM969 -14q145 33 281.5 183.5 t193.5 373.5h14l-63 -498q-112 0 -255 -35t-171 -39v15zM969 1448v16q57 -6 133.5 -21t153.5 -25.5t171 -10.5v-412h-14q-40 195 -165.5 310t-278.5 143z" />
<glyph unicode="&#x10d;" horiz-adv-x="1169" d="M37 467q0 111 47.5 212t130.5 176.5t201 121t252 47.5v-16q-65 -26 -108.5 -158t-43.5 -338q0 -194 77.5 -317t223.5 -123q154 0 285 88l6 -6q-84 -99 -198.5 -147t-274.5 -48q-283 0 -440.5 138t-157.5 370zM283 1423l6 11l354 -107l354 107l7 -11l-297 -301h-127z M733 1006v16q184 -7 292 -75.5t108 -176.5q0 -72 -57 -121t-156 -49q-49 0 -99.5 17t-81.5 45q56 83 56 194q0 54 -15.5 95.5t-46.5 54.5z" />
<glyph unicode="&#x10e;" horiz-adv-x="1675" d="M41 -2v14q77 0 115.5 67t38.5 189v967q0 105 -36 143.5t-118 38.5v15q180 -7 393 -7q15 0 240 5v-1235q0 -169 59 -181v-14q-30 0 -144 2t-155 2zM422 1837l6 10l354 -106l355 106l6 -10l-297 -301h-127zM793 1419v15q383 0 608 -182t225 -500q0 -234 -96 -404t-268 -258 t-402 -90v14q52 4 95.5 42t79 115.5t55.5 210.5t20 312q0 329 -80.5 522t-236.5 203z" />
<glyph unicode="&#x10f;" horiz-adv-x="1542" d="M37 422q0 249 156.5 414.5t422.5 185.5v-16q-96 -60 -96 -498q0 -121 10.5 -208t29.5 -132t39.5 -64.5t45.5 -19.5q21 0 41 10v-16q-18 -10 -54.5 -35.5t-61.5 -41t-67.5 -29t-86.5 -13.5q-111 0 -198 62t-134 167t-47 234zM633 1434q88 0 179 10.5t158 25.5t122 30 t84 26l28 10v-1354q0 -58 26 -82t83 -24l10 -17q-88 0 -177 -10.5t-154 -25t-117.5 -29t-79.5 -24.5l-27 -11l-16 160v725q0 139 -70 162v18q22 0 68 -4v295q0 58 -27.5 81t-85.5 23zM1276 1366q0 76 50.5 123t125.5 47q85 0 132.5 -51.5t47.5 -132.5q0 -117 -71.5 -193.5 t-204.5 -134.5l-10 10q63 54 63 131q0 49 -31.5 90t-93.5 60q-8 32 -8 51z" />
<glyph unicode="&#x110;" horiz-adv-x="1675" d="M41 -2v14q77 0 115.5 67t38.5 189v453h-146v20h146v494q0 105 -36 143.5t-118 38.5v15q180 -7 393 -7q15 0 240 5v-689h252v-20h-252v-526q0 -169 59 -181v-14q-30 0 -144 2t-155 2zM793 1419v15q383 0 608 -182t225 -500q0 -234 -96 -404t-268 -258t-402 -90v14 q52 4 95.5 42t79 115.5t55.5 210.5t20 312q0 329 -80.5 522t-236.5 203z" />
<glyph unicode="&#x111;" horiz-adv-x="1347" d="M37 422q0 249 156.5 414.5t422.5 185.5v-16q-96 -60 -96 -498q0 -121 10.5 -208t29.5 -132t39.5 -64.5t45.5 -19.5q21 0 41 10v-16q-18 -10 -54.5 -35.5t-61.5 -41t-67.5 -29t-86.5 -13.5q-111 0 -198 62t-134 167t-47 234zM608 1194v20h142v101q0 58 -27.5 81t-85.5 23 l-4 15q88 0 179 10.5t158 25.5t122 30t84 26l28 10v-322h86v-20h-86v-1012q0 -58 26 -82t83 -24l10 -17q-88 0 -177 -10.5t-154 -25t-117.5 -29t-79.5 -24.5l-27 -11l-16 160v725q0 139 -70 162v18q22 0 68 -4v174h-142z" />
<glyph unicode="&#x112;" horiz-adv-x="1388" d="M41 0v14q77 0 115.5 67t38.5 189v967q0 105 -36 143.5t-118 38.5v15q180 -7 393 -7q15 0 240 5v-1235q0 -169 59 -181v-14q-30 0 -144 2t-155 2zM399 1575v20h637v-20h-637zM793 752v14q118 0 186 75t68 218h14v-656h-14q0 54 -6.5 100.5t-23.5 93.5t-44.5 80t-73.5 54 t-106 21zM793 1417v13q89 0 475 4v-439h-15q-23 199 -147.5 310.5t-312.5 111.5zM860 2v16q172 0 301 145t174 398h17l-95 -561q-272 0 -397 2z" />
<glyph unicode="&#x113;" horiz-adv-x="1200" d="M37 467q0 107 44.5 205.5t121.5 172t186 121.5t232 56v-18q-105 -47 -105 -467q0 -463 293 -463q153 0 281 88l8 -8q-84 -99 -199.5 -147t-275.5 -48q-282 0 -434 137t-152 371zM356 1239v21h637v-21h-637zM590 600v14l160 17q8 55 8 127q0 97 -20.5 168t-53.5 80v18 q211 -5 340 -106.5t139 -292.5l-20 -25h-553z" />
<glyph unicode="&#x114;" horiz-adv-x="1388" d="M41 0v14q77 0 115.5 67t38.5 189v967q0 105 -36 143.5t-118 38.5v15q180 -7 393 -7q15 0 240 5v-1235q0 -169 59 -181v-14q-30 0 -144 2t-155 2zM412 1833h237q0 -79 50 -128.5t132 -49.5q88 0 139.5 49.5t51.5 128.5h14q0 -132 -73.5 -214.5t-217.5 -82.5 q-166 0 -249.5 75.5t-83.5 221.5zM793 752v14q118 0 186 75t68 218h14v-656h-14q0 54 -6.5 100.5t-23.5 93.5t-44.5 80t-73.5 54t-106 21zM793 1417v13q89 0 475 4v-439h-15q-23 199 -147.5 310.5t-312.5 111.5zM860 2v16q172 0 301 145t174 398h17l-95 -561q-272 0 -397 2z " />
<glyph unicode="&#x115;" horiz-adv-x="1200" d="M37 467q0 107 44.5 205.5t121.5 172t186 121.5t232 56v-18q-105 -47 -105 -467q0 -463 293 -463q153 0 281 88l8 -8q-84 -99 -199.5 -147t-275.5 -48q-282 0 -434 137t-152 371zM322 1399h237q0 -79 50 -128.5t132 -49.5q88 0 139.5 49.5t51.5 128.5h14 q0 -132 -73.5 -214.5t-217.5 -82.5q-166 0 -249.5 75.5t-83.5 221.5zM590 600v14l160 17q8 55 8 127q0 97 -20.5 168t-53.5 80v18q211 -5 340 -106.5t139 -292.5l-20 -25h-553z" />
<glyph unicode="&#x116;" horiz-adv-x="1388" d="M41 0v14q77 0 115.5 67t38.5 189v967q0 105 -36 143.5t-118 38.5v15q180 -7 393 -7q15 0 240 5v-1235q0 -169 59 -181v-14q-30 0 -144 2t-155 2zM526 1735q0 87 52.5 143.5t148.5 56.5q99 0 153 -56.5t54 -143.5q0 -88 -54 -143.5t-153 -55.5q-96 0 -148.5 55.5 t-52.5 143.5zM793 752v14q118 0 186 75t68 218h14v-656h-14q0 54 -6.5 100.5t-23.5 93.5t-44.5 80t-73.5 54t-106 21zM793 1417v13q89 0 475 4v-439h-15q-23 199 -147.5 310.5t-312.5 111.5zM860 2v16q172 0 301 145t174 398h17l-95 -561q-272 0 -397 2z" />
<glyph unicode="&#x117;" horiz-adv-x="1200" d="M37 467q0 107 44.5 205.5t121.5 172t186 121.5t232 56v-18q-105 -47 -105 -467q0 -463 293 -463q153 0 281 88l8 -8q-84 -99 -199.5 -147t-275.5 -48q-282 0 -434 137t-152 371zM453 1286q0 87 52 144t148 57q99 0 153 -57t54 -144q0 -88 -54 -143.5t-153 -55.5 q-96 0 -148 55.5t-52 143.5zM590 600v14l160 17q8 55 8 127q0 97 -20.5 168t-53.5 80v18q211 -5 340 -106.5t139 -292.5l-20 -25h-553z" />
<glyph unicode="&#x118;" horiz-adv-x="1388" d="M41 0v14q77 0 115.5 67t38.5 189v967q0 105 -36 143.5t-118 38.5v15q180 -7 393 -7q15 0 240 5v-1235q0 -169 59 -181v-14q-30 0 -144 2t-155 2zM793 752v14q118 0 186 75t68 218h14v-656h-14q0 54 -6.5 100.5t-23.5 93.5t-44.5 80t-73.5 54t-106 21zM793 1417v13 q89 0 475 4v-439h-15q-23 199 -147.5 310.5t-312.5 111.5zM860 2v16q172 0 301 145t174 398h17l-95 -561q-272 0 -397 2zM893 -311q0 91 92 163t227 99l7 -6q-40 -46 -63 -111t-23 -131q0 -70 30 -104.5t74 -34.5q42 0 84 20l6 -14q-26 -18 -87 -34.5t-110 -16.5 q-237 0 -237 170z" />
<glyph unicode="&#x119;" horiz-adv-x="1200" d="M37 467q0 107 44.5 205.5t121.5 172t186 121.5t232 56v-18q-105 -47 -105 -467q0 -463 293 -463q153 0 281 88l8 -8q-84 -99 -199.5 -147t-275.5 -48q-282 0 -434 137t-152 371zM516 -311q0 90 92.5 162.5t227.5 99.5l6 -6q-40 -46 -63 -111t-23 -131q0 -70 30 -104.5 t74 -34.5q42 0 84 20l6 -14q-26 -18 -86.5 -34.5t-109.5 -16.5q-238 0 -238 170zM590 600v14l160 17q8 55 8 127q0 97 -20.5 168t-53.5 80v18q211 -5 340 -106.5t139 -292.5l-20 -25h-553z" />
<glyph unicode="&#x11a;" horiz-adv-x="1388" d="M41 0v14q77 0 115.5 67t38.5 189v967q0 105 -36 143.5t-118 38.5v15q180 -7 393 -7q15 0 240 5v-1235q0 -169 59 -181v-14q-30 0 -144 2t-155 2zM352 1837l6 10l355 -106l354 106l6 -10l-297 -301h-127zM793 752v14q118 0 186 75t68 218h14v-656h-14q0 54 -6.5 100.5 t-23.5 93.5t-44.5 80t-73.5 54t-106 21zM793 1417v13q89 0 475 4v-439h-15q-23 199 -147.5 310.5t-312.5 111.5zM860 2v16q172 0 301 145t174 398h17l-95 -561q-272 0 -397 2z" />
<glyph unicode="&#x11b;" horiz-adv-x="1200" d="M37 467q0 107 44.5 205.5t121.5 172t186 121.5t232 56v-18q-105 -47 -105 -467q0 -463 293 -463q153 0 281 88l8 -8q-84 -99 -199.5 -147t-275.5 -48q-282 0 -434 137t-152 371zM301 1423l6 11l355 -107l354 107l6 -11l-297 -301h-127zM590 600v14l160 17q8 55 8 127 q0 97 -20.5 168t-53.5 80v18q211 -5 340 -106.5t139 -292.5l-20 -25h-553z" />
<glyph unicode="&#x11c;" horiz-adv-x="1714" d="M49 684q0 164 56.5 308.5t157.5 251t250 168t325 61.5v-19q-53 -6 -94.5 -41.5t-76 -113t-53 -219t-18.5 -341.5q0 -703 242 -759v-19q-193 0 -344 53t-248 149.5t-147 228.5t-50 292zM514 1546l297 301h127l297 -301l-6 -10l-355 106l-354 -106zM895 676v14h778v-14 q-76 0 -114.5 -66.5t-38.5 -189.5v-375q-124 0 -212.5 -13t-176.5 -33.5t-162 -29.5v15q80 17 80 161v349q0 105 -36 143.5t-118 38.5zM969 1448v16q57 -6 133.5 -21t153.5 -25.5t171 -10.5v-412h-14q-40 195 -165.5 310t-278.5 143z" />
<glyph unicode="&#x11d;" horiz-adv-x="1312" d="M-2 -317q0 75 51 117t113 42q83 0 129 -43q-27 -27 -42.5 -64.5t-15.5 -66.5q0 -165 183 -205v-14q-200 11 -309 70.5t-109 163.5zM43 639q0 144 122.5 254.5t338.5 128.5v-16q-28 -16 -36.5 -94t-8.5 -244q0 -146 15 -247.5t46 -111.5v-18q-62 0 -125.5 11.5t-127.5 38 t-113 65t-80 99t-31 134.5zM68 63q0 51 26 91t68 64t84 37.5t84 18.5l10 -8q-21 -12 -21 -33q0 -25 44.5 -34t142.5 -9h156q259 0 398.5 -83t139.5 -234q0 -77 -32 -142t-90 -112t-128.5 -80t-156.5 -55l-7 16q45 23 72 66.5t27 99.5q0 77 -71 125.5t-187 48.5h-121 q-83 0 -158 12t-139.5 37.5t-102.5 70t-38 103.5zM209 1133l297 301h127l297 -301l-6 -11l-355 107l-354 -107zM569 1008v16q81 0 164.5 -20.5t160.5 -60.5t126 -110.5t49 -160.5q0 -142 -132.5 -252t-352.5 -127v14q41 10 55 88t14 252q0 131 -25 242.5t-59 118.5zM942 971 q179 3 264 84q56 -7 86.5 -44t30.5 -81q0 -52 -31.5 -85.5t-87.5 -33.5q-35 0 -71 19t-62 43t-62.5 53.5t-66.5 44.5z" />
<glyph unicode="&#x11e;" horiz-adv-x="1714" d="M49 684q0 164 56.5 308.5t157.5 251t250 168t325 61.5v-19q-53 -6 -94.5 -41.5t-76 -113t-53 -219t-18.5 -341.5q0 -703 242 -759v-19q-193 0 -344 53t-248 149.5t-147 228.5t-50 292zM561 1833h238q0 -79 50 -128.5t132 -49.5q88 0 139 49.5t51 128.5h15 q0 -132 -73.5 -214.5t-217.5 -82.5q-166 0 -250 75.5t-84 221.5zM895 676v14h778v-14q-76 0 -114.5 -66.5t-38.5 -189.5v-375q-124 0 -212.5 -13t-176.5 -33.5t-162 -29.5v15q80 17 80 161v349q0 105 -36 143.5t-118 38.5zM969 1448v16q57 -6 133.5 -21t153.5 -25.5 t171 -10.5v-412h-14q-40 195 -165.5 310t-278.5 143z" />
<glyph unicode="&#x11f;" horiz-adv-x="1312" d="M-2 -317q0 75 51 117t113 42q83 0 129 -43q-27 -27 -42.5 -64.5t-15.5 -66.5q0 -165 183 -205v-14q-200 11 -309 70.5t-109 163.5zM43 639q0 144 122.5 254.5t338.5 128.5v-16q-28 -16 -36.5 -94t-8.5 -244q0 -146 15 -247.5t46 -111.5v-18q-62 0 -125.5 11.5t-127.5 38 t-113 65t-80 99t-31 134.5zM68 63q0 51 26 91t68 64t84 37.5t84 18.5l10 -8q-21 -12 -21 -33q0 -25 44.5 -34t142.5 -9h156q259 0 398.5 -83t139.5 -234q0 -77 -32 -142t-90 -112t-128.5 -80t-156.5 -55l-7 16q45 23 72 66.5t27 99.5q0 77 -71 125.5t-187 48.5h-121 q-83 0 -158 12t-139.5 37.5t-102.5 70t-38 103.5zM285 1399h237q0 -79 50 -128.5t133 -49.5q88 0 139 49.5t51 128.5h14q0 -132 -73.5 -214.5t-217.5 -82.5q-166 0 -249.5 75.5t-83.5 221.5zM569 1008v16q81 0 164.5 -20.5t160.5 -60.5t126 -110.5t49 -160.5 q0 -142 -132.5 -252t-352.5 -127v14q41 10 55 88t14 252q0 131 -25 242.5t-59 118.5zM942 971q179 3 264 84q56 -7 86.5 -44t30.5 -81q0 -52 -31.5 -85.5t-87.5 -33.5q-35 0 -71 19t-62 43t-62.5 53.5t-66.5 44.5z" />
<glyph unicode="&#x120;" horiz-adv-x="1714" d="M49 684q0 164 56.5 308.5t157.5 251t250 168t325 61.5v-19q-53 -6 -94.5 -41.5t-76 -113t-53 -219t-18.5 -341.5q0 -703 242 -759v-19q-193 0 -344 53t-248 149.5t-147 228.5t-50 292zM668 1735q0 87 52 143.5t148 56.5q99 0 153 -56.5t54 -143.5q0 -88 -54 -143.5 t-153 -55.5q-96 0 -148 55.5t-52 143.5zM895 676v14h778v-14q-76 0 -114.5 -66.5t-38.5 -189.5v-375q-124 0 -212.5 -13t-176.5 -33.5t-162 -29.5v15q80 17 80 161v349q0 105 -36 143.5t-118 38.5zM969 1448v16q57 -6 133.5 -21t153.5 -25.5t171 -10.5v-412h-14 q-40 195 -165.5 310t-278.5 143z" />
<glyph unicode="&#x121;" horiz-adv-x="1312" d="M-2 -317q0 75 51 117t113 42q83 0 129 -43q-27 -27 -42.5 -64.5t-15.5 -66.5q0 -165 183 -205v-14q-200 11 -309 70.5t-109 163.5zM43 639q0 144 122.5 254.5t338.5 128.5v-16q-28 -16 -36.5 -94t-8.5 -244q0 -146 15 -247.5t46 -111.5v-18q-62 0 -125.5 11.5t-127.5 38 t-113 65t-80 99t-31 134.5zM68 63q0 51 26 91t68 64t84 37.5t84 18.5l10 -8q-21 -12 -21 -33q0 -25 44.5 -34t142.5 -9h156q259 0 398.5 -83t139.5 -234q0 -77 -32 -142t-90 -112t-128.5 -80t-156.5 -55l-7 16q45 23 72 66.5t27 99.5q0 77 -71 125.5t-187 48.5h-121 q-83 0 -158 12t-139.5 37.5t-102.5 70t-38 103.5zM352 1286q0 87 52.5 144t148.5 57q99 0 153 -57t54 -144q0 -88 -54 -143.5t-153 -55.5q-96 0 -148.5 55.5t-52.5 143.5zM569 1008v16q81 0 164.5 -20.5t160.5 -60.5t126 -110.5t49 -160.5q0 -142 -132.5 -252t-352.5 -127 v14q41 10 55 88t14 252q0 131 -25 242.5t-59 118.5zM942 971q179 3 264 84q56 -7 86.5 -44t30.5 -81q0 -52 -31.5 -85.5t-87.5 -33.5q-35 0 -71 19t-62 43t-62.5 53.5t-66.5 44.5z" />
<glyph unicode="&#x122;" horiz-adv-x="1714" d="M49 684q0 164 56.5 308.5t157.5 251t250 168t325 61.5v-19q-53 -6 -94.5 -41.5t-76 -113t-53 -219t-18.5 -341.5q0 -703 242 -759v-19q-193 0 -344 53t-248 149.5t-147 228.5t-50 292zM707 -264q0 76 50.5 123t125.5 47q85 0 132.5 -52t47.5 -133q0 -117 -71.5 -193 t-205.5 -134l-10 10q64 55 64 131q0 49 -31.5 90t-93.5 60q-8 32 -8 51zM895 676v14h778v-14q-76 0 -114.5 -66.5t-38.5 -189.5v-375q-124 0 -212.5 -13t-176.5 -33.5t-162 -29.5v15q80 17 80 161v349q0 105 -36 143.5t-118 38.5zM969 1448v16q57 -6 133.5 -21t153.5 -25.5 t171 -10.5v-412h-14q-40 195 -165.5 310t-278.5 143z" />
<glyph unicode="&#x123;" horiz-adv-x="1312" d="M-2 -317q0 75 51 117t113 42q83 0 129 -43q-27 -27 -42.5 -64.5t-15.5 -66.5q0 -165 183 -205v-14q-200 11 -309 70.5t-109 163.5zM43 639q0 144 122.5 254.5t338.5 128.5v-16q-28 -16 -36.5 -94t-8.5 -244q0 -146 15 -247.5t46 -111.5v-18q-62 0 -125.5 11.5t-127.5 38 t-113 65t-80 99t-31 134.5zM68 63q0 51 26 91t68 64t84 37.5t84 18.5l10 -8q-21 -12 -21 -33q0 -25 44.5 -34t142.5 -9h156q259 0 398.5 -83t139.5 -234q0 -77 -32 -142t-90 -112t-128.5 -80t-156.5 -55l-7 16q45 23 72 66.5t27 99.5q0 77 -71 125.5t-187 48.5h-121 q-83 0 -158 12t-139.5 37.5t-102.5 70t-38 103.5zM406 1270q0 117 71 193t205 134l10 -10q-63 -54 -63 -131q0 -49 31.5 -89.5t93.5 -59.5q8 -32 8 -52q0 -76 -50.5 -123t-125.5 -47q-85 0 -132.5 52t-47.5 133zM569 1008v16q81 0 164.5 -20.5t160.5 -60.5t126 -110.5 t49 -160.5q0 -142 -132.5 -252t-352.5 -127v14q41 10 55 88t14 252q0 131 -25 242.5t-59 118.5zM942 971q179 3 264 84q56 -7 86.5 -44t30.5 -81q0 -52 -31.5 -85.5t-87.5 -33.5q-35 0 -71 19t-62 43t-62.5 53.5t-66.5 44.5z" />
<glyph unicode="&#x124;" horiz-adv-x="1746" d="M41 0v14q77 0 115.5 67t38.5 189v967q0 105 -36 143.5t-118 38.5v15q180 -7 393 -7q95 0 193 1.5t149 3.5l51 2v-15q-76 0 -114.5 -66.5t-38.5 -189.5v-966q0 -105 35.5 -144t117.5 -39v-14q-180 6 -393 6zM510 1546l297 301h127l297 -301l-6 -10l-355 106l-354 -106z M805 737v21h268v479q0 105 -35.5 143.5t-117.5 38.5v15q180 -7 393 -7q95 0 193 1.5t149 3.5l51 2v-15q-77 0 -115.5 -67t-38.5 -189v-966q0 -105 36 -144t118 -39v-14q-180 6 -393 6l-393 -6v14q76 0 114.5 66.5t38.5 189.5v467h-268z" />
<glyph unicode="&#x125;" horiz-adv-x="1421" d="M37 0v14q58 0 87.5 38t29.5 106v1157q0 58 -27.5 81t-85.5 23l-4 15q138 0 281 25.5t216 50.5l74 26v-1444q0 -78 80 -78v-14q-106 6 -307 6q-90 0 -176 -1.5t-127 -2.5zM246 1546l297 301h127l297 -301l-6 -10l-355 106l-354 -106zM694 868v15q34 15 96 54t117.5 63 t112.5 24q124 0 191 -74.5t67 -214.5v-612q0 -66 25 -87.5t88 -21.5v-14q-135 6 -338 6q-84 0 -160.5 -1.5t-110.5 -2.5l-34 -2v14q41 0 58 22t17 75v677q0 43 -20.5 68t-52.5 25q-21 0 -56 -13z" />
<glyph unicode="&#x126;" horiz-adv-x="1746" d="M0 995v21h147v-21h-147zM41 0v14q77 0 115.5 67t38.5 189v967q0 105 -36 143.5t-118 38.5v15q180 -7 393 -7q95 0 193 1.5t149 3.5l51 2v-15q-76 0 -114.5 -66.5t-38.5 -189.5v-147h399v221q0 105 -35.5 143.5t-117.5 38.5v15q180 -7 393 -7q95 0 193 1.5t149 3.5l51 2 v-15q-77 0 -115.5 -67t-38.5 -189v-966q0 -105 36 -144t118 -39v-14q-180 6 -393 6l-393 -6v14q76 0 114.5 66.5t38.5 189.5v467h-268v21h268v237h-399v-798q0 -105 35.5 -144t117.5 -39v-14q-180 6 -393 6zM1599 995v21h148v-21h-148z" />
<glyph unicode="&#x127;" horiz-adv-x="1421" d="M37 0v14q58 0 87.5 38t29.5 106v1036h-84v20h84v101q0 58 -27.5 81t-85.5 23l-4 15q138 0 281 25.5t216 50.5l74 26v-322h215v-20h-215v-1102q0 -78 80 -78v-14q-106 6 -307 6q-90 0 -176 -1.5t-127 -2.5zM694 868v15q34 15 96 54t117.5 63t112.5 24q124 0 191 -74.5 t67 -214.5v-612q0 -66 25 -87.5t88 -21.5v-14q-135 6 -338 6q-84 0 -160.5 -1.5t-110.5 -2.5l-34 -2v14q41 0 58 22t17 75v677q0 43 -20.5 68t-52.5 25q-21 0 -56 -13z" />
<glyph unicode="&#x128;" d="M41 0v14q77 0 115.5 67t38.5 189v967q0 105 -36 143.5t-118 38.5v15q180 -7 393 -7q95 0 193 1.5t149 3.5l51 2v-15q-76 0 -114.5 -66.5t-38.5 -189.5v-966q0 -105 35.5 -144t117.5 -39v-14q-180 6 -393 6zM61 1540q7 152 70 227.5t174 75.5q60 0 116 -16.5t92.5 -36.5 t84 -36.5t92.5 -16.5t79 27t44 85l12 -10q-15 -303 -243 -303q-60 0 -116 16.5t-92 36.5t-84 36.5t-93 16.5q-44 0 -78.5 -27t-44.5 -85z" />
<glyph unicode="&#x129;" horiz-adv-x="751" d="M-6 1149q7 152 70 227.5t174 75.5q60 0 116 -16.5t92.5 -36.5t84 -36.5t92.5 -16.5t78.5 26.5t43.5 85.5l13 -10q-7 -152 -70 -227.5t-174 -75.5q-60 0 -116 16.5t-92 36.5t-84 36.5t-93 16.5q-44 0 -78.5 -27t-44.5 -85zM37 0v14q58 0 87.5 38t29.5 106v647 q0 58 -27.5 81t-85.5 23l-4 15q138 0 281 25t216 50l74 25v-932q0 -78 80 -78v-14q-98 6 -305 6q-91 0 -177.5 -1.5t-127.5 -2.5z" />
<glyph unicode="&#x12a;" d="M41 0v14q77 0 115.5 67t38.5 189v967q0 105 -36 143.5t-118 38.5v15q180 -7 393 -7q95 0 193 1.5t149 3.5l51 2v-15q-76 0 -114.5 -66.5t-38.5 -189.5v-966q0 -105 35.5 -144t117.5 -39v-14q-180 6 -393 6zM125 1575v20h637v-20h-637z" />
<glyph unicode="&#x12b;" horiz-adv-x="751" d="M37 0v14q58 0 87.5 38t29.5 106v647q0 58 -27.5 81t-85.5 23l-4 15q138 0 281 25t216 50l74 25v-932q0 -78 80 -78v-14q-98 6 -305 6q-91 0 -177.5 -1.5t-127.5 -2.5zM45 1239v21h637v-21h-637z" />
<glyph unicode="&#x12c;" d="M41 0v14q77 0 115.5 67t38.5 189v967q0 105 -36 143.5t-118 38.5v15q180 -7 393 -7q95 0 193 1.5t149 3.5l51 2v-15q-76 0 -114.5 -66.5t-38.5 -189.5v-966q0 -105 35.5 -144t117.5 -39v-14q-180 6 -393 6zM131 1833h238q0 -79 50 -128.5t132 -49.5q88 0 139 49.5 t51 128.5h15q0 -132 -73.5 -214.5t-217.5 -82.5q-166 0 -250 75.5t-84 221.5z" />
<glyph unicode="&#x12d;" horiz-adv-x="751" d="M37 0v14q58 0 87.5 38t29.5 106v647q0 58 -27.5 81t-85.5 23l-4 15q138 0 281 25t216 50l74 25v-932q0 -78 80 -78v-14q-98 6 -305 6q-91 0 -177.5 -1.5t-127.5 -2.5zM63 1399h238q0 -79 50 -128.5t132 -49.5q88 0 139.5 49.5t51.5 128.5h14q0 -132 -73.5 -214.5 t-217.5 -82.5q-166 0 -250 75.5t-84 221.5z" />
<glyph unicode="&#x12e;" d="M41 0v14q77 0 115.5 67t38.5 189v967q0 105 -36 143.5t-118 38.5v15q180 -7 393 -7q95 0 193 1.5t149 3.5l51 2v-15q-76 0 -114.5 -66.5t-38.5 -189.5v-966q0 -105 35.5 -144t117.5 -39v-14q-180 6 -393 6zM463 -311q0 91 92 163t227 99l6 -6q-40 -46 -63 -111t-23 -131 q0 -70 30.5 -104.5t74.5 -34.5q42 0 84 20l6 -14q-26 -18 -87 -34.5t-110 -16.5q-237 0 -237 170z" />
<glyph unicode="&#x12f;" horiz-adv-x="751" d="M37 0v14q58 0 87.5 38t29.5 106v647q0 58 -27.5 81t-85.5 23l-4 15q138 0 281 25t216 50l74 25v-932q0 -78 80 -78v-14q-98 6 -305 6q-91 0 -177.5 -1.5t-127.5 -2.5zM143 1288q0 90 60 146.5t174 56.5t174.5 -56.5t60.5 -146.5q0 -88 -60 -142t-175 -54q-114 0 -174 54 t-60 142zM324 -311q0 91 92 163t227 99l6 -6q-40 -46 -63 -111t-23 -131q0 -70 30.5 -104.5t74.5 -34.5q42 0 84 20l6 -14q-26 -18 -87 -34.5t-110 -16.5q-237 0 -237 170z" />
<glyph unicode="&#x130;" d="M41 0v14q77 0 115.5 67t38.5 189v967q0 105 -36 143.5t-118 38.5v15q180 -7 393 -7q95 0 193 1.5t149 3.5l51 2v-15q-76 0 -114.5 -66.5t-38.5 -189.5v-966q0 -105 35.5 -144t117.5 -39v-14q-180 6 -393 6zM238 1737q0 87 52 143.5t148 56.5q99 0 153 -56.5t54 -143.5 q0 -88 -54 -143.5t-153 -55.5q-96 0 -148 55.5t-52 143.5z" />
<glyph unicode="&#x131;" horiz-adv-x="751" d="M37 0v14q58 0 87.5 38t29.5 106v647q0 58 -27.5 81t-85.5 23l-4 15q138 0 281 25t216 50l74 25v-932q0 -78 80 -78v-14q-98 6 -305 6q-91 0 -177.5 -1.5t-127.5 -2.5z" />
<glyph unicode="&#x132;" horiz-adv-x="1736" d="M41 0v14q77 0 115.5 67t38.5 189v967q0 105 -36 143.5t-118 38.5v15q180 -7 393 -7q95 0 193 1.5t149 3.5l51 2v-15q-76 0 -114.5 -66.5t-38.5 -189.5v-966q0 -105 35.5 -144t117.5 -39v-14q-180 6 -393 6zM868 -449q19 30 63.5 79t69.5 87q62 92 62 301v1219 q0 105 -36 143.5t-118 38.5v15q181 -7 394 -7q95 0 193 1.5t149 3.5l51 2v-15q-77 0 -115.5 -67t-38.5 -189v-1005q0 -136 -35.5 -222.5t-109.5 -150.5q-51 -43 -126.5 -73.5t-139.5 -45t-135.5 -46.5t-118.5 -79z" />
<glyph unicode="&#x133;" horiz-adv-x="1497" d="M37 0v14q58 0 87.5 38t29.5 106v647q0 58 -27.5 81t-85.5 23l-4 15q138 0 281 25t216 50l74 25v-932q0 -78 80 -78v-14q-98 6 -305 6q-91 0 -177.5 -1.5t-127.5 -2.5zM143 1288q0 90 60 146.5t174 56.5t174.5 -56.5t60.5 -146.5q0 -88 -60 -142t-175 -54q-114 0 -174 54 t-60 142zM629 -492q24 24 69 56.5t82.5 66t61.5 74.5q38 66 47.5 140t9.5 210v750q0 58 -27.5 81t-85.5 23l-4 15q138 0 281 25t217 50l74 25v-903q0 -151 -47 -259.5t-158 -178.5q-64 -40 -167.5 -66.5t-197 -52.5t-145.5 -66zM889 1288q0 91 59.5 147t173.5 56t175 -56.5 t61 -146.5q0 -88 -60.5 -142t-175.5 -54q-114 0 -173.5 53.5t-59.5 142.5z" />
<glyph unicode="&#x134;" d="M0 -449q19 30 63.5 79t69.5 87q62 92 62 301v1219q0 105 -36 143.5t-118 38.5v15q180 -7 393 -7q95 0 193 1.5t149 3.5l51 2v-15q-76 0 -114.5 -66.5t-38.5 -189.5v-1005q0 -135 -35.5 -222t-110.5 -151q-51 -43 -126.5 -73.5t-139.5 -45t-135.5 -46.5t-118.5 -79z M76 1546l297 301h127l297 -301l-6 -10l-355 106l-354 -106z" />
<glyph unicode="&#x135;" horiz-adv-x="761" d="M-106 -492q24 24 69 56.5t82 66t61 74.5q38 66 48 141t10 209v750q0 58 -27.5 81t-85.5 23l-4 15q138 0 281 25t216 50l74 25v-903q0 -151 -46.5 -259.5t-157.5 -178.5q-64 -40 -167.5 -66.5t-197 -52.5t-145.5 -66zM20 1133l297 301h127l297 -301l-6 -11l-354 107 l-354 -107z" />
<glyph unicode="&#x136;" horiz-adv-x="1732" d="M41 0v14q77 0 115.5 67t38.5 189v967q0 105 -36 143.5t-118 38.5v15q180 -7 393 -7q95 0 193 1.5t149 3.5l51 2v-15q-76 0 -114.5 -66.5t-38.5 -189.5v-966q0 -105 35.5 -144t117.5 -39v-14q-180 6 -393 6zM737 -264q0 76 50.5 123t125.5 47q85 0 133 -52t48 -133 q0 -117 -71.5 -193t-205.5 -134l-10 10q63 54 63 131q0 49 -31.5 90t-93.5 60q-8 32 -8 51zM770 670l307 389l516 -891q36 -61 74.5 -92t89.5 -31v-16q-11 -8 -32.5 -19t-97 -30t-161.5 -19q-171 0 -285 62t-186 204zM1044 1419v15q103 -7 320 -7q90 0 163 1.5t101 3.5l27 2 v-15q-146 0 -258 -49.5t-207 -173.5l-10 10q41 52 41 97q0 57 -46.5 86.5t-130.5 29.5z" />
<glyph unicode="&#x137;" horiz-adv-x="1454" d="M37 0v14q58 0 87.5 38t29.5 106v1157q0 58 -27.5 81t-85.5 23l-4 15q138 0 281 25.5t216 50.5l74 26v-1444q0 -78 80 -78v-14q-98 6 -305 6q-91 0 -177.5 -1.5t-127.5 -2.5zM565 -264q0 76 50.5 123t125.5 47q85 0 133 -52t48 -133q0 -117 -71.5 -193t-205.5 -134l-10 10 q63 54 63 131q0 49 -31.5 90t-93.5 60q-8 32 -8 51zM659 432l269 318l389 -592q41 -63 73 -90t74 -27v-10q-13 -8 -36 -20t-98 -32t-152 -20q-139 0 -226.5 55.5t-156.5 178.5zM827 969v14h541v-14q-138 0 -219 -39.5t-172 -138.5l-8 10q30 38 30 80q0 41 -43.5 64.5 t-128.5 23.5z" />
<glyph unicode="&#x138;" horiz-adv-x="1454" d="M37 0v14q58 0 87.5 38t29.5 106v647q0 58 -27.5 81t-85.5 23l-4 15q138 0 281 25t216 50l74 25v-932q0 -78 80 -78v-14q-98 6 -305 6q-91 0 -177.5 -1.5t-127.5 -2.5zM659 432l269 318l389 -592q41 -63 73 -90t74 -27v-10q-13 -8 -36 -20t-98 -32t-152 -20 q-139 0 -226.5 55.5t-156.5 178.5zM827 969v14h541v-14q-138 0 -219 -39.5t-172 -138.5l-8 10q30 38 30 80q0 41 -43.5 64.5t-128.5 23.5z" />
<glyph unicode="&#x139;" horiz-adv-x="1380" d="M41 0v14q77 0 115.5 67t38.5 189v967q0 105 -36 143.5t-118 38.5v15q180 -7 393 -7q95 0 193 1.5t149 3.5l51 2v-15q-76 0 -114.5 -66.5t-38.5 -189.5v-966q0 -169 59 -181v-14q-30 0 -144 2t-155 2zM270 1542l271 422q67 0 106 -37t39 -90q0 -67 -61 -129.5 t-152.5 -105.5t-198.5 -66zM860 2v16q114 0 214.5 83.5t167.5 214.5t101 290h17l-86 -606q-289 0 -414 2z" />
<glyph unicode="&#x13a;" horiz-adv-x="751" d="M37 0v14q58 0 87.5 38t29.5 106v1157q0 58 -27.5 81t-85.5 23l-4 15q138 0 281 25.5t216 50.5l74 26v-1444q0 -78 80 -78v-14q-98 6 -305 6q-91 0 -177.5 -1.5t-127.5 -2.5zM168 1542l270 422q67 0 106.5 -37t39.5 -90q0 -67 -61 -129.5t-152.5 -105.5t-198.5 -66z" />
<glyph unicode="&#x13b;" horiz-adv-x="1380" d="M41 0v14q77 0 115.5 67t38.5 189v967q0 105 -36 143.5t-118 38.5v15q180 -7 393 -7q95 0 193 1.5t149 3.5l51 2v-15q-76 0 -114.5 -66.5t-38.5 -189.5v-966q0 -169 59 -181v-14q-30 0 -144 2t-155 2zM512 -264q0 76 50.5 123t125.5 47q85 0 132.5 -52t47.5 -133 q0 -117 -71 -193t-205 -134l-10 10q63 54 63 131q0 49 -31.5 90t-93.5 60q-8 32 -8 51zM860 2v16q114 0 214.5 83.5t167.5 214.5t101 290h17l-86 -606q-289 0 -414 2z" />
<glyph unicode="&#x13c;" horiz-adv-x="751" d="M37 0v14q58 0 87.5 38t29.5 106v1157q0 58 -27.5 81t-85.5 23l-4 15q138 0 281 25.5t216 50.5l74 26v-1444q0 -78 80 -78v-14q-98 6 -305 6q-91 0 -177.5 -1.5t-127.5 -2.5zM197 -264q0 76 50.5 123t125.5 47q85 0 132.5 -52t47.5 -133q0 -117 -71.5 -193t-205.5 -134 l-10 10q64 55 64 131q0 49 -31.5 90t-93.5 60q-8 32 -8 51z" />
<glyph unicode="&#x13d;" horiz-adv-x="1380" d="M41 0v14q77 0 115.5 67t38.5 189v967q0 105 -36 143.5t-118 38.5v15q180 -7 393 -7q95 0 193 1.5t149 3.5l51 2v-15q-76 0 -114.5 -66.5t-38.5 -189.5v-966q0 -169 59 -181v-14q-30 0 -144 2t-155 2zM860 2v16q114 0 214.5 83.5t167.5 214.5t101 290h17l-86 -606 q-289 0 -414 2zM950 1303q0 76 50.5 123t125.5 47q85 0 133 -52t48 -133q0 -218 -277 -338l-10 11q63 54 63 135q0 49 -32 92.5t-93 62.5q-8 32 -8 52z" />
<glyph unicode="&#x13e;" horiz-adv-x="1017" d="M37 0v14q58 0 87.5 38t29.5 106v1157q0 58 -27.5 81t-85.5 23l-4 15q138 0 281 25.5t216 50.5l74 26v-1444q0 -78 80 -78v-14q-98 6 -305 6q-91 0 -177.5 -1.5t-127.5 -2.5zM723 1303q0 76 50.5 123t125.5 47q85 0 132.5 -52t47.5 -133q0 -219 -276 -338l-10 11 q63 54 63 135q0 49 -32 92.5t-93 62.5q-8 32 -8 52z" />
<glyph unicode="&#x13f;" horiz-adv-x="1380" d="M41 0v14q77 0 115.5 67t38.5 189v967q0 105 -36 143.5t-118 38.5v15q180 -7 393 -7q95 0 193 1.5t149 3.5l51 2v-15q-76 0 -114.5 -66.5t-38.5 -189.5v-966q0 -169 59 -181v-14q-30 0 -144 2t-155 2zM809 788q0 95 57 156.5t162 61.5t163 -61.5t58 -156.5 q0 -96 -58 -155.5t-163 -59.5t-162 59.5t-57 155.5zM860 2v16q114 0 214.5 83.5t167.5 214.5t101 290h17l-86 -606q-289 0 -414 2z" />
<glyph unicode="&#x140;" horiz-adv-x="1157" d="M37 0v14q58 0 87.5 38t29.5 106v1157q0 58 -27.5 81t-85.5 23l-4 15q138 0 281 25.5t216 50.5l74 26v-1444q0 -78 80 -78v-14q-98 6 -305 6q-91 0 -177.5 -1.5t-127.5 -2.5zM680 692q0 95 57 156t162 61t163 -61t58 -156q0 -96 -58 -155.5t-163 -59.5t-162 59.5 t-57 155.5z" />
<glyph unicode="&#x141;" horiz-adv-x="1380" d="M41 0v14q77 0 115.5 67t38.5 189v293l-107 -43v23l107 43v651q0 105 -36 143.5t-118 38.5v15q180 -7 393 -7q95 0 193 1.5t149 3.5l51 2v-15q-76 0 -114.5 -66.5t-38.5 -189.5v-379l313 129v-20l-313 -131v-565q0 -169 59 -181v-14q-30 0 -144 2t-155 2zM860 2v16 q114 0 214.5 83.5t167.5 214.5t101 290h17l-86 -606q-289 0 -414 2z" />
<glyph unicode="&#x142;" horiz-adv-x="751" d="M37 0v14q58 0 87.5 38t29.5 106v542l-115 -53v21l115 53v594q0 58 -27.5 81t-85.5 23l-4 15q138 0 281 25.5t216 50.5l74 26v-604l129 61v-20l-129 -64v-817q0 -78 80 -78v-14q-98 6 -305 6q-91 0 -177.5 -1.5t-127.5 -2.5z" />
<glyph unicode="&#x143;" horiz-adv-x="1554" d="M31 0v14q153 0 153 297v66h19v-66q0 -297 295 -297v-14q-221 6 -293 6zM31 1419v15q314 -7 694 -7q7 -67 94 -198l541 -809v-420l-316 -37l-856 1329q-48 74 -77.5 100.5t-79.5 26.5zM639 1540l270 422q67 0 106.5 -37t39.5 -90q0 -67 -61 -129.5t-152.5 -105.5 t-198.5 -66zM1069 1419v15q213 -7 285 -7l184 7v-15q-76 0 -127 -72.5t-51 -224.5v-69h-19v69q0 154 -74.5 225.5t-197.5 71.5z" />
<glyph unicode="&#x144;" horiz-adv-x="1406" d="M37 0v14q58 0 87.5 38t29.5 106v647q0 58 -27.5 81t-85.5 23l-4 15q138 0 281 25t216 50l74 25v-932q0 -78 80 -78v-14q-98 6 -305 6q-91 0 -177.5 -1.5t-127.5 -2.5zM532 1114l271 422q67 0 106 -37t39 -90q0 -67 -60.5 -129.5t-152 -105.5t-198.5 -66zM682 868v15 q34 15 96 54t117.5 63t112.5 24q124 0 191 -74.5t67 -214.5v-612q0 -66 24.5 -87.5t87.5 -21.5v-14q-135 6 -338 6q-84 0 -160.5 -1.5t-110.5 -2.5l-34 -2v14q41 0 58.5 22t17.5 75v677q0 43 -21 68t-53 25q-20 0 -55 -13z" />
<glyph unicode="&#x145;" horiz-adv-x="1554" d="M31 0v14q153 0 153 297v66h19v-66q0 -297 295 -297v-14q-221 6 -293 6zM31 1419v15q314 -7 694 -7q7 -67 94 -198l541 -809v-420l-316 -37l-856 1329q-48 74 -77.5 100.5t-79.5 26.5zM598 -264q0 76 50.5 123t125.5 47q85 0 132.5 -52t47.5 -133q0 -117 -71 -193 t-205 -134l-10 10q63 54 63 131q0 49 -31.5 90t-93.5 60q-8 32 -8 51zM1069 1419v15q213 -7 285 -7l184 7v-15q-76 0 -127 -72.5t-51 -224.5v-69h-19v69q0 154 -74.5 225.5t-197.5 71.5z" />
<glyph unicode="&#x146;" horiz-adv-x="1406" d="M37 0v14q58 0 87.5 38t29.5 106v647q0 58 -27.5 81t-85.5 23l-4 15q138 0 281 25t216 50l74 25v-932q0 -78 80 -78v-14q-98 6 -305 6q-91 0 -177.5 -1.5t-127.5 -2.5zM524 -264q0 76 50.5 123t125.5 47q85 0 133 -52t48 -133q0 -117 -71.5 -193t-205.5 -134l-10 10 q63 54 63 131q0 49 -31.5 90t-93.5 60q-8 32 -8 51zM682 868v15q34 15 96 54t117.5 63t112.5 24q124 0 191 -74.5t67 -214.5v-612q0 -66 24.5 -87.5t87.5 -21.5v-14q-135 6 -338 6q-84 0 -160.5 -1.5t-110.5 -2.5l-34 -2v14q41 0 58.5 22t17.5 75v677q0 43 -21 68t-53 25 q-20 0 -55 -13z" />
<glyph unicode="&#x147;" horiz-adv-x="1554" d="M31 0v14q153 0 153 297v66h19v-66q0 -297 295 -297v-14q-221 6 -293 6zM31 1419v15q314 -7 694 -7q7 -67 94 -198l541 -809v-420l-316 -37l-856 1329q-48 74 -77.5 100.5t-79.5 26.5zM457 1837l6 10l354 -106l354 106l7 -10l-297 -301h-127zM1069 1419v15q213 -7 285 -7 l184 7v-15q-76 0 -127 -72.5t-51 -224.5v-69h-19v69q0 154 -74.5 225.5t-197.5 71.5z" />
<glyph unicode="&#x148;" horiz-adv-x="1406" d="M37 0v14q58 0 87.5 38t29.5 106v647q0 58 -27.5 81t-85.5 23l-4 15q138 0 281 25t216 50l74 25v-932q0 -78 80 -78v-14q-98 6 -305 6q-91 0 -177.5 -1.5t-127.5 -2.5zM342 1423l6 11l354 -107l355 107l6 -11l-297 -301h-127zM682 868v15q34 15 96 54t117.5 63t112.5 24 q124 0 191 -74.5t67 -214.5v-612q0 -66 24.5 -87.5t87.5 -21.5v-14q-135 6 -338 6q-84 0 -160.5 -1.5t-110.5 -2.5l-34 -2v14q41 0 58.5 22t17.5 75v677q0 43 -21 68t-53 25q-20 0 -55 -13z" />
<glyph unicode="&#x149;" horiz-adv-x="1406" d="M-141 1303q0 76 50.5 123t125.5 47q85 0 132.5 -52t47.5 -133q0 -117 -71 -193t-205 -134l-11 10q64 55 64 131q0 49 -31.5 89.5t-93.5 59.5q-8 32 -8 52zM37 0v14q58 0 87.5 38t29.5 106v647q0 58 -27.5 81t-85.5 23l-4 15q138 0 281 25t216 50l74 25v-932q0 -78 80 -78 v-14q-98 6 -305 6q-91 0 -177.5 -1.5t-127.5 -2.5zM682 868v15q34 15 96 54t117.5 63t112.5 24q124 0 191 -74.5t67 -214.5v-612q0 -66 24.5 -87.5t87.5 -21.5v-14q-135 6 -338 6q-84 0 -160.5 -1.5t-110.5 -2.5l-34 -2v14q41 0 58.5 22t17.5 75v677q0 43 -21 68t-53 25 q-20 0 -55 -13z" />
<glyph unicode="&#x14a;" horiz-adv-x="1554" d="M31 0v14q153 0 153 297v66h19v-66q0 -297 295 -297v-14q-221 6 -293 6zM31 1419v15q314 -7 694 -7q7 -67 94 -198l541 -809v-420l-316 -37l-856 1329q-48 74 -77.5 100.5t-79.5 26.5zM719 -334q0 65 49 111.5t125 46.5q51 0 93 -23.5t67 -66.5q-49 -43 -49 -96 q0 -41 31 -70t75 -29q53 0 104 43t74 99l17 -11q-85 -182 -326 -182q-120 0 -190 48t-70 130zM1069 1419v15q213 -7 285 -7l184 7v-15q-76 0 -127 -72.5t-51 -224.5v-69h-19v69q0 154 -74.5 225.5t-197.5 71.5z" />
<glyph unicode="&#x14b;" horiz-adv-x="1406" d="M37 0v14q58 0 87.5 38t29.5 106v647q0 58 -27.5 81t-85.5 23l-4 15q138 0 281 25t216 50l74 25v-932q0 -78 80 -78v-14q-98 6 -305 6q-91 0 -177.5 -1.5t-127.5 -2.5zM541 -492q24 24 69 56.5t82.5 66t61.5 74.5q38 66 47.5 140t9.5 210v733q0 43 -21 68t-53 25 q-20 0 -55 -13v15q34 15 96 54t117.5 63t112.5 24q124 0 191 -74.5t67 -214.5v-614q0 -151 -47 -259.5t-158 -178.5q-64 -40 -167.5 -66.5t-197 -52.5t-145.5 -66z" />
<glyph unicode="&#x14c;" horiz-adv-x="1628" d="M49 684q0 204 79.5 372t233 278t359.5 134v-14q-72 -35 -99.5 -208.5t-27.5 -506.5q0 -341 47 -540.5t137 -223.5v-14q-230 5 -395.5 97t-249.5 252.5t-84 373.5zM498 1575v20h637v-20h-637zM852 1460v13q229 -5 394 -96.5t249 -251.5t84 -373q0 -204 -78.5 -372.5 t-232 -279t-359.5 -133.5v13q72 35 99.5 205t27.5 509q0 337 -49 545.5t-135 220.5z" />
<glyph unicode="&#x14d;" horiz-adv-x="1290" d="M37 467q0 100 38 193.5t107.5 169.5t176.5 127t237 63v-16q-41 -31 -60.5 -149.5t-19.5 -346.5q0 -216 29 -357.5t82 -170.5v-21q-118 0 -223.5 34t-187.5 97t-130.5 160.5t-48.5 216.5zM326 1239v21h637v-21h-637zM662 1006v18q117 0 222.5 -33.5t188 -95.5t131.5 -160 t49 -219q0 -100 -37.5 -193.5t-107 -169.5t-177.5 -127t-239 -63v14q43 29 62.5 148t19.5 350q0 476 -112 531z" />
<glyph unicode="&#x14e;" horiz-adv-x="1628" d="M49 684q0 204 79.5 372t233 278t359.5 134v-14q-72 -35 -99.5 -208.5t-27.5 -506.5q0 -341 47 -540.5t137 -223.5v-14q-230 5 -395.5 97t-249.5 252.5t-84 373.5zM502 1833h237q0 -79 50 -128.5t133 -49.5q88 0 139 49.5t51 128.5h14q0 -132 -73 -214.5t-217 -82.5 q-166 0 -250 75.5t-84 221.5zM852 1460v13q229 -5 394 -96.5t249 -251.5t84 -373q0 -204 -78.5 -372.5t-232 -279t-359.5 -133.5v13q72 35 99.5 205t27.5 509q0 337 -49 545.5t-135 220.5z" />
<glyph unicode="&#x14f;" horiz-adv-x="1290" d="M37 467q0 100 38 193.5t107.5 169.5t176.5 127t237 63v-16q-41 -31 -60.5 -149.5t-19.5 -346.5q0 -216 29 -357.5t82 -170.5v-21q-118 0 -223.5 34t-187.5 97t-130.5 160.5t-48.5 216.5zM346 1399h238q0 -79 50 -128.5t132 -49.5q88 0 139 49.5t51 128.5h15 q0 -132 -73.5 -214.5t-217.5 -82.5q-166 0 -250 75.5t-84 221.5zM662 1006v18q117 0 222.5 -33.5t188 -95.5t131.5 -160t49 -219q0 -100 -37.5 -193.5t-107 -169.5t-177.5 -127t-239 -63v14q43 29 62.5 148t19.5 350q0 476 -112 531z" />
<glyph unicode="&#x150;" horiz-adv-x="1628" d="M49 684q0 204 79.5 372t233 278t359.5 134v-14q-72 -35 -99.5 -208.5t-27.5 -506.5q0 -341 47 -540.5t137 -223.5v-14q-230 5 -395.5 97t-249.5 252.5t-84 373.5zM512 1542l270 422q67 0 106.5 -37t39.5 -90q0 -67 -61 -129.5t-152.5 -105.5t-198.5 -66zM829 1542 l271 422q67 0 106 -37t39 -90q0 -67 -60.5 -129.5t-152 -105.5t-198.5 -66zM852 1460v13q229 -5 394 -96.5t249 -251.5t84 -373q0 -204 -78.5 -372.5t-232 -279t-359.5 -133.5v13q72 35 99.5 205t27.5 509q0 337 -49 545.5t-135 220.5z" />
<glyph unicode="&#x151;" horiz-adv-x="1290" d="M37 467q0 100 38 193.5t107.5 169.5t176.5 127t237 63v-16q-41 -31 -60.5 -149.5t-19.5 -346.5q0 -216 29 -357.5t82 -170.5v-21q-118 0 -223.5 34t-187.5 97t-130.5 160.5t-48.5 216.5zM313 1114l271 422q67 0 106 -37t39 -90q0 -67 -61 -129.5t-152.5 -105.5 t-198.5 -66zM631 1114l270 422q67 0 106.5 -37t39.5 -90q0 -67 -61 -129.5t-152.5 -105.5t-198.5 -66zM662 1006v18q117 0 222.5 -33.5t188 -95.5t131.5 -160t49 -219q0 -100 -37.5 -193.5t-107 -169.5t-177.5 -127t-239 -63v14q43 29 62.5 148t19.5 350q0 476 -112 531z " />
<glyph unicode="&#x152;" horiz-adv-x="2244" d="M49 684q0 204 79.5 372t233 278t359.5 134v-14q-72 -35 -99.5 -208.5t-27.5 -506.5q0 -329 47.5 -530.5t136.5 -231.5v-16q-230 5 -395.5 97t-249.5 252.5t-84 373.5zM852 1456v14q56 0 131 -12.5t129 -32.5q281 0 418 7v-1235q0 -169 59 -181v-14q-30 0 -144 2t-155 2 q-172 0 -221 -2q-87 -30 -160 -37v13q72 35 99.5 205t27.5 509q0 335 -47 533.5t-137 228.5zM1649 752v14q118 0 186 75t68 218h14v-656h-14q0 54 -6.5 100.5t-23.5 93.5t-44.5 80t-73.5 54t-106 21zM1649 1417v13q89 0 475 4v-439h-15q-23 199 -147.5 310.5t-312.5 111.5z M1716 2v16q172 0 301 145t174 398h17l-94 -561q-273 0 -398 2z" />
<glyph unicode="&#x153;" horiz-adv-x="1931" d="M37 467q0 100 38 193.5t107.5 169.5t176.5 127t237 63v-16q-41 -31 -60.5 -149.5t-19.5 -346.5q0 -216 29 -357.5t82 -170.5v-21q-118 0 -223.5 34t-187.5 97t-130.5 160.5t-48.5 216.5zM662 1006v18q216 0 370 -106q146 93 320 104v-21q-56 -25 -80.5 -141.5 t-24.5 -322.5q0 -463 293 -463q153 0 281 88l8 -8q-84 -99 -199.5 -147t-275.5 -48q-226 0 -373 94q-129 -76 -289 -90v14q43 29 62.5 148t19.5 350q0 476 -112 531zM1321 600v14l160 17q8 55 8 127q0 97 -20.5 167t-53.5 79v20q211 -5 340 -106.5t139 -292.5l-20 -25h-553z " />
<glyph unicode="&#x154;" horiz-adv-x="1611" d="M41 0v14q77 0 115.5 67t38.5 189v967q0 105 -36 143.5t-118 38.5v15q180 -7 393 -7q123 0 240 3v-1233q0 -105 35.5 -144t117.5 -39v-14q-180 6 -393 6zM627 1542l270 422q67 0 106 -37t39 -90q0 -67 -60.5 -129.5t-152 -105.5t-198.5 -66zM793 678v14q49 4 81 35 t52 111.5t20 212.5q0 163 -39 261t-114 105v15q1 0 23.5 1t33.5 1q94 0 177 -11.5t159.5 -38.5t131.5 -68t87.5 -103.5t32.5 -141.5q0 -76 -26.5 -135.5t-88 -110t-170.5 -84t-266 -49.5v-8q239 0 362.5 -71.5t169.5 -237.5l64 -228q16 -57 40 -88.5t68 -31.5q18 0 39 6 l2 -10q-40 -24 -130 -43t-181 -19q-387 0 -422 332l-27 252q-8 71 -24.5 100t-54.5 33z" />
<glyph unicode="&#x155;" horiz-adv-x="1153" d="M37 0v14q58 0 87.5 38t29.5 106v647q0 58 -27.5 81t-85.5 23l-4 15q138 0 281 25t216 50l74 25v-918q0 -47 26 -69.5t83 -22.5v-14q-127 6 -334 6q-91 0 -177.5 -1.5t-127.5 -2.5zM463 1114l270 422q67 0 106.5 -37t39.5 -90q0 -67 -61 -129.5t-152.5 -105.5t-198.5 -66z M688 856q20 12 49.5 43t53.5 57t62.5 47t80.5 21q87 0 143 -57t56 -140q0 -89 -57.5 -153t-155.5 -64q-35 0 -74.5 12t-59.5 29q25 50 25 94q0 43 -22 72t-64 29q-20 0 -35 -6z" />
<glyph unicode="&#x156;" horiz-adv-x="1611" d="M41 0v14q77 0 115.5 67t38.5 189v967q0 105 -36 143.5t-118 38.5v15q180 -7 393 -7q123 0 240 3v-1233q0 -105 35.5 -144t117.5 -39v-14q-180 6 -393 6zM651 -264q0 76 50.5 123t125.5 47q85 0 133 -52t48 -133q0 -117 -71.5 -193t-205.5 -134l-10 10q63 54 63 131 q0 49 -31.5 90t-93.5 60q-8 32 -8 51zM793 678v14q49 4 81 35t52 111.5t20 212.5q0 163 -39 261t-114 105v15q1 0 23.5 1t33.5 1q94 0 177 -11.5t159.5 -38.5t131.5 -68t87.5 -103.5t32.5 -141.5q0 -76 -26.5 -135.5t-88 -110t-170.5 -84t-266 -49.5v-8q239 0 362.5 -71.5 t169.5 -237.5l64 -228q16 -57 40 -88.5t68 -31.5q18 0 39 6l2 -10q-40 -24 -130 -43t-181 -19q-387 0 -422 332l-27 252q-8 71 -24.5 100t-54.5 33z" />
<glyph unicode="&#x157;" horiz-adv-x="1153" d="M37 0v14q58 0 87.5 38t29.5 106v647q0 58 -27.5 81t-85.5 23l-4 15q138 0 281 25t216 50l74 25v-918q0 -47 26 -69.5t83 -22.5v-14q-127 6 -334 6q-91 0 -177.5 -1.5t-127.5 -2.5zM199 -264q0 76 50.5 123t125.5 47q85 0 132.5 -52t47.5 -133q0 -117 -71 -193t-205 -134 l-11 10q64 55 64 131q0 49 -31.5 90t-93.5 60q-8 32 -8 51zM688 856q20 12 49.5 43t53.5 57t62.5 47t80.5 21q87 0 143 -57t56 -140q0 -89 -57.5 -153t-155.5 -64q-35 0 -74.5 12t-59.5 29q25 50 25 94q0 43 -22 72t-64 29q-20 0 -35 -6z" />
<glyph unicode="&#x158;" horiz-adv-x="1611" d="M41 0v14q77 0 115.5 67t38.5 189v967q0 105 -36 143.5t-118 38.5v15q180 -7 393 -7q123 0 240 3v-1233q0 -105 35.5 -144t117.5 -39v-14q-180 6 -393 6zM381 1837l6 10l354 -106l355 106l6 -10l-297 -301h-127zM793 678v14q49 4 81 35t52 111.5t20 212.5q0 163 -39 261 t-114 105v15q1 0 23.5 1t33.5 1q94 0 177 -11.5t159.5 -38.5t131.5 -68t87.5 -103.5t32.5 -141.5q0 -76 -26.5 -135.5t-88 -110t-170.5 -84t-266 -49.5v-8q239 0 362.5 -71.5t169.5 -237.5l64 -228q16 -57 40 -88.5t68 -31.5q18 0 39 6l2 -10q-40 -24 -130 -43t-181 -19 q-387 0 -422 332l-27 252q-8 71 -24.5 100t-54.5 33z" />
<glyph unicode="&#x159;" horiz-adv-x="1153" d="M37 0v14q58 0 87.5 38t29.5 106v647q0 58 -27.5 81t-85.5 23l-4 15q138 0 281 25t216 50l74 25v-918q0 -47 26 -69.5t83 -22.5v-14q-127 6 -334 6q-91 0 -177.5 -1.5t-127.5 -2.5zM270 1423l6 11l355 -107l354 107l6 -11l-297 -301h-127zM688 856q20 12 49.5 43t53.5 57 t62.5 47t80.5 21q87 0 143 -57t56 -140q0 -89 -57.5 -153t-155.5 -64q-35 0 -74.5 12t-59.5 29q25 50 25 94q0 43 -22 72t-64 29q-20 0 -35 -6z" />
<glyph unicode="&#x15a;" horiz-adv-x="1249" d="M68 1030q0 191 130 308t369 132v-14q-56 -14 -91.5 -63t-35.5 -117q0 -54 26 -101t69.5 -83.5t100 -70t119 -66.5t125 -68t119 -78.5t100 -94t69.5 -119.5t26 -149q0 -109 -45.5 -200t-123 -151.5t-177.5 -95t-211 -38.5v14q96 11 146.5 71.5t50.5 139.5q0 52 -26 98.5 t-70.5 84t-102 73.5t-121 72t-127 73.5t-121 83t-102 96.5t-70.5 118.5t-26 144.5zM70 537h14q48 -227 155 -374.5t267 -180.5v-15q-49 5 -111.5 20t-134.5 25.5t-170 10.5zM459 1542l270 422q67 0 106 -37t39 -90q0 -67 -60.5 -129.5t-152 -105.5t-198.5 -66zM698 1456v14 q31 -3 170 -21.5t224 -18.5l-19 -424h-14q-25 170 -121 299.5t-240 150.5z" />
<glyph unicode="&#x15b;" horiz-adv-x="1060" d="M70 694q0 154 123.5 240.5t336.5 89.5v-14q-33 -6 -52 -31t-19 -64q0 -46 30.5 -86t78.5 -72t107 -64t117.5 -69t106.5 -79.5t78.5 -102.5t30.5 -131q0 -163 -128.5 -257t-367.5 -95v18q48 1 71 30.5t23 74.5q0 48 -29.5 90t-77 76t-104.5 67.5t-114 71t-104.5 79.5 t-77 100.5t-29.5 127.5zM74 371h12q26 -148 128.5 -261t227.5 -130v-19q-32 3 -80.5 15t-112.5 20t-157 8zM373 1114l270 422q67 0 106 -37t39 -90q0 -67 -60.5 -129.5t-152 -105.5t-198.5 -66zM600 1008v14q39 -3 144 -24t184 -21l-13 -311h-14q-18 127 -100 226t-201 116z " />
<glyph unicode="&#x15c;" horiz-adv-x="1249" d="M68 1030q0 191 130 308t369 132v-14q-56 -14 -91.5 -63t-35.5 -117q0 -54 26 -101t69.5 -83.5t100 -70t119 -66.5t125 -68t119 -78.5t100 -94t69.5 -119.5t26 -149q0 -109 -45.5 -200t-123 -151.5t-177.5 -95t-211 -38.5v14q96 11 146.5 71.5t50.5 139.5q0 52 -26 98.5 t-70.5 84t-102 73.5t-121 72t-127 73.5t-121 83t-102 96.5t-70.5 118.5t-26 144.5zM70 537h14q48 -227 155 -374.5t267 -180.5v-15q-49 5 -111.5 20t-134.5 25.5t-170 10.5zM274 1546l297 301h127l297 -301l-6 -10l-354 106l-354 -106zM698 1456v14q31 -3 170 -21.5 t224 -18.5l-19 -424h-14q-25 170 -121 299.5t-240 150.5z" />
<glyph unicode="&#x15d;" horiz-adv-x="1060" d="M70 694q0 154 123.5 240.5t336.5 89.5v-14q-33 -6 -52 -31t-19 -64q0 -46 30.5 -86t78.5 -72t107 -64t117.5 -69t106.5 -79.5t78.5 -102.5t30.5 -131q0 -163 -128.5 -257t-367.5 -95v18q48 1 71 30.5t23 74.5q0 48 -29.5 90t-77 76t-104.5 67.5t-114 71t-104.5 79.5 t-77 100.5t-29.5 127.5zM74 371h12q26 -148 128.5 -261t227.5 -130v-19q-32 3 -80.5 15t-112.5 20t-157 8zM184 1133l297 301h127l297 -301l-6 -11l-354 107l-355 -107zM600 1008v14q39 -3 144 -24t184 -21l-13 -311h-14q-18 127 -100 226t-201 116z" />
<glyph unicode="&#x15e;" horiz-adv-x="1249" d="M68 1030q0 191 130 308t369 132v-14q-56 -14 -91.5 -63t-35.5 -117q0 -54 26 -101t69.5 -83.5t100 -70t119 -66.5t125 -68t119 -78.5t100 -94t69.5 -119.5t26 -149q0 -109 -45.5 -200t-123 -151.5t-177.5 -95t-211 -38.5v14q96 11 146.5 71.5t50.5 139.5q0 52 -26 98.5 t-70.5 84t-102 73.5t-121 72t-127 73.5t-121 83t-102 96.5t-70.5 118.5t-26 144.5zM70 537h14q48 -227 155 -374.5t267 -180.5v-15q-49 5 -111.5 20t-134.5 25.5t-170 10.5zM389 -406q0 38 30.5 63.5t74.5 25.5q40 0 75 -21q-24 -34 -24 -86q0 -72 61 -72q31 0 50.5 24 t19.5 62q0 35 -24 63.5t-52 45.5t-52 44t-24 58q0 25 14 47.5t34.5 37t41 25t34.5 15.5l14 4l12 -6q-41 -26 -41 -59q0 -16 23.5 -29t56.5 -25.5t66.5 -29t57 -46.5t23.5 -71q0 -76 -78.5 -126t-195.5 -50q-84 0 -140.5 27.5t-56.5 78.5zM698 1456v14q31 -3 170 -21.5 t224 -18.5l-19 -424h-14q-25 170 -121 299.5t-240 150.5z" />
<glyph unicode="&#x15f;" horiz-adv-x="1060" d="M70 694q0 154 123.5 240.5t336.5 89.5v-14q-33 -6 -52 -31t-19 -64q0 -46 30.5 -86t78.5 -72t107 -64t117.5 -69t106.5 -79.5t78.5 -102.5t30.5 -131q0 -163 -128.5 -257t-367.5 -95v18q48 1 71 30.5t23 74.5q0 48 -29.5 90t-77 76t-104.5 67.5t-114 71t-104.5 79.5 t-77 100.5t-29.5 127.5zM74 371h12q26 -148 128.5 -261t227.5 -130v-19q-32 3 -80.5 15t-112.5 20t-157 8zM274 -406q0 38 30.5 63.5t74.5 25.5q41 0 76 -21q-25 -36 -25 -86q0 -72 62 -72q31 0 50 24t19 62q0 29 -15.5 52.5t-37.5 40t-44.5 33t-38 38t-15.5 47.5 q0 25 14 47.5t34 37t40.5 25t34.5 15.5l14 4l12 -6q-41 -26 -41 -59q0 -16 23.5 -29t57 -25.5t66.5 -29t56.5 -46.5t23.5 -71q0 -76 -78.5 -126t-195.5 -50q-84 0 -140.5 27.5t-56.5 78.5zM600 1008v14q39 -3 144 -24t184 -21l-13 -311h-14q-18 127 -100 226t-201 116z" />
<glyph unicode="&#x160;" horiz-adv-x="1249" d="M68 1030q0 191 130 308t369 132v-14q-56 -14 -91.5 -63t-35.5 -117q0 -54 26 -101t69.5 -83.5t100 -70t119 -66.5t125 -68t119 -78.5t100 -94t69.5 -119.5t26 -149q0 -109 -45.5 -200t-123 -151.5t-177.5 -95t-211 -38.5v14q96 11 146.5 71.5t50.5 139.5q0 52 -26 98.5 t-70.5 84t-102 73.5t-121 72t-127 73.5t-121 83t-102 96.5t-70.5 118.5t-26 144.5zM70 537h14q48 -227 155 -374.5t267 -180.5v-15q-49 5 -111.5 20t-134.5 25.5t-170 10.5zM262 1837l6 10l355 -106l354 106l6 -10l-297 -301h-127zM698 1456v14q31 -3 170 -21.5t224 -18.5 l-19 -424h-14q-25 170 -121 299.5t-240 150.5z" />
<glyph unicode="&#x161;" horiz-adv-x="1060" d="M70 694q0 154 123.5 240.5t336.5 89.5v-14q-33 -6 -52 -31t-19 -64q0 -46 30.5 -86t78.5 -72t107 -64t117.5 -69t106.5 -79.5t78.5 -102.5t30.5 -131q0 -163 -128.5 -257t-367.5 -95v18q48 1 71 30.5t23 74.5q0 48 -29.5 90t-77 76t-104.5 67.5t-114 71t-104.5 79.5 t-77 100.5t-29.5 127.5zM74 371h12q26 -148 128.5 -261t227.5 -130v-19q-32 3 -80.5 15t-112.5 20t-157 8zM170 1423l6 11l354 -107l355 107l6 -11l-297 -301h-127zM600 1008v14q39 -3 144 -24t184 -21l-13 -311h-14q-18 127 -100 226t-201 116z" />
<glyph unicode="&#x162;" horiz-adv-x="1554" d="M47 987l37 447q131 -2 334 -4v-13q-133 -21 -230 -143.5t-127 -292.5zM383 0v14q77 0 115.5 67t38.5 189v1157h213q128 0 266 3v-1233q0 -105 35.5 -144t117.5 -39v-14q-180 6 -393 6zM473 -406q0 38 30.5 63.5t74.5 25.5q40 0 75 -21q-24 -34 -24 -86q0 -72 61 -72 q31 0 50.5 24t19.5 62q0 35 -24 65.5t-52 49.5t-52 47.5t-24 59.5q0 40 34 72t68 44l35 13l13 -7q-41 -26 -41 -59q0 -16 23.5 -30t56.5 -28t66.5 -32t57 -49t23.5 -72q0 -76 -78.5 -126t-195.5 -50q-84 0 -140.5 27.5t-56.5 78.5zM1133 1417v13l372 4l-37 -453l-14 6 q0 187 -82 298.5t-239 131.5z" />
<glyph unicode="&#x163;" horiz-adv-x="790" d="M45 969v14q146 0 290.5 83.5t227.5 203.5l12 -4v-283h125v-14h-125v-789q0 -47 23.5 -70.5t58.5 -23.5q59 0 105 37l8 -8q-52 -73 -146 -114.5t-204 -41.5q-142 0 -219.5 65.5t-77.5 221.5v723h-78zM150 -406q0 38 30 63.5t74 25.5q41 0 76 -21q-25 -36 -25 -86 q0 -72 62 -72q31 0 50 24t19 62q0 29 -15.5 53.5t-37.5 43t-44.5 36t-38 40.5t-15.5 49q0 25 14 47.5t34 37t40.5 25t34.5 14.5l14 5l12 -7q-41 -26 -41 -59q0 -16 23.5 -30t57 -28t67 -32t57 -49t23.5 -72q0 -76 -78.5 -126t-196.5 -50q-84 0 -140 27.5t-56 78.5z" />
<glyph unicode="&#x164;" horiz-adv-x="1554" d="M47 987l37 447q131 -2 334 -4v-13q-133 -21 -230 -143.5t-127 -292.5zM383 0v14q77 0 115.5 67t38.5 189v1157h213q128 0 266 3v-1233q0 -105 35.5 -144t117.5 -39v-14q-180 6 -393 6zM420 1837l6 10l354 -106l355 106l6 -10l-297 -301h-127zM1133 1417v13l372 4 l-37 -453l-14 6q0 187 -82 298.5t-239 131.5z" />
<glyph unicode="&#x165;" horiz-adv-x="944" d="M45 969v14q146 0 290.5 83.5t227.5 203.5l12 -4v-283h125v-14h-125v-789q0 -47 23.5 -70.5t58.5 -23.5q59 0 105 37l8 -8q-52 -73 -146 -114.5t-204 -41.5q-142 0 -219.5 65.5t-77.5 221.5v723h-78zM717 1303q0 76 50.5 123t125.5 47q85 0 132.5 -52t47.5 -133 q0 -219 -276 -338l-11 11q64 55 64 135q0 49 -32 92.5t-93 62.5q-8 32 -8 52z" />
<glyph unicode="&#x166;" horiz-adv-x="1554" d="M47 987l37 447q131 -2 334 -4v-13q-133 -21 -230 -143.5t-127 -292.5zM379 848v20h158v559h213q128 0 266 3v-562h158v-20h-158v-651q0 -105 35.5 -144t117.5 -39v-14q-180 6 -393 6l-393 -6v14q77 0 115.5 67t38.5 189v578h-158zM1133 1417v13l372 4l-37 -453l-14 6 q0 187 -82 298.5t-239 131.5z" />
<glyph unicode="&#x167;" horiz-adv-x="790" d="M45 686v16h78v267h-78v14q146 0 290.5 83.5t227.5 203.5l12 -4v-283h125v-14h-125v-267h125v-16h-125v-506q0 -47 23.5 -70.5t58.5 -23.5q59 0 105 37l8 -8q-52 -73 -146 -114.5t-204 -41.5q-142 0 -219.5 65.5t-77.5 221.5v440h-78z" />
<glyph unicode="&#x168;" horiz-adv-x="1546" d="M41 1419v15q180 -7 393 -7q95 0 193 1.5t149 3.5l51 2v-15q-76 0 -114.5 -66.5t-38.5 -189.5v-698q0 -233 81 -340t251 -107q105 0 183 50t116 147l18 -4q-30 -77 -80.5 -127t-124 -74t-146.5 -32.5t-177 -8.5q-600 0 -600 500v768q0 105 -36 143.5t-118 38.5zM506 1540 q7 152 70 227.5t174 75.5q60 0 116 -16.5t92.5 -36.5t84 -36.5t92.5 -16.5t78.5 26.5t43.5 85.5l13 -10q-7 -152 -70 -227.5t-174 -75.5q-60 0 -116 16.5t-92 36.5t-84 36.5t-93 16.5q-44 0 -78.5 -27t-44.5 -85zM1069 1419v15q213 -7 285 -7l184 7v-15q-76 0 -127 -72.5 t-51 -224.5v-69h-19v69q0 154 -74.5 225.5t-197.5 71.5z" />
<glyph unicode="&#x169;" horiz-adv-x="1400" d="M33 971v12l549 18l16 -16v-790q0 -43 21 -68t53 -25q20 0 55 13v-15q-37 -15 -81 -42t-75 -47.5t-76.5 -36t-93.5 -15.5q-124 0 -191 74.5t-67 214.5v612q0 68 -23.5 89.5t-86.5 21.5zM350 1149q7 152 70 227.5t174 75.5q60 0 116 -16.5t92.5 -36.5t84 -36.5t92.5 -16.5 t79 27t44 85l12 -10q-7 -152 -70 -227.5t-174 -75.5q-60 0 -116 16.5t-92 36.5t-84 36.5t-93 16.5q-44 0 -78.5 -27t-44.5 -85zM725 971v12l516 18l16 -16v-807q0 -58 27.5 -81t85.5 -23l4 -15q-87 0 -176 -10.5t-154 -25t-117 -29t-79 -24.5l-27 -11l-18 160v774 q0 78 -78 78z" />
<glyph unicode="&#x16a;" horiz-adv-x="1546" d="M41 1419v15q180 -7 393 -7q95 0 193 1.5t149 3.5l51 2v-15q-76 0 -114.5 -66.5t-38.5 -189.5v-698q0 -233 81 -340t251 -107q105 0 183 50t116 147l18 -4q-30 -77 -80.5 -127t-124 -74t-146.5 -32.5t-177 -8.5q-600 0 -600 500v768q0 105 -36 143.5t-118 38.5zM604 1575 v20h637v-20h-637zM1069 1419v15q213 -7 285 -7l184 7v-15q-76 0 -127 -72.5t-51 -224.5v-69h-19v69q0 154 -74.5 225.5t-197.5 71.5z" />
<glyph unicode="&#x16b;" horiz-adv-x="1400" d="M33 971v12l549 18l16 -16v-790q0 -43 21 -68t53 -25q20 0 55 13v-15q-37 -15 -81 -42t-75 -47.5t-76.5 -36t-93.5 -15.5q-124 0 -191 74.5t-67 214.5v612q0 68 -23.5 89.5t-86.5 21.5zM391 1239v21h637v-21h-637zM725 971v12l516 18l16 -16v-807q0 -58 27.5 -81t85.5 -23 l4 -15q-87 0 -176 -10.5t-154 -25t-117 -29t-79 -24.5l-27 -11l-18 160v774q0 78 -78 78z" />
<glyph unicode="&#x16c;" horiz-adv-x="1546" d="M41 1419v15q180 -7 393 -7q95 0 193 1.5t149 3.5l51 2v-15q-76 0 -114.5 -66.5t-38.5 -189.5v-698q0 -233 81 -340t251 -107q105 0 183 50t116 147l18 -4q-30 -77 -80.5 -127t-124 -74t-146.5 -32.5t-177 -8.5q-600 0 -600 500v768q0 105 -36 143.5t-118 38.5zM575 1833 h238q0 -79 50 -128.5t132 -49.5q88 0 139.5 49.5t51.5 128.5h14q0 -132 -73.5 -214.5t-217.5 -82.5q-166 0 -250 75.5t-84 221.5zM1069 1419v15q213 -7 285 -7l184 7v-15q-76 0 -127 -72.5t-51 -224.5v-69h-19v69q0 154 -74.5 225.5t-197.5 71.5z" />
<glyph unicode="&#x16d;" horiz-adv-x="1400" d="M33 971v12l549 18l16 -16v-790q0 -43 21 -68t53 -25q20 0 55 13v-15q-37 -15 -81 -42t-75 -47.5t-76.5 -36t-93.5 -15.5q-124 0 -191 74.5t-67 214.5v612q0 68 -23.5 89.5t-86.5 21.5zM387 1399h238q0 -79 50 -128.5t132 -49.5q88 0 139 49.5t51 128.5h15 q0 -132 -73.5 -214.5t-217.5 -82.5q-166 0 -250 75.5t-84 221.5zM725 971v12l516 18l16 -16v-807q0 -58 27.5 -81t85.5 -23l4 -15q-87 0 -176 -10.5t-154 -25t-117 -29t-79 -24.5l-27 -11l-18 160v774q0 78 -78 78z" />
<glyph unicode="&#x16e;" horiz-adv-x="1546" d="M41 1419v15q180 -7 393 -7q95 0 193 1.5t149 3.5l51 2v-15q-76 0 -114.5 -66.5t-38.5 -189.5v-698q0 -233 81 -340t251 -107q105 0 183 50t116 147l18 -4q-30 -77 -80.5 -127t-124 -74t-146.5 -32.5t-177 -8.5q-600 0 -600 500v768q0 105 -36 143.5t-118 38.5zM668 1724 q0 74 47.5 129t132.5 70v-14q-47 -25 -47 -170q0 -76 17.5 -127.5t49.5 -61.5v-14q-84 2 -142 51.5t-58 136.5zM913 1911v16q83 -3 140 -53t57 -135q0 -74 -46 -128t-130 -71v16q43 30 43 168q0 75 -17 125t-47 62zM1069 1419v15q213 -7 285 -7l184 7v-15q-76 0 -127 -72.5 t-51 -224.5v-69h-19v69q0 154 -74.5 225.5t-197.5 71.5z" />
<glyph unicode="&#x16f;" horiz-adv-x="1400" d="M33 971v12l549 18l16 -16v-790q0 -43 21 -68t53 -25q20 0 55 13v-15q-37 -15 -81 -42t-75 -47.5t-76.5 -36t-93.5 -15.5q-124 0 -191 74.5t-67 214.5v612q0 68 -23.5 89.5t-86.5 21.5zM479 1280q0 74 47.5 129t132.5 70v-15q-47 -25 -47 -170q0 -76 18 -127t50 -61v-14 q-84 2 -142.5 51.5t-58.5 136.5zM725 971v12l516 18l16 -16v-807q0 -58 27.5 -81t85.5 -23l4 -15q-87 0 -176 -10.5t-154 -25t-117 -29t-79 -24.5l-27 -11l-18 160v774q0 78 -78 78zM725 1466v17q83 -3 140 -53.5t57 -135.5q0 -74 -46.5 -127.5t-130.5 -70.5v16 q43 30 43 168q0 75 -16.5 124.5t-46.5 61.5z" />
<glyph unicode="&#x170;" horiz-adv-x="1546" d="M41 1419v15q180 -7 393 -7q95 0 193 1.5t149 3.5l51 2v-15q-76 0 -114.5 -66.5t-38.5 -189.5v-698q0 -233 81 -340t251 -107q105 0 183 50t116 147l18 -4q-30 -77 -80.5 -127t-124 -74t-146.5 -32.5t-177 -8.5q-600 0 -600 500v768q0 105 -36 143.5t-118 38.5zM598 1540 l270 422q67 0 106.5 -37t39.5 -90q0 -67 -61 -129.5t-152.5 -105.5t-198.5 -66zM915 1540l271 422q67 0 106 -37t39 -90q0 -67 -60.5 -129.5t-152 -105.5t-198.5 -66zM1069 1419v15q213 -7 285 -7l184 7v-15q-76 0 -127 -72.5t-51 -224.5v-69h-19v69q0 154 -74.5 225.5 t-197.5 71.5z" />
<glyph unicode="&#x171;" horiz-adv-x="1400" d="M33 971v12l549 18l16 -16v-790q0 -43 21 -68t53 -25q20 0 55 13v-15q-37 -15 -81 -42t-75 -47.5t-76.5 -36t-93.5 -15.5q-124 0 -191 74.5t-67 214.5v612q0 68 -23.5 89.5t-86.5 21.5zM385 1114l270 422q67 0 106.5 -37t39.5 -90q0 -67 -61 -129.5t-152.5 -105.5 t-198.5 -66zM702 1114l271 422q67 0 106 -37t39 -90q0 -67 -60.5 -129.5t-152 -105.5t-198.5 -66zM725 971v12l516 18l16 -16v-807q0 -58 27.5 -81t85.5 -23l4 -15q-87 0 -176 -10.5t-154 -25t-117 -29t-79 -24.5l-27 -11l-18 160v774q0 78 -78 78z" />
<glyph unicode="&#x172;" horiz-adv-x="1546" d="M41 1419v15q180 -7 393 -7q95 0 193 1.5t149 3.5l51 2v-15q-76 0 -114.5 -66.5t-38.5 -189.5v-698q0 -233 81 -340t251 -107q105 0 183 50t116 147l18 -4q-30 -77 -80.5 -127t-124 -74t-146.5 -32.5t-177 -8.5q-600 0 -600 500v768q0 105 -36 143.5t-118 38.5zM723 -311 q0 91 92 163t227 99l7 -6q-40 -46 -63 -111t-23 -131q0 -70 30 -104.5t74 -34.5q42 0 84 20l6 -14q-26 -18 -86.5 -34.5t-109.5 -16.5q-238 0 -238 170zM1069 1419v15q213 -7 285 -7l184 7v-15q-76 0 -127 -72.5t-51 -224.5v-69h-19v69q0 154 -74.5 225.5t-197.5 71.5z" />
<glyph unicode="&#x173;" horiz-adv-x="1400" d="M33 971v12l549 18l16 -16v-790q0 -43 21 -68t53 -25q20 0 55 13v-15q-37 -15 -81 -42t-75 -47.5t-76.5 -36t-93.5 -15.5q-124 0 -191 74.5t-67 214.5v612q0 68 -23.5 89.5t-86.5 21.5zM594 -311q0 91 92 163t227 99l7 -6q-40 -46 -63 -111t-23 -131q0 -70 30 -104.5 t74 -34.5q42 0 84 20l6 -14q-26 -18 -87 -34.5t-110 -16.5q-237 0 -237 170zM725 971v12l516 18l16 -16v-807q0 -58 27.5 -81t85.5 -23l4 -15q-87 0 -176 -10.5t-154 -25t-117 -29t-79 -24.5l-27 -11l-18 160v774q0 78 -78 78z" />
<glyph unicode="&#x174;" horiz-adv-x="2217" d="M23 1419v15q223 -7 397 -7q79 0 170 1.5t142 3.5l52 2v-15q-84 0 -84 -86q0 -32 17 -94l233 -846l-110 -393l-240 -37l-418 1333q-19 62 -56.5 92.5t-102.5 30.5zM807 1546l297 301h127l297 -301l-6 -10l-355 106l-354 -106zM831 1419v15q216 -7 357 -7q87 0 154.5 1.5 t91.5 3.5l24 2q0 -65 31 -195l219 -856l-115 -381l-266 -39l-362 1331q-19 67 -47 96t-87 29zM1741 1419v15q150 -7 252 -7q49 0 97 1.5t72 3.5l23 2v-15q-41 0 -74.5 -14t-69.5 -50t-69 -106t-63 -174l-15 6q35 115 35 193q0 76 -47.5 110.5t-140.5 34.5z" />
<glyph unicode="&#x175;" horiz-adv-x="2019" d="M23 969v14q176 -4 385 -4l311 4v-14q-76 0 -76 -72q0 -43 16 -106l170 -607l-65 -184h-307l-303 868q-20 56 -46.5 78.5t-84.5 22.5zM756 1133l297 301h127l297 -301l-7 -11l-354 107l-354 -107zM801 969v14q120 -8 282 -8l347 8q-3 -69 24 -178l156 -619l-56 -186h-333 l-263 813q-49 156 -157 156zM1589 969v14q90 -8 219 -8q49 0 96 2t69 4l22 2v-14q-78 0 -139.5 -68.5t-94.5 -183.5l-30 -107l-15 4q37 136 37 199q0 67 -38.5 109.5t-125.5 46.5z" />
<glyph unicode="&#x176;" horiz-adv-x="1540" d="M33 1419v15q167 -7 409 -7q120 0 221 1.5t142 3.5l41 2v-15q-49 0 -79 -25.5t-30 -64.5q0 -52 49 -137l232 -416v-579q0 -105 35.5 -144t117.5 -39v-14q-180 6 -393 6l-393 -6v14q77 0 115.5 67t38.5 189v482l-346 559q-41 65 -78 86.5t-82 21.5zM512 1546l297 301h127 l297 -301l-6 -10l-355 106l-354 -106zM1049 1419v15q94 -7 260 -7q54 0 103.5 1.5t71.5 3.5l23 2v-15q-63 0 -143 -68.5t-150 -197.5l-55 -102l-14 6q84 158 84 239q0 59 -40.5 91t-139.5 32z" />
<glyph unicode="&#x177;" horiz-adv-x="1323" d="M23 965v18q186 -8 395 -8q93 0 170.5 2t109.5 4l31 2v-18q-40 0 -60 -21.5t-20 -54.5t25 -103l213 -591l-68 -195h-319l-346 864q-21 54 -47.5 77.5t-83.5 23.5zM147 -256q0 88 61.5 147.5t164.5 59.5q97 0 151 -57t54 -123q-62 -13 -98 -50.5t-36 -82.5q0 -31 18 -51.5 t48 -20.5q59 0 112.5 61t96.5 156l14 -8q-26 -57 -53.5 -100t-65 -80.5t-86 -57.5t-106.5 -20q-128 0 -201.5 64t-73.5 163zM381 1133l297 301h127l297 -301l-6 -11l-355 107l-354 -107zM895 969v14q90 -8 219 -8q49 0 95.5 2t68.5 4l22 2v-14q-150 0 -233 -252l-35 -107 l-14 4q41 139 41 199q0 69 -39 112.5t-125 43.5z" />
<glyph unicode="&#x178;" horiz-adv-x="1540" d="M33 1419v15q167 -7 409 -7q120 0 221 1.5t142 3.5l41 2v-15q-49 0 -79 -25.5t-30 -64.5q0 -52 49 -137l232 -416v-579q0 -105 35.5 -144t117.5 -39v-14q-180 6 -393 6l-393 -6v14q77 0 115.5 67t38.5 189v482l-346 559q-41 65 -78 86.5t-82 21.5zM469 1710q0 76 45.5 126 t130.5 50t131.5 -50t46.5 -126q0 -77 -46 -125.5t-132 -48.5t-131 48.5t-45 125.5zM928 1710q0 76 45.5 126t128.5 50q88 0 134 -49.5t46 -126.5t-46 -125.5t-134 -48.5q-83 0 -128.5 48.5t-45.5 125.5zM1049 1419v15q94 -7 260 -7q54 0 103.5 1.5t71.5 3.5l23 2v-15 q-63 0 -143 -68.5t-150 -197.5l-55 -102l-14 6q84 158 84 239q0 59 -40.5 91t-139.5 32z" />
<glyph unicode="&#x179;" horiz-adv-x="1470" d="M55 20l811 1414h520l9 -21l-801 -1413h-531zM100 938l64 496h565v-17q-130 -4 -225 -28t-174 -78t-132 -146t-83 -227h-15zM590 1542l270 422q67 0 106.5 -37t39.5 -90q0 -67 -61 -129.5t-152.5 -105.5t-198.5 -66zM735 0v18q282 17 442.5 160t223.5 400h14l-80 -578 h-600z" />
<glyph unicode="&#x17a;" horiz-adv-x="1130" d="M43 18l537 965h483l8 -18l-541 -965h-475zM86 582l64 401h325v-12q-133 -15 -229.5 -115t-147.5 -274h-12zM420 1114l270 422q67 0 106.5 -37t39.5 -90q0 -67 -61 -129.5t-152.5 -105.5t-198.5 -66zM651 0v12q144 7 255.5 133t166.5 334h12l-73 -479h-361z" />
<glyph unicode="&#x17b;" horiz-adv-x="1470" d="M55 20l811 1414h520l9 -21l-801 -1413h-531zM100 938l64 496h565v-17q-130 -4 -225 -28t-174 -78t-132 -146t-83 -227h-15zM578 1735q0 87 52 143.5t148 56.5q99 0 153 -56.5t54 -143.5q0 -88 -54 -143.5t-153 -55.5q-96 0 -148 55.5t-52 143.5zM735 0v18 q282 17 442.5 160t223.5 400h14l-80 -578h-600z" />
<glyph unicode="&#x17c;" horiz-adv-x="1130" d="M43 18l537 965h483l8 -18l-541 -965h-475zM86 582l64 401h325v-12q-133 -15 -229.5 -115t-147.5 -274h-12zM416 1286q0 87 52 144t148 57q99 0 153 -57t54 -144q0 -88 -54 -143.5t-153 -55.5q-96 0 -148 55.5t-52 143.5zM651 0v12q144 7 255.5 133t166.5 334h12l-73 -479 h-361z" />
<glyph unicode="&#x17d;" horiz-adv-x="1470" d="M55 20l811 1414h520l9 -21l-801 -1413h-531zM100 938l64 496h565v-17q-130 -4 -225 -28t-174 -78t-132 -146t-83 -227h-15zM408 1837l6 10l354 -106l354 106l6 -10l-297 -301h-126zM735 0v18q282 17 442.5 160t223.5 400h14l-80 -578h-600z" />
<glyph unicode="&#x17e;" horiz-adv-x="1130" d="M43 18l537 965h483l8 -18l-541 -965h-475zM86 582l64 401h325v-12q-133 -15 -229.5 -115t-147.5 -274h-12zM254 1423l6 11l354 -107l355 107l6 -11l-297 -301h-127zM651 0v12q144 7 255.5 133t166.5 334h12l-73 -479h-361z" />
<glyph unicode="&#x192;" horiz-adv-x="1384" d="M-340 -193q0 78 58.5 129.5t150.5 51.5q102 0 170 -56q-41 -46 -71.5 -110.5t-30.5 -120.5q0 -59 24 -78v-16q-142 0 -221.5 55t-79.5 145zM45 -369q57 30 85.5 113t47.5 262l90 868h-86l2 17h86q25 246 202.5 422.5t428.5 204.5v-17q-46 -17 -71 -93t-56 -257l-43 -260 h268l-2 -17h-268l-65 -423q-56 -360 -212 -570.5t-407 -261.5v12zM891 1178q50 50 81.5 121.5t31.5 132.5q0 62 -33 73v17q154 0 250 -62.5t96 -152.5q0 -91 -62 -147t-172 -56q-105 0 -192 74z" />
<glyph unicode="&#x1e2;" horiz-adv-x="2172" d="M4 0v14q81 0 172 77.5t180 213.5l41 64l21 -11l-12 -18q-82 -130 -82 -201q0 -125 157 -125v-14q-153 6 -288 6zM559 588l12 22h408v627q0 105 -36 143.5t-118 38.5v15q181 -7 394 -7q14 0 239 5v-1235q0 -169 60 -181v-14q-30 0 -144 2t-155 2l-394 -6v14q77 0 115.5 67 t38.5 189v318h-420zM975 1575v20h637v-20h-637zM1577 752v14q118 0 186 75t68 218h14v-656h-14q0 54 -6.5 100.5t-23.5 93.5t-44.5 80t-73.5 54t-106 21zM1577 1417v13q89 0 475 4v-439h-14q-23 198 -147.5 310t-313.5 112zM1645 2v16q172 0 301 145t174 398h16l-94 -561 q-272 0 -397 2z" />
<glyph unicode="&#x1e3;" horiz-adv-x="1785" d="M47 180q0 148 143 235t408 97l-2 -18q-98 -57 -98 -273q0 -72 26 -117t72 -45q8 0 23 3.5t16 3.5l6 -13q-14 -5 -78 -34.5t-120 -44.5t-119 -15q-120 0 -198.5 55.5t-78.5 165.5zM115 756q0 69 61.5 126t154 90t204.5 46v-14q-37 -10 -58.5 -52t-21.5 -96q0 -111 59 -184 q-40 -31 -103 -51.5t-114 -20.5q-83 0 -132.5 43t-49.5 113zM600 1008v14q18 2 43 2q188 0 318 -68q110 57 243 66v-21q-56 -25 -80 -141t-24 -323q0 -463 293 -463q152 0 280 88l8 -8q-84 -99 -199.5 -147t-275.5 -48q-127 0 -225 25t-172 78.5t-113 145t-39 218.5 q0 60 9.5 186t9.5 197q0 100 -15 146.5t-61 52.5zM639 1239v21h637v-21h-637zM1174 600v14l159 17q8 55 8 127q0 98 -20 167.5t-53 78.5v20q211 -5 340 -106.5t139 -292.5l-21 -25h-552z" />
<glyph unicode="&#x1fa;" horiz-adv-x="1615" d="M18 0v14q160 0 258 291l23 66l16 -2l-20 -68q-17 -57 -24.5 -95t-5.5 -77.5t21.5 -62.5t61 -37.5t107.5 -14.5v-14q-111 6 -248 6zM393 586l6 20h402l-197 664l37 104q-72 59 -72 150q0 74 48 128.5t133 69.5v-14q-48 -26 -48 -170q0 -83 27 -133.5t70 -50.5 q41 0 60.5 47.5t19.5 122.5q0 74 -17 124t-47 62v16q83 -3 140 -53t57 -135q0 -39 -17 -78l441 -1304q49 -142 161 -142v-14q-113 6 -395 6q-122 0 -217.5 -1.5t-130.5 -2.5l-35 -2v14q113 0 113 101q0 40 -33 159l-92 312h-414zM569 1753l351 318q84 -31 84 -109 q0 -61 -46.5 -106t-119 -67.5t-139 -32.5t-128.5 -11q0 1 -1 4t-1 4z" />
<glyph unicode="&#x1fb;" horiz-adv-x="1243" d="M47 180q0 148 143 235t408 97l-2 -18q-98 -57 -98 -273q0 -72 26 -117t72 -45q8 0 23 3.5t16 3.5l6 -13q-14 -5 -78 -34.5t-120 -44.5t-119 -15q-120 0 -198.5 55.5t-78.5 165.5zM115 756q0 69 61.5 126t154 90t204.5 46v-14q-37 -10 -58.5 -52t-21.5 -96q0 -111 59 -184 q-40 -31 -103 -51.5t-114 -20.5q-83 0 -132.5 43t-49.5 113zM399 1257q0 74 48 129t133 70v-14q-48 -26 -48 -170q0 -76 18 -127.5t50 -61.5v-14q-84 2 -142.5 51.5t-58.5 136.5zM408 1495l350 317q84 -31 84 -108q0 -58 -40.5 -102t-106.5 -68t-138 -35.5t-147 -11.5z M600 1008v14q18 2 43 2q258 0 362.5 -97.5t104.5 -314.5q0 -104 -10 -235.5t-10 -196.5q0 -133 77 -133q34 0 60 33l8 -6q-29 -51 -100 -80t-164 -29q-169 0 -240.5 87.5t-71.5 277.5q0 63 8.5 216.5t8.5 262.5q0 100 -15 146.5t-61 52.5zM645 1444v16q83 -3 140 -53 t57 -135q0 -74 -46 -128t-130 -71v17q43 30 43 167q0 75 -17 125t-47 62z" />
<glyph unicode="&#x1fc;" horiz-adv-x="2172" d="M4 0v14q81 0 172 77.5t180 213.5l41 64l21 -11l-12 -18q-82 -130 -82 -201q0 -125 157 -125v-14q-153 6 -288 6zM559 588l12 22h408v627q0 105 -36 143.5t-118 38.5v15q181 -7 394 -7q14 0 239 5v-1235q0 -169 60 -181v-14q-30 0 -144 2t-155 2l-394 -6v14q77 0 115.5 67 t38.5 189v318h-420zM1176 1542l270 422q67 0 106 -37t39 -90q0 -67 -60.5 -129.5t-152 -105.5t-198.5 -66zM1577 752v14q118 0 186 75t68 218h14v-656h-14q0 54 -6.5 100.5t-23.5 93.5t-44.5 80t-73.5 54t-106 21zM1577 1417v13q89 0 475 4v-439h-14q-23 198 -147.5 310 t-313.5 112zM1645 2v16q172 0 301 145t174 398h16l-94 -561q-272 0 -397 2z" />
<glyph unicode="&#x1fd;" horiz-adv-x="1785" d="M47 180q0 148 143 235t408 97l-2 -18q-98 -57 -98 -273q0 -72 26 -117t72 -45q8 0 23 3.5t16 3.5l6 -13q-14 -5 -78 -34.5t-120 -44.5t-119 -15q-120 0 -198.5 55.5t-78.5 165.5zM115 756q0 69 61.5 126t154 90t204.5 46v-14q-37 -10 -58.5 -52t-21.5 -96q0 -111 59 -184 q-40 -31 -103 -51.5t-114 -20.5q-83 0 -132.5 43t-49.5 113zM600 1008v14q18 2 43 2q188 0 318 -68q110 57 243 66v-21q-56 -25 -80 -141t-24 -323q0 -463 293 -463q152 0 280 88l8 -8q-84 -99 -199.5 -147t-275.5 -48q-127 0 -225 25t-172 78.5t-113 145t-39 218.5 q0 60 9.5 186t9.5 197q0 100 -15 146.5t-61 52.5zM766 1114l270 422q67 0 106.5 -37t39.5 -90q0 -67 -61 -129.5t-152.5 -105.5t-198.5 -66zM1174 600v14l159 17q8 55 8 127q0 98 -20 167.5t-53 78.5v20q211 -5 340 -106.5t139 -292.5l-21 -25h-552z" />
<glyph unicode="&#x1fe;" horiz-adv-x="1628" d="M49 684q0 204 79.5 372t233 278t359.5 134v-14q-72 -35 -99.5 -208.5t-27.5 -506.5q0 -167 12 -299l410 627q-42 346 -164 389v17q216 -6 375 -87l98 150h29l-107 -162q161 -91 246.5 -250.5t85.5 -371.5q0 -204 -78.5 -372.5t-232 -279t-359.5 -133.5v13q72 35 99.5 205 t27.5 509q0 179 -16 336l-412 -627q43 -383 170 -426v-16q-227 6 -395 96l-80 -120h-29l88 133q-153 90 -233 248.5t-80 365.5zM657 1542l271 422q67 0 106 -37t39 -90q0 -67 -60.5 -129.5t-152 -105.5t-198.5 -66z" />
<glyph unicode="&#x1ff;" horiz-adv-x="1290" d="M37 467q0 100 38 193.5t107.5 169.5t176.5 127t237 63v-16q-41 -31 -60.5 -149.5t-19.5 -346.5q0 -100 6 -186l242 397q-26 248 -102 287v18q152 0 280 -55l80 121h33l-86 -132q131 -63 207.5 -175.5t76.5 -266.5q0 -100 -37.5 -193.5t-107 -169.5t-177.5 -127t-239 -63 v14q43 29 62.5 148t19.5 350q0 122 -8 203l-240 -399q11 -122 37 -200.5t64 -98.5v-21q-151 0 -281 53l-78 -118h-32l86 131q-132 63 -208.5 175.5t-76.5 266.5zM459 1114l270 422q67 0 106 -37t39 -90q0 -67 -60.5 -129.5t-152 -105.5t-198.5 -66z" />
<glyph unicode="&#x218;" horiz-adv-x="1249" d="M68 1030q0 191 130 308t369 132v-14q-56 -14 -91.5 -63t-35.5 -117q0 -54 26 -101t69.5 -83.5t100 -70t119 -66.5t125 -68t119 -78.5t100 -94t69.5 -119.5t26 -149q0 -109 -45.5 -200t-123 -151.5t-177.5 -95t-211 -38.5v14q96 11 146.5 71.5t50.5 139.5q0 52 -26 98.5 t-70.5 84t-102 73.5t-121 72t-127 73.5t-121 83t-102 96.5t-70.5 118.5t-26 144.5zM70 537h14q48 -227 155 -374.5t267 -180.5v-15q-49 5 -111.5 20t-134.5 25.5t-170 10.5zM444 -264q0 76 51 123t126 47q85 0 132.5 -52t47.5 -133q0 -117 -71.5 -193t-205.5 -134l-10 10 q64 55 64 131q0 49 -31.5 90t-93.5 60q-9 36 -9 51zM698 1456v14q31 -3 170 -21.5t224 -18.5l-19 -424h-14q-25 170 -121 299.5t-240 150.5z" />
<glyph unicode="&#x219;" horiz-adv-x="1060" d="M70 694q0 154 123.5 240.5t336.5 89.5v-14q-33 -6 -52 -31t-19 -64q0 -46 30.5 -86t78.5 -72t107 -64t117.5 -69t106.5 -79.5t78.5 -102.5t30.5 -131q0 -163 -128.5 -257t-367.5 -95v18q48 1 71 30.5t23 74.5q0 48 -29.5 90t-77 76t-104.5 67.5t-114 71t-104.5 79.5 t-77 100.5t-29.5 127.5zM74 371h12q26 -148 128.5 -261t227.5 -130v-19q-32 3 -80.5 15t-112.5 20t-157 8zM332 -264q0 76 50.5 123t125.5 47q85 0 132.5 -52t47.5 -133q0 -117 -71 -193t-205 -134l-11 10q64 55 64 131q0 49 -31.5 90t-93.5 60q-8 32 -8 51zM600 1008v14 q39 -3 144 -24t184 -21l-13 -311h-14q-18 127 -100 226t-201 116z" />
<glyph unicode="&#x21a;" horiz-adv-x="1554" d="M47 987l37 447q131 -2 334 -4v-13q-133 -21 -230 -143.5t-127 -292.5zM383 0v14q77 0 115.5 67t38.5 189v1157h213q128 0 266 3v-1233q0 -105 35.5 -144t117.5 -39v-14q-180 6 -393 6zM598 -264q0 76 50.5 123t125.5 47q85 0 132.5 -52t47.5 -133q0 -117 -71 -193 t-205 -134l-10 10q63 54 63 131q0 49 -31.5 90t-93.5 60q-8 32 -8 51zM1133 1417v13l372 4l-37 -453l-14 6q0 187 -82 298.5t-239 131.5z" />
<glyph unicode="&#x21b;" horiz-adv-x="790" d="M45 969v14q146 0 290.5 83.5t227.5 203.5l12 -4v-283h125v-14h-125v-789q0 -47 23.5 -70.5t58.5 -23.5q59 0 105 37l8 -8q-52 -73 -146 -114.5t-204 -41.5q-142 0 -219.5 65.5t-77.5 221.5v723h-78zM242 -264q0 76 50.5 123t125.5 47q85 0 132.5 -52t47.5 -133 q0 -117 -71 -193t-205 -134l-11 10q64 55 64 131q0 49 -31.5 90t-93.5 60q-8 32 -8 51z" />
<glyph unicode="&#x237;" horiz-adv-x="761" d="M-106 -492q24 24 69 56.5t82 66t61 74.5q38 66 48 141t10 209v750q0 58 -27.5 81t-85.5 23l-4 15q138 0 281 25t216 50l74 25v-903q0 -151 -46.5 -259.5t-157.5 -178.5q-64 -40 -167.5 -66.5t-197 -52.5t-145.5 -66z" />
<glyph unicode="&#x2b0;" horiz-adv-x="989" d="M27 756v12q40 0 61 26.5t21 73.5v805q0 40 -18.5 58t-57.5 18l-6 12q96 0 196 17.5t151 35.5l52 17v-1008q0 -55 57 -55v-12q-70 4 -215 4zM502 1372v14q20 8 57.5 31.5t74.5 39.5t73 16q87 0 134.5 -52t47.5 -151v-426q0 -45 17.5 -60.5t60.5 -15.5v-12q-95 4 -236 4 l-215 -4v12q29 0 41 15.5t12 52.5v477q0 30 -14 46.5t-37 16.5q-8 0 -16 -4z" />
<glyph unicode="&#x2b2;" horiz-adv-x="534" d="M-76 414q15 14 48 37.5t59 47t43 52.5q25 42 33 98.5t8 147.5v518q0 76 -78 76l-4 12q96 0 196 17.5t151 35.5l52 17v-633q0 -216 -143 -305q-53 -33 -183 -65t-174 -67zM106 1657q0 64 42 103.5t122 39.5t123 -39.5t43 -103.5q0 -61 -43 -99t-123 -38t-122 38t-42 99z " />
<glyph unicode="&#x2b7;" horiz-adv-x="1413" d="M16 1432v12q124 -6 271 -6q64 0 118.5 1.5t76.5 2.5l22 2v-12q-53 0 -53 -58q0 -18 14 -76l117 -409l-47 -133h-213l-213 604q-13 39 -32.5 55.5t-60.5 16.5zM561 1432v12q84 -6 199 -6l241 6q-3 -47 17 -123l110 -434l-38 -131h-234l-184 571q-36 105 -111 105z M1114 1432v12q62 -6 152 -6q35 0 67.5 1.5t48.5 2.5l15 2v-12q-60 0 -105.5 -57.5t-77.5 -192.5l-12 8q25 88 25 135q0 107 -113 107z" />
<glyph unicode="&#x2b8;" horiz-adv-x="927" d="M16 1432v12q132 -6 277 -6q65 0 120 1.5t77 2.5l22 2v-12q-29 0 -43 -15t-14 -39q0 -23 18 -71l150 -414l-50 -137h-223l-241 604q-15 38 -34 55t-59 17zM104 578q0 60 44 101.5t116 41.5q65 0 103.5 -40t38.5 -85q-46 -7 -69.5 -32t-23.5 -54q0 -25 14.5 -41t37.5 -16 q30 0 63.5 36t56.5 82l13 -6q-77 -147 -199 -147q-90 0 -142.5 45.5t-52.5 114.5zM627 1432v12q63 -6 151 -6q36 0 69 1.5t49 2.5l15 2v-12q-98 0 -168 -195l-18 -55l-12 6q26 74 26 135q0 50 -27.5 79.5t-84.5 29.5z" />
<glyph unicode="&#x2c6;" horiz-adv-x="944" d="M111 1133l297 301h127l296 -301l-6 -11l-354 107l-354 -107z" />
<glyph unicode="&#x2c7;" horiz-adv-x="944" d="M111 1423l6 11l354 -107l354 107l6 -11l-296 -301h-127z" />
<glyph unicode="&#x2d8;" horiz-adv-x="845" d="M111 1399h237q0 -79 50 -128.5t132 -49.5q88 0 139.5 49.5t51.5 128.5h14q0 -132 -73.5 -214.5t-217.5 -82.5q-166 0 -249.5 75.5t-83.5 221.5z" />
<glyph unicode="&#x2d9;" horiz-adv-x="739" d="M166 1286q0 87 52.5 144t148.5 57q99 0 152.5 -57t53.5 -144q0 -88 -53.5 -143.5t-152.5 -55.5q-96 0 -148.5 55.5t-52.5 143.5z" />
<glyph unicode="&#x2da;" horiz-adv-x="700" d="M129 1280q0 74 47.5 129t132.5 70v-15q-47 -25 -47 -170q0 -76 18 -127t50 -61v-14q-84 2 -142.5 51.5t-58.5 136.5zM375 1466v17q83 -3 139.5 -53.5t56.5 -135.5q0 -74 -46 -127.5t-130 -70.5v16q43 30 43 168q0 75 -16.5 124.5t-46.5 61.5z" />
<glyph unicode="&#x2db;" horiz-adv-x="716" d="M139 -311q0 90 92.5 162.5t227.5 99.5l6 -6q-40 -46 -63 -111t-23 -131q0 -70 30 -104.5t74 -34.5q42 0 84 20l6 -14q-26 -18 -86.5 -34.5t-109.5 -16.5q-238 0 -238 170z" />
<glyph unicode="&#x2dc;" horiz-adv-x="1073" d="M156 1149q15 303 243 303q60 0 116 -16.5t92.5 -36.5t84 -36.5t92.5 -16.5t79 27t44 85l13 -10q-7 -152 -70 -227.5t-174 -75.5q-60 0 -116 16.5t-92 36.5t-84 36.5t-93 16.5q-44 0 -78.5 -27t-44.5 -85z" />
<glyph unicode="&#x2dd;" horiz-adv-x="839" d="M53 1114l271 422q67 0 106 -37t39 -90q0 -67 -61 -129.5t-152.5 -105.5t-198.5 -66zM371 1114l270 422q67 0 106 -37t39 -90q0 -67 -60.5 -129.5t-152 -105.5t-198.5 -66z" />
<glyph unicode="&#x2e3;" horiz-adv-x="899" d="M-12 756v12q78 0 148 56t143 159l10 -10q-53 -87 -53 -133q0 -72 112 -72v-12q-104 6 -190 6zM33 1432v12q125 -6 258 -6l254 6v-12q-47 0 -47 -46q0 -27 16 -53l287 -485q48 -80 114 -80v-12q-124 6 -247 6l-260 -6v12q51 0 51 39q0 23 -19 55l-297 500q-26 42 -46 56 t-64 14zM602 1432v12q91 -6 146 -6l100 6v-12q-99 0 -197 -156l-8 12q31 43 31 84q0 60 -72 60z" />
<glyph unicode="&#x1e80;" horiz-adv-x="2217" d="M23 1419v15q223 -7 397 -7q79 0 170 1.5t142 3.5l52 2v-15q-84 0 -84 -86q0 -32 17 -94l233 -846l-110 -393l-240 -37l-418 1333q-19 62 -56.5 92.5t-102.5 30.5zM831 1419v15q216 -7 357 -7q87 0 154.5 1.5t91.5 3.5l24 2q0 -65 31 -195l219 -856l-115 -381l-266 -39 l-362 1331q-19 67 -47 96t-87 29zM901 1837q0 53 39.5 90t106.5 37l270 -422l-4 -6q-107 23 -198.5 66t-152.5 105.5t-61 129.5zM1741 1419v15q150 -7 252 -7q49 0 97 1.5t72 3.5l23 2v-15q-41 0 -74.5 -14t-69.5 -50t-69 -106t-63 -174l-15 6q35 115 35 193 q0 76 -47.5 110.5t-140.5 34.5z" />
<glyph unicode="&#x1e81;" horiz-adv-x="2019" d="M23 969v14q176 -4 385 -4l311 4v-14q-76 0 -76 -72q0 -43 16 -106l170 -607l-65 -184h-307l-303 868q-20 56 -46.5 78.5t-84.5 22.5zM801 969v14q120 -8 282 -8l347 8q-3 -69 24 -178l156 -619l-56 -186h-333l-263 813q-49 156 -157 156zM844 1409q0 53 39 90t106 37 l271 -422l-5 -6q-107 23 -198.5 66t-152 105.5t-60.5 129.5zM1589 969v14q90 -8 219 -8q49 0 96 2t69 4l22 2v-14q-78 0 -139.5 -68.5t-94.5 -183.5l-30 -107l-15 4q37 136 37 199q0 67 -38.5 109.5t-125.5 46.5z" />
<glyph unicode="&#x1e82;" horiz-adv-x="2217" d="M23 1419v15q223 -7 397 -7q79 0 170 1.5t142 3.5l52 2v-15q-84 0 -84 -86q0 -32 17 -94l233 -846l-110 -393l-240 -37l-418 1333q-19 62 -56.5 92.5t-102.5 30.5zM831 1419v15q216 -7 357 -7q87 0 154.5 1.5t91.5 3.5l24 2q0 -65 31 -195l219 -856l-115 -381l-266 -39 l-362 1331q-19 67 -47 96t-87 29zM971 1542l270 422q67 0 106 -37t39 -90q0 -67 -60.5 -129.5t-152 -105.5t-198.5 -66zM1741 1419v15q150 -7 252 -7q49 0 97 1.5t72 3.5l23 2v-15q-41 0 -74.5 -14t-69.5 -50t-69 -106t-63 -174l-15 6q35 115 35 193q0 76 -47.5 110.5 t-140.5 34.5z" />
<glyph unicode="&#x1e83;" horiz-adv-x="2019" d="M23 969v14q176 -4 385 -4l311 4v-14q-76 0 -76 -72q0 -43 16 -106l170 -607l-65 -184h-307l-303 868q-20 56 -46.5 78.5t-84.5 22.5zM801 969v14q120 -8 282 -8l347 8q-3 -69 24 -178l156 -619l-56 -186h-333l-263 813q-49 156 -157 156zM942 1114l270 422 q67 0 106.5 -37t39.5 -90q0 -67 -61 -129.5t-152.5 -105.5t-198.5 -66zM1589 969v14q90 -8 219 -8q49 0 96 2t69 4l22 2v-14q-78 0 -139.5 -68.5t-94.5 -183.5l-30 -107l-15 4q37 136 37 199q0 67 -38.5 109.5t-125.5 46.5z" />
<glyph unicode="&#x1e84;" horiz-adv-x="2217" d="M23 1419v15q223 -7 397 -7q79 0 170 1.5t142 3.5l52 2v-15q-84 0 -84 -86q0 -32 17 -94l233 -846l-110 -393l-240 -37l-418 1333q-19 62 -56.5 92.5t-102.5 30.5zM762 1710q0 76 45.5 126t130.5 50t131.5 -50t46.5 -126q0 -77 -46 -125.5t-132 -48.5t-131 48.5t-45 125.5 zM831 1419v15q216 -7 357 -7q87 0 154.5 1.5t91.5 3.5l24 2q0 -65 31 -195l219 -856l-115 -381l-266 -39l-362 1331q-19 67 -47 96t-87 29zM1221 1710q0 76 45.5 126t128.5 50q88 0 134 -49.5t46 -126.5t-46 -125.5t-134 -48.5q-83 0 -128.5 48.5t-45.5 125.5zM1741 1419v15 q150 -7 252 -7q49 0 97 1.5t72 3.5l23 2v-15q-41 0 -74.5 -14t-69.5 -50t-69 -106t-63 -174l-15 6q35 115 35 193q0 76 -47.5 110.5t-140.5 34.5z" />
<glyph unicode="&#x1e85;" horiz-adv-x="2019" d="M23 969v14q176 -4 385 -4l311 4v-14q-76 0 -76 -72q0 -43 16 -106l170 -607l-65 -184h-307l-303 868q-20 56 -46.5 78.5t-84.5 22.5zM692 1286q0 76 45.5 126t130.5 50q86 0 132.5 -50t46.5 -126q0 -77 -46.5 -125.5t-132.5 -48.5t-131 48.5t-45 125.5zM801 969v14 q120 -8 282 -8l347 8q-3 -69 24 -178l156 -619l-56 -186h-333l-263 813q-49 156 -157 156zM1151 1286q0 76 45.5 126t128.5 50q88 0 134 -49.5t46 -126.5t-46 -125.5t-134 -48.5q-83 0 -128.5 48.5t-45.5 125.5zM1589 969v14q90 -8 219 -8q49 0 96 2t69 4l22 2v-14 q-78 0 -139.5 -68.5t-94.5 -183.5l-30 -107l-15 4q37 136 37 199q0 67 -38.5 109.5t-125.5 46.5z" />
<glyph unicode="&#x1ef2;" horiz-adv-x="1540" d="M33 1419v15q167 -7 409 -7q120 0 221 1.5t142 3.5l41 2v-15q-49 0 -79 -25.5t-30 -64.5q0 -52 49 -137l232 -416v-579q0 -105 35.5 -144t117.5 -39v-14q-180 6 -393 6l-393 -6v14q77 0 115.5 67t38.5 189v482l-346 559q-41 65 -78 86.5t-82 21.5zM621 1837q0 53 39 90 t106 37l270 -422l-4 -6q-107 23 -198.5 66t-152 105.5t-60.5 129.5zM1049 1419v15q94 -7 260 -7q54 0 103.5 1.5t71.5 3.5l23 2v-15q-63 0 -143 -68.5t-150 -197.5l-55 -102l-14 6q84 158 84 239q0 59 -40.5 91t-139.5 32z" />
<glyph unicode="&#x1ef3;" horiz-adv-x="1323" d="M23 965v18q186 -8 395 -8q93 0 170.5 2t109.5 4l31 2v-18q-40 0 -60 -21.5t-20 -54.5t25 -103l213 -591l-68 -195h-319l-346 864q-21 54 -47.5 77.5t-83.5 23.5zM147 -256q0 88 61.5 147.5t164.5 59.5q97 0 151 -57t54 -123q-62 -13 -98 -50.5t-36 -82.5q0 -31 18 -51.5 t48 -20.5q59 0 112.5 61t96.5 156l14 -8q-26 -57 -53.5 -100t-65 -80.5t-86 -57.5t-106.5 -20q-128 0 -201.5 64t-73.5 163zM506 1409q0 53 39 90t106 37l271 -422l-4 -6q-107 23 -198.5 66t-152.5 105.5t-61 129.5zM895 969v14q90 -8 219 -8q49 0 95.5 2t68.5 4l22 2v-14 q-150 0 -233 -252l-35 -107l-14 4q41 139 41 199q0 69 -39 112.5t-125 43.5z" />
<glyph unicode="&#x2000;" horiz-adv-x="1035" />
<glyph unicode="&#x2001;" horiz-adv-x="2071" />
<glyph unicode="&#x2002;" horiz-adv-x="1035" />
<glyph unicode="&#x2003;" horiz-adv-x="2071" />
<glyph unicode="&#x2004;" horiz-adv-x="690" />
<glyph unicode="&#x2005;" horiz-adv-x="517" />
<glyph unicode="&#x2006;" horiz-adv-x="345" />
<glyph unicode="&#x2007;" horiz-adv-x="345" />
<glyph unicode="&#x2008;" horiz-adv-x="258" />
<glyph unicode="&#x2009;" horiz-adv-x="414" />
<glyph unicode="&#x200a;" horiz-adv-x="115" />
<glyph unicode="&#x2010;" horiz-adv-x="735" d="M49 584v16h637v-16h-637z" />
<glyph unicode="&#x2011;" horiz-adv-x="735" d="M49 584v16h637v-16h-637z" />
<glyph unicode="&#x2012;" horiz-adv-x="735" d="M49 584v16h637v-16h-637z" />
<glyph unicode="&#x2013;" horiz-adv-x="1171" d="M90 563v21h989v-21h-989z" />
<glyph unicode="&#x2014;" horiz-adv-x="1413" d="M90 563v21h1233v-21h-1233z" />
<glyph unicode="&#x2018;" horiz-adv-x="593" d="M76 1012q0 145 97 282.5t245 241.5l12 -12q-102 -102 -102 -217q0 -76 46.5 -139t133.5 -97q8 -40 8 -65q0 -95 -62.5 -153t-156.5 -58q-105 0 -163 61t-58 156z" />
<glyph unicode="&#x2019;" horiz-adv-x="593" d="M78 1325q0 95 62.5 153t156.5 58q105 0 163 -61t58 -156q0 -145 -97 -282.5t-245 -241.5l-12 12q102 102 102 217q0 76 -46.5 139t-133.5 97q-8 40 -8 65z" />
<glyph unicode="&#x201a;" horiz-adv-x="641" d="M76 182q0 95 62.5 153t156.5 58q105 0 163 -61t58 -156q0 -145 -97 -282.5t-245 -241.5l-12 12q102 102 102 217q0 76 -46.5 139t-133.5 97q-8 40 -8 65z" />
<glyph unicode="&#x201c;" horiz-adv-x="1124" d="M76 1012q0 145 97 282.5t245 241.5l12 -12q-102 -102 -102 -217q0 -76 46.5 -139t133.5 -97q8 -40 8 -65q0 -95 -62.5 -153t-156.5 -58q-105 0 -163 61t-58 156zM606 1012q0 145 97 282.5t245 241.5l13 -12q-103 -103 -103 -217q0 -76 46.5 -139t133.5 -97q9 -45 9 -65 q0 -95 -63 -153t-157 -58q-105 0 -163 61t-58 156z" />
<glyph unicode="&#x201d;" horiz-adv-x="1124" d="M78 1325q0 95 62.5 153t156.5 58q105 0 163 -61t58 -156q0 -145 -97 -282.5t-245 -241.5l-12 12q102 102 102 217q0 76 -46.5 139t-133.5 97q-8 40 -8 65zM608 1325q0 95 62.5 153t156.5 58q105 0 163.5 -61t58.5 -156q0 -145 -97 -282.5t-245 -241.5l-13 12 q103 103 103 217q0 75 -47 138.5t-134 97.5q-8 40 -8 65z" />
<glyph unicode="&#x201e;" horiz-adv-x="1171" d="M76 182q0 95 62.5 153t156.5 58q105 0 163 -61t58 -156q0 -145 -97 -282.5t-245 -241.5l-12 12q102 102 102 217q0 76 -46.5 139t-133.5 97q-8 40 -8 65zM606 182q0 95 62.5 153t156.5 58q105 0 163.5 -61t58.5 -156q0 -145 -97 -282.5t-245 -241.5l-13 12 q103 103 103 217q0 75 -47 138.5t-134 97.5q-8 40 -8 65z" />
<glyph unicode="&#x2020;" horiz-adv-x="1325" d="M86 774q0 69 46.5 114.5t113.5 45.5q53 0 107 -24t92 -52t92.5 -52t109.5 -24q-12 40 -51.5 97.5t-77 106.5t-68 117.5t-30.5 133.5q0 117 72 176.5t172 59.5t171.5 -59.5t71.5 -176.5q0 -65 -30.5 -133.5t-68 -117.5t-77 -106.5t-51.5 -97.5q55 0 109.5 24t92.5 52 t92 52t107 24q67 0 113.5 -45.5t46.5 -114.5t-46.5 -114.5t-113.5 -45.5q-45 0 -86.5 16t-75 38.5t-69 45t-83.5 38.5t-103 16t-103 -16t-83 -38.5t-68.5 -45t-75.5 -38.5t-88 -16q-67 0 -113.5 45.5t-46.5 114.5zM420 471q0 100 69.5 172t174.5 72t174 -72t69 -172 q0 -73 -23.5 -152t-56.5 -151.5t-66.5 -148.5t-57 -171.5t-23.5 -193.5h-33q0 98 -23.5 193.5t-56.5 171.5t-66.5 148.5t-57 151.5t-23.5 152z" />
<glyph unicode="&#x2021;" horiz-adv-x="1327" d="M86 352q0 69 46.5 114.5t113.5 45.5q45 0 86.5 -15t75.5 -37t69.5 -43.5t83.5 -36.5t103 -15t102.5 15t82.5 37t69 43.5t75.5 36.5t87.5 15q67 0 113.5 -45.5t46.5 -114.5t-46.5 -114t-113.5 -45q-53 0 -107 24t-92 52.5t-92.5 52.5t-109.5 24q12 -40 51.5 -98t77 -107 t68 -118t30.5 -134q0 -117 -71.5 -176t-171.5 -59t-172 59t-72 176q0 65 30.5 134t68 118t77 107t51.5 98q-55 0 -109.5 -24t-92.5 -52.5t-92 -52.5t-107 -24q-67 0 -113.5 45t-46.5 114zM86 774q0 69 46.5 114.5t113.5 45.5q53 0 107 -24t92 -53t92.5 -53t109.5 -24 q-12 40 -51.5 98t-77 107t-68 118t-30.5 134q0 117 72 176.5t172 59.5t171.5 -59.5t71.5 -176.5q0 -65 -30.5 -134t-68 -118t-77 -107t-51.5 -98q55 0 109.5 24t92.5 53t92 53t107 24q67 0 113.5 -45.5t46.5 -114.5t-46.5 -114.5t-113.5 -45.5q-45 0 -86.5 15t-75 37t-69 44 t-83.5 37t-103 15t-103 -15t-83 -37t-68.5 -44t-75.5 -37t-88 -15q-67 0 -113.5 45.5t-46.5 114.5zM489 561q0 75 46 123.5t129 48.5t128.5 -48.5t45.5 -123.5t-45.5 -122.5t-128.5 -47.5t-129 47.5t-46 122.5z" />
<glyph unicode="&#x2022;" horiz-adv-x="819" d="M123 598q0 120 83.5 203.5t203.5 83.5t203 -83.5t83 -203.5q0 -119 -83 -203t-203 -84t-203.5 84t-83.5 203z" />
<glyph unicode="&#x202f;" horiz-adv-x="414" />
<glyph unicode="&#x2030;" horiz-adv-x="2172" d="M63 1112q0 135 83 237.5t231 120.5v-16q-51 -42 -51 -315q0 -157 14.5 -239.5t50.5 -96.5v-19q-154 0 -241 93.5t-87 234.5zM225 -51l934 1536h25l-934 -1536h-25zM428 1454v19q154 0 241 -93.5t87 -234.5q0 -135 -83 -238t-231 -121v17q52 42 52 315q0 156 -14.5 239 t-51.5 97zM657 289q0 135 83 237.5t231 120.5v-16q-51 -42 -51 -316q0 -157 14.5 -239t50.5 -96v-19q-154 0 -241 93.5t-87 234.5zM1022 631v18q154 0 241 -93t87 -234q0 -135 -83 -238t-231 -121v17q51 42 51 315q0 157 -14.5 239.5t-50.5 96.5zM1417 289q0 135 83 237.5 t231 120.5v-16q-52 -42 -52 -316q0 -156 14.5 -238.5t51.5 -96.5v-19q-154 0 -241 93.5t-87 234.5zM1782 631v18q154 0 240.5 -93t86.5 -234q0 -135 -82.5 -238t-230.5 -121v17q51 42 51 315q0 157 -14.5 239.5t-50.5 96.5z" />
<glyph unicode="&#x2039;" horiz-adv-x="628" d="M57 526v41l502 471l12 -12l-221 -479l221 -479l-12 -13z" />
<glyph unicode="&#x203a;" horiz-adv-x="628" d="M57 68l222 479l-222 479l13 12l501 -471v-41l-501 -471z" />
<glyph unicode="&#x2044;" horiz-adv-x="790" d="M104 -20l560 1474h22l-557 -1474h-25z" />
<glyph unicode="&#x205f;" horiz-adv-x="517" />
<glyph unicode="&#x2070;" horiz-adv-x="856" d="M41 1225q0 167 97 289t247 141v-15q-31 -22 -42 -112.5t-11 -272.5q0 -165 21.5 -278.5t60.5 -136.5v-13q-166 3 -269.5 114t-103.5 284zM442 1642v15q165 -5 269 -114t104 -281q0 -164 -97 -287.5t-247 -143.5v13q53 34 53 385q0 167 -21 279.5t-61 133.5z" />
<glyph unicode="&#x2074;" horiz-adv-x="749" d="M39 1038l172 230q80 106 80 205q0 80 -43 131q49 53 125 53q66 0 106.5 -40.5t40.5 -94.5q0 -58 -33 -109.5t-110 -114.5l-332 -268zM268 848v12q84 0 84 139v228l262 137v-320h97v-14h-97v-72q0 -57 19.5 -77.5t64.5 -20.5v-12q-98 4 -215 4z" />
<glyph unicode="&#x2075;" horiz-adv-x="747" d="M39 1022q0 49 30.5 87t90.5 38q51 0 80.5 -31t29.5 -72q0 -16 -2 -24q-41 -1 -66.5 -28.5t-25.5 -65.5q0 -40 27 -70l-4 -8q-80 24 -120 70.5t-40 103.5zM109 1217q42 68 117.5 108.5t162.5 40.5q154 0 238 -77t84 -181q0 -54 -18 -101.5t-58 -89t-113.5 -66 t-173.5 -24.5q-47 0 -72 4l3 11q53 0 96 36t43 115q0 98 -89.5 161t-219.5 63zM137 1466l19 170q327 -18 360 -18q75 0 101 14.5t26 46.5h12q15 -44 15 -92q0 -93 -55 -142.5t-150 -49.5q-58 0 -171.5 33t-156.5 38z" />
<glyph unicode="&#x2076;" horiz-adv-x="776" d="M41 1186q0 80 37.5 160t108.5 149.5t187 118t259 59.5l4 -10q-80 -21 -140 -74t-94.5 -127t-51.5 -156.5t-17 -172.5q0 -274 47 -293v-13q-158 6 -249 101.5t-91 257.5zM387 1249v15q8 4 32.5 21t51.5 28.5t57 11.5q89 0 148 -60t59 -149q0 -136 -86 -211t-225 -78v13 q31 11 31 231q0 182 -54 182q-6 0 -14 -4z" />
<glyph unicode="&#x2077;" horiz-adv-x="741" d="M27 1346q0 159 51.5 235t183.5 76q80 0 191 -37t153 -37q44 0 68 21.5t24 50.5l9 2q6 -21 6 -51q0 -53 -17 -93.5t-47.5 -64.5t-62 -39.5t-71.5 -22t-64 -8.5t-50 -2q-48 0 -145.5 15.5t-140.5 15.5q-67 0 -76 -61h-12zM170 979q0 41 20 82t46.5 71.5t75 68t81.5 58.5 t92 56.5t82 50.5l6 -10q-139 -118 -139 -271q0 -64 10 -99.5t33 -76.5q-15 -33 -53 -57.5t-92 -24.5q-73 0 -117.5 42t-44.5 110z" />
<glyph unicode="&#x2078;" horiz-adv-x="772" d="M31 1004q0 42 21 73.5t47.5 46t63 34.5t54.5 36q-74 49 -119 104t-45 129q0 96 87.5 160t238.5 70v-10q-62 -17 -62 -91q0 -61 51 -110.5t134 -97.5q1 10 12.5 57t11.5 94q0 63 -22.5 101.5t-59.5 46.5v10q87 -3 162.5 -48.5t75.5 -111.5q0 -40 -21 -68t-47 -40t-58 -25 t-44 -23q39 -22 57 -32.5t51 -32.5t49 -40t35 -44t27 -56.5t8 -66.5q0 -231 -381 -242v11q34 3 59 36.5t25 79.5q0 59 -47.5 108t-167.5 126q-2 -14 -19.5 -69t-17.5 -97q0 -81 28.5 -127.5t74.5 -54.5v-13q-72 2 -125.5 19.5t-81.5 44.5t-41.5 55.5t-13.5 57.5z" />
<glyph unicode="&#x2079;" horiz-adv-x="776" d="M41 1368q0 134 90.5 210.5t220.5 78.5v-12q-19 -7 -24.5 -64t-5.5 -168q0 -182 53 -182q6 0 14 4v-14q-8 -4 -32.5 -21t-51.5 -29t-57 -12q-89 0 -148 60t-59 149zM139 821q80 21 140 74.5t94.5 127.5t51.5 156.5t17 172.5q0 274 -47 293v12q158 -6 249 -101.5t91 -257.5 q0 -80 -37.5 -160t-108.5 -149.5t-187 -118t-259 -59.5z" />
<glyph unicode="&#x207a;" horiz-adv-x="497" d="M0 1186v16h240v236h16v-236h242v-16h-242v-236h-16v236h-240z" />
<glyph unicode="&#x207b;" horiz-adv-x="497" d="M0 1186v16h498v-16h-498z" />
<glyph unicode="&#x207d;" horiz-adv-x="436" d="M23 1243q0 94 31.5 179t85.5 150t117 114t134 83l8 -8q-139 -194 -139 -518t139 -518l-8 -8q-71 35 -134 84t-117 114t-85.5 150t-31.5 178z" />
<glyph unicode="&#x207e;" horiz-adv-x="436" d="M23 725q139 194 139 518t-139 518l8 8q71 -34 134 -83t117 -114t85.5 -150t31.5 -179q0 -93 -31.5 -178t-85.5 -150t-117 -114t-134 -84z" />
<glyph unicode="&#x207f;" horiz-adv-x="980" d="M27 756v12q40 0 61 26.5t21 73.5v447q0 40 -18.5 58t-57.5 18l-6 12q96 0 196 17.5t151 35.5l52 17v-650q0 -55 57 -55v-12q-70 4 -215 4zM494 1372v14q20 8 57.5 31.5t74 39.5t72.5 16q87 0 135 -52t48 -151v-426q0 -46 17 -61t60 -15v-12q-94 4 -235 4l-215 -4v12 q29 0 41 15.5t12 52.5v477q0 30 -14 46.5t-37 16.5q-8 0 -16 -4z" />
<glyph unicode="&#x2080;" horiz-adv-x="856" d="M41 174q0 167 97 289t247 141v-14q-31 -22 -42 -112.5t-11 -272.5q0 -165 21.5 -279t60.5 -137v-12q-166 3 -269.5 113.5t-103.5 283.5zM442 592v14q165 -5 269 -114t104 -281q0 -164 -97 -287t-247 -143v12q53 34 53 385q0 168 -21 280.5t-61 133.5z" />
<glyph unicode="&#x2081;" horiz-adv-x="495" d="M33 -172q84 0 84 139v469q0 77 -18.5 103t-65.5 26v13q89 0 186 12t160 35v-699q0 -57 19.5 -77.5t64.5 -20.5v-12q-98 4 -215 4l-215 -4v12z" />
<glyph unicode="&#x2082;" horiz-adv-x="761" d="M37 -174q0 108 77.5 169.5t182.5 61.5q56 0 167.5 -15t170.5 -15q67 0 76 59h14q0 -160 -60 -234.5t-194 -74.5q-80 0 -185 36.5t-147 36.5q-44 0 -65 -21.5t-21 -51.5h-10q-6 30 -6 49zM51 412q0 62 48 111.5t143 70.5v-10q-47 -24 -47 -82q0 -42 24.5 -63.5t63.5 -24.5 q4 -16 4 -27q0 -42 -29.5 -73t-83.5 -31q-61 0 -92 37t-31 92zM109 25q17 23 57 55t79 64.5t77.5 74.5t62 100.5t23.5 126.5q0 61 -22.5 100t-59.5 48v10q16 2 39 2q147 0 242 -59.5t95 -157.5q0 -85 -43.5 -136.5t-114 -74t-146 -38t-155.5 -45t-126 -77.5z" />
<glyph unicode="&#x2083;" horiz-adv-x="743" d="M31 -27q0 47 33 87t92 40q49 0 77.5 -32t28.5 -72q0 -13 -4 -25q-36 -3 -62 -28.5t-26 -63.5q0 -47 37 -76l-6 -8q-79 17 -124.5 66.5t-45.5 111.5zM59 412q0 62 48 111.5t143 70.5v-10q-47 -24 -47 -82q0 -42 24.5 -63.5t63.5 -24.5q4 -16 4 -27q0 -42 -29.5 -73 t-83.5 -31q-61 0 -92 37t-31 92zM248 215q73 27 120.5 93t47.5 151q0 55 -21 92t-61 43v10q15 2 31 2q152 0 233.5 -48.5t81.5 -129.5q0 -78 -60.5 -121t-177.5 -63l2 -11q34 9 72 9q87 0 142 -48.5t55 -123.5q0 -122 -99 -207.5t-278 -85.5q-39 0 -57 2l2 12q76 7 123 79 t47 177q0 71 -38.5 117.5t-103.5 46.5q-33 0 -57 -8z" />
<glyph unicode="&#x2084;" horiz-adv-x="749" d="M39 6l172 230q80 106 80 204q0 80 -43 131q50 54 125 54q66 0 106.5 -41t40.5 -95q0 -58 -33 -108.5t-110 -114.5l-332 -268zM268 -172q84 0 84 139v228l262 137v-320h97v-14h-97v-72q0 -57 19.5 -77.5t64.5 -20.5v-12q-98 4 -215 4l-215 -4v12z" />
<glyph unicode="&#x2085;" horiz-adv-x="747" d="M39 -29q0 49 30.5 87t90.5 38q51 0 80.5 -30.5t29.5 -71.5q0 -17 -2 -25q-41 -1 -66.5 -28.5t-25.5 -65.5q0 -40 27 -70l-4 -8q-80 24 -120 70.5t-40 103.5zM109 166q42 68 117.5 108.5t162.5 40.5q154 0 238 -77t84 -181q0 -54 -18 -101t-58 -89t-113.5 -66t-173.5 -24 q-47 0 -72 4l3 10q53 0 96 36.5t43 115.5q0 98 -89.5 160.5t-219.5 62.5zM137 416l19 170q345 -19 360 -19q75 0 101 15t26 47h12q15 -44 15 -92q0 -93 -55.5 -143t-149.5 -50q-58 0 -171.5 33.5t-156.5 38.5z" />
<glyph unicode="&#x2086;" horiz-adv-x="776" d="M41 135q0 80 37.5 160t108.5 150t187 118.5t259 59.5l4 -11q-80 -21 -140 -74t-94.5 -127t-51.5 -156.5t-17 -172.5q0 -274 47 -293v-12q-158 6 -249 101t-91 257zM387 199v14q8 4 32.5 21t51.5 28.5t57 11.5q89 0 148 -59.5t59 -148.5q0 -136 -86 -211t-225 -78v12 q31 11 31 231q0 183 -54 183q-6 0 -14 -4z" />
<glyph unicode="&#x2087;" horiz-adv-x="741" d="M27 295q0 159 51.5 235t183.5 76q80 0 191 -37t153 -37q44 0 68 21.5t24 50.5l9 2q6 -21 6 -51q0 -45 -13.5 -82t-34.5 -60.5t-51.5 -40.5t-57.5 -25.5t-60.5 -13.5t-53 -6t-41.5 -1q-48 0 -145.5 15t-140.5 15q-67 0 -76 -61h-12zM170 -72q0 41 20 82t46.5 71.5t75 68 t81.5 58.5t92 56.5t82 50.5l6 -10q-139 -118 -139 -270q0 -64 10 -99.5t33 -76.5q-15 -33 -53 -57.5t-92 -24.5q-73 0 -117.5 41.5t-44.5 109.5z" />
</font>
</defs>
</svg>
