<?xml version="1.0" standalone="no"?>
<!DOCTYPE svg PUBLIC "-//W3C//DTD SVG 1.1//EN" "http://www.w3.org/Graphics/SVG/1.1/DTD/svg11.dtd" >
<svg xmlns="http://www.w3.org/2000/svg">
<metadata></metadata>
<defs>
<font id="salome_decoregular" horiz-adv-x="1026" >
<font-face units-per-em="2048" ascent="1536" descent="-512" />
<missing-glyph horiz-adv-x="538" />
<glyph horiz-adv-x="0" />
<glyph horiz-adv-x="0" />
<glyph unicode="&#xd;" horiz-adv-x="538" />
<glyph unicode=" "  horiz-adv-x="538" />
<glyph unicode="&#x09;" horiz-adv-x="538" />
<glyph unicode="&#xa0;" horiz-adv-x="538" />
<glyph unicode="!" horiz-adv-x="614" d="M41 1204q0 112 75.5 190.5t192.5 78.5t193 -78.5t76 -190.5q0 -74 -27.5 -141t-66.5 -119t-77.5 -103t-66 -114t-27.5 -131q0 -31 2.5 -58t4.5 -38l2 -11h-25q8 37 8 107q0 50 -14.5 96.5t-38 85t-51.5 76t-56 76.5t-51.5 79t-38 90.5t-14.5 104.5zM84 176q0 95 57 156 t162 61t163 -61t58 -156q0 -96 -58 -155.5t-163 -59.5t-162 59.5t-57 155.5z" />
<glyph unicode="&#x22;" horiz-adv-x="909" d="M41 1278q0 81 55 138t140 57t139.5 -57t54.5 -138q0 -54 -19.5 -103t-47 -87t-55 -75t-47 -82.5t-19.5 -94.5q0 -23 1.5 -42.5t2.5 -27.5l2 -8h-23q4 27 4 78q0 49 -19.5 94.5t-47 82.5t-55 75t-47 87t-19.5 103zM483 1278q0 81 55 138t140 57t139.5 -57t54.5 -138 q0 -54 -19.5 -103t-47 -87t-55 -75t-47 -82.5t-19.5 -94.5q0 -23 1.5 -42.5t2.5 -27.5l2 -8h-22q4 27 4 78q0 49 -19.5 94.5t-47 82.5t-55.5 75t-47.5 87t-19.5 103z" />
<glyph unicode="#" horiz-adv-x="1206" d="M63 553l7 12h301l96 365h-301l4 12h301l102 379h15l-103 -379h334l103 379h14l-102 -379h307l-4 -12h-308l-96 -365h307l-6 -12h-305l-102 -379h-15l103 379h-334l-102 -379h-15l103 379h-304zM385 565h334l96 365h-334z" />
<glyph unicode="$" horiz-adv-x="1249" d="M68 1030q0 204 148.5 323.5t418.5 119.5q10 0 30.5 -1.5t30.5 -1.5l33 197h16l-32 -199q110 -12 191.5 -43t124 -72t62 -82.5t19.5 -84.5q0 -32 -11 -63t-33.5 -60t-64 -46.5t-96.5 -17.5q-50 0 -101.5 22t-82.5 56q40 34 63 85t23 98q0 142 -98 184l-72 -424 q37 -23 100 -56.5t109 -59t103 -61.5t97 -74t76 -86t54 -108t18 -129q0 -148 -83.5 -260.5t-215 -168.5t-285.5 -56q-69 0 -147 12l-35 -211h-16l34 215q-17 3 -65 14t-77 16.5t-87.5 10.5t-126.5 5l-20 514h10q36 -205 132 -349t239 -192l84 506q-178 99 -251 153 q-191 143 -213 324q-3 25 -3 51zM440 1276q0 -76 47.5 -134t135.5 -114l69 422q-30 10 -65 10q-83 0 -135 -50t-52 -134zM465 -8q62 -19 123 -19q120 0 183 61.5t63 151.5q0 48 -21 90.5t-65 81.5t-87.5 68t-111.5 68z" />
<glyph unicode="%" horiz-adv-x="1413" d="M63 1114q0 69 24 133t68 114.5t115 81t158 30.5q154 0 241 -93.5t87 -234.5q0 -51 -12.5 -100.5t-41 -97t-70.5 -83.5t-106 -58t-143 -22q-139 0 -229.5 89t-90.5 241zM229 -51l934 1536h19l-934 -1536h-19zM326 1139q0 -140 27 -242t63 -102q34 0 56 94t22 229 q0 125 -26 234.5t-67 109.5q-36 0 -55.5 -96t-19.5 -227zM657 291q0 69 24 132.5t68 114.5t115 81t158 30q154 0 241 -93t87 -234q0 -51 -12.5 -100.5t-41 -97t-70.5 -83.5t-106 -58t-143 -22q-139 0 -229.5 89t-90.5 241zM920 315q0 -140 27 -242t63 -102q34 0 55.5 94 t21.5 230q0 125 -25.5 234.5t-66.5 109.5q-36 0 -55.5 -96.5t-19.5 -227.5z" />
<glyph unicode="&#x26;" horiz-adv-x="1607" d="M59 260q0 83 36.5 152t98.5 115.5t136.5 76t158.5 41.5q-108 129 -160.5 224.5t-52.5 195.5q0 77 32.5 144t87.5 114.5t126.5 82t149 51t155.5 16.5q190 0 290 -66t100 -166q0 -84 -58 -130t-141 -46q-41 0 -86.5 13.5t-73.5 35.5q30 35 48 85.5t18 100.5 q0 81 -30.5 122.5t-86.5 41.5q-68 0 -110 -54t-42 -140q0 -75 31.5 -139t104.5 -158l374 -473q33 49 56.5 111t23.5 112q0 61 -46 102t-142 41v11q182 -9 284 -9q55 0 118 2t99 4l35 3v-11q-60 0 -110.5 -17.5t-84.5 -43.5t-67.5 -67.5t-55 -77.5t-52 -86.5t-52.5 -81.5 l148 -195q138 -178 240 -178q31 0 63 16l4 -6q-5 -7 -15.5 -18t-46 -40t-76 -51.5t-105 -40.5t-132.5 -18q-134 0 -217.5 43t-171.5 148q-111 -98 -221 -144.5t-233 -46.5q-166 0 -257.5 85t-91.5 214zM457 473q0 -87 31.5 -170.5t95 -142t143.5 -58.5q31 0 67.5 18.5 t61.5 41.5l-362 475q-37 -56 -37 -164z" />
<glyph unicode="'" horiz-adv-x="471" d="M41 1278q0 81 55 138t140 57t139.5 -57t54.5 -138q0 -54 -19.5 -103t-47 -87t-55 -75t-47 -82.5t-19.5 -94.5q0 -23 1.5 -42.5t2.5 -27.5l2 -8h-23q4 27 4 78q0 49 -19.5 94.5t-47 82.5t-55 75t-47 87t-19.5 103z" />
<glyph unicode="(" horiz-adv-x="790" d="M41 713q0 137 38.5 265t103 230t152.5 192t181 155.5t195 115.5l4 -6q-244 -347 -244 -952q0 -606 244 -953l-4 -6q-102 50 -195 115.5t-181 156t-152.5 192.5t-103 230t-38.5 265z" />
<glyph unicode=")" horiz-adv-x="790" d="M76 -240q243 346 243 953q0 606 -243 952l4 6q102 -50 195 -115.5t181 -155.5t152.5 -192t103 -230t38.5 -265t-38.5 -265t-103 -230t-152.5 -192.5t-181 -156t-195 -115.5z" />
<glyph unicode="*" horiz-adv-x="604" d="M72 1124q0 78 104 78q2 0 32.5 -1.5t50.5 0.5t38 9q-13 6 -28 8.5t-25 2.5t-26 -1t-23 -1q-52 0 -87.5 20t-35.5 61q0 30 20.5 51t48.5 21q19 0 39 -10q36 -20 66 -75t51 -70q-3 27 -35.5 80t-32.5 94q0 31 20 51t52 20t52 -20t20 -51q0 -41 -32.5 -94t-35.5 -80 q21 15 51 70t66 75q20 10 39 10q28 0 48.5 -21t20.5 -51q0 -41 -35 -61t-87 -20q-7 0 -23.5 1t-26.5 1t-25 -2.5t-28 -8.5q18 -7 38 -9t50.5 -0.5t32.5 1.5q104 0 104 -78q0 -31 -20 -53t-49 -22q-38 0 -64 31t-48.5 71.5t-43.5 52.5q3 -27 35.5 -80t32.5 -94 q0 -31 -20 -51.5t-52 -20.5t-52 20.5t-20 51.5q0 41 32.5 94t35.5 80q-21 -12 -43.5 -52.5t-48.5 -71.5t-64 -31q-29 0 -49 22t-20 53z" />
<glyph unicode="+" horiz-adv-x="903" d="M0 713v14h444v434h15v-434h444v-14h-444v-439h-15v439h-444z" />
<glyph unicode="," horiz-adv-x="620" d="M76 182q0 95 62.5 153t156.5 58q100 0 160.5 -64.5t60.5 -164.5q0 -144 -96 -275.5t-246 -236.5l-6 8q102 102 102 221q0 75 -49 138t-137 98q-8 40 -8 65z" />
<glyph unicode="-" horiz-adv-x="735" d="M49 723v14h637v-14h-637z" />
<glyph unicode="." horiz-adv-x="591" d="M76 176q0 95 57 156t162 61t163 -61t58 -156q0 -96 -58 -155.5t-163 -59.5t-162 59.5t-57 155.5z" />
<glyph unicode="/" horiz-adv-x="851" d="M119 -248l596 1929h16l-596 -1929h-16z" />
<glyph unicode="0" horiz-adv-x="1521" d="M57 684q0 216 89 379t219 240q-27 -62 -27 -152q0 -97 68.5 -153t158.5 -56q21 0 33 2q-6 -105 -6 -205q0 -343 53 -554.5t139 -211.5q77 0 110.5 166.5t33.5 554.5q0 345 -52 555.5t-139 210.5q-41 0 -61.5 -42.5t-20.5 -110.5q0 -78 32 -138.5t77 -97.5 q-77 -102 -207 -102q-103 0 -161 52.5t-58 129.5q0 66 27 121t70 91.5t100 62t115 36.5t116 11q308 0 503 -200.5t195 -520.5q0 -127 -34.5 -246.5t-99 -217.5t-151.5 -171.5t-197.5 -114.5t-231.5 -41q-203 0 -360.5 91t-245 255.5t-87.5 376.5z" />
<glyph unicode="1" horiz-adv-x="864" d="M41 0v10q77 0 115.5 67t38.5 189v873q0 141 -33 188t-121 47v12q162 0 338 22t291 65v-1280q0 -105 35.5 -144t117.5 -39v-10q-178 6 -391 6z" />
<glyph unicode="2" horiz-adv-x="1345" d="M47 53q0 82 23 153.5t62 127t89.5 107t106.5 98.5t112 94.5t106.5 103.5t89.5 118t62 143.5t23 175.5q0 134 -62 206t-155 72q-76 0 -123 -53.5t-47 -120.5q0 -77 45 -115t115 -43q8 -24 8 -55q0 -74 -56.5 -131t-148.5 -57q-61 0 -106.5 22t-70 59t-36.5 76.5t-12 81.5 q0 55 20.5 105.5t65.5 97t110.5 80.5t161.5 54t213 20q174 0 312.5 -48t219 -139t80.5 -209q0 -89 -31.5 -158t-86 -114.5t-126.5 -80.5t-155.5 -61t-169.5 -49.5t-172.5 -52.5t-160.5 -64.5t-137 -91t-99 -126.5q34 50 74.5 85.5t80.5 56.5t91 32.5t96.5 15.5t105.5 4 q87 0 296 -28.5t288 -28.5q65 0 102.5 25.5t34.5 84.5h10q13 -76 13 -131q0 -206 -120 -320t-335 -114q-83 0 -176 21t-161 46.5t-146 46.5t-135 21q-80 0 -123 -40t-43 -93l-11 -2q-12 40 -12 92z" />
<glyph unicode="3" horiz-adv-x="1316" d="M37 317q0 42 12 81.5t37 75t71 57.5t107 22q91 0 143 -58t52 -133q0 -25 -6 -49q-67 -5 -113.5 -49t-46.5 -114q0 -68 47 -118t133 -50q124 0 226 135t102 336q0 131 -70.5 217t-189.5 86q-56 0 -105 -17l-4 13q132 45 218.5 170t86.5 282q0 111 -59.5 179.5t-151.5 68.5 q-76 0 -125 -53.5t-49 -120.5q0 -78 46 -118t114 -40q8 -24 8 -55q0 -75 -52.5 -131.5t-143.5 -56.5q-112 0 -173 70t-61 169q0 55 19 105.5t61.5 97t105.5 80.5t157.5 54t211.5 20q268 0 414.5 -94.5t146.5 -231.5q0 -72 -42.5 -134.5t-114.5 -106.5t-157.5 -74t-178.5 -44 q48 1 126.5 14.5t118.5 26.5q159 -22 239.5 -117t80.5 -231q0 -97 -44 -188t-126.5 -166t-216.5 -120.5t-299 -45.5q-145 0 -255 30t-173.5 81.5t-95 113t-31.5 131.5z" />
<glyph unicode="4" horiz-adv-x="1329" d="M57 344l308 418q151 204 151 375q0 135 -84 235q42 45 104.5 73t131.5 28q125 0 196.5 -76t71.5 -176q0 -191 -252 -390l-606 -483h545v326q117 40 263.5 127t211.5 164v-617h178v-14h-178v-141q0 -105 35.5 -144t117.5 -39v-10q-178 6 -391 6l-391 -6v10q77 0 115.5 67 t38.5 189v68h-557z" />
<glyph unicode="5" horiz-adv-x="1320" d="M51 317q0 89 55.5 157.5t163.5 68.5q92 0 147.5 -55.5t55.5 -129.5q0 -24 -6 -45q-68 -5 -116 -47.5t-48 -113.5q0 -68 49 -119t135 -51q33 0 66.5 9t67 30t59.5 52.5t42.5 80.5t16.5 110q0 119 -76 213t-203.5 144.5t-281.5 50.5l88 762q542 -33 666 -33q94 0 146 13.5 t68.5 36t16.5 60.5h11q24 -77 24 -168q0 -169 -100.5 -259.5t-272.5 -90.5q-107 0 -305 59.5t-276 69.5l-49 -426q62 101 195.5 173.5t297.5 72.5q144 0 258.5 -40.5t184 -108t105.5 -150t36 -172.5q0 -78 -19.5 -148t-67.5 -137.5t-121.5 -116t-189 -78.5t-262.5 -30 q-145 0 -256 30t-176 81.5t-97 113.5t-32 131z" />
<glyph unicode="6" horiz-adv-x="1376" d="M57 612q0 117 41 234t129 228t212.5 199.5t303.5 149t390 76.5l4 -10q-100 -23 -186 -78.5t-160 -147t-124.5 -230.5t-68.5 -314q30 15 73.5 44.5t76 51t85.5 38.5t111 17q160 0 267.5 -111t107.5 -272q0 -129 -46.5 -231t-129 -165.5t-191 -96.5t-237.5 -33 q-301 0 -479.5 175t-178.5 476zM592 516q0 -113 8.5 -207t21.5 -154.5t29.5 -103t32.5 -60.5t31 -18q22 0 40.5 47.5t30 152.5t11.5 253q0 319 -99 319q-14 0 -29.5 -6t-36 -16.5t-34.5 -15.5q-6 -68 -6 -191z" />
<glyph unicode="7" horiz-adv-x="1310" d="M31 907q0 144 20 244.5t68 175t132 110.5t208 36q90 0 186.5 -21.5t164.5 -46.5t145.5 -46.5t134.5 -21.5q80 0 123.5 40t43.5 93l11 3q12 -40 12 -93q0 -90 -28 -166t-73 -131t-99.5 -106.5t-109 -104.5t-99.5 -111.5t-73 -140t-28 -178.5q0 -114 21.5 -187.5 t60.5 -143.5q-28 -61 -103.5 -105.5t-170.5 -44.5q-132 0 -208.5 76.5t-76.5 202.5q0 85 40 162.5t107 140t150.5 121t175.5 116t176 114t158.5 127t116.5 142.5q-89 -107 -207.5 -154.5t-296.5 -47.5q-87 0 -272 28.5t-263 28.5q-122 0 -137 -111h-10z" />
<glyph unicode="8" horiz-adv-x="1366" d="M37 283q0 61 24 108.5t65.5 78.5t84 54t93 50.5t79.5 52.5q-64 43 -110.5 82t-95 92.5t-74 117.5t-25.5 134q0 185 175.5 302.5t477.5 117.5q125 0 236 -34.5t183.5 -103t72.5 -155.5q0 -58 -24.5 -102t-64 -69.5t-79.5 -43.5t-83 -36t-63 -34q62 -34 101.5 -57.5 t88 -56.5t79 -60.5t62 -64t48.5 -73.5t28 -83.5t11 -98.5q0 -118 -61 -205.5t-169 -137.5t-240.5 -73.5t-291.5 -23.5q-119 0 -213.5 20.5t-152 53t-95.5 76t-52.5 86t-14.5 86.5zM328 309q0 -151 75.5 -243.5t178.5 -92.5q90 0 146 60.5t56 156.5q0 45 -16 86t-43.5 77.5 t-79.5 80.5t-108.5 84.5t-145.5 99.5q-3 -20 -33 -125.5t-30 -183.5zM559 1282q0 -59 28.5 -114.5t82 -104t105 -84t122.5 -76.5q1 9 21 101.5t20 177.5q0 135 -63 206.5t-154 71.5q-76 0 -119 -51.5t-43 -126.5z" />
<glyph unicode="9" horiz-adv-x="1376" d="M57 946q0 129 46.5 231t129.5 166t192 97t237 33q301 0 479 -175.5t178 -476.5q0 -117 -41 -234t-129 -228t-212 -199.5t-303 -149t-390 -76.5l-4 11q100 23 186 78.5t160 147t124 230.5t68 314q-30 -15 -73.5 -44.5t-76 -51t-85.5 -39t-111 -17.5q-160 0 -267.5 111 t-107.5 272zM580 1008q0 -320 98 -320q18 0 54 17.5t46 21.5q6 68 6 191q0 113 -8 207t-21 154.5t-29.5 102.5t-32.5 60t-31 18q-22 0 -40.5 -47t-30 -152t-11.5 -253z" />
<glyph unicode=":" horiz-adv-x="591" d="M76 176q0 95 57 156t162 61t163 -61t58 -156q0 -96 -58 -155.5t-163 -59.5t-162 59.5t-57 155.5zM76 807q0 95 57 156t162 61t163 -61t58 -156q0 -96 -58 -155.5t-163 -59.5t-162 59.5t-57 155.5z" />
<glyph unicode=";" horiz-adv-x="591" d="M76 182q0 95 62.5 153t156.5 58q100 0 160.5 -64.5t60.5 -164.5q0 -144 -96 -275.5t-246 -236.5l-6 8q102 102 102 221q0 75 -49 138t-137 98q-8 40 -8 65zM76 807q0 95 57 156t162 61t163 -61t58 -156q0 -96 -58 -155.5t-163 -59.5t-162 59.5t-57 155.5z" />
<glyph unicode="&#x3c;" horiz-adv-x="903" d="M0 715v12l903 416v-17l-887 -405l887 -406v-16z" />
<glyph unicode="=" horiz-adv-x="903" d="M0 524v15h903v-15h-903zM0 899v14h903v-14h-903z" />
<glyph unicode="&#x3e;" horiz-adv-x="903" d="M0 299v16l887 406l-887 405v17l903 -416v-12z" />
<glyph unicode="?" horiz-adv-x="1042" d="M59 1241q0 103 86 167.5t250 64.5q126 0 237.5 -34.5t186.5 -90.5t118.5 -128t43.5 -147q0 -84 -30 -150t-78 -106.5t-105.5 -71.5t-115.5 -52t-106 -40.5t-78 -45t-30 -58.5q0 -37 33 -70l-8 -6q-56 37 -103 105.5t-47 142.5q0 55 18 100.5t46.5 78.5t63.5 63l70 60 t63.5 63t46.5 78.5t18 99.5q0 89 -65 143.5t-146 54.5q-56 0 -83.5 -29.5t-27.5 -70.5q0 -37 19.5 -68.5t54.5 -48.5q4 -20 4 -31q0 -57 -42.5 -102t-116.5 -45q-85 0 -131 54t-46 120zM250 176q0 95 57 156t162 61t163 -61t58 -156q0 -96 -58 -155.5t-163 -59.5t-162 59.5 t-57 155.5z" />
<glyph unicode="@" horiz-adv-x="1705" d="M78 621q0 107 30.5 213.5t102.5 213.5t178 189t270.5 133t366.5 51q135 0 250 -42t191 -112.5t118.5 -162t42.5 -189.5q0 -102 -41 -201t-110 -174.5t-165.5 -122t-201.5 -46.5q-35 0 -65.5 9.5t-56 40.5t-25.5 79q0 46 16 145q-14 -63 -31 -107.5t-46 -85t-74.5 -61 t-106.5 -20.5q-95 0 -149 68.5t-54 176.5q0 122 51.5 219t152 154.5t234.5 57.5q45 0 120.5 -17.5t119.5 -17.5q34 0 64 9t44 17l13 9l-82 -570q-2 -16 -2 -35q0 -30 24 -30q32 0 73.5 40.5t79.5 105.5t64.5 159.5t26.5 189.5q0 94 -29.5 182.5t-86.5 161.5t-152 117.5 t-215 44.5q-124 0 -229.5 -52t-176.5 -135t-121 -188t-73 -211t-23 -204q0 -97 18 -185t58.5 -167.5t100 -137t149.5 -91.5t201 -34q149 0 274.5 60t183.5 122l4 -6q-88 -94 -231.5 -158.5t-318.5 -64.5q-354 0 -555 177t-201 483zM823 606q0 -139 45 -139q56 0 92.5 142 t36.5 302q0 127 -45 127q-40 0 -71 -78.5t-44.5 -174.5t-13.5 -179z" />
<glyph unicode="A" horiz-adv-x="1615" d="M18 0v10q28 0 54.5 15t50 46t40 57.5t36.5 73t27.5 66.5t23.5 62l389 1040l352 107l445 -1325q49 -142 161 -142v-10q-113 6 -395 6q-122 0 -217.5 -1.5t-130.5 -2.5l-35 -2v10q105 0 105 111q0 23 -13 86l-16 63q27 27 41 75.5t14 94.5q0 87 -44 161t-130 110l-162 553 l-297 -789q96 232 328 232q127 0 216 -77.5t89 -189.5q0 -80 -63 -145.5t-164 -65.5q-72 0 -122 28t-77 69q38 32 68.5 86.5t30.5 111.5q0 62 -26 97.5t-79 35.5t-102.5 -51t-81 -117.5t-53.5 -142.5q-25 -86 -25 -156q0 -180 199 -180v-10q-111 6 -248 6z" />
<glyph unicode="B" horiz-adv-x="1536" d="M41 0v10q77 0 115.5 67t38.5 189v975q0 105 -36 143.5t-118 38.5v11q180 -7 393 -7q49 0 208.5 3.5t225.5 3.5q83 0 158.5 -10t148 -34.5t125 -61.5t85 -95t32.5 -131q0 -100 -61 -174t-165 -113t-239 -43v-8q249 -6 392 -111.5t143 -267.5q0 -106 -47.5 -188.5 t-131.5 -133t-192.5 -76.5t-236.5 -26q-49 0 -88.5 1.5t-98.5 7t-104.5 16t-95.5 30t-82.5 46.5t-54 69t-21.5 94q0 81 57 144t158 63q66 0 119.5 -26.5t87.5 -65.5q-35 -23 -69 -80t-34 -119q0 -78 36.5 -123t103.5 -45q62 0 102.5 54.5t57 137t16.5 189.5q0 55 -9 109.5 t-31 109.5t-54.5 97t-84.5 68t-116 26v-332q-54 25 -121 25q-93 0 -156 -65t-63 -167q0 -161 129 -221q-275 0 -422 -4zM674 774q252 0 252 328q0 144 -52.5 231.5t-148.5 87.5q-30 0 -51 -8v-639z" />
<glyph unicode="C" horiz-adv-x="1519" d="M49 684q0 161 53 302.5t153 250.5t256.5 172.5t350.5 63.5q147 0 262.5 -29t182.5 -77t101 -103.5t34 -114.5q0 -95 -59.5 -159t-172.5 -64q-71 0 -128 33t-89 75q41 45 64.5 106t23.5 120q0 86 -49 143t-145 57q-291 0 -291 -721q0 -762 305 -762q73 0 153 38t155 107.5 t138.5 179t98.5 241.5h12l-63 -498q-82 0 -156.5 -13t-124.5 -29t-132 -29t-177 -13q-177 0 -320 53.5t-238 149t-146.5 228.5t-51.5 292z" />
<glyph unicode="D" horiz-adv-x="1675" d="M41 0v10q77 0 115.5 67t38.5 189v975q0 105 -36 143.5t-118 38.5v11q180 -7 393 -7q49 0 180 3.5t197 3.5q239 0 422.5 -81t288 -236.5t104.5 -364.5q0 -358 -223 -574.5t-594 -216.5q-37 0 -69.5 1.5t-83.5 7t-91.5 16t-85.5 30t-75 46.5t-50 69t-20 94q0 81 57 144 t158 63q66 0 119.5 -26.5t87.5 -65.5q-35 -23 -69 -80t-34 -119q0 -78 36.5 -123t103.5 -45q62 0 117.5 44t101 129t72 226.5t26.5 321.5q0 355 -94.5 541t-282.5 186q-31 0 -59 -8v-981q-54 25 -121 25q-94 0 -156.5 -67t-62.5 -165q0 -161 127 -221z" />
<glyph unicode="E" horiz-adv-x="1388" d="M41 0v10q77 0 115.5 67t38.5 189v975q0 105 -36 143.5t-118 38.5v11q180 -7 393 -7q94 0 380.5 3t453.5 4v-439h-11q-23 197 -154 309.5t-321 112.5q-66 0 -108 -12v-633h117q111 0 185.5 74t74.5 213h10v-645h-10q0 64 -18 123.5t-52.5 109.5t-93 79.5t-133.5 29.5h-80 v-563q0 -104 35.5 -141.5t117.5 -37.5q81 0 162 38.5t150.5 107t122.5 173t75 228.5h15l-95 -561q-175 1 -449 3.5t-374 2.5z" />
<glyph unicode="F" horiz-adv-x="1327" d="M41 0v10q77 0 115.5 67t38.5 189v975q0 105 -36 143.5t-118 38.5v11q180 -7 393 -7q94 0 380.5 3t453.5 4v-439h-11q-23 197 -154 309.5t-321 112.5q-66 0 -108 -12v-657h117q112 0 186 73.5t74 212.5h10v-645h-10q0 64 -18 123.5t-52.5 109.5t-93 79.5t-133.5 29.5h-80 v-538q0 -104 43 -143.5t137 -39.5v-10q-207 6 -420 6z" />
<glyph unicode="G" horiz-adv-x="1714" d="M49 684q0 158 60.5 302t166 251.5t258.5 171.5t328 64q146 0 262 -31t183 -80t101 -104t34 -109q0 -95 -59.5 -159t-172.5 -64q-71 0 -128 33t-89 75q41 45 64.5 106t23.5 120q0 86 -49 143t-145 57q-49 0 -87.5 -14.5t-78 -60.5t-66 -122.5t-43 -209.5t-16.5 -314 q0 -764 305 -764q78 0 113 40.5t35 131.5v351q0 105 -36 143.5t-118 38.5v10h778v-10q-76 0 -114.5 -66.5t-38.5 -189.5v-379q-113 0 -204.5 -13t-145 -29t-149 -29t-216.5 -13q-177 0 -320 53.5t-238 149t-146.5 228.5t-51.5 292z" />
<glyph unicode="H" horiz-adv-x="1746" d="M41 0v10q77 0 115.5 67t38.5 189v975q0 105 -36 143.5t-118 38.5v11q180 -7 393 -7q95 0 193 1.5t149 3.5l51 2v-11q-76 0 -114.5 -66.5t-38.5 -189.5v-512q9 53 34 95.5t56 67.5t69.5 42t73 23t68.5 6q112 0 195 -62t96 -159q-5 77 -56.5 144t-136.5 91v338 q0 105 -35.5 143.5t-117.5 38.5v11q180 -7 393 -7q95 0 193 1.5t149 3.5l51 2v-11q-77 0 -115.5 -67t-38.5 -189v-974q0 -105 36 -144t118 -39v-10q-180 6 -393 6l-393 -6v10q76 0 114.5 66.5t38.5 189.5v125q48 8 85 30.5t57 48t32.5 58t16 55t4.5 44.5q-2 -51 -27 -97.5 t-78 -80t-123 -33.5q-69 0 -121.5 27t-76.5 65q38 36 68 102t30 123q0 49 -23.5 78t-68.5 29q-16 0 -35.5 -7t-45 -27.5t-45.5 -51.5t-34 -85t-14 -122v-354q0 -105 35.5 -144t117.5 -39v-10q-180 6 -393 6z" />
<glyph unicode="I" horiz-adv-x="868" d="M41 0v10q77 0 115.5 67t38.5 189v975q0 105 -36 143.5t-118 38.5v11q180 -7 393 -7q95 0 193 1.5t149 3.5l51 2v-11q-76 0 -114.5 -66.5t-38.5 -189.5v-974q0 -105 35.5 -144t117.5 -39v-10q-180 6 -393 6z" />
<glyph unicode="J" horiz-adv-x="868" d="M0 -455q19 30 63.5 80t69.5 88q62 92 62 301v1227q0 105 -36 143.5t-118 38.5v11q180 -7 393 -7q95 0 193 1.5t149 3.5l51 2v-11q-76 0 -114.5 -66.5t-38.5 -189.5v-1009q0 -135 -35.5 -222t-110.5 -151q-51 -43 -126.5 -73.5t-139.5 -45t-135.5 -46.5t-118.5 -79z" />
<glyph unicode="K" horiz-adv-x="1722" d="M41 0v10q77 0 115.5 67t38.5 189v975q0 105 -36 143.5t-118 38.5v11q180 -7 393 -7q95 0 193 1.5t149 3.5l51 2v-11q-76 0 -114.5 -66.5t-38.5 -189.5v-446h65l303 340q129 144 129 244q0 55 -44 86.5t-130 31.5v11q119 -7 336 -7q90 0 163 1.5t100 3.5l28 2v-11 q-121 0 -248.5 -73t-249.5 -211l-73 -84l530 -893q40 -65 76.5 -95t87.5 -30v-8q-16 -8 -44 -19t-113.5 -30t-168.5 -19q-159 0 -260.5 61t-175.5 205l-211 410q-20 37 -42.5 54.5t-57.5 17.5v-516q0 -105 35.5 -144t117.5 -39v-10q-180 6 -393 6z" />
<glyph unicode="L" horiz-adv-x="1380" d="M41 0v10q77 0 115.5 67t38.5 189v975q0 105 -36 143.5t-118 38.5v11q180 -7 393 -7q95 0 193 1.5t149 3.5l51 2v-11q-76 0 -114.5 -66.5t-38.5 -189.5v-974q0 -104 35.5 -141.5t117.5 -37.5q79 0 152.5 34.5t131 92.5t106 134.5t81.5 160t52 170.5h10l-86 -606 q-188 0 -478 3t-362 3z" />
<glyph unicode="M" horiz-adv-x="2029" d="M20 0v10q76 0 120.5 60.5t58.5 220.5l80 950q2 19 2 35q-1 73 -33 106q-40 41 -123 41v11q288 -7 668 -7q0 -125 36 -243l238 -768l197 776q18 68 22 126q2 31 2 53q0 19 -2 31l-4 25q136 0 294 1.5t248 3.5l89 2v-11q-83 0 -120 -39q-34 -36 -34 -128v-15l92 -1048 q9 -107 42 -145t112 -38v-10q-160 6 -383 6l-412 -6v10q148 0 148 208q0 26 -2 56l-76 920l-305 -1194l-246 -37l-436 1284l-72 -889q-3 -34 -3 -65q0 -134 50 -201q62 -82 176 -82v-10q-124 6 -241 6z" />
<glyph unicode="N" horiz-adv-x="1554" d="M31 0v10q153 0 153 297v934q0 105 -35.5 143.5t-117.5 38.5v11q314 -7 694 -7q7 -67 94 -198l527 -783v680q0 69 -15 121.5t-40.5 85.5t-62.5 53.5t-77 28.5t-88 8v11q219 -7 291 -7l184 7v-11q-76 0 -127 -72.5t-51 -224.5v-1126l-316 -37l-845 1307v-963 q0 -159 73.5 -228t225.5 -69v-10q-221 6 -293 6z" />
<glyph unicode="O" horiz-adv-x="1628" d="M49 684q0 216 90 377t228 242q-27 -62 -27 -152q0 -97 68.5 -153t158.5 -56q21 0 33 2q-6 -105 -6 -205q0 -341 73 -553.5t177 -212.5q95 0 143.5 168.5t48.5 552.5q0 347 -69 556.5t-179 209.5q-64 0 -97.5 -51.5t-33.5 -122.5q0 -67 32.5 -122.5t76.5 -92.5 q-77 -102 -207 -102q-103 0 -161 52.5t-58 129.5q0 68 32 124.5t82.5 92t114.5 60t125.5 35t118.5 10.5q178 0 322.5 -52t241.5 -146.5t149.5 -228t52.5 -294.5q0 -220 -92 -398.5t-270.5 -285.5t-413.5 -107q-355 0 -554.5 197t-199.5 526z" />
<glyph unicode="P" horiz-adv-x="1447" d="M41 0v10q77 0 115.5 67t38.5 189v975q0 105 -36 143.5t-118 38.5v11q180 -7 393 -7q80 0 206 3.5t210 3.5q262 0 411.5 -110.5t149.5 -309.5t-159 -325t-461 -126q-33 0 -63 1.5t-79 7t-88.5 16t-83.5 30t-74 46.5t-49.5 69t-19.5 94q0 80 57 140.5t158 60.5 q63 0 117 -25t90 -61q-37 -36 -64.5 -93.5t-27.5 -117.5q0 -74 30 -115t78 -41q77 0 122.5 110.5t45.5 322.5q0 113 -22 204t-71.5 150t-119.5 59q-29 0 -53 -8v-387q-59 27 -121 27q-88 0 -153.5 -63.5t-65.5 -162.5q0 -121 93 -193.5t247 -90.5v-348q0 -102 44 -143.5 t126 -41.5v-10q-197 6 -410 6z" />
<glyph unicode="Q" horiz-adv-x="1628" d="M49 684q0 216 90 377t228 242q-27 -62 -27 -152q0 -97 68.5 -153t158.5 -56q21 0 33 2q-6 -105 -6 -205q0 -341 73 -553.5t177 -212.5q95 0 143.5 168.5t48.5 552.5q0 347 -69 556.5t-179 209.5q-64 0 -97.5 -51.5t-33.5 -122.5q0 -67 32.5 -122.5t76.5 -92.5 q-77 -102 -207 -102q-103 0 -161 52.5t-58 129.5q0 68 32 124.5t82.5 92t114.5 60t125.5 35t118.5 10.5q178 0 322.5 -52t241.5 -146.5t149.5 -228t52.5 -294.5q0 -154 -47.5 -290t-134 -241t-216.5 -172t-288 -82q118 -13 294.5 -57.5t329 -87t367 -77t416.5 -34.5 q181 0 376.5 36t321.5 103l6 -8q-49 -78 -98.5 -138.5t-119.5 -118.5t-149.5 -96.5t-186.5 -61.5t-232 -23q-123 0 -243.5 30.5t-220 80t-196.5 109t-189 118.5t-181 108.5t-188.5 80t-196.5 30.5q-355 0 -554.5 197t-199.5 526z" />
<glyph unicode="R" horiz-adv-x="1601" d="M41 0v10q77 0 115.5 67t38.5 189v975q0 105 -36 143.5t-118 38.5v11q180 -7 393 -7q70 0 202 3.5t204 3.5q567 0 567 -340q0 -351 -655 -351q163 0 163 328q0 156 -48 253t-142 97q-30 0 -51 -8v-676q-96 -8 -166 -37.5t-106 -72t-52 -85t-16 -87.5q0 -98 59.5 -165 t151.5 -67q73 0 129 27v-57q0 -105 35.5 -144t117.5 -39v-10q-180 6 -393 6zM334 455q0 63 29 111.5t74.5 77t110.5 46.5t129 24.5t138 6.5q103 0 194.5 -18t172 -56t137.5 -104.5t80 -155.5l63 -244q13 -53 43.5 -86.5t75.5 -33.5q22 0 37 6l4 -6q-30 -22 -131.5 -42 t-194.5 -20q-186 0 -286 77t-127 257l-37 250q-22 162 -111 162q-39 0 -62.5 -38.5t-23.5 -101.5q0 -137 103 -227q-30 -39 -85 -65.5t-122 -26.5q-100 0 -155.5 63t-55.5 144z" />
<glyph unicode="S" horiz-adv-x="1249" d="M68 1030q0 204 148.5 323.5t418.5 119.5q107 0 192 -19t137 -48.5t86 -69t47 -76.5t13 -74q0 -32 -11 -63t-33.5 -60t-64 -46.5t-96.5 -17.5q-50 0 -101.5 22t-82.5 56q40 34 63 85t23 98q0 88 -42.5 144t-137.5 56q-83 0 -135 -50t-52 -134q0 -54 26 -101t69.5 -83.5 t100 -70t119 -66.5t125 -68t119 -78.5t100 -94t69.5 -119.5t26 -149q0 -148 -83.5 -260.5t-215 -168.5t-285.5 -56q-89 0 -160 15.5t-155 31t-205 15.5l-20 514h10q44 -252 178 -408t330 -156q120 0 183 61.5t63 151.5q0 52 -26 98.5t-70.5 84t-102 73.5t-121 72t-127 73.5 t-121 83t-102 96.5t-70.5 118.5t-26 144.5z" />
<glyph unicode="T" horiz-adv-x="1554" d="M47 983l37 451q284 -7 666 -7l755 7l-37 -453l-8 2q0 197 -114.5 315.5t-329.5 118.5v-1224q0 -104 39 -143.5t125 -39.5v-10q-191 6 -404 6l-403 -6v10q82 0 123 66.5t41 189.5v1151q-189 0 -317 -117t-163 -319z" />
<glyph unicode="U" horiz-adv-x="1546" d="M41 1423v11q180 -7 393 -7q95 0 193 1.5t149 3.5l51 2v-11q-76 0 -114.5 -66.5t-38.5 -189.5v-712h-13q-105 1 -167 -61q-66 -66 -66 -169q0 -83 40 -144.5t103 -90.5q-376 53 -376 475v776q0 105 -36 143.5t-118 38.5zM428 225q0 80 61.5 143.5t167.5 63.5 q59 0 108.5 -25t72.5 -57q-86 -77 -86 -188q0 -77 53.5 -124.5t140.5 -47.5q101 0 176.5 29.5t117.5 74t67.5 110.5t33 125.5t7.5 131.5v665q0 157 -70.5 227t-206.5 70v11q213 -7 285 -7l184 7v-11q-76 0 -127 -72.5t-51 -224.5v-661q0 -150 -32 -249.5t-101.5 -155 t-162.5 -77.5t-230 -22q-177 0 -292.5 69.5t-115.5 194.5z" />
<glyph unicode="V" horiz-adv-x="1597" d="M33 1423v11q152 -7 383 -7q96 0 199.5 1.5t158.5 3.5l55 2v-11q-59 0 -90.5 -21.5t-31.5 -72.5q0 -32 26 -121l287 -952l276 860q25 82 25 152q0 77 -50 116t-143 39v11q88 -7 242 -7q55 0 103.5 1.5t70.5 3.5l21 2v-11q-71 0 -137.5 -75.5t-116.5 -231.5l-359 -1116 l-344 -37l-407 1301q-30 97 -64 128t-104 31z" />
<glyph unicode="W" horiz-adv-x="2217" d="M23 1423v11q223 -7 397 -7q79 0 170 1.5t142 3.5l52 2v-11q-84 0 -84 -86q0 -32 17 -94l227 -819l133 467l-112 407q-20 69 -47 97t-87 28v11q216 -7 357 -7q87 0 154.5 1.5t91.5 3.5l24 2q0 -88 31 -201l215 -811l209 704q19 67 23 117q1 9 1 19q0 40 -12 74 q-15 42 -61 64.5t-123 22.5v11q150 -7 252 -7q49 0 97 1.5t72 3.5l23 2v-11q-81 0 -144.5 -68t-111.5 -229l-336 -1124l-266 -39l-242 903l-245 -866l-240 -37l-418 1337q-19 62 -56.5 92.5t-102.5 30.5z" />
<glyph unicode="X" horiz-adv-x="1656" d="M47 0v10q64 0 124 28t114.5 82t100.5 115.5t97 145.5l179 293l-396 616q-49 77 -82.5 105t-97.5 28v11q147 -7 397 -7q107 0 213.5 1.5t159.5 3.5l53 2v-11q-51 1 -77 -23q-25 -23 -25 -61t16 -82q15 -43 43 -88l172 -278l111 178q63 103 75 181q2 14 2 27q0 61 -42 99 q-52 48 -168 47v11q241 -7 321 -7l273 7v-11q-90 0 -201 -77t-209 -228l-153 -237l452 -719q31 -48 57.5 -77.5t72 -52t102.5 -22.5v-10q-322 6 -431 6l-452 -6v10q129 0 129 88q0 52 -45 125l-260 441l-146 -248q-36 -62 -56 -120q-18 -53 -18 -102v-8q2 -52 26.5 -91 t82 -62t144.5 -23v-10q-281 6 -375 6z" />
<glyph unicode="Y" horiz-adv-x="1540" d="M33 1423v11q167 -7 409 -7q120 0 221 1.5t142 3.5l41 2v-11q-49 0 -79 -25.5t-30 -64.5q0 -52 49 -137l220 -395l137 256q90 162 90 243q0 123 -184 123v11q94 -7 260 -7q54 0 103.5 1.5t71.5 3.5l23 2v-11q-67 0 -144 -62.5t-153 -203.5l-192 -360v-604 q0 -105 35.5 -144t117.5 -39v-10q-180 6 -393 6l-393 -6v10q77 0 115.5 67t38.5 189v486l-346 563q-41 65 -78 86.5t-82 21.5z" />
<glyph unicode="Z" horiz-adv-x="1470" d="M55 14l803 1405l-151 -6q-93 -4 -167 -19.5t-145 -49t-123.5 -85.5t-94.5 -133t-66 -188h-11l64 496h1222l9 -15l-789 -1405l135 9q273 17 437.5 159.5t226.5 395.5h10l-80 -578h-1272z" />
<glyph unicode="[" horiz-adv-x="737" d="M82 -246v1917h532v-12h-122v-1895h122v-10h-532z" />
<glyph unicode="\" horiz-adv-x="851" d="M119 1681h16l596 -1929h-16z" />
<glyph unicode="]" horiz-adv-x="737" d="M123 -236h123v1895h-123v12h532v-1917h-532v10z" />
<glyph unicode="^" horiz-adv-x="745" d="M0 848l367 688h12l366 -688h-14l-358 676l-359 -676h-14z" />
<glyph unicode="_" horiz-adv-x="1155" d="M0 -135h1155v-12h-1155v12z" />
<glyph unicode="`" horiz-adv-x="555" d="M70 1409q0 53 39 90t106 37l270 -422l-4 -6q-107 23 -198.5 66t-152 105.5t-60.5 129.5z" />
<glyph unicode="a" d="M0 0v1434h1024v-1434h-1024zM23 37l473 680l-473 680v-1360zM41 23h940l-471 673zM43 1409l467 -672l469 672h-936zM524 717l477 -684v1366z" />
<glyph unicode="b" d="M0 0v1434h1024v-1434h-1024zM23 37l473 680l-473 680v-1360zM41 23h940l-471 673zM43 1409l467 -672l469 672h-936zM524 717l477 -684v1366z" />
<glyph unicode="c" d="M0 0v1434h1024v-1434h-1024zM23 37l473 680l-473 680v-1360zM41 23h940l-471 673zM43 1409l467 -672l469 672h-936zM524 717l477 -684v1366z" />
<glyph unicode="d" d="M0 0v1434h1024v-1434h-1024zM23 37l473 680l-473 680v-1360zM41 23h940l-471 673zM43 1409l467 -672l469 672h-936zM524 717l477 -684v1366z" />
<glyph unicode="e" d="M0 0v1434h1024v-1434h-1024zM23 37l473 680l-473 680v-1360zM41 23h940l-471 673zM43 1409l467 -672l469 672h-936zM524 717l477 -684v1366z" />
<glyph unicode="f" d="M0 0v1434h1024v-1434h-1024zM23 37l473 680l-473 680v-1360zM41 23h940l-471 673zM43 1409l467 -672l469 672h-936zM524 717l477 -684v1366z" />
<glyph unicode="g" d="M0 0v1434h1024v-1434h-1024zM23 37l473 680l-473 680v-1360zM41 23h940l-471 673zM43 1409l467 -672l469 672h-936zM524 717l477 -684v1366z" />
<glyph unicode="h" d="M0 0v1434h1024v-1434h-1024zM23 37l473 680l-473 680v-1360zM41 23h940l-471 673zM43 1409l467 -672l469 672h-936zM524 717l477 -684v1366z" />
<glyph unicode="i" d="M0 0v1434h1024v-1434h-1024zM23 37l473 680l-473 680v-1360zM41 23h940l-471 673zM43 1409l467 -672l469 672h-936zM524 717l477 -684v1366z" />
<glyph unicode="j" d="M0 0v1434h1024v-1434h-1024zM23 37l473 680l-473 680v-1360zM41 23h940l-471 673zM43 1409l467 -672l469 672h-936zM524 717l477 -684v1366z" />
<glyph unicode="k" d="M0 0v1434h1024v-1434h-1024zM23 37l473 680l-473 680v-1360zM41 23h940l-471 673zM43 1409l467 -672l469 672h-936zM524 717l477 -684v1366z" />
<glyph unicode="l" d="M0 0v1434h1024v-1434h-1024zM23 37l473 680l-473 680v-1360zM41 23h940l-471 673zM43 1409l467 -672l469 672h-936zM524 717l477 -684v1366z" />
<glyph unicode="m" d="M0 0v1434h1024v-1434h-1024zM23 37l473 680l-473 680v-1360zM41 23h940l-471 673zM43 1409l467 -672l469 672h-936zM524 717l477 -684v1366z" />
<glyph unicode="n" d="M0 0v1434h1024v-1434h-1024zM23 37l473 680l-473 680v-1360zM41 23h940l-471 673zM43 1409l467 -672l469 672h-936zM524 717l477 -684v1366z" />
<glyph unicode="o" d="M0 0v1434h1024v-1434h-1024zM23 37l473 680l-473 680v-1360zM41 23h940l-471 673zM43 1409l467 -672l469 672h-936zM524 717l477 -684v1366z" />
<glyph unicode="p" d="M0 0v1434h1024v-1434h-1024zM23 37l473 680l-473 680v-1360zM41 23h940l-471 673zM43 1409l467 -672l469 672h-936zM524 717l477 -684v1366z" />
<glyph unicode="q" d="M0 0v1434h1024v-1434h-1024zM23 37l473 680l-473 680v-1360zM41 23h940l-471 673zM43 1409l467 -672l469 672h-936zM524 717l477 -684v1366z" />
<glyph unicode="r" d="M0 0v1434h1024v-1434h-1024zM23 37l473 680l-473 680v-1360zM41 23h940l-471 673zM43 1409l467 -672l469 672h-936zM524 717l477 -684v1366z" />
<glyph unicode="s" horiz-adv-x="1024" d="M0 0v1434h1024v-1434h-1024zM23 37l473 680l-473 680v-1360zM41 23h940l-471 673zM43 1409l467 -672l469 672h-936zM524 717l477 -684v1366z" />
<glyph unicode="t" horiz-adv-x="1024" d="M0 0v1434h1024v-1434h-1024zM23 37l473 680l-473 680v-1360zM41 23h940l-471 673zM43 1409l467 -672l469 672h-936zM524 717l477 -684v1366z" />
<glyph unicode="u" d="M0 0v1434h1024v-1434h-1024zM23 37l473 680l-473 680v-1360zM41 23h940l-471 673zM43 1409l467 -672l469 672h-936zM524 717l477 -684v1366z" />
<glyph unicode="v" d="M0 0v1434h1024v-1434h-1024zM23 37l473 680l-473 680v-1360zM41 23h940l-471 673zM43 1409l467 -672l469 672h-936zM524 717l477 -684v1366z" />
<glyph unicode="w" horiz-adv-x="1024" d="M0 0v1434h1024v-1434h-1024zM23 37l473 680l-473 680v-1360zM41 23h940l-471 673zM43 1409l467 -672l469 672h-936zM524 717l477 -684v1366z" />
<glyph unicode="x" d="M0 0v1434h1024v-1434h-1024zM23 37l473 680l-473 680v-1360zM41 23h940l-471 673zM43 1409l467 -672l469 672h-936zM524 717l477 -684v1366z" />
<glyph unicode="y" d="M0 0v1434h1024v-1434h-1024zM23 37l473 680l-473 680v-1360zM41 23h940l-471 673zM43 1409l467 -672l469 672h-936zM524 717l477 -684v1366z" />
<glyph unicode="z" d="M0 0v1434h1024v-1434h-1024zM23 37l473 680l-473 680v-1360zM41 23h940l-471 673zM43 1409l467 -672l469 672h-936zM524 717l477 -684v1366z" />
<glyph unicode="{" horiz-adv-x="874" d="M41 709v8q160 0 160 174q0 51 -24.5 189.5t-24.5 215.5q0 56 10 103t27 83t45 64t58 48t71.5 34t80 22t90 13t95.5 6.5t100 1.5v-10q-77 0 -112 -39t-35 -133q0 -71 15 -207.5t15 -204.5q0 -100 -30.5 -170.5t-92.5 -111.5t-145 -60.5t-197 -21.5q114 -2 197 -21.5 t145 -61t92.5 -112t30.5 -170.5q0 -68 -15 -204t-15 -207q0 -95 35 -134t112 -39v-10q-56 0 -100 1.5t-95.5 6.5t-90 13t-80 22t-71.5 34t-58 48t-45 64t-27 83t-10 103q0 77 24.5 216t24.5 190q0 77 -37 125.5t-123 48.5z" />
<glyph unicode="|" horiz-adv-x="327" d="M158 -412v2257h12v-2257h-12z" />
<glyph unicode="}" horiz-adv-x="874" d="M145 -236q77 0 112.5 39.5t35.5 133.5q0 71 -15.5 207t-15.5 204q0 100 30.5 170.5t92.5 112t145 61t197 21.5q-114 2 -197 21.5t-145 60.5t-92.5 111.5t-30.5 170.5q0 68 15.5 204.5t15.5 207.5q0 94 -35.5 133t-112.5 39v10q74 0 129 -2.5t118.5 -11.5t108.5 -25 t89.5 -44t72 -67t44 -96t16.5 -129q0 -77 -24.5 -215.5t-24.5 -189.5q0 -174 160 -174v-8q-86 0 -123 -48.5t-37 -125.5q0 -51 24.5 -190t24.5 -216q0 -72 -16.5 -129t-44 -96t-72 -67t-89.5 -44t-108.5 -25t-118.5 -11.5t-129 -2.5v10z" />
<glyph unicode="~" horiz-adv-x="931" d="M57 641q44 164 191 164q54 0 114.5 -28t106 -61t106 -61t113.5 -28q61 0 107 33.5t73 123.5l11 -8q-44 -164 -191 -164q-46 0 -93.5 18.5t-88 45t-81 52.5t-87 44.5t-90.5 18.5q-61 0 -107 -34t-73 -124z" />
<glyph unicode="&#xa1;" horiz-adv-x="614" d="M41 229q0 63 19.5 121.5t49 101t63.5 90t63.5 88.5t49 96t19.5 112q0 31 -2 57.5t-4 37.5l-2 11h25q-9 -36 -9 -106q0 -68 27.5 -131t66.5 -114t77.5 -103t66 -119.5t27.5 -141.5q0 -112 -76 -190t-193 -78t-192.5 78t-75.5 190zM84 1257q0 96 57 156t162 60t163 -60 t58 -156q0 -95 -58 -156t-163 -61t-162 61t-57 156z" />
<glyph unicode="&#xa2;" horiz-adv-x="1169" d="M37 467q0 169 93.5 297t251 194t351.5 66l33 197h10l-33 -199q180 -10 285 -78t105 -174q0 -72 -57 -121t-156 -49q-49 0 -99.5 17t-81.5 45q56 83 56 194q0 115 -56 148l-135 -832q37 -50 95.5 -78t127.5 -28q91 0 153.5 23.5t123.5 70.5l4 -6q-68 -86 -193 -140.5 t-280 -54.5l-68 2l-32 -199h-11l33 201q-245 23 -382.5 157.5t-137.5 346.5zM516 512q0 -90 22 -180.5t58 -149.5l133 826q-15 6 -33 6q-74 0 -127 -136t-53 -366z" />
<glyph unicode="&#xa3;" horiz-adv-x="1316" d="M47 735v13h105q-50 112 -50 225q0 143 85.5 257.5t227.5 177t310 62.5q238 0 363.5 -80t125.5 -198q0 -85 -56.5 -139t-151.5 -54q-130 0 -215 88q36 45 57.5 106.5t21.5 117.5q0 65 -29.5 107t-90.5 42q-40 0 -72.5 -15t-56.5 -45t-42 -67t-29.5 -90.5t-19.5 -105.5 t-11.5 -121.5t-5 -129.5t-1.5 -138h342v-13h-342q0 -144 -22 -236t-82.5 -181t-182.5 -203q16 12 41.5 32t80.5 71.5t83 90.5q100 53 234 53q76 0 206 -34.5t172 -34.5q201 0 222 176h8q0 -248 -118 -378t-325 -130q-82 0 -160 23.5t-127.5 51.5t-106.5 51.5t-103 23.5 q-55 0 -112 -28.5t-138 -102.5l-6 8q89 79 136.5 158.5t47.5 187.5q0 168 -100 401h-113z" />
<glyph unicode="&#xa5;" horiz-adv-x="1540" d="M33 1423v11q167 -7 409 -7q120 0 221 1.5t142 3.5l41 2v-11q-49 0 -79 -25.5t-30 -64.5q0 -52 49 -137l220 -395l137 256q90 162 90 243q0 123 -184 123v11q94 -7 260 -7q54 0 103.5 1.5t71.5 3.5l23 2v-11q-67 0 -144 -62.5t-153 -203.5l-192 -360v-111h231v-14h-231 v-199h231v-14h-231v-266q0 -105 35.5 -144t117.5 -39v-10q-180 6 -393 6l-393 -6v10q77 0 115.5 67t38.5 189v193h-232v14h232v199h-232v14h232v66l-346 563q-41 65 -78 86.5t-82 21.5z" />
<glyph unicode="&#xa7;" horiz-adv-x="1157" d="M47 938q0 158 93.5 282t244 188.5t326.5 64.5q141 0 217 -48t76 -116q0 -58 -42.5 -102t-115.5 -44q-46 0 -87.5 13t-60.5 26q9 18 18.5 46.5t14.5 65.5t1 68.5t-27 53.5t-64 22q-72 0 -133.5 -63t-61.5 -181q0 -68 36.5 -140t95 -137t129.5 -133.5t142 -141.5 t129.5 -148t95 -165t36.5 -181q0 -158 -93.5 -282t-244 -188.5t-326.5 -64.5q-139 0 -215.5 53.5t-76.5 123.5q0 57 41.5 95t115.5 38q46 0 87.5 -13t60.5 -26q-9 -18 -18.5 -46.5t-14.5 -65t-1 -68t27 -53t64 -21.5q33 0 65.5 14t62.5 41.5t48.5 76t18.5 109.5 q0 68 -36.5 137t-95 131t-129.5 127t-142 136.5t-129.5 147t-95 171t-36.5 197.5zM272 1034q0 -77 31.5 -156.5t81.5 -149t110.5 -140l121 -141t110.5 -141t81.5 -151t31.5 -159.5q0 -81 -35.5 -150.5t-91.5 -117.5q74 46 123 138t49 206q0 88 -31.5 173.5t-81.5 156.5 t-110.5 141t-121 138t-110.5 134.5t-81.5 142.5t-31.5 152q0 81 35.5 150.5t91.5 117.5q-74 -46 -123 -138t-49 -206z" />
<glyph unicode="&#xa8;" horiz-adv-x="1193" d="M190 1286q0 76 46 126t131 50t131.5 -50t46.5 -126q0 -77 -46 -125.5t-132 -48.5t-131.5 48.5t-45.5 125.5zM649 1286q0 76 45.5 126t128.5 50q88 0 134.5 -50t46.5 -126q0 -77 -46 -125.5t-135 -48.5q-83 0 -128.5 48.5t-45.5 125.5z" />
<glyph unicode="&#xa9;" horiz-adv-x="1705" d="M117 717q0 207 96 380t265.5 274.5t375.5 101.5q153 0 289.5 -59.5t233.5 -161t153.5 -241t56.5 -294.5q0 -154 -56.5 -293.5t-153.5 -241t-233.5 -161.5t-289.5 -60q-154 0 -291.5 60t-235 161.5t-154 241t-56.5 293.5zM139 717q0 -153 55.5 -289.5t151 -234.5 t228 -155.5t280.5 -57.5q145 0 276.5 57.5t227 155.5t151.5 235t56 289q0 153 -56 290t-151 235t-226.5 155t-277.5 57q-198 0 -362 -97t-258.5 -266t-94.5 -374zM389 702q0 128 56 235t165.5 173t251.5 66q73 0 171 -19.5t188 -19.5v-250h-9q-28 135 -117.5 206.5 t-199.5 71.5q-38 0 -65.5 -15.5t-54 -58t-40.5 -133t-14 -225.5q0 -461 182 -461q104 0 195 83t129 235h10l-35 -277q-82 0 -175.5 -27.5t-180.5 -27.5q-214 0 -335.5 123t-121.5 321z" />
<glyph unicode="&#xab;" horiz-adv-x="901" d="M57 707v22l502 481l6 -10l-221 -481l221 -481l-6 -11zM428 709v18l403 393l7 -10l-158 -391l158 -397l-7 -11z" />
<glyph unicode="&#xac;" horiz-adv-x="903" d="M0 922v14h903v-455h-16v441h-887z" />
<glyph unicode="&#xad;" horiz-adv-x="735" d="M49 723v14h637v-14h-637z" />
<glyph unicode="&#xae;" horiz-adv-x="581" d="M51 1233q0 103 68 171.5t172 68.5t171.5 -68.5t67.5 -171.5t-67.5 -171.5t-171.5 -68.5t-172 68.5t-68 171.5zM63 1233q0 -99 64.5 -164t163.5 -65t163 65t64 164t-64 164t-163 65t-163.5 -65t-64.5 -164zM152 1096v8q28 0 28 49v176q0 35 -28 35v8q34 -2 75 -2 q13 0 39 1t39 1q47 0 78 -16.5t31 -52.5q0 -70 -99 -70v-4q77 0 93 -60l10 -39q6 -24 31 -24v-4q-24 -12 -62 -12q-65 0 -74 63l-6 43q-3 18 -10 24.5t-25 6.5v-88q0 -35 31 -35v-8q-35 2 -76 2zM272 1233q47 0 47 70q0 63 -36 63q-7 0 -11 -2v-131z" />
<glyph unicode="&#xaf;" horiz-adv-x="768" d="M66 1245v15h636v-15h-636z" />
<glyph unicode="&#xb0;" horiz-adv-x="643" d="M63 1225q0 104 76 176t185 72t184.5 -72t75.5 -176q0 -101 -75.5 -172.5t-184.5 -71.5t-185 71.5t-76 172.5zM76 1225q0 -97 72.5 -164.5t175.5 -67.5t175 67.5t72 164.5q0 99 -72 167t-175 68t-175.5 -68t-72.5 -167z" />
<glyph unicode="&#xb1;" horiz-adv-x="903" d="M0 250v12h903v-12h-903zM0 733v15h444v434h15v-434h444v-15h-444v-438h-15v438h-444z" />
<glyph unicode="&#xb4;" horiz-adv-x="555" d="M70 1114l270 422q67 0 106 -37t39 -90q0 -67 -60.5 -129.5t-152 -105.5t-198.5 -66z" />
<glyph unicode="&#xb6;" horiz-adv-x="1124" d="M39 -190q0 69 47.5 104t112.5 35q31 0 63 -9t47 -22q-30 -62 -30 -133q0 -62 26.5 -107t75.5 -45q69 0 121.5 45.5t81.5 122t43 163t14 181.5v437h-106q-486 0 -486 424q0 99 27 174t72 122.5t111.5 77.5t138.5 42t159 12q33 0 118 -3.5t150 -3.5q77 0 141.5 1.5 t90.5 3.5l26 2v-11q-76 0 -114.5 -66.5t-38.5 -189.5v-837q0 -709 -549 -709q-99 0 -173 18t-121.5 61.5t-47.5 109.5zM483 -354q137 41 216 188.5t79 390.5v1192h-121v-1235q0 -194 -43 -335.5t-131 -200.5z" />
<glyph unicode="&#xb7;" horiz-adv-x="591" d="M76 735q0 95 57 156t162 61t163 -61t58 -156q0 -96 -58 -155.5t-163 -59.5t-162 59.5t-57 155.5z" />
<glyph unicode="&#xb8;" horiz-adv-x="681" d="M104 -406q0 38 30.5 63.5t74.5 25.5q41 0 76 -21q-25 -35 -25 -80q0 -86 62 -86q30 0 49.5 27.5t19.5 66.5q0 28 -15.5 51.5t-37.5 40.5t-44.5 35.5t-38 46t-15.5 62.5q0 30 18 58.5t44 48t52 35t44 22.5l18 8h12q-9 -5 -22.5 -15t-35.5 -36t-22 -49q0 -24 23.5 -44 t56.5 -35.5t66.5 -34t57 -49t23.5 -71.5q0 -74 -83 -125t-191 -51q-90 0 -143.5 27t-53.5 79z" />
<glyph unicode="&#xbb;" horiz-adv-x="903" d="M57 322l158 397l-158 391l6 10l404 -393v-18l-404 -398zM330 238l221 481l-221 481l6 10l502 -481v-22l-502 -480z" />
<glyph unicode="&#xbf;" horiz-adv-x="1042" d="M61 360q0 84 30 150t78 106.5t105.5 71.5t115.5 52t106 41t78 45.5t30 58.5q0 36 -33 69l9 7q56 -36 102.5 -104.5t46.5 -143.5q0 -55 -18 -100.5t-46.5 -78.5t-63.5 -63l-70 -60t-63.5 -63t-46.5 -78.5t-18 -99.5q0 -89 65 -144t146 -55q56 0 83.5 30t27.5 71 q0 37 -19.5 68t-54.5 48q-4 20 -4 31q0 57 43 102.5t117 45.5q85 0 130.5 -54t45.5 -120q0 -103 -86 -167.5t-250 -64.5q-126 0 -237.5 34t-186.5 90t-118.5 128t-43.5 147zM352 1257q0 96 58 156t163 60t162.5 -60t57.5 -156q0 -95 -57.5 -156t-162.5 -61t-163 61t-58 156z " />
<glyph unicode="&#xc0;" horiz-adv-x="1615" d="M18 0v10q28 0 54.5 15t50 46t40 57.5t36.5 73t27.5 66.5t23.5 62l389 1040l352 107l445 -1325q49 -142 161 -142v-10q-113 6 -395 6q-122 0 -217.5 -1.5t-130.5 -2.5l-35 -2v10q105 0 105 111q0 23 -13 86l-16 63q27 27 41 75.5t14 94.5q0 87 -44 161t-130 110l-162 553 l-297 -789q96 232 328 232q127 0 216 -77.5t89 -189.5q0 -80 -63 -145.5t-164 -65.5q-72 0 -122 28t-77 69q38 32 68.5 86.5t30.5 111.5q0 62 -26 97.5t-79 35.5t-102.5 -51t-81 -117.5t-53.5 -142.5q-25 -86 -25 -156q0 -180 199 -180v-10q-111 6 -248 6zM565 1837 q0 53 39.5 90t106.5 37l270 -422l-4 -6q-107 23 -198.5 66t-152.5 105.5t-61 129.5z" />
<glyph unicode="&#xc1;" horiz-adv-x="1615" d="M18 0v10q28 0 54.5 15t50 46t40 57.5t36.5 73t27.5 66.5t23.5 62l389 1040l352 107l445 -1325q49 -142 161 -142v-10q-113 6 -395 6q-122 0 -217.5 -1.5t-130.5 -2.5l-35 -2v10q105 0 105 111q0 23 -13 86l-16 63q27 27 41 75.5t14 94.5q0 87 -44 161t-130 110l-162 553 l-297 -789q96 232 328 232q127 0 216 -77.5t89 -189.5q0 -80 -63 -145.5t-164 -65.5q-72 0 -122 28t-77 69q38 32 68.5 86.5t30.5 111.5q0 62 -26 97.5t-79 35.5t-102.5 -51t-81 -117.5t-53.5 -142.5q-25 -86 -25 -156q0 -180 199 -180v-10q-111 6 -248 6zM645 1542l270 422 q67 0 106.5 -37t39.5 -90q0 -67 -61 -129.5t-152.5 -105.5t-198.5 -66z" />
<glyph unicode="&#xc2;" horiz-adv-x="1615" d="M18 0v10q28 0 54.5 15t50 46t40 57.5t36.5 73t27.5 66.5t23.5 62l389 1040l352 107l445 -1325q49 -142 161 -142v-10q-113 6 -395 6q-122 0 -217.5 -1.5t-130.5 -2.5l-35 -2v10q105 0 105 111q0 23 -13 86l-16 63q27 27 41 75.5t14 94.5q0 87 -44 161t-130 110l-162 553 l-297 -789q96 232 328 232q127 0 216 -77.5t89 -189.5q0 -80 -63 -145.5t-164 -65.5q-72 0 -122 28t-77 69q38 32 68.5 86.5t30.5 111.5q0 62 -26 97.5t-79 35.5t-102.5 -51t-81 -117.5t-53.5 -142.5q-25 -86 -25 -156q0 -180 199 -180v-10q-111 6 -248 6zM469 1524l295 303 h127l295 -303l-2 -8l-357 112l-356 -112z" />
<glyph unicode="&#xc3;" horiz-adv-x="1615" d="M18 0v10q28 0 54.5 15t50 46t40 57.5t36.5 73t27.5 66.5t23.5 62l389 1040l352 107l445 -1325q49 -142 161 -142v-10q-113 6 -395 6q-122 0 -217.5 -1.5t-130.5 -2.5l-35 -2v10q105 0 105 111q0 23 -13 86l-16 63q27 27 41 75.5t14 94.5q0 87 -44 161t-130 110l-162 553 l-297 -789q96 232 328 232q127 0 216 -77.5t89 -189.5q0 -80 -63 -145.5t-164 -65.5q-72 0 -122 28t-77 69q38 32 68.5 86.5t30.5 111.5q0 62 -26 97.5t-79 35.5t-102.5 -51t-81 -117.5t-53.5 -142.5q-25 -86 -25 -156q0 -180 199 -180v-10q-111 6 -248 6zM449 1540 q15 303 243 303q60 0 116 -16.5t92.5 -36.5t84 -36.5t92.5 -16.5q110 0 127 104l8 -2q-15 -303 -243 -303q-60 0 -116 16.5t-92 36.5t-84 36.5t-93 16.5q-47 0 -83 -23.5t-44 -80.5z" />
<glyph unicode="&#xc4;" horiz-adv-x="1615" d="M18 0v10q28 0 54.5 15t50 46t40 57.5t36.5 73t27.5 66.5t23.5 62l389 1040l352 107l445 -1325q49 -142 161 -142v-10q-113 6 -395 6q-122 0 -217.5 -1.5t-130.5 -2.5l-35 -2v10q105 0 105 111q0 23 -13 86l-16 63q27 27 41 75.5t14 94.5q0 87 -44 161t-130 110l-162 553 l-297 -789q96 232 328 232q127 0 216 -77.5t89 -189.5q0 -80 -63 -145.5t-164 -65.5q-72 0 -122 28t-77 69q38 32 68.5 86.5t30.5 111.5q0 62 -26 97.5t-79 35.5t-102.5 -51t-81 -117.5t-53.5 -142.5q-25 -86 -25 -156q0 -180 199 -180v-10q-111 6 -248 6zM401 1710 q0 76 46 126t131 50t131.5 -50t46.5 -126q0 -77 -46 -125.5t-132 -48.5t-131.5 48.5t-45.5 125.5zM860 1710q0 76 45.5 126t128.5 50q88 0 134 -49.5t46 -126.5t-46 -125.5t-134 -48.5q-83 0 -128.5 48.5t-45.5 125.5z" />
<glyph unicode="&#xc5;" horiz-adv-x="1615" d="M18 0v10q28 0 54.5 15t50 46t40 57.5t36.5 73t27.5 66.5t23.5 62l389 1040l352 107l445 -1325q49 -142 161 -142v-10q-113 6 -395 6q-122 0 -217.5 -1.5t-130.5 -2.5l-35 -2v10q105 0 105 111q0 23 -13 86l-16 63q27 27 41 75.5t14 94.5q0 87 -44 161t-130 110l-162 553 l-297 -789q96 232 328 232q127 0 216 -77.5t89 -189.5q0 -80 -63 -145.5t-164 -65.5q-72 0 -122 28t-77 69q38 32 68.5 86.5t30.5 111.5q0 62 -26 97.5t-79 35.5t-102.5 -51t-81 -117.5t-53.5 -142.5q-25 -86 -25 -156q0 -180 199 -180v-10q-111 6 -248 6zM584 1724 q0 87 62 145t173 58q87 0 147 -50t60 -138q0 -87 -62 -145t-173 -58q-87 0 -147 50t-60 138zM717 1739q0 -89 26.5 -142t69.5 -53q80 0 80 180q0 89 -26.5 142t-69.5 53q-80 0 -80 -180z" />
<glyph unicode="&#xc6;" horiz-adv-x="2172" d="M4 0v10q151 0 344 295l629 969q-4 84 -40 116.5t-112 32.5v11q181 -7 394 -7q94 0 379.5 3t453.5 4v-439h-10q-23 197 -154 309.5t-321 112.5q-67 0 -109 -12v-633h117q111 0 185.5 74t74.5 213h10v-645h-10q0 64 -18 123.5t-52.5 109.5t-93 79.5t-133.5 29.5h-80v-563 q0 -104 36 -141.5t118 -37.5q81 0 162 38.5t150.5 107t122.5 173t75 228.5h14l-94 -561q-175 1 -449.5 3.5t-373.5 2.5l-394 -6v10q79 0 115 45t37 158v8q43 12 74.5 38.5t47 59.5t22 60t7.5 53q-3 -78 -66 -140.5t-161 -62.5q-72 0 -122 28t-77 69q38 32 68.5 86.5 t30.5 111.5q0 60 -30 95.5t-85 35.5q-24 0 -46 -8t-44.5 -27.5t-40 -37.5t-41.5 -52.5t-39 -57t-42.5 -66.5t-41.5 -66q-45 -70 -63.5 -112.5t-18.5 -82.5q0 -135 201 -135v-10q-182 6 -317 6zM565 608q45 48 113 73.5t145 25.5q123 0 212 -74t93 -182q-2 82 -33.5 139 t-115.5 108v551z" />
<glyph unicode="&#xc7;" horiz-adv-x="1519" d="M49 684q0 161 53 302.5t153 250.5t256.5 172.5t350.5 63.5q147 0 262.5 -29t182.5 -77t101 -103.5t34 -114.5q0 -95 -59.5 -159t-172.5 -64q-71 0 -128 33t-89 75q41 45 64.5 106t23.5 120q0 86 -49 143t-145 57q-291 0 -291 -721q0 -762 305 -762q73 0 153 38t155 107.5 t138.5 179t98.5 241.5h12l-63 -498q-117 0 -265.5 -39t-265.5 -43q-61 -21 -61 -65q0 -24 23.5 -44t56.5 -35.5t66.5 -34t57 -49t23.5 -71.5q0 -74 -83 -125t-191 -51q-90 0 -143.5 27t-53.5 79q0 38 30.5 63.5t74.5 25.5q40 0 75 -21q-24 -33 -24 -80q0 -86 61 -86 q30 0 50 27.5t20 66.5q0 28 -15.5 51.5t-38 40.5t-45 35.5t-38 46t-15.5 62.5q0 54 42.5 87t94.5 48h-26q-177 0 -320 53.5t-238 149t-146.5 228.5t-51.5 292z" />
<glyph unicode="&#xc8;" horiz-adv-x="1388" d="M41 0v10q77 0 115.5 67t38.5 189v975q0 105 -36 143.5t-118 38.5v11q180 -7 393 -7q94 0 380.5 3t453.5 4v-439h-11q-23 197 -154 309.5t-321 112.5q-66 0 -108 -12v-633h117q111 0 185.5 74t74.5 213h10v-645h-10q0 64 -18 123.5t-52.5 109.5t-93 79.5t-133.5 29.5h-80 v-563q0 -104 35.5 -141.5t117.5 -37.5q81 0 162 38.5t150.5 107t122.5 173t75 228.5h15l-95 -561q-175 1 -449 3.5t-374 2.5zM485 1837q0 53 39.5 90t106.5 37l270 -422l-4 -6q-107 23 -198.5 66t-152.5 105.5t-61 129.5z" />
<glyph unicode="&#xc9;" horiz-adv-x="1388" d="M41 0v10q77 0 115.5 67t38.5 189v975q0 105 -36 143.5t-118 38.5v11q180 -7 393 -7q94 0 380.5 3t453.5 4v-439h-11q-23 197 -154 309.5t-321 112.5q-66 0 -108 -12v-633h117q111 0 185.5 74t74.5 213h10v-645h-10q0 64 -18 123.5t-52.5 109.5t-93 79.5t-133.5 29.5h-80 v-563q0 -104 35.5 -141.5t117.5 -37.5q81 0 162 38.5t150.5 107t122.5 173t75 228.5h15l-95 -561q-175 1 -449 3.5t-374 2.5zM563 1542l271 422q67 0 106 -37t39 -90q0 -67 -61 -129.5t-152.5 -105.5t-198.5 -66z" />
<glyph unicode="&#xca;" horiz-adv-x="1388" d="M41 0v10q77 0 115.5 67t38.5 189v975q0 105 -36 143.5t-118 38.5v11q180 -7 393 -7q94 0 380.5 3t453.5 4v-439h-11q-23 197 -154 309.5t-321 112.5q-66 0 -108 -12v-633h117q111 0 185.5 74t74.5 213h10v-645h-10q0 64 -18 123.5t-52.5 109.5t-93 79.5t-133.5 29.5h-80 v-563q0 -104 35.5 -141.5t117.5 -37.5q81 0 162 38.5t150.5 107t122.5 173t75 228.5h15l-95 -561q-175 1 -449 3.5t-374 2.5zM344 1524l295 303h127l295 -303l-2 -8l-357 112l-356 -112z" />
<glyph unicode="&#xcb;" horiz-adv-x="1388" d="M41 0v10q77 0 115.5 67t38.5 189v975q0 105 -36 143.5t-118 38.5v11q180 -7 393 -7q94 0 380.5 3t453.5 4v-439h-11q-23 197 -154 309.5t-321 112.5q-66 0 -108 -12v-633h117q111 0 185.5 74t74.5 213h10v-645h-10q0 64 -18 123.5t-52.5 109.5t-93 79.5t-133.5 29.5h-80 v-563q0 -104 35.5 -141.5t117.5 -37.5q81 0 162 38.5t150.5 107t122.5 173t75 228.5h15l-95 -561q-175 1 -449 3.5t-374 2.5zM287 1710q0 76 45.5 126t130.5 50t131.5 -50t46.5 -126q0 -77 -46 -125.5t-132 -48.5t-131 48.5t-45 125.5zM745 1710q0 76 46 126t129 50 q88 0 134 -49.5t46 -126.5t-46 -125.5t-134 -48.5q-83 0 -129 48.5t-46 125.5z" />
<glyph unicode="&#xcc;" horiz-adv-x="868" d="M41 0v10q77 0 115.5 67t38.5 189v975q0 105 -36 143.5t-118 38.5v11q180 -7 393 -7q95 0 193 1.5t149 3.5l51 2v-11q-76 0 -114.5 -66.5t-38.5 -189.5v-974q0 -105 35.5 -144t117.5 -39v-10q-180 6 -393 6zM225 1837q0 53 39.5 90t106.5 37l270 -422l-4 -6 q-107 23 -198.5 66t-152.5 105.5t-61 129.5z" />
<glyph unicode="&#xcd;" horiz-adv-x="868" d="M41 0v10q77 0 115.5 67t38.5 189v975q0 105 -36 143.5t-118 38.5v11q180 -7 393 -7q95 0 193 1.5t149 3.5l51 2v-11q-76 0 -114.5 -66.5t-38.5 -189.5v-974q0 -105 35.5 -144t117.5 -39v-10q-180 6 -393 6zM250 1542l270 422q67 0 106.5 -37t39.5 -90q0 -67 -61 -129.5 t-152.5 -105.5t-198.5 -66z" />
<glyph unicode="&#xce;" horiz-adv-x="868" d="M41 0v10q77 0 115.5 67t38.5 189v975q0 105 -36 143.5t-118 38.5v11q180 -7 393 -7q95 0 193 1.5t149 3.5l51 2v-11q-76 0 -114.5 -66.5t-38.5 -189.5v-974q0 -105 35.5 -144t117.5 -39v-10q-180 6 -393 6zM84 1524l295 303h127l295 -303l-2 -8l-357 112l-356 -112z" />
<glyph unicode="&#xcf;" horiz-adv-x="868" d="M29 1710q0 76 45.5 126t130.5 50t131.5 -50t46.5 -126q0 -77 -46 -125.5t-132 -48.5t-131 48.5t-45 125.5zM41 0v10q77 0 115.5 67t38.5 189v975q0 105 -36 143.5t-118 38.5v11q180 -7 393 -7q95 0 193 1.5t149 3.5l51 2v-11q-76 0 -114.5 -66.5t-38.5 -189.5v-974 q0 -105 35.5 -144t117.5 -39v-10q-180 6 -393 6zM487 1710q0 76 46 126t129 50q88 0 134 -49.5t46 -126.5t-46 -125.5t-134 -48.5q-83 0 -129 48.5t-46 125.5z" />
<glyph unicode="&#xd0;" horiz-adv-x="1675" d="M41 0v10q77 0 115.5 67t38.5 189v459h-146v16h146v500q0 105 -36 143.5t-118 38.5v11q180 -7 393 -7q49 0 180 3.5t197 3.5q239 0 422.5 -81t288 -236.5t104.5 -364.5q0 -358 -223 -574.5t-594 -216.5q-37 0 -69.5 1.5t-83.5 7t-91.5 16t-85.5 30t-75 46.5t-50 69t-20 94 q0 -161 127 -221zM334 231q2 79 59 140t156 61q66 0 119.5 -26.5t87.5 -65.5q-35 -23 -69 -80t-34 -119q0 -78 36.5 -123t103.5 -45q62 0 117.5 44t101 129t72 226.5t26.5 321.5q0 355 -94.5 541t-282.5 186q-31 0 -59 -8v-672h252v-16h-252v-293q-54 25 -121 25 q-93 0 -155 -65t-64 -161z" />
<glyph unicode="&#xd1;" horiz-adv-x="1554" d="M31 0v10q153 0 153 297v934q0 105 -35.5 143.5t-117.5 38.5v11q314 -7 694 -7q7 -67 94 -198l527 -783v680q0 69 -15 121.5t-40.5 85.5t-62.5 53.5t-77 28.5t-88 8v11q219 -7 291 -7l184 7v-11q-76 0 -127 -72.5t-51 -224.5v-1126l-316 -37l-845 1307v-963 q0 -159 73.5 -228t225.5 -69v-10q-221 6 -293 6zM432 1540q7 152 70 227.5t174 75.5q60 0 116 -16.5t92.5 -36.5t84 -36.5t92.5 -16.5q110 0 127 104l8 -2q-7 -152 -70 -227.5t-174 -75.5q-60 0 -116 16.5t-92 36.5t-84 36.5t-93 16.5q-47 0 -83 -23.5t-44 -80.5z" />
<glyph unicode="&#xd2;" horiz-adv-x="1628" d="M49 684q0 216 90 377t228 242q-27 -62 -27 -152q0 -97 68.5 -153t158.5 -56q21 0 33 2q-6 -105 -6 -205q0 -341 73 -553.5t177 -212.5q95 0 143.5 168.5t48.5 552.5q0 347 -69 556.5t-179 209.5q-64 0 -97.5 -51.5t-33.5 -122.5q0 -67 32.5 -122.5t76.5 -92.5 q-77 -102 -207 -102q-103 0 -161 52.5t-58 129.5q0 68 32 124.5t82.5 92t114.5 60t125.5 35t118.5 10.5q178 0 322.5 -52t241.5 -146.5t149.5 -228t52.5 -294.5q0 -220 -92 -398.5t-270.5 -285.5t-413.5 -107q-355 0 -554.5 197t-199.5 526zM606 1837q0 53 39.5 90t106.5 37 l270 -422l-4 -6q-107 23 -198.5 66t-152.5 105.5t-61 129.5z" />
<glyph unicode="&#xd3;" horiz-adv-x="1628" d="M49 684q0 216 90 377t228 242q-27 -62 -27 -152q0 -97 68.5 -153t158.5 -56q21 0 33 2q-6 -105 -6 -205q0 -341 73 -553.5t177 -212.5q95 0 143.5 168.5t48.5 552.5q0 347 -69 556.5t-179 209.5q-64 0 -97.5 -51.5t-33.5 -122.5q0 -67 32.5 -122.5t76.5 -92.5 q-77 -102 -207 -102q-103 0 -161 52.5t-58 129.5q0 68 32 124.5t82.5 92t114.5 60t125.5 35t118.5 10.5q178 0 322.5 -52t241.5 -146.5t149.5 -228t52.5 -294.5q0 -220 -92 -398.5t-270.5 -285.5t-413.5 -107q-355 0 -554.5 197t-199.5 526zM590 1542l270 422 q67 0 106.5 -37t39.5 -90q0 -67 -61 -129.5t-152.5 -105.5t-198.5 -66z" />
<glyph unicode="&#xd4;" horiz-adv-x="1628" d="M49 684q0 216 90 377t228 242q-27 -62 -27 -152q0 -97 68.5 -153t158.5 -56q21 0 33 2q-6 -105 -6 -205q0 -341 73 -553.5t177 -212.5q95 0 143.5 168.5t48.5 552.5q0 347 -69 556.5t-179 209.5q-64 0 -97.5 -51.5t-33.5 -122.5q0 -67 32.5 -122.5t76.5 -92.5 q-77 -102 -207 -102q-103 0 -161 52.5t-58 129.5q0 68 32 124.5t82.5 92t114.5 60t125.5 35t118.5 10.5q178 0 322.5 -52t241.5 -146.5t149.5 -228t52.5 -294.5q0 -220 -92 -398.5t-270.5 -285.5t-413.5 -107q-355 0 -554.5 197t-199.5 526zM453 1524l295 303h126l295 -303 l-2 -8l-356 112l-356 -112z" />
<glyph unicode="&#xd5;" horiz-adv-x="1628" d="M49 684q0 216 90 377t228 242q-27 -62 -27 -152q0 -97 68.5 -153t158.5 -56q21 0 33 2q-6 -105 -6 -205q0 -341 73 -553.5t177 -212.5q95 0 143.5 168.5t48.5 552.5q0 347 -69 556.5t-179 209.5q-64 0 -97.5 -51.5t-33.5 -122.5q0 -67 32.5 -122.5t76.5 -92.5 q-77 -102 -207 -102q-103 0 -161 52.5t-58 129.5q0 68 32 124.5t82.5 92t114.5 60t125.5 35t118.5 10.5q178 0 322.5 -52t241.5 -146.5t149.5 -228t52.5 -294.5q0 -220 -92 -398.5t-270.5 -285.5t-413.5 -107q-355 0 -554.5 197t-199.5 526zM432 1540q7 152 70 227.5 t174 75.5q60 0 116 -16.5t92.5 -36.5t84 -36.5t92.5 -16.5q110 0 127 104l8 -2q-7 -152 -70 -227.5t-174 -75.5q-60 0 -116 16.5t-92 36.5t-84 36.5t-93 16.5q-47 0 -83 -23.5t-44 -80.5z" />
<glyph unicode="&#xd6;" horiz-adv-x="1628" d="M49 684q0 216 90 377t228 242q-27 -62 -27 -152q0 -97 68.5 -153t158.5 -56q21 0 33 2q-6 -105 -6 -205q0 -341 73 -553.5t177 -212.5q95 0 143.5 168.5t48.5 552.5q0 347 -69 556.5t-179 209.5q-64 0 -97.5 -51.5t-33.5 -122.5q0 -67 32.5 -122.5t76.5 -92.5 q-77 -102 -207 -102q-103 0 -161 52.5t-58 129.5q0 68 32 124.5t82.5 92t114.5 60t125.5 35t118.5 10.5q178 0 322.5 -52t241.5 -146.5t149.5 -228t52.5 -294.5q0 -220 -92 -398.5t-270.5 -285.5t-413.5 -107q-355 0 -554.5 197t-199.5 526zM408 1710q0 76 45.5 126 t130.5 50t131.5 -50t46.5 -126q0 -77 -46 -125.5t-132 -48.5t-131 48.5t-45 125.5zM866 1710q0 76 45.5 126t128.5 50q88 0 134.5 -50t46.5 -126q0 -77 -46 -125.5t-135 -48.5q-83 0 -128.5 48.5t-45.5 125.5z" />
<glyph unicode="&#xd7;" horiz-adv-x="651" d="M4 410l311 311l-311 311l10 10l312 -311l311 311l10 -10l-311 -311l311 -311l-10 -11l-311 312l-312 -312z" />
<glyph unicode="&#xd8;" horiz-adv-x="1628" d="M49 684q0 216 90 377t228 242q-27 -62 -27 -152q0 -97 68.5 -153t158.5 -56q21 0 33 2q-6 -105 -6 -205q0 -157 16 -301l402 615q-29 192 -88.5 299.5t-135.5 107.5q-64 0 -97.5 -51.5t-33.5 -122.5q0 -67 32.5 -122.5t76.5 -92.5q-77 -102 -207 -102q-103 0 -161 52.5 t-58 129.5q0 68 32 124.5t82.5 92t114.5 60t125.5 35t118.5 10.5q233 0 414 -93l102 156h21l-109 -164q163 -91 250.5 -250.5t87.5 -369.5q0 -220 -92 -398.5t-270.5 -285.5t-413.5 -107q-245 0 -424 98l-80 -122h-20l86 131q-154 92 -235 250.5t-81 365.5zM614 416 q29 -205 91.5 -324t138.5 -119q95 0 143.5 168.5t48.5 552.5q0 173 -20 336z" />
<glyph unicode="&#xd9;" horiz-adv-x="1546" d="M41 1423v11q180 -7 393 -7q95 0 193 1.5t149 3.5l51 2v-11q-76 0 -114.5 -66.5t-38.5 -189.5v-712q-114 4 -180 -61.5t-66 -168.5q0 -83 40 -144.5t103 -90.5q-376 53 -376 475v776q0 105 -36 143.5t-118 38.5zM428 225q0 80 61.5 143.5t167.5 63.5q59 0 108.5 -25 t72.5 -57q-86 -77 -86 -188q0 -77 53.5 -124.5t140.5 -47.5q101 0 176.5 29.5t117.5 74t67.5 110.5t33 125.5t7.5 131.5v665q0 157 -70.5 227t-206.5 70v11q213 -7 285 -7l184 7v-11q-76 0 -127 -72.5t-51 -224.5v-661q0 -150 -32 -249.5t-101.5 -155t-162.5 -77.5t-230 -22 q-177 0 -292.5 69.5t-115.5 194.5zM682 1837q0 53 39 90t106 37l271 -422l-4 -6q-107 23 -198.5 66t-152.5 105.5t-61 129.5z" />
<glyph unicode="&#xda;" horiz-adv-x="1546" d="M41 1423v11q180 -7 393 -7q95 0 193 1.5t149 3.5l51 2v-11q-76 0 -114.5 -66.5t-38.5 -189.5v-712q-114 4 -180 -61.5t-66 -168.5q0 -83 40 -144.5t103 -90.5q-376 53 -376 475v776q0 105 -36 143.5t-118 38.5zM428 225q0 80 61.5 143.5t167.5 63.5q59 0 108.5 -25 t72.5 -57q-86 -77 -86 -188q0 -77 53.5 -124.5t140.5 -47.5q101 0 176.5 29.5t117.5 74t67.5 110.5t33 125.5t7.5 131.5v665q0 157 -70.5 227t-206.5 70v11q213 -7 285 -7l184 7v-11q-76 0 -127 -72.5t-51 -224.5v-661q0 -150 -32 -249.5t-101.5 -155t-162.5 -77.5t-230 -22 q-177 0 -292.5 69.5t-115.5 194.5zM786 1540l271 422q67 0 106 -37t39 -90q0 -67 -60.5 -129.5t-152 -105.5t-198.5 -66z" />
<glyph unicode="&#xdb;" horiz-adv-x="1546" d="M41 1423v11q180 -7 393 -7q95 0 193 1.5t149 3.5l51 2v-11q-76 0 -114.5 -66.5t-38.5 -189.5v-712q-114 4 -180 -61.5t-66 -168.5q0 -83 40 -144.5t103 -90.5q-376 53 -376 475v776q0 105 -36 143.5t-118 38.5zM428 225q0 80 61.5 143.5t167.5 63.5q59 0 108.5 -25 t72.5 -57q-86 -77 -86 -188q0 -77 53.5 -124.5t140.5 -47.5q101 0 176.5 29.5t117.5 74t67.5 110.5t33 125.5t7.5 131.5v665q0 157 -70.5 227t-206.5 70v11q213 -7 285 -7l184 7v-11q-76 0 -127 -72.5t-51 -224.5v-661q0 -150 -32 -249.5t-101.5 -155t-162.5 -77.5t-230 -22 q-177 0 -292.5 69.5t-115.5 194.5zM557 1522l295 303h127l295 -303l-2 -9l-357 113l-356 -113z" />
<glyph unicode="&#xdc;" horiz-adv-x="1546" d="M41 1423v11q180 -7 393 -7q95 0 193 1.5t149 3.5l51 2v-11q-76 0 -114.5 -66.5t-38.5 -189.5v-712q-114 4 -180 -61.5t-66 -168.5q0 -83 40 -144.5t103 -90.5q-376 53 -376 475v776q0 105 -36 143.5t-118 38.5zM428 225q0 80 61.5 143.5t167.5 63.5q59 0 108.5 -25 t72.5 -57q-86 -77 -86 -188q0 -77 53.5 -124.5t140.5 -47.5q101 0 176.5 29.5t117.5 74t67.5 110.5t33 125.5t7.5 131.5v665q0 157 -70.5 227t-206.5 70v11q213 -7 285 -7l184 7v-11q-76 0 -127 -72.5t-51 -224.5v-661q0 -150 -32 -249.5t-101.5 -155t-162.5 -77.5t-230 -22 q-177 0 -292.5 69.5t-115.5 194.5zM512 1710q0 76 45.5 126t130.5 50t131.5 -50t46.5 -126q0 -77 -46 -125.5t-132 -48.5t-131 48.5t-45 125.5zM971 1710q0 76 45.5 126t128.5 50q88 0 134 -49.5t46 -126.5t-46 -125.5t-134 -48.5q-83 0 -128.5 48.5t-45.5 125.5z" />
<glyph unicode="&#xdd;" horiz-adv-x="1540" d="M33 1423v11q167 -7 409 -7q120 0 221 1.5t142 3.5l41 2v-11q-49 0 -79 -25.5t-30 -64.5q0 -52 49 -137l220 -395l137 256q90 162 90 243q0 123 -184 123v11q94 -7 260 -7q54 0 103.5 1.5t71.5 3.5l23 2v-11q-67 0 -144 -62.5t-153 -203.5l-192 -360v-604 q0 -105 35.5 -144t117.5 -39v-10q-180 6 -393 6l-393 -6v10q77 0 115.5 67t38.5 189v486l-346 563q-41 65 -78 86.5t-82 21.5zM788 1542l271 422q67 0 106 -37t39 -90q0 -67 -60.5 -129.5t-152 -105.5t-198.5 -66z" />
<glyph unicode="&#xde;" horiz-adv-x="1454" d="M41 0v10q77 0 115.5 67t38.5 189v975q0 105 -36 143.5t-118 38.5v11q180 -7 393 -7q95 0 193 1.5t149 3.5l51 2v-11q-76 0 -114.5 -66.5t-38.5 -189.5v-24q23 0 81 1t95 1q264 0 412.5 -105.5t148.5 -302.5q0 -196 -157 -311t-463 -115h-117v-118q0 -105 35.5 -144 t117.5 -39v-10q-180 6 -393 6zM674 326q142 0 204 98.5t62 306.5q0 203 -62 300t-204 97v-802z" />
<glyph unicode="&#xf7;" horiz-adv-x="903" d="M0 713v14h903v-14h-903zM360 418q0 41 30 70.5t73 29.5t72.5 -29.5t29.5 -70.5q0 -44 -29.5 -74.5t-72.5 -30.5t-73 30.5t-30 74.5zM360 1024q0 41 30 70.5t73 29.5t72.5 -29.5t29.5 -70.5q0 -44 -29.5 -74t-72.5 -30t-73 30t-30 74z" />
<glyph unicode="&#x100;" horiz-adv-x="1615" d="M18 0v10q28 0 54.5 15t50 46t40 57.5t36.5 73t27.5 66.5t23.5 62l389 1040l352 107l445 -1325q49 -142 161 -142v-10q-113 6 -395 6q-122 0 -217.5 -1.5t-130.5 -2.5l-35 -2v10q105 0 105 111q0 23 -13 86l-16 63q27 27 41 75.5t14 94.5q0 87 -44 161t-130 110l-162 553 l-297 -789q96 232 328 232q127 0 216 -77.5t89 -189.5q0 -80 -63 -145.5t-164 -65.5q-72 0 -122 28t-77 69q38 32 68.5 86.5t30.5 111.5q0 62 -26 97.5t-79 35.5t-102.5 -51t-81 -117.5t-53.5 -142.5q-25 -86 -25 -156q0 -180 199 -180v-10q-111 6 -248 6zM504 1575v14h637 v-14h-637z" />
<glyph unicode="&#x102;" horiz-adv-x="1615" d="M18 0v10q28 0 54.5 15t50 46t40 57.5t36.5 73t27.5 66.5t23.5 62l389 1040l352 107l445 -1325q49 -142 161 -142v-10q-113 6 -395 6q-122 0 -217.5 -1.5t-130.5 -2.5l-35 -2v10q105 0 105 111q0 23 -13 86l-16 63q27 27 41 75.5t14 94.5q0 87 -44 161t-130 110l-162 553 l-297 -789q96 232 328 232q127 0 216 -77.5t89 -189.5q0 -80 -63 -145.5t-164 -65.5q-72 0 -122 28t-77 69q38 32 68.5 86.5t30.5 111.5q0 62 -26 97.5t-79 35.5t-102.5 -51t-81 -117.5t-53.5 -142.5q-25 -86 -25 -156q0 -180 199 -180v-10q-111 6 -248 6zM496 1833h235 q0 -77 56.5 -127.5t140.5 -50.5q172 0 182 178h10q-2 -133 -74.5 -215t-216.5 -82q-166 0 -249.5 75.5t-83.5 221.5z" />
<glyph unicode="&#x104;" horiz-adv-x="1615" d="M18 0v10q28 0 54.5 15t50 46t40 57.5t36.5 73t27.5 66.5t23.5 62l389 1040l352 107l445 -1325q49 -142 161 -142v-10q-58 -71 -90 -155.5t-32 -153.5q0 -67 25 -100t67 -33q48 0 100 20l4 -6q-27 -19 -84.5 -36t-105.5 -17q-129 0 -187.5 50t-58.5 130q0 86 93.5 170.5 t254.5 130.5q-135 6 -381 6q-122 0 -217.5 -1.5t-130.5 -2.5l-35 -2v10q105 0 105 111q0 23 -13 86l-16 63q26 26 39.5 71.5t15.5 90.5q-3 -78 -66 -140.5t-161 -62.5q-72 0 -122 28t-77 69q38 32 68.5 86.5t30.5 111.5q0 62 -26 97.5t-79 35.5t-102.5 -51t-81 -117.5 t-53.5 -142.5q-25 -86 -25 -156q0 -180 199 -180v-10q-111 6 -248 6zM317 475q96 232 328 232q127 0 216 -77.5t89 -189.5q0 87 -44 161t-130 110l-162 553z" />
<glyph unicode="&#x106;" horiz-adv-x="1519" d="M49 684q0 161 53 302.5t153 250.5t256.5 172.5t350.5 63.5q147 0 262.5 -29t182.5 -77t101 -103.5t34 -114.5q0 -95 -59.5 -159t-172.5 -64q-71 0 -128 33t-89 75q41 45 64.5 106t23.5 120q0 86 -49 143t-145 57q-291 0 -291 -721q0 -762 305 -762q73 0 153 38t155 107.5 t138.5 179t98.5 241.5h12l-63 -498q-82 0 -156.5 -13t-124.5 -29t-132 -29t-177 -13q-177 0 -320 53.5t-238 149t-146.5 228.5t-51.5 292zM657 1542l271 422q67 0 106 -37t39 -90q0 -67 -60.5 -129.5t-152 -105.5t-198.5 -66z" />
<glyph unicode="&#x108;" horiz-adv-x="1519" d="M49 684q0 161 53 302.5t153 250.5t256.5 172.5t350.5 63.5q147 0 262.5 -29t182.5 -77t101 -103.5t34 -114.5q0 -95 -59.5 -159t-172.5 -64q-71 0 -128 33t-89 75q41 45 64.5 106t23.5 120q0 86 -49 143t-145 57q-291 0 -291 -721q0 -762 305 -762q73 0 153 38t155 107.5 t138.5 179t98.5 241.5h12l-63 -498q-82 0 -156.5 -13t-124.5 -29t-132 -29t-177 -13q-177 0 -320 53.5t-238 149t-146.5 228.5t-51.5 292zM479 1544l295 303h127l295 -303l-2 -8l-356 113l-357 -113z" />
<glyph unicode="&#x10a;" horiz-adv-x="1519" d="M49 684q0 161 53 302.5t153 250.5t256.5 172.5t350.5 63.5q147 0 262.5 -29t182.5 -77t101 -103.5t34 -114.5q0 -95 -59.5 -159t-172.5 -64q-71 0 -128 33t-89 75q41 45 64.5 106t23.5 120q0 86 -49 143t-145 57q-291 0 -291 -721q0 -762 305 -762q73 0 153 38t155 107.5 t138.5 179t98.5 241.5h12l-63 -498q-82 0 -156.5 -13t-124.5 -29t-132 -29t-177 -13q-177 0 -320 53.5t-238 149t-146.5 228.5t-51.5 292zM668 1735q0 87 52 143.5t148 56.5q99 0 153 -56.5t54 -143.5q0 -88 -54 -143.5t-153 -55.5q-96 0 -148 55.5t-52 143.5z" />
<glyph unicode="&#x10c;" horiz-adv-x="1519" d="M49 684q0 161 53 302.5t153 250.5t256.5 172.5t350.5 63.5q147 0 262.5 -29t182.5 -77t101 -103.5t34 -114.5q0 -95 -59.5 -159t-172.5 -64q-71 0 -128 33t-89 75q41 45 64.5 106t23.5 120q0 86 -49 143t-145 57q-291 0 -291 -721q0 -762 305 -762q73 0 153 38t155 107.5 t138.5 179t98.5 241.5h12l-63 -498q-82 0 -156.5 -13t-124.5 -29t-132 -29t-177 -13q-177 0 -320 53.5t-238 149t-146.5 228.5t-51.5 292zM481 1837l2 8l357 -112l356 112l2 -8l-295 -303h-127z" />
<glyph unicode="&#x10e;" horiz-adv-x="1675" d="M41 0v10q77 0 115.5 67t38.5 189v975q0 105 -36 143.5t-118 38.5v11q180 -7 393 -7q49 0 180 3.5t197 3.5q239 0 422.5 -81t288 -236.5t104.5 -364.5q0 -358 -223 -574.5t-594 -216.5q-37 0 -69.5 1.5t-83.5 7t-91.5 16t-85.5 30t-75 46.5t-50 69t-20 94q0 81 57 144 t158 63q66 0 119.5 -26.5t87.5 -65.5q-35 -23 -69 -80t-34 -119q0 -78 36.5 -123t103.5 -45q62 0 117.5 44t101 129t72 226.5t26.5 321.5q0 355 -94.5 541t-282.5 186q-31 0 -59 -8v-981q-54 25 -121 25q-94 0 -156.5 -67t-62.5 -165q0 -161 127 -221zM424 1839l2 8 l356 -112l357 112l2 -8l-295 -303h-127z" />
<glyph unicode="&#x110;" horiz-adv-x="1675" d="M41 0v10q77 0 115.5 67t38.5 189v459h-146v16h146v500q0 105 -36 143.5t-118 38.5v11q180 -7 393 -7q49 0 180 3.5t197 3.5q239 0 422.5 -81t288 -236.5t104.5 -364.5q0 -358 -223 -574.5t-594 -216.5q-37 0 -69.5 1.5t-83.5 7t-91.5 16t-85.5 30t-75 46.5t-50 69t-20 94 q0 -161 127 -221zM334 231q2 79 59 140t156 61q66 0 119.5 -26.5t87.5 -65.5q-35 -23 -69 -80t-34 -119q0 -78 36.5 -123t103.5 -45q62 0 117.5 44t101 129t72 226.5t26.5 321.5q0 355 -94.5 541t-282.5 186q-31 0 -59 -8v-672h252v-16h-252v-293q-54 25 -121 25 q-93 0 -155 -65t-64 -161z" />
<glyph unicode="&#x112;" horiz-adv-x="1388" d="M41 0v10q77 0 115.5 67t38.5 189v975q0 105 -36 143.5t-118 38.5v11q180 -7 393 -7q94 0 380.5 3t453.5 4v-439h-11q-23 197 -154 309.5t-321 112.5q-66 0 -108 -12v-633h117q111 0 185.5 74t74.5 213h10v-645h-10q0 64 -18 123.5t-52.5 109.5t-93 79.5t-133.5 29.5h-80 v-563q0 -104 35.5 -141.5t117.5 -37.5q81 0 162 38.5t150.5 107t122.5 173t75 228.5h15l-95 -561q-175 1 -449 3.5t-374 2.5zM399 1575v14h637v-14h-637z" />
<glyph unicode="&#x114;" horiz-adv-x="1388" d="M41 0v10q77 0 115.5 67t38.5 189v975q0 105 -36 143.5t-118 38.5v11q180 -7 393 -7q94 0 380.5 3t453.5 4v-439h-11q-23 197 -154 309.5t-321 112.5q-66 0 -108 -12v-633h117q111 0 185.5 74t74.5 213h10v-645h-10q0 64 -18 123.5t-52.5 109.5t-93 79.5t-133.5 29.5h-80 v-563q0 -104 35.5 -141.5t117.5 -37.5q81 0 162 38.5t150.5 107t122.5 173t75 228.5h15l-95 -561q-175 1 -449 3.5t-374 2.5zM412 1833h235q0 -77 56.5 -127.5t140.5 -50.5q172 0 182 178h10q-2 -133 -74.5 -215t-216.5 -82q-166 0 -249.5 75.5t-83.5 221.5z" />
<glyph unicode="&#x116;" horiz-adv-x="1388" d="M41 0v10q77 0 115.5 67t38.5 189v975q0 105 -36 143.5t-118 38.5v11q180 -7 393 -7q94 0 380.5 3t453.5 4v-439h-11q-23 197 -154 309.5t-321 112.5q-66 0 -108 -12v-633h117q111 0 185.5 74t74.5 213h10v-645h-10q0 64 -18 123.5t-52.5 109.5t-93 79.5t-133.5 29.5h-80 v-563q0 -104 35.5 -141.5t117.5 -37.5q81 0 162 38.5t150.5 107t122.5 173t75 228.5h15l-95 -561q-175 1 -449 3.5t-374 2.5zM526 1735q0 87 52.5 143.5t148.5 56.5q99 0 153 -56.5t54 -143.5q0 -88 -54 -143.5t-153 -55.5q-96 0 -148.5 55.5t-52.5 143.5z" />
<glyph unicode="&#x118;" horiz-adv-x="1388" d="M41 0v10q77 0 115.5 67t38.5 189v975q0 105 -36 143.5t-118 38.5v11q180 -7 393 -7q94 0 380.5 3t453.5 4v-439h-11q-23 197 -154 309.5t-321 112.5q-66 0 -108 -12v-633h117q111 0 185.5 74t74.5 213h10v-645h-10q0 64 -18 123.5t-52.5 109.5t-93 79.5t-133.5 29.5h-80 v-563q0 -104 35.5 -141.5t117.5 -37.5q81 0 162 38.5t150.5 107t122.5 173t75 228.5h15l-95 -561q-58 -71 -90 -155.5t-32 -153.5q0 -67 25 -100t67 -33q48 0 100 20l4 -6q-27 -19 -84.5 -36t-105.5 -17q-129 0 -187.5 50t-58.5 130q0 86 90 169.5t248 131.5 q-164 1 -433 3.5t-366 2.5z" />
<glyph unicode="&#x11a;" horiz-adv-x="1388" d="M41 0v10q77 0 115.5 67t38.5 189v975q0 105 -36 143.5t-118 38.5v11q180 -7 393 -7q94 0 380.5 3t453.5 4v-439h-11q-23 197 -154 309.5t-321 112.5q-66 0 -108 -12v-633h117q111 0 185.5 74t74.5 213h10v-645h-10q0 64 -18 123.5t-52.5 109.5t-93 79.5t-133.5 29.5h-80 v-563q0 -104 35.5 -141.5t117.5 -37.5q81 0 162 38.5t150.5 107t122.5 173t75 228.5h15l-95 -561q-175 1 -449 3.5t-374 2.5zM354 1839l2 8l357 -112l356 112l2 -8l-295 -303h-127z" />
<glyph unicode="&#x11c;" horiz-adv-x="1714" d="M49 684q0 158 60.5 302t166 251.5t258.5 171.5t328 64q146 0 262 -31t183 -80t101 -104t34 -109q0 -95 -59.5 -159t-172.5 -64q-71 0 -128 33t-89 75q41 45 64.5 106t23.5 120q0 86 -49 143t-145 57q-49 0 -87.5 -14.5t-78 -60.5t-66 -122.5t-43 -209.5t-16.5 -314 q0 -764 305 -764q78 0 113 40.5t35 131.5v351q0 105 -36 143.5t-118 38.5v10h778v-10q-76 0 -114.5 -66.5t-38.5 -189.5v-379q-113 0 -204.5 -13t-145 -29t-149 -29t-216.5 -13q-177 0 -320 53.5t-238 149t-146.5 228.5t-51.5 292zM516 1544l295 303h127l295 -303l-2 -8 l-357 113l-356 -113z" />
<glyph unicode="&#x11e;" horiz-adv-x="1714" d="M49 684q0 158 60.5 302t166 251.5t258.5 171.5t328 64q146 0 262 -31t183 -80t101 -104t34 -109q0 -95 -59.5 -159t-172.5 -64q-71 0 -128 33t-89 75q41 45 64.5 106t23.5 120q0 86 -49 143t-145 57q-49 0 -87.5 -14.5t-78 -60.5t-66 -122.5t-43 -209.5t-16.5 -314 q0 -764 305 -764q78 0 113 40.5t35 131.5v351q0 105 -36 143.5t-118 38.5v10h778v-10q-76 0 -114.5 -66.5t-38.5 -189.5v-379q-113 0 -204.5 -13t-145 -29t-149 -29t-216.5 -13q-177 0 -320 53.5t-238 149t-146.5 228.5t-51.5 292zM561 1833h236q0 -77 56 -127.5t140 -50.5 q173 0 183 178h10q-2 -133 -74.5 -215t-216.5 -82q-166 0 -250 75.5t-84 221.5z" />
<glyph unicode="&#x120;" horiz-adv-x="1714" d="M49 684q0 158 60.5 302t166 251.5t258.5 171.5t328 64q146 0 262 -31t183 -80t101 -104t34 -109q0 -95 -59.5 -159t-172.5 -64q-71 0 -128 33t-89 75q41 45 64.5 106t23.5 120q0 86 -49 143t-145 57q-49 0 -87.5 -14.5t-78 -60.5t-66 -122.5t-43 -209.5t-16.5 -314 q0 -764 305 -764q78 0 113 40.5t35 131.5v351q0 105 -36 143.5t-118 38.5v10h778v-10q-76 0 -114.5 -66.5t-38.5 -189.5v-379q-113 0 -204.5 -13t-145 -29t-149 -29t-216.5 -13q-177 0 -320 53.5t-238 149t-146.5 228.5t-51.5 292zM668 1735q0 87 52 143.5t148 56.5 q99 0 153 -56.5t54 -143.5q0 -88 -54 -143.5t-153 -55.5q-96 0 -148 55.5t-52 143.5z" />
<glyph unicode="&#x122;" horiz-adv-x="1714" d="M49 684q0 158 60.5 302t166 251.5t258.5 171.5t328 64q146 0 262 -31t183 -80t101 -104t34 -109q0 -95 -59.5 -159t-172.5 -64q-71 0 -128 33t-89 75q41 45 64.5 106t23.5 120q0 86 -49 143t-145 57q-49 0 -87.5 -14.5t-78 -60.5t-66 -122.5t-43 -209.5t-16.5 -314 q0 -764 305 -764q78 0 113 40.5t35 131.5v351q0 105 -36 143.5t-118 38.5v10h778v-10q-76 0 -114.5 -66.5t-38.5 -189.5v-379q-113 0 -204.5 -13t-145 -29t-149 -29t-216.5 -13q-177 0 -320 53.5t-238 149t-146.5 228.5t-51.5 292zM707 -264q0 76 50.5 123t125.5 47 q85 0 132.5 -52t47.5 -133q0 -117 -71.5 -193t-205.5 -134l-4 6q64 55 64 135q0 49 -33.5 90.5t-97.5 59.5q-8 32 -8 51z" />
<glyph unicode="&#x124;" horiz-adv-x="1746" d="M41 0v10q77 0 115.5 67t38.5 189v975q0 105 -36 143.5t-118 38.5v11q180 -7 393 -7q95 0 193 1.5t149 3.5l51 2v-11q-76 0 -114.5 -66.5t-38.5 -189.5v-512q9 53 34 95.5t56 67.5t69.5 42t73 23t68.5 6q112 0 195 -62t96 -159q-5 77 -56.5 144t-136.5 91v338 q0 105 -35.5 143.5t-117.5 38.5v11q180 -7 393 -7q95 0 193 1.5t149 3.5l51 2v-11q-77 0 -115.5 -67t-38.5 -189v-974q0 -105 36 -144t118 -39v-10q-180 6 -393 6l-393 -6v10q76 0 114.5 66.5t38.5 189.5v125q48 8 85 30.5t57 48t32.5 58t16 55t4.5 44.5q-2 -51 -27 -97.5 t-78 -80t-123 -33.5q-69 0 -121.5 27t-76.5 65q38 36 68 102t30 123q0 49 -23.5 78t-68.5 29q-16 0 -35.5 -7t-45 -27.5t-45.5 -51.5t-34 -85t-14 -122v-354q0 -105 35.5 -144t117.5 -39v-10q-180 6 -393 6zM512 1544l295 303h127l295 -303l-2 -8l-357 113l-356 -113z" />
<glyph unicode="&#x126;" horiz-adv-x="1746" d="M41 0v10q77 0 115.5 67t38.5 189v735h-152v15h152v225q0 105 -36 143.5t-118 38.5v11q180 -7 393 -7q95 0 193 1.5t149 3.5l51 2v-11q-76 0 -114.5 -66.5t-38.5 -189.5v-151h399v225q0 105 -35.5 143.5t-117.5 38.5v11q180 -7 393 -7q95 0 193 1.5t149 3.5l51 2v-11 q-77 0 -115.5 -67t-38.5 -189v-151h154v-15h-154v-808q0 -105 36 -144t118 -39v-10q-180 6 -393 6l-393 -6v10q76 0 114.5 66.5t38.5 189.5v125q47 8 83 28.5t56 44.5t33 55t17.5 53.5t5.5 45.5q-7 -79 -67.5 -140.5t-160.5 -61.5q-69 0 -121.5 27t-76.5 65q38 36 68 102 t30 123q0 49 -23.5 78t-68.5 29q-16 0 -35.5 -7t-45 -27.5t-45.5 -51.5t-34 -85t-14 -122v-354q0 -105 35.5 -144t117.5 -39v-10q-180 6 -393 6zM674 655q9 53 34 95.5t56 67.5t69.5 42t73 23t68.5 6q112 0 195 -62t96 -159q-5 77 -56.5 144t-136.5 91v98h-399v-346z" />
<glyph unicode="&#x128;" horiz-adv-x="868" d="M41 0v10q77 0 115.5 67t38.5 189v975q0 105 -36 143.5t-118 38.5v11q180 -7 393 -7q95 0 193 1.5t149 3.5l51 2v-11q-76 0 -114.5 -66.5t-38.5 -189.5v-974q0 -105 35.5 -144t117.5 -39v-10q-180 6 -393 6zM61 1540q7 152 70 227.5t174 75.5q60 0 116 -16.5t92.5 -36.5 t84 -36.5t92.5 -16.5q110 0 127 104l8 -2q-15 -303 -243 -303q-60 0 -116 16.5t-92 36.5t-84 36.5t-93 16.5q-47 0 -83 -23.5t-44 -80.5z" />
<glyph unicode="&#x12a;" horiz-adv-x="868" d="M41 0v10q77 0 115.5 67t38.5 189v975q0 105 -36 143.5t-118 38.5v11q180 -7 393 -7q95 0 193 1.5t149 3.5l51 2v-11q-76 0 -114.5 -66.5t-38.5 -189.5v-974q0 -105 35.5 -144t117.5 -39v-10q-180 6 -393 6zM125 1575v14h637v-14h-637z" />
<glyph unicode="&#x12c;" horiz-adv-x="868" d="M41 0v10q77 0 115.5 67t38.5 189v975q0 105 -36 143.5t-118 38.5v11q180 -7 393 -7q95 0 193 1.5t149 3.5l51 2v-11q-76 0 -114.5 -66.5t-38.5 -189.5v-974q0 -105 35.5 -144t117.5 -39v-10q-180 6 -393 6zM131 1833h236q0 -77 56 -127.5t140 -50.5q172 0 182 178h11 q-2 -133 -74.5 -215t-216.5 -82q-166 0 -250 75.5t-84 221.5z" />
<glyph unicode="&#x12e;" horiz-adv-x="868" d="M41 0v10q77 0 115.5 67t38.5 189v975q0 105 -36 143.5t-118 38.5v11q180 -7 393 -7q95 0 193 1.5t149 3.5l51 2v-11q-76 0 -114.5 -66.5t-38.5 -189.5v-974q0 -105 35.5 -144t117.5 -39v-10q-57 -72 -89.5 -156.5t-32.5 -152.5q0 -67 25 -100t67 -33q48 0 100 20l4 -6 q-27 -19 -84.5 -36t-105.5 -17q-129 0 -187.5 50t-58.5 130q0 89 89.5 172t250.5 129q-147 6 -371 6z" />
<glyph unicode="&#x130;" horiz-adv-x="868" d="M41 0v10q77 0 115.5 67t38.5 189v975q0 105 -36 143.5t-118 38.5v11q180 -7 393 -7q95 0 193 1.5t149 3.5l51 2v-11q-76 0 -114.5 -66.5t-38.5 -189.5v-974q0 -105 35.5 -144t117.5 -39v-10q-180 6 -393 6zM238 1735q0 87 52 143.5t148 56.5q99 0 153 -56.5t54 -143.5 q0 -88 -54 -143.5t-153 -55.5q-96 0 -148 55.5t-52 143.5z" />
<glyph unicode="&#x132;" horiz-adv-x="1736" d="M41 0v10q77 0 115.5 67t38.5 189v975q0 105 -36 143.5t-118 38.5v11q180 -7 393 -7q95 0 193 1.5t149 3.5l51 2v-11q-76 0 -114.5 -66.5t-38.5 -189.5v-974q0 -105 35.5 -144t117.5 -39v-10q-180 6 -393 6zM868 -455q19 30 63.5 80t69.5 88q62 92 62 301v1227 q0 105 -36 143.5t-118 38.5v11q181 -7 394 -7q95 0 193 1.5t149 3.5l51 2v-11q-77 0 -115.5 -67t-38.5 -189v-1009q0 -136 -35.5 -222.5t-109.5 -150.5q-51 -43 -126.5 -73.5t-139.5 -45t-135.5 -46.5t-118.5 -79z" />
<glyph unicode="&#x134;" horiz-adv-x="868" d="M0 -455q19 30 63.5 80t69.5 88q62 92 62 301v1227q0 105 -36 143.5t-118 38.5v11q180 -7 393 -7q95 0 193 1.5t149 3.5l51 2v-11q-76 0 -114.5 -66.5t-38.5 -189.5v-1009q0 -135 -35.5 -222t-110.5 -151q-51 -43 -126.5 -73.5t-139.5 -45t-135.5 -46.5t-118.5 -79z M78 1544l295 303h127l295 -303l-2 -8l-357 113l-356 -113z" />
<glyph unicode="&#x136;" horiz-adv-x="1722" d="M41 0v10q77 0 115.5 67t38.5 189v975q0 105 -36 143.5t-118 38.5v11q180 -7 393 -7q95 0 193 1.5t149 3.5l51 2v-11q-76 0 -114.5 -66.5t-38.5 -189.5v-446h65l303 340q129 144 129 244q0 55 -44 86.5t-130 31.5v11q119 -7 336 -7q90 0 163 1.5t100 3.5l28 2v-11 q-121 0 -248.5 -73t-249.5 -211l-73 -84l530 -893q40 -65 76.5 -95t87.5 -30v-8q-16 -8 -44 -19t-113.5 -30t-168.5 -19q-159 0 -260.5 61t-175.5 205l-211 410q-20 37 -42.5 54.5t-57.5 17.5v-516q0 -105 35.5 -144t117.5 -39v-10q-180 6 -393 6zM737 -264q0 76 50.5 123 t125.5 47q85 0 133 -52t48 -133q0 -117 -71.5 -193t-205.5 -134l-4 6q64 55 64 135q0 49 -34 90.5t-98 59.5q-8 32 -8 51z" />
<glyph unicode="&#x139;" horiz-adv-x="1380" d="M41 0v10q77 0 115.5 67t38.5 189v975q0 105 -36 143.5t-118 38.5v11q180 -7 393 -7q95 0 193 1.5t149 3.5l51 2v-11q-76 0 -114.5 -66.5t-38.5 -189.5v-974q0 -104 35.5 -141.5t117.5 -37.5q79 0 152.5 34.5t131 92.5t106 134.5t81.5 160t52 170.5h10l-86 -606 q-188 0 -478 3t-362 3zM270 1542l271 422q67 0 106 -37t39 -90q0 -67 -61 -129.5t-152.5 -105.5t-198.5 -66z" />
<glyph unicode="&#x13b;" horiz-adv-x="1380" d="M41 0v10q77 0 115.5 67t38.5 189v975q0 105 -36 143.5t-118 38.5v11q180 -7 393 -7q95 0 193 1.5t149 3.5l51 2v-11q-76 0 -114.5 -66.5t-38.5 -189.5v-974q0 -104 35.5 -141.5t117.5 -37.5q79 0 152.5 34.5t131 92.5t106 134.5t81.5 160t52 170.5h10l-86 -606 q-188 0 -478 3t-362 3zM500 -264q0 76 50.5 123t125.5 47q85 0 132.5 -52t47.5 -133q0 -117 -71 -193t-205 -134l-5 6q64 55 64 135q0 49 -33.5 90.5t-97.5 59.5q-8 32 -8 51z" />
<glyph unicode="&#x13d;" horiz-adv-x="1380" d="M41 0v10q77 0 115.5 67t38.5 189v975q0 105 -36 143.5t-118 38.5v11q180 -7 393 -7q95 0 193 1.5t149 3.5l51 2v-11q-76 0 -114.5 -66.5t-38.5 -189.5v-974q0 -104 35.5 -141.5t117.5 -37.5q79 0 152.5 34.5t131 92.5t106 134.5t81.5 160t52 170.5h10l-86 -606 q-188 0 -478 3t-362 3zM950 1303q0 76 50.5 123t125.5 47q85 0 133 -52t48 -133q0 -117 -71.5 -193t-205.5 -134l-4 6q64 55 64 135q0 49 -34 90t-98 59q-8 32 -8 52z" />
<glyph unicode="&#x13f;" horiz-adv-x="1380" d="M41 0v10q77 0 115.5 67t38.5 189v975q0 105 -36 143.5t-118 38.5v11q180 -7 393 -7q95 0 193 1.5t149 3.5l51 2v-11q-76 0 -114.5 -66.5t-38.5 -189.5v-974q0 -104 35.5 -141.5t117.5 -37.5q79 0 152.5 34.5t131 92.5t106 134.5t81.5 160t52 170.5h10l-86 -606 q-188 0 -478 3t-362 3zM809 788q0 95 57 156.5t162 61.5t163 -61.5t58 -156.5q0 -96 -58 -155.5t-163 -59.5t-162 59.5t-57 155.5z" />
<glyph unicode="&#x141;" horiz-adv-x="1380" d="M41 0v10q77 0 115.5 67t38.5 189v295l-107 -43v17l107 43v663q0 105 -36 143.5t-118 38.5v11q180 -7 393 -7q95 0 193 1.5t149 3.5l51 2v-11q-76 0 -114.5 -66.5t-38.5 -189.5v-391l313 131v-16l-313 -131v-567q0 -104 35.5 -141.5t117.5 -37.5q79 0 152.5 34.5t131 92.5 t106 134.5t81.5 160t52 170.5h10l-86 -606q-188 0 -478 3t-362 3z" />
<glyph unicode="&#x143;" horiz-adv-x="1554" d="M31 0v10q153 0 153 297v934q0 105 -35.5 143.5t-117.5 38.5v11q314 -7 694 -7q7 -67 94 -198l527 -783v680q0 69 -15 121.5t-40.5 85.5t-62.5 53.5t-77 28.5t-88 8v11q219 -7 291 -7l184 7v-11q-76 0 -127 -72.5t-51 -224.5v-1126l-316 -37l-845 1307v-963 q0 -159 73.5 -228t225.5 -69v-10q-221 6 -293 6zM639 1540l270 422q67 0 106.5 -37t39.5 -90q0 -67 -61 -129.5t-152.5 -105.5t-198.5 -66z" />
<glyph unicode="&#x145;" horiz-adv-x="1554" d="M31 0v10q153 0 153 297v934q0 105 -35.5 143.5t-117.5 38.5v11q314 -7 694 -7q7 -67 94 -198l527 -783v680q0 69 -15 121.5t-40.5 85.5t-62.5 53.5t-77 28.5t-88 8v11q219 -7 291 -7l184 7v-11q-76 0 -127 -72.5t-51 -224.5v-1126l-316 -37l-845 1307v-963 q0 -159 73.5 -228t225.5 -69v-10q-221 6 -293 6zM592 -264q0 76 50.5 123t125.5 47q85 0 132.5 -52t47.5 -133q0 -117 -71 -193t-205 -134l-4 6q63 54 63 135q0 49 -33.5 90.5t-97.5 59.5q-8 32 -8 51z" />
<glyph unicode="&#x147;" horiz-adv-x="1554" d="M31 0v10q153 0 153 297v934q0 105 -35.5 143.5t-117.5 38.5v11q314 -7 694 -7q7 -67 94 -198l527 -783v680q0 69 -15 121.5t-40.5 85.5t-62.5 53.5t-77 28.5t-88 8v11q219 -7 291 -7l184 7v-11q-76 0 -127 -72.5t-51 -224.5v-1126l-316 -37l-845 1307v-963 q0 -159 73.5 -228t225.5 -69v-10q-221 6 -293 6zM459 1839l2 8l356 -112l357 112l2 -8l-295 -303h-127z" />
<glyph unicode="&#x14a;" horiz-adv-x="1554" d="M31 0v10q153 0 153 297v934q0 105 -35.5 143.5t-117.5 38.5v11q314 -7 694 -7q7 -67 94 -198l527 -783v680q0 69 -15 121.5t-40.5 85.5t-62.5 53.5t-77 28.5t-88 8v11q219 -7 291 -7l184 7v-11q-76 0 -127 -72.5t-51 -224.5v-1126q0 -92 -9.5 -164t-35 -139.5 t-67.5 -111.5t-110 -70.5t-159 -26.5q-120 0 -190 48t-70 130q0 65 49 111.5t125 46.5q51 0 93 -23.5t67 -66.5q-49 -43 -49 -96q0 -42 31 -72.5t75 -30.5q60 0 107 39t73 101t39.5 129.5t13.5 132.5v61l-299 -35l-845 1307v-963q0 -159 73.5 -228t225.5 -69v-10 q-221 6 -293 6z" />
<glyph unicode="&#x14c;" horiz-adv-x="1628" d="M49 684q0 216 90 377t228 242q-27 -62 -27 -152q0 -97 68.5 -153t158.5 -56q21 0 33 2q-6 -105 -6 -205q0 -341 73 -553.5t177 -212.5q95 0 143.5 168.5t48.5 552.5q0 347 -69 556.5t-179 209.5q-64 0 -97.5 -51.5t-33.5 -122.5q0 -67 32.5 -122.5t76.5 -92.5 q-77 -102 -207 -102q-103 0 -161 52.5t-58 129.5q0 68 32 124.5t82.5 92t114.5 60t125.5 35t118.5 10.5q178 0 322.5 -52t241.5 -146.5t149.5 -228t52.5 -294.5q0 -220 -92 -398.5t-270.5 -285.5t-413.5 -107q-355 0 -554.5 197t-199.5 526zM498 1575v14h637v-14h-637z" />
<glyph unicode="&#x14e;" horiz-adv-x="1628" d="M49 684q0 216 90 377t228 242q-27 -62 -27 -152q0 -97 68.5 -153t158.5 -56q21 0 33 2q-6 -105 -6 -205q0 -341 73 -553.5t177 -212.5q95 0 143.5 168.5t48.5 552.5q0 347 -69 556.5t-179 209.5q-64 0 -97.5 -51.5t-33.5 -122.5q0 -67 32.5 -122.5t76.5 -92.5 q-77 -102 -207 -102q-103 0 -161 52.5t-58 129.5q0 68 32 124.5t82.5 92t114.5 60t125.5 35t118.5 10.5q178 0 322.5 -52t241.5 -146.5t149.5 -228t52.5 -294.5q0 -220 -92 -398.5t-270.5 -285.5t-413.5 -107q-355 0 -554.5 197t-199.5 526zM502 1833h235q0 -77 56.5 -127.5 t140.5 -50.5q172 0 182 178h10q-2 -133 -74 -215t-216 -82q-166 0 -250 75.5t-84 221.5z" />
<glyph unicode="&#x150;" horiz-adv-x="1628" d="M49 684q0 216 90 377t228 242q-27 -62 -27 -152q0 -97 68.5 -153t158.5 -56q21 0 33 2q-6 -105 -6 -205q0 -341 73 -553.5t177 -212.5q95 0 143.5 168.5t48.5 552.5q0 347 -69 556.5t-179 209.5q-64 0 -97.5 -51.5t-33.5 -122.5q0 -67 32.5 -122.5t76.5 -92.5 q-77 -102 -207 -102q-103 0 -161 52.5t-58 129.5q0 68 32 124.5t82.5 92t114.5 60t125.5 35t118.5 10.5q178 0 322.5 -52t241.5 -146.5t149.5 -228t52.5 -294.5q0 -220 -92 -398.5t-270.5 -285.5t-413.5 -107q-355 0 -554.5 197t-199.5 526zM512 1542l270 422 q67 0 106.5 -37t39.5 -90q0 -67 -61 -129.5t-152.5 -105.5t-198.5 -66zM829 1542l271 422q67 0 106 -37t39 -90q0 -67 -60.5 -129.5t-152 -105.5t-198.5 -66z" />
<glyph unicode="&#x152;" horiz-adv-x="2246" d="M49 684q0 216 90 377t228 242q-27 -62 -27 -152q0 -97 68.5 -153t158.5 -56q21 0 33 2q-6 -105 -6 -205q0 -341 73 -553.5t177 -212.5q95 0 143.5 168.5t48.5 552.5q0 347 -69 556.5t-179 209.5q-64 0 -97.5 -51.5t-33.5 -122.5q0 -67 32.5 -122.5t76.5 -92.5 q-77 -102 -207 -102q-103 0 -161 52.5t-58 129.5q0 68 32 124.5t82.5 92t114.5 60t125.5 35t118.5 10.5q159 0 289 -46h188q94 0 380.5 3t453.5 4v-439h-10q-23 197 -154.5 309.5t-321.5 112.5q-66 0 -108 -12v-633h117q111 0 185.5 74t74.5 213h10v-645h-10q0 64 -18 123.5 t-52.5 109.5t-93 79.5t-133.5 29.5h-80v-563q0 -104 35.5 -141.5t117.5 -37.5q81 0 162 38.5t150.5 107t122.5 173t75 228.5h15l-94 -561q-175 1 -449.5 3.5t-374.5 2.5q-49 0 -122 -1t-99 -1q-124 -43 -266 -43q-355 0 -554.5 197t-199.5 526z" />
<glyph unicode="&#x154;" horiz-adv-x="1601" d="M41 0v10q77 0 115.5 67t38.5 189v975q0 105 -36 143.5t-118 38.5v11q180 -7 393 -7q70 0 202 3.5t204 3.5q567 0 567 -340q0 -351 -655 -351q163 0 163 328q0 156 -48 253t-142 97q-30 0 -51 -8v-676q-96 -8 -166 -37.5t-106 -72t-52 -85t-16 -87.5q0 -98 59.5 -165 t151.5 -67q73 0 129 27v-57q0 -105 35.5 -144t117.5 -39v-10q-180 6 -393 6zM334 455q0 63 29 111.5t74.5 77t110.5 46.5t129 24.5t138 6.5q103 0 194.5 -18t172 -56t137.5 -104.5t80 -155.5l63 -244q13 -53 43.5 -86.5t75.5 -33.5q22 0 37 6l4 -6q-30 -22 -131.5 -42 t-194.5 -20q-186 0 -286 77t-127 257l-37 250q-22 162 -111 162q-39 0 -62.5 -38.5t-23.5 -101.5q0 -137 103 -227q-30 -39 -85 -65.5t-122 -26.5q-100 0 -155.5 63t-55.5 144zM627 1542l270 422q67 0 106 -37t39 -90q0 -67 -60.5 -129.5t-152 -105.5t-198.5 -66z" />
<glyph unicode="&#x156;" horiz-adv-x="1601" d="M41 0v10q77 0 115.5 67t38.5 189v975q0 105 -36 143.5t-118 38.5v11q180 -7 393 -7q70 0 202 3.5t204 3.5q567 0 567 -340q0 -351 -655 -351q163 0 163 328q0 156 -48 253t-142 97q-30 0 -51 -8v-676q-96 -8 -166 -37.5t-106 -72t-52 -85t-16 -87.5q0 -98 59.5 -165 t151.5 -67q73 0 129 27v-57q0 -105 35.5 -144t117.5 -39v-10q-180 6 -393 6zM334 455q0 63 29 111.5t74.5 77t110.5 46.5t129 24.5t138 6.5q103 0 194.5 -18t172 -56t137.5 -104.5t80 -155.5l63 -244q13 -53 43.5 -86.5t75.5 -33.5q22 0 37 6l4 -6q-30 -22 -131.5 -42 t-194.5 -20q-186 0 -286 77t-127 257l-37 250q-22 162 -111 162q-39 0 -62.5 -38.5t-23.5 -101.5q0 -137 103 -227q-30 -39 -85 -65.5t-122 -26.5q-100 0 -155.5 63t-55.5 144zM651 -264q0 76 50.5 123t125.5 47q85 0 133 -52t48 -133q0 -117 -71.5 -193t-205.5 -134l-4 6 q64 55 64 135q0 49 -34 90.5t-98 59.5q-8 32 -8 51z" />
<glyph unicode="&#x158;" horiz-adv-x="1601" d="M41 0v10q77 0 115.5 67t38.5 189v975q0 105 -36 143.5t-118 38.5v11q180 -7 393 -7q70 0 202 3.5t204 3.5q567 0 567 -340q0 -351 -655 -351q163 0 163 328q0 156 -48 253t-142 97q-30 0 -51 -8v-676q-96 -8 -166 -37.5t-106 -72t-52 -85t-16 -87.5q0 -98 59.5 -165 t151.5 -67q73 0 129 27v-57q0 -105 35.5 -144t117.5 -39v-10q-180 6 -393 6zM334 455q0 63 29 111.5t74.5 77t110.5 46.5t129 24.5t138 6.5q103 0 194.5 -18t172 -56t137.5 -104.5t80 -155.5l63 -244q13 -53 43.5 -86.5t75.5 -33.5q22 0 37 6l4 -6q-30 -22 -131.5 -42 t-194.5 -20q-186 0 -286 77t-127 257l-37 250q-22 162 -111 162q-39 0 -62.5 -38.5t-23.5 -101.5q0 -137 103 -227q-30 -39 -85 -65.5t-122 -26.5q-100 0 -155.5 63t-55.5 144zM383 1839l2 8l356 -112l357 112l2 -8l-295 -303h-127z" />
<glyph unicode="&#x15a;" horiz-adv-x="1249" d="M68 1030q0 204 148.5 323.5t418.5 119.5q107 0 192 -19t137 -48.5t86 -69t47 -76.5t13 -74q0 -32 -11 -63t-33.5 -60t-64 -46.5t-96.5 -17.5q-50 0 -101.5 22t-82.5 56q40 34 63 85t23 98q0 88 -42.5 144t-137.5 56q-83 0 -135 -50t-52 -134q0 -54 26 -101t69.5 -83.5 t100 -70t119 -66.5t125 -68t119 -78.5t100 -94t69.5 -119.5t26 -149q0 -148 -83.5 -260.5t-215 -168.5t-285.5 -56q-89 0 -160 15.5t-155 31t-205 15.5l-20 514h10q44 -252 178 -408t330 -156q120 0 183 61.5t63 151.5q0 52 -26 98.5t-70.5 84t-102 73.5t-121 72t-127 73.5 t-121 83t-102 96.5t-70.5 118.5t-26 144.5zM459 1542l270 422q67 0 106 -37t39 -90q0 -67 -60.5 -129.5t-152 -105.5t-198.5 -66z" />
<glyph unicode="&#x15c;" horiz-adv-x="1249" d="M68 1030q0 204 148.5 323.5t418.5 119.5q107 0 192 -19t137 -48.5t86 -69t47 -76.5t13 -74q0 -32 -11 -63t-33.5 -60t-64 -46.5t-96.5 -17.5q-50 0 -101.5 22t-82.5 56q40 34 63 85t23 98q0 88 -42.5 144t-137.5 56q-83 0 -135 -50t-52 -134q0 -54 26 -101t69.5 -83.5 t100 -70t119 -66.5t125 -68t119 -78.5t100 -94t69.5 -119.5t26 -149q0 -148 -83.5 -260.5t-215 -168.5t-285.5 -56q-89 0 -160 15.5t-155 31t-205 15.5l-20 514h10q44 -252 178 -408t330 -156q120 0 183 61.5t63 151.5q0 52 -26 98.5t-70.5 84t-102 73.5t-121 72t-127 73.5 t-121 83t-102 96.5t-70.5 118.5t-26 144.5zM266 1540l295 303h127l295 -303l-2 -8l-356 113l-357 -113z" />
<glyph unicode="&#x15e;" horiz-adv-x="1249" d="M68 1030q0 204 148.5 323.5t418.5 119.5q107 0 192 -19t137 -48.5t86 -69t47 -76.5t13 -74q0 -32 -11 -63t-33.5 -60t-64 -46.5t-96.5 -17.5q-50 0 -101.5 22t-82.5 56q40 34 63 85t23 98q0 88 -42.5 144t-137.5 56q-83 0 -135 -50t-52 -134q0 -54 26 -101t69.5 -83.5 t100 -70t119 -66.5t125 -68t119 -78.5t100 -94t69.5 -119.5t26 -149q0 -135 -69.5 -240t-180.5 -164t-248 -75q-63 -27 -63 -69q0 -24 23.5 -44t56.5 -35.5t66.5 -34t57 -49t23.5 -71.5q0 -74 -83 -125t-191 -51q-90 0 -143.5 27t-53.5 79q0 38 30.5 63.5t74.5 25.5 q40 0 75 -21q-24 -33 -24 -80q0 -86 61 -86q30 0 50 27.5t20 66.5q0 28 -15.5 51.5t-38 40.5t-45 35.5t-38 46t-15.5 62.5q0 30 15 55t38.5 41.5t45.5 26.5t45 16q-46 -4 -58 -4q-89 0 -160 15.5t-155 31t-205 15.5l-20 514h10q44 -252 178 -408t330 -156q120 0 183 61.5 t63 151.5q0 52 -26 98.5t-70.5 84t-102 73.5t-121 72t-127 73.5t-121 83t-102 96.5t-70.5 118.5t-26 144.5z" />
<glyph unicode="&#x160;" horiz-adv-x="1249" d="M68 1030q0 204 148.5 323.5t418.5 119.5q107 0 192 -19t137 -48.5t86 -69t47 -76.5t13 -74q0 -32 -11 -63t-33.5 -60t-64 -46.5t-96.5 -17.5q-50 0 -101.5 22t-82.5 56q40 34 63 85t23 98q0 88 -42.5 144t-137.5 56q-83 0 -135 -50t-52 -134q0 -54 26 -101t69.5 -83.5 t100 -70t119 -66.5t125 -68t119 -78.5t100 -94t69.5 -119.5t26 -149q0 -148 -83.5 -260.5t-215 -168.5t-285.5 -56q-89 0 -160 15.5t-155 31t-205 15.5l-20 514h10q44 -252 178 -408t330 -156q120 0 183 61.5t63 151.5q0 52 -26 98.5t-70.5 84t-102 73.5t-121 72t-127 73.5 t-121 83t-102 96.5t-70.5 118.5t-26 144.5zM264 1839l2 8l357 -112l356 112l2 -8l-295 -303h-127z" />
<glyph unicode="&#x162;" horiz-adv-x="1554" d="M47 983l37 451q284 -7 666 -7l755 7l-37 -453l-8 2q0 197 -114.5 315.5t-329.5 118.5v-1224q0 -104 39 -143.5t125 -39.5v-10q-185 6 -392 6q-6 -3 -20.5 -15t-32.5 -38t-18 -51q0 -24 23.5 -44.5t56.5 -36.5t66.5 -35t57 -50t23.5 -72q0 -74 -83 -125t-191 -51 q-90 0 -143.5 27t-53.5 79q0 38 30.5 63.5t74.5 25.5q40 0 75 -21q-24 -33 -24 -80q0 -86 61 -86q30 0 50 27.5t20 66.5q0 28 -15.5 52t-38 41.5t-45 36.5t-38 47t-15.5 63q0 30 17.5 59t42 49t49 36t41.5 24l18 8l-403 -6v10q82 0 123 66.5t41 189.5v1151q-189 0 -317 -117 t-163 -319z" />
<glyph unicode="&#x164;" horiz-adv-x="1554" d="M47 983l37 451q284 -7 666 -7l755 7l-37 -453l-8 2q0 197 -114.5 315.5t-329.5 118.5v-1224q0 -104 39 -143.5t125 -39.5v-10q-191 6 -404 6l-403 -6v10q82 0 123 66.5t41 189.5v1151q-189 0 -317 -117t-163 -319zM422 1839l2 8l356 -112l357 112l2 -8l-295 -303h-127z " />
<glyph unicode="&#x166;" horiz-adv-x="1554" d="M47 983l37 451q284 -7 666 -7l755 7l-37 -453l-8 2q0 197 -114.5 315.5t-329.5 118.5v-551h158v-16h-158v-657q0 -104 39 -143.5t125 -39.5v-10q-191 6 -404 6l-403 -6v10q82 0 123 66.5t41 189.5v584h-158v16h158v551q-189 0 -317 -117t-163 -319z" />
<glyph unicode="&#x168;" horiz-adv-x="1546" d="M41 1423v11q180 -7 393 -7q95 0 193 1.5t149 3.5l51 2v-11q-76 0 -114.5 -66.5t-38.5 -189.5v-712q-114 4 -180 -61.5t-66 -168.5q0 -83 40 -144.5t103 -90.5q-376 53 -376 475v776q0 105 -36 143.5t-118 38.5zM428 225q0 80 61.5 143.5t167.5 63.5q59 0 108.5 -25 t72.5 -57q-86 -77 -86 -188q0 -77 53.5 -124.5t140.5 -47.5q101 0 176.5 29.5t117.5 74t67.5 110.5t33 125.5t7.5 131.5v665q0 157 -70.5 227t-206.5 70v11q213 -7 285 -7l184 7v-11q-76 0 -127 -72.5t-51 -224.5v-661q0 -150 -32 -249.5t-101.5 -155t-162.5 -77.5t-230 -22 q-177 0 -292.5 69.5t-115.5 194.5zM504 1540q7 152 70 227.5t174 75.5q60 0 116 -16.5t92.5 -36.5t84 -36.5t92.5 -16.5q110 0 127 104l8 -2q-7 -152 -70 -227.5t-174 -75.5q-60 0 -116 16.5t-92 36.5t-84 36.5t-93 16.5q-47 0 -83 -23.5t-44 -80.5z" />
<glyph unicode="&#x16a;" horiz-adv-x="1546" d="M41 1423v11q180 -7 393 -7q95 0 193 1.5t149 3.5l51 2v-11q-76 0 -114.5 -66.5t-38.5 -189.5v-712q-114 4 -180 -61.5t-66 -168.5q0 -83 40 -144.5t103 -90.5q-376 53 -376 475v776q0 105 -36 143.5t-118 38.5zM428 225q0 80 61.5 143.5t167.5 63.5q59 0 108.5 -25 t72.5 -57q-86 -77 -86 -188q0 -77 53.5 -124.5t140.5 -47.5q101 0 176.5 29.5t117.5 74t67.5 110.5t33 125.5t7.5 131.5v665q0 157 -70.5 227t-206.5 70v11q213 -7 285 -7l184 7v-11q-76 0 -127 -72.5t-51 -224.5v-661q0 -150 -32 -249.5t-101.5 -155t-162.5 -77.5t-230 -22 q-177 0 -292.5 69.5t-115.5 194.5zM604 1575v14h637v-14h-637z" />
<glyph unicode="&#x16c;" horiz-adv-x="1546" d="M41 1423v11q180 -7 393 -7q95 0 193 1.5t149 3.5l51 2v-11q-76 0 -114.5 -66.5t-38.5 -189.5v-712q-114 4 -180 -61.5t-66 -168.5q0 -83 40 -144.5t103 -90.5q-376 53 -376 475v776q0 105 -36 143.5t-118 38.5zM428 225q0 80 61.5 143.5t167.5 63.5q59 0 108.5 -25 t72.5 -57q-86 -77 -86 -188q0 -77 53.5 -124.5t140.5 -47.5q101 0 176.5 29.5t117.5 74t67.5 110.5t33 125.5t7.5 131.5v665q0 157 -70.5 227t-206.5 70v11q213 -7 285 -7l184 7v-11q-76 0 -127 -72.5t-51 -224.5v-661q0 -150 -32 -249.5t-101.5 -155t-162.5 -77.5t-230 -22 q-177 0 -292.5 69.5t-115.5 194.5zM575 1833h236q0 -77 56.5 -127.5t140.5 -50.5q172 0 182 178h10q-2 -133 -74.5 -215t-216.5 -82q-166 0 -250 75.5t-84 221.5z" />
<glyph unicode="&#x16e;" horiz-adv-x="1546" d="M41 1423v11q180 -7 393 -7q95 0 193 1.5t149 3.5l51 2v-11q-76 0 -114.5 -66.5t-38.5 -189.5v-712q-114 4 -180 -61.5t-66 -168.5q0 -83 40 -144.5t103 -90.5q-376 53 -376 475v776q0 105 -36 143.5t-118 38.5zM428 225q0 80 61.5 143.5t167.5 63.5q59 0 108.5 -25 t72.5 -57q-86 -77 -86 -188q0 -77 53.5 -124.5t140.5 -47.5q101 0 176.5 29.5t117.5 74t67.5 110.5t33 125.5t7.5 131.5v665q0 157 -70.5 227t-206.5 70v11q213 -7 285 -7l184 7v-11q-76 0 -127 -72.5t-51 -224.5v-661q0 -150 -32 -249.5t-101.5 -155t-162.5 -77.5t-230 -22 q-177 0 -292.5 69.5t-115.5 194.5zM668 1724q0 87 62 145t173 58q87 0 147 -50t60 -138q0 -87 -62.5 -145t-173.5 -58q-87 0 -146.5 50t-59.5 138zM801 1739q0 -89 26.5 -142t69.5 -53q80 0 80 180q0 89 -26.5 142t-69.5 53q-80 0 -80 -180z" />
<glyph unicode="&#x170;" horiz-adv-x="1546" d="M41 1423v11q180 -7 393 -7q95 0 193 1.5t149 3.5l51 2v-11q-76 0 -114.5 -66.5t-38.5 -189.5v-712q-114 4 -180 -61.5t-66 -168.5q0 -83 40 -144.5t103 -90.5q-376 53 -376 475v776q0 105 -36 143.5t-118 38.5zM428 225q0 80 61.5 143.5t167.5 63.5q59 0 108.5 -25 t72.5 -57q-86 -77 -86 -188q0 -77 53.5 -124.5t140.5 -47.5q101 0 176.5 29.5t117.5 74t67.5 110.5t33 125.5t7.5 131.5v665q0 157 -70.5 227t-206.5 70v11q213 -7 285 -7l184 7v-11q-76 0 -127 -72.5t-51 -224.5v-661q0 -150 -32 -249.5t-101.5 -155t-162.5 -77.5t-230 -22 q-177 0 -292.5 69.5t-115.5 194.5zM598 1540l270 422q67 0 106.5 -37t39.5 -90q0 -67 -61 -129.5t-152.5 -105.5t-198.5 -66zM915 1540l271 422q67 0 106 -37t39 -90q0 -67 -60.5 -129.5t-152 -105.5t-198.5 -66z" />
<glyph unicode="&#x172;" horiz-adv-x="1546" d="M41 1423v11q180 -7 393 -7q95 0 193 1.5t149 3.5l51 2v-11q-76 0 -114.5 -66.5t-38.5 -189.5v-712q-114 4 -180 -61.5t-66 -168.5q0 -83 40 -144.5t103 -90.5q-376 53 -376 475v776q0 105 -36 143.5t-118 38.5zM428 225q0 80 61.5 143.5t167.5 63.5q59 0 108.5 -25 t72.5 -57q-86 -77 -86 -188q0 -77 53.5 -124.5t140.5 -47.5q101 0 176.5 29.5t117.5 74t67.5 110.5t33 125.5t7.5 131.5v665q0 157 -70.5 227t-206.5 70v11q213 -7 285 -7l184 7v-11q-76 0 -127 -72.5t-51 -224.5v-661q0 -215 -68 -326t-209 -151q-56 -62 -89 -145t-33 -152 q0 -67 25 -100t67 -33q48 0 100 20l4 -6q-27 -19 -84.5 -36t-105.5 -17q-129 0 -187.5 50t-58.5 130q0 87 84.5 162t247.5 121q-124 -21 -219 -21q-177 0 -292.5 69.5t-115.5 194.5z" />
<glyph unicode="&#x174;" horiz-adv-x="2217" d="M23 1423v11q223 -7 397 -7q79 0 170 1.5t142 3.5l52 2v-11q-84 0 -84 -86q0 -32 17 -94l227 -819l133 467l-112 407q-20 69 -47 97t-87 28v11q216 -7 357 -7q87 0 154.5 1.5t91.5 3.5l24 2q0 -88 31 -201l215 -811l209 704q20 67 23.5 117t-11.5 92.5t-61 65t-123 22.5 v11q150 -7 252 -7q49 0 97 1.5t72 3.5l23 2v-11q-81 0 -144.5 -68t-111.5 -229l-336 -1124l-266 -39l-242 903l-245 -866l-240 -37l-418 1337q-19 62 -56.5 92.5t-102.5 30.5zM809 1544l295 303h127l295 -303l-2 -8l-357 113l-356 -113z" />
<glyph unicode="&#x176;" horiz-adv-x="1540" d="M33 1423v11q167 -7 409 -7q120 0 221 1.5t142 3.5l41 2v-11q-49 0 -79 -25.5t-30 -64.5q0 -52 49 -137l220 -395l137 256q90 162 90 243q0 123 -184 123v11q94 -7 260 -7q54 0 103.5 1.5t71.5 3.5l23 2v-11q-67 0 -144 -62.5t-153 -203.5l-192 -360v-604 q0 -105 35.5 -144t117.5 -39v-10q-180 6 -393 6l-393 -6v10q77 0 115.5 67t38.5 189v486l-346 563q-41 65 -78 86.5t-82 21.5zM514 1544l295 303h127l295 -303l-2 -8l-357 113l-356 -113z" />
<glyph unicode="&#x178;" horiz-adv-x="1540" d="M33 1423v11q167 -7 409 -7q120 0 221 1.5t142 3.5l41 2v-11q-49 0 -79 -25.5t-30 -64.5q0 -52 49 -137l220 -395l137 256q90 162 90 243q0 123 -184 123v11q94 -7 260 -7q54 0 103.5 1.5t71.5 3.5l23 2v-11q-67 0 -144 -62.5t-153 -203.5l-192 -360v-604 q0 -105 35.5 -144t117.5 -39v-10q-180 6 -393 6l-393 -6v10q77 0 115.5 67t38.5 189v486l-346 563q-41 65 -78 86.5t-82 21.5zM469 1710q0 76 45.5 126t130.5 50t131.5 -50t46.5 -126q0 -77 -46 -125.5t-132 -48.5t-131 48.5t-45 125.5zM928 1710q0 76 45.5 126t128.5 50 q88 0 134 -49.5t46 -126.5t-46 -125.5t-134 -48.5q-83 0 -128.5 48.5t-45.5 125.5z" />
<glyph unicode="&#x179;" horiz-adv-x="1470" d="M55 14l803 1405l-151 -6q-93 -4 -167 -19.5t-145 -49t-123.5 -85.5t-94.5 -133t-66 -188h-11l64 496h1222l9 -15l-789 -1405l135 9q273 17 437.5 159.5t226.5 395.5h10l-80 -578h-1272zM590 1542l270 422q67 0 106.5 -37t39.5 -90q0 -67 -61 -129.5t-152.5 -105.5 t-198.5 -66z" />
<glyph unicode="&#x17b;" horiz-adv-x="1470" d="M55 14l803 1405l-151 -6q-93 -4 -167 -19.5t-145 -49t-123.5 -85.5t-94.5 -133t-66 -188h-11l64 496h1222l9 -15l-789 -1405l135 9q273 17 437.5 159.5t226.5 395.5h10l-80 -578h-1272zM578 1735q0 87 52 143.5t148 56.5q99 0 153 -56.5t54 -143.5q0 -88 -54 -143.5 t-153 -55.5q-96 0 -148 55.5t-52 143.5z" />
<glyph unicode="&#x17d;" horiz-adv-x="1470" d="M55 14l803 1405l-151 -6q-93 -4 -167 -19.5t-145 -49t-123.5 -85.5t-94.5 -133t-66 -188h-11l64 496h1222l9 -15l-789 -1405l135 9q273 17 437.5 159.5t226.5 395.5h10l-80 -578h-1272zM410 1839l2 8l356 -112l356 112l2 -8l-295 -303h-126z" />
<glyph unicode="&#x192;" horiz-adv-x="1384" d="M-340 -193q0 78 58.5 129.5t150.5 51.5q102 0 170 -56q-40 -45 -71 -113.5t-31 -125.5q0 -72 51 -72q70 0 119.5 94.5t70.5 290.5l92 873h-86v12h86q17 173 118 318t260.5 229t340.5 84q145 0 236.5 -62.5t91.5 -152.5q0 -92 -60.5 -147.5t-173.5 -55.5q-55 0 -108 20.5 t-84 53.5q37 42 67.5 120.5t30.5 137.5q0 35 -10.5 54t-38.5 19q-110 0 -166 -358l-41 -260h266v-10h-268l-67 -430q-60 -391 -254.5 -617.5t-470.5 -226.5q-124 0 -201.5 56t-77.5 144z" />
<glyph unicode="&#x1e2;" horiz-adv-x="2172" d="M4 0v10q151 0 344 295l629 969q-4 84 -40 116.5t-112 32.5v11q181 -7 394 -7q94 0 379.5 3t453.5 4v-439h-10q-23 197 -154 309.5t-321 112.5q-67 0 -109 -12v-633h117q111 0 185.5 74t74.5 213h10v-645h-10q0 64 -18 123.5t-52.5 109.5t-93 79.5t-133.5 29.5h-80v-563 q0 -104 36 -141.5t118 -37.5q81 0 162 38.5t150.5 107t122.5 173t75 228.5h14l-94 -561q-175 1 -449.5 3.5t-373.5 2.5l-394 -6v10q79 0 115 45t37 158v8q43 12 74.5 38.5t47 59.5t22 60t7.5 53q-3 -78 -66 -140.5t-161 -62.5q-72 0 -122 28t-77 69q38 32 68.5 86.5 t30.5 111.5q0 60 -30 95.5t-85 35.5q-24 0 -46 -8t-44.5 -27.5t-40 -37.5t-41.5 -52.5t-39 -57t-42.5 -66.5t-41.5 -66q-45 -70 -63.5 -112.5t-18.5 -82.5q0 -135 201 -135v-10q-182 6 -317 6zM565 608q45 48 113 73.5t145 25.5q123 0 212 -74t93 -182q-2 82 -33.5 139 t-115.5 108v551zM975 1575v14h637v-14h-637z" />
<glyph unicode="&#x1fa;" horiz-adv-x="1615" d="M18 0v10q28 0 54.5 15t50 46t40 57.5t36.5 73t27.5 66.5t23.5 62l391 1046q-72 52 -72 148q0 87 62.5 144.5t173.5 57.5q87 0 147 -50t60 -138q0 -36 -17 -78l441 -1308q49 -142 161 -142v-10q-113 6 -395 6q-122 0 -217.5 -1.5t-130.5 -2.5l-35 -2v10q105 0 105 111 q0 23 -13 86l-16 63q26 26 39.5 71.5t15.5 90.5q-3 -78 -66 -140.5t-161 -62.5q-72 0 -122 28t-77 69q38 32 68.5 86.5t30.5 111.5q0 62 -26 97.5t-79 35.5t-102.5 -51t-81 -117.5t-53.5 -142.5q-25 -86 -25 -156q0 -180 199 -180v-10q-111 6 -248 6zM317 475 q96 232 328 232q123 0 212 -74t93 -182q-3 84 -47 154.5t-127 105.5l-162 553zM569 1753l351 318q84 -31 84 -109q0 -61 -46.5 -106t-119 -67.5t-139 -32.5t-128.5 -11q0 1 -1 4t-1 4zM702 1538q0 -88 27 -141.5t70 -53.5q42 0 61 50t19 131q0 88 -27 141t-70 53 q-80 0 -80 -180z" />
<glyph unicode="&#x1fc;" horiz-adv-x="2172" d="M4 0v10q151 0 344 295l629 969q-4 84 -40 116.5t-112 32.5v11q181 -7 394 -7q94 0 379.5 3t453.5 4v-439h-10q-23 197 -154 309.5t-321 112.5q-67 0 -109 -12v-633h117q111 0 185.5 74t74.5 213h10v-645h-10q0 64 -18 123.5t-52.5 109.5t-93 79.5t-133.5 29.5h-80v-563 q0 -104 36 -141.5t118 -37.5q81 0 162 38.5t150.5 107t122.5 173t75 228.5h14l-94 -561q-175 1 -449.5 3.5t-373.5 2.5l-394 -6v10q79 0 115 45t37 158v8q43 12 74.5 38.5t47 59.5t22 60t7.5 53q-3 -78 -66 -140.5t-161 -62.5q-72 0 -122 28t-77 69q38 32 68.5 86.5 t30.5 111.5q0 60 -30 95.5t-85 35.5q-24 0 -46 -8t-44.5 -27.5t-40 -37.5t-41.5 -52.5t-39 -57t-42.5 -66.5t-41.5 -66q-45 -70 -63.5 -112.5t-18.5 -82.5q0 -135 201 -135v-10q-182 6 -317 6zM565 608q45 48 113 73.5t145 25.5q123 0 212 -74t93 -182q-2 82 -33.5 139 t-115.5 108v551zM1176 1542l270 422q67 0 106 -37t39 -90q0 -67 -60.5 -129.5t-152 -105.5t-198.5 -66z" />
<glyph unicode="&#x1fe;" horiz-adv-x="1628" d="M49 684q0 216 90 377t228 242q-27 -62 -27 -152q0 -97 68.5 -153t158.5 -56q21 0 33 2q-6 -105 -6 -205q0 -157 16 -301l402 615q-29 192 -88.5 299.5t-135.5 107.5q-64 0 -97.5 -51.5t-33.5 -122.5q0 -67 32.5 -122.5t76.5 -92.5q-77 -102 -207 -102q-103 0 -161 52.5 t-58 129.5q0 68 32 124.5t82.5 92t114.5 60t125.5 35t118.5 10.5q233 0 414 -93l102 156h21l-109 -164q163 -91 250.5 -250.5t87.5 -369.5q0 -220 -92 -398.5t-270.5 -285.5t-413.5 -107q-245 0 -424 98l-80 -122h-20l86 131q-154 92 -235 250.5t-81 365.5zM614 416 q29 -205 91.5 -324t138.5 -119q95 0 143.5 168.5t48.5 552.5q0 173 -20 336zM657 1542l271 422q67 0 106 -37t39 -90q0 -67 -60.5 -129.5t-152 -105.5t-198.5 -66z" />
<glyph unicode="&#x218;" horiz-adv-x="1249" d="M68 1030q0 204 148.5 323.5t418.5 119.5q107 0 192 -19t137 -48.5t86 -69t47 -76.5t13 -74q0 -32 -11 -63t-33.5 -60t-64 -46.5t-96.5 -17.5q-50 0 -101.5 22t-82.5 56q40 34 63 85t23 98q0 88 -42.5 144t-137.5 56q-83 0 -135 -50t-52 -134q0 -54 26 -101t69.5 -83.5 t100 -70t119 -66.5t125 -68t119 -78.5t100 -94t69.5 -119.5t26 -149q0 -148 -83.5 -260.5t-215 -168.5t-285.5 -56q-89 0 -160 15.5t-155 31t-205 15.5l-20 514h10q44 -252 178 -408t330 -156q120 0 183 61.5t63 151.5q0 52 -26 98.5t-70.5 84t-102 73.5t-121 72t-127 73.5 t-121 83t-102 96.5t-70.5 118.5t-26 144.5zM444 -264q0 76 51 123t126 47q85 0 132.5 -52t47.5 -133q0 -117 -71.5 -193t-205.5 -134l-4 6q64 55 64 135q0 49 -33.5 90.5t-97.5 59.5q-9 36 -9 51z" />
<glyph unicode="&#x21a;" horiz-adv-x="1554" d="M47 983l37 451q284 -7 666 -7l755 7l-37 -453l-8 2q0 197 -114.5 315.5t-329.5 118.5v-1224q0 -104 39 -143.5t125 -39.5v-10q-191 6 -404 6l-403 -6v10q82 0 123 66.5t41 189.5v1151q-189 0 -317 -117t-163 -319zM592 -264q0 76 50.5 123t125.5 47q85 0 132.5 -52 t47.5 -133q0 -117 -71 -193t-205 -134l-4 6q63 54 63 135q0 49 -33.5 90.5t-97.5 59.5q-8 32 -8 51z" />
<glyph unicode="&#x2c6;" horiz-adv-x="944" d="M113 1130l295 304h127l294 -304l-2 -8l-356 113l-356 -113z" />
<glyph unicode="&#x2c7;" horiz-adv-x="944" d="M113 1425l2 9l356 -113l356 113l2 -9l-294 -303h-127z" />
<glyph unicode="&#x2d8;" horiz-adv-x="845" d="M111 1399h235q0 -77 56.5 -127.5t140.5 -50.5q172 0 182 178h10q-2 -133 -74.5 -215t-216.5 -82q-166 0 -249.5 75.5t-83.5 221.5z" />
<glyph unicode="&#x2d9;" horiz-adv-x="739" d="M166 1286q0 87 52.5 144t148.5 57q99 0 152.5 -57t53.5 -144q0 -88 -53.5 -143.5t-152.5 -55.5q-96 0 -148.5 55.5t-52.5 143.5z" />
<glyph unicode="&#x2da;" horiz-adv-x="700" d="M129 1280q0 87 62.5 145t173.5 58q86 0 146 -50.5t60 -138.5q0 -87 -62 -144.5t-173 -57.5q-87 0 -147 50t-60 138zM262 1294q0 -89 26.5 -141.5t69.5 -52.5q80 0 80 180q0 89 -26.5 142t-69.5 53q-42 0 -61 -50t-19 -131z" />
<glyph unicode="&#x2db;" horiz-adv-x="716" d="M139 -301q0 91 94.5 177.5t264.5 131.5l4 -6q-57 -72 -90 -157.5t-33 -153.5q0 -67 25 -100t67 -33q48 0 100 20l4 -6q-27 -19 -84.5 -36t-105.5 -17q-129 0 -187.5 50t-58.5 130z" />
<glyph unicode="&#x2dc;" horiz-adv-x="1073" d="M156 1149q15 303 243 303q60 0 116 -16.5t92.5 -36.5t84 -36.5t92.5 -16.5q110 0 127 104l9 -2q-7 -152 -70 -227.5t-174 -75.5q-60 0 -116 16.5t-92 36.5t-84 36.5t-93 16.5q-47 0 -83 -23.5t-44 -80.5z" />
<glyph unicode="&#x2dd;" horiz-adv-x="839" d="M53 1114l271 422q67 0 106 -37t39 -90q0 -67 -61 -129.5t-152.5 -105.5t-198.5 -66zM371 1114l270 422q67 0 106 -37t39 -90q0 -67 -60.5 -129.5t-152 -105.5t-198.5 -66z" />
<glyph unicode="&#x1e80;" horiz-adv-x="2217" d="M23 1423v11q223 -7 397 -7q79 0 170 1.5t142 3.5l52 2v-11q-84 0 -84 -86q0 -32 17 -94l227 -819l133 467l-112 407q-20 69 -47 97t-87 28v11q216 -7 357 -7q87 0 154.5 1.5t91.5 3.5l24 2q0 -88 31 -201l215 -811l209 704q20 67 23.5 117t-11.5 92.5t-61 65t-123 22.5 v11q150 -7 252 -7q49 0 97 1.5t72 3.5l23 2v-11q-81 0 -144.5 -68t-111.5 -229l-336 -1124l-266 -39l-242 903l-245 -866l-240 -37l-418 1337q-19 62 -56.5 92.5t-102.5 30.5zM901 1837q0 53 39.5 90t106.5 37l270 -422l-4 -6q-107 23 -198.5 66t-152.5 105.5t-61 129.5z " />
<glyph unicode="&#x1e82;" horiz-adv-x="2217" d="M23 1423v11q223 -7 397 -7q79 0 170 1.5t142 3.5l52 2v-11q-84 0 -84 -86q0 -32 17 -94l227 -819l133 467l-112 407q-20 69 -47 97t-87 28v11q216 -7 357 -7q87 0 154.5 1.5t91.5 3.5l24 2q0 -88 31 -201l215 -811l209 704q20 67 23.5 117t-11.5 92.5t-61 65t-123 22.5 v11q150 -7 252 -7q49 0 97 1.5t72 3.5l23 2v-11q-81 0 -144.5 -68t-111.5 -229l-336 -1124l-266 -39l-242 903l-245 -866l-240 -37l-418 1337q-19 62 -56.5 92.5t-102.5 30.5zM971 1542l270 422q67 0 106 -37t39 -90q0 -67 -60.5 -129.5t-152 -105.5t-198.5 -66z" />
<glyph unicode="&#x1e84;" horiz-adv-x="2217" d="M23 1423v11q223 -7 397 -7q79 0 170 1.5t142 3.5l52 2v-11q-84 0 -84 -86q0 -32 17 -94l227 -819l133 467l-112 407q-20 69 -47 97t-87 28v11q216 -7 357 -7q87 0 154.5 1.5t91.5 3.5l24 2q0 -88 31 -201l215 -811l209 704q20 67 23.5 117t-11.5 92.5t-61 65t-123 22.5 v11q150 -7 252 -7q49 0 97 1.5t72 3.5l23 2v-11q-81 0 -144.5 -68t-111.5 -229l-336 -1124l-266 -39l-242 903l-245 -866l-240 -37l-418 1337q-19 62 -56.5 92.5t-102.5 30.5zM762 1710q0 76 45.5 126t130.5 50t131.5 -50t46.5 -126q0 -77 -46 -125.5t-132 -48.5t-131 48.5 t-45 125.5zM1221 1710q0 76 45.5 126t128.5 50q88 0 134 -49.5t46 -126.5t-46 -125.5t-134 -48.5q-83 0 -128.5 48.5t-45.5 125.5z" />
<glyph unicode="&#x1ef2;" horiz-adv-x="1540" d="M33 1423v11q167 -7 409 -7q120 0 221 1.5t142 3.5l41 2v-11q-49 0 -79 -25.5t-30 -64.5q0 -52 49 -137l220 -395l137 256q90 162 90 243q0 123 -184 123v11q94 -7 260 -7q54 0 103.5 1.5t71.5 3.5l23 2v-11q-67 0 -144 -62.5t-153 -203.5l-192 -360v-604 q0 -105 35.5 -144t117.5 -39v-10q-180 6 -393 6l-393 -6v10q77 0 115.5 67t38.5 189v486l-346 563q-41 65 -78 86.5t-82 21.5zM621 1837q0 53 39 90t106 37l270 -422l-4 -6q-107 23 -198.5 66t-152 105.5t-60.5 129.5z" />
<glyph unicode="&#x2000;" horiz-adv-x="1035" />
<glyph unicode="&#x2001;" horiz-adv-x="2071" />
<glyph unicode="&#x2002;" horiz-adv-x="1035" />
<glyph unicode="&#x2003;" horiz-adv-x="2071" />
<glyph unicode="&#x2004;" horiz-adv-x="690" />
<glyph unicode="&#x2005;" horiz-adv-x="517" />
<glyph unicode="&#x2006;" horiz-adv-x="345" />
<glyph unicode="&#x2007;" horiz-adv-x="345" />
<glyph unicode="&#x2008;" horiz-adv-x="258" />
<glyph unicode="&#x2009;" horiz-adv-x="414" />
<glyph unicode="&#x200a;" horiz-adv-x="115" />
<glyph unicode="&#x2010;" horiz-adv-x="735" d="M49 723v14h637v-14h-637z" />
<glyph unicode="&#x2011;" horiz-adv-x="735" d="M49 723v14h637v-14h-637z" />
<glyph unicode="&#x2012;" horiz-adv-x="735" d="M49 723v14h637v-14h-637z" />
<glyph unicode="&#x2013;" horiz-adv-x="1171" d="M90 723v14h989v-14h-989z" />
<glyph unicode="&#x2014;" horiz-adv-x="1413" d="M90 723v14h1233v-14h-1233z" />
<glyph unicode="&#x2018;" horiz-adv-x="593" d="M78 1024q0 144 96 275.5t246 236.5l6 -8q-102 -102 -102 -221q0 -75 49 -138t137 -98q8 -40 8 -65q0 -95 -62.5 -153t-156.5 -58q-100 0 -160.5 64.5t-60.5 164.5z" />
<glyph unicode="&#x2019;" horiz-adv-x="593" d="M78 1325q0 95 62.5 153t156.5 58q100 0 160.5 -64.5t60.5 -164.5q0 -144 -96 -275.5t-246 -236.5l-6 8q102 102 102 221q0 75 -49 138t-137 98q-8 40 -8 65z" />
<glyph unicode="&#x201a;" horiz-adv-x="641" d="M76 182q0 95 62.5 153t156.5 58q100 0 160.5 -64.5t60.5 -164.5q0 -144 -96 -275.5t-246 -236.5l-6 8q102 102 102 221q0 75 -49 138t-137 98q-8 40 -8 65z" />
<glyph unicode="&#x201c;" horiz-adv-x="1124" d="M76 1024q0 144 96 275.5t246 236.5l6 -8q-102 -102 -102 -221q0 -75 49 -138t137 -98q8 -40 8 -65q0 -95 -62.5 -153t-156.5 -58q-100 0 -160.5 64.5t-60.5 164.5zM606 1024q0 144 96 275.5t246 236.5l6 -8q-102 -102 -102 -221q0 -75 49 -138t137 -98q9 -45 9 -65 q0 -95 -63 -153t-157 -58q-100 0 -160.5 64.5t-60.5 164.5z" />
<glyph unicode="&#x201d;" horiz-adv-x="1124" d="M78 1325q0 95 62.5 153t156.5 58q100 0 160.5 -64.5t60.5 -164.5q0 -144 -96 -275.5t-246 -236.5l-6 8q102 102 102 221q0 75 -49 138t-137 98q-8 40 -8 65zM608 1325q0 95 62.5 153t156.5 58q100 0 161 -64.5t61 -164.5q0 -144 -96 -275.5t-246 -236.5l-7 8 q103 103 103 221q0 74 -49.5 137.5t-137.5 98.5q-8 40 -8 65z" />
<glyph unicode="&#x201e;" horiz-adv-x="1171" d="M76 182q0 95 62.5 153t156.5 58q100 0 160.5 -64.5t60.5 -164.5q0 -144 -96 -275.5t-246 -236.5l-6 8q102 102 102 221q0 75 -49 138t-137 98q-8 40 -8 65zM606 182q0 95 62.5 153t156.5 58q100 0 161 -64.5t61 -164.5q0 -144 -96 -275.5t-246 -236.5l-7 8 q103 103 103 221q0 74 -49.5 137.5t-137.5 98.5q-8 40 -8 65z" />
<glyph unicode="&#x2020;" horiz-adv-x="1325" d="M86 774q0 69 46.5 114.5t113.5 45.5q53 0 108.5 -24t95.5 -52t96 -52t111 -24q-10 45 -50 103t-80.5 105.5t-73.5 114.5t-33 132q0 117 72 176.5t172 59.5t171.5 -59.5t71.5 -176.5q0 -53 -21 -106t-52.5 -97.5t-64 -85t-61 -85t-38.5 -81.5q55 0 111 24t96 52t95.5 52 t108.5 24q67 0 113.5 -45.5t46.5 -114.5t-46.5 -114.5t-113.5 -45.5q-45 0 -86.5 16t-75 39t-69 46t-83.5 39t-103 16t-103 -16t-83 -39t-68.5 -46t-75.5 -39t-88 -16q-67 0 -113.5 45.5t-46.5 114.5zM420 471q0 100 69.5 172t174.5 72t174 -72t69 -172q0 -73 -24 -150.5 t-58.5 -148t-69.5 -146t-59 -172.5t-24 -200h-17q0 103 -24 200t-58.5 172.5t-69.5 146t-59 148t-24 150.5z" />
<glyph unicode="&#x2021;" horiz-adv-x="1327" d="M86 352q0 69 46.5 114.5t113.5 45.5q46 0 88 -16t75.5 -39t68.5 -46t83 -39t103 -16t103 16t83.5 39t69 46t75 39t86.5 16q67 0 113.5 -45.5t46.5 -114.5t-46.5 -114t-113.5 -45q-53 0 -108.5 23.5t-95.5 52t-96 52t-111 23.5q10 -37 38.5 -81.5t61 -85t64 -85 t52.5 -97.5t21 -106q0 -117 -71.5 -176t-171.5 -59t-172 59t-72 176q0 65 33 132t73.5 114.5t80.5 105.5t50 103q-55 0 -111 -23.5t-96 -52t-95.5 -52t-108.5 -23.5q-67 0 -113.5 45t-46.5 114zM86 774q0 69 46.5 114.5t113.5 45.5q53 0 108.5 -24t95.5 -52t96 -52t111 -24 q-10 45 -50 103t-80.5 105.5t-73.5 114.5t-33 132q0 117 72 176.5t172 59.5t171.5 -59.5t71.5 -176.5q0 -53 -21 -106t-52.5 -97.5t-64 -85t-61 -85t-38.5 -81.5q55 0 111 24t96 52t95.5 52t108.5 24q67 0 113.5 -45.5t46.5 -114.5t-46.5 -114.5t-113.5 -45.5 q-45 0 -86.5 16t-75 39t-69 46t-83.5 39t-103 16t-103 -16t-83 -39t-68.5 -46t-75.5 -39t-88 -16q-67 0 -113.5 45.5t-46.5 114.5zM489 561q0 75 46 123.5t129 48.5t128.5 -48.5t45.5 -123.5t-45.5 -122.5t-128.5 -47.5t-129 47.5t-46 122.5z" />
<glyph unicode="&#x2022;" horiz-adv-x="819" d="M123 735q0 120 83.5 203.5t203.5 83.5t203 -83.5t83 -203.5q0 -119 -83 -202.5t-203 -83.5t-203.5 83.5t-83.5 202.5z" />
<glyph unicode="&#x2026;" horiz-adv-x="1857" d="M76 176q0 95 57 156t162 61t163 -61t58 -156q0 -96 -58 -155.5t-163 -59.5t-162 59.5t-57 155.5zM709 176q0 95 57 156t162 61t163 -61t58 -156q0 -96 -58 -155.5t-163 -59.5t-162 59.5t-57 155.5zM1341 176q0 95 57.5 156t162.5 61t163 -61t58 -156q0 -96 -58 -155.5 t-163 -59.5t-162.5 59.5t-57.5 155.5z" />
<glyph unicode="&#x202f;" horiz-adv-x="414" />
<glyph unicode="&#x2030;" horiz-adv-x="2172" d="M63 1114q0 69 24 133t68 114.5t115 81t158 30.5q154 0 241 -93.5t87 -234.5q0 -51 -12.5 -100.5t-41 -97t-70.5 -83.5t-106 -58t-143 -22q-139 0 -229.5 89t-90.5 241zM229 -51l934 1536h19l-934 -1536h-19zM326 1139q0 -140 27 -242t63 -102q34 0 56 94t22 229 q0 125 -26 234.5t-67 109.5q-36 0 -55.5 -96t-19.5 -227zM657 291q0 69 24 132.5t68 114.5t115 81t158 30q154 0 241 -93t87 -234q0 -51 -12.5 -100.5t-41 -97t-70.5 -83.5t-106 -58t-143 -22q-139 0 -229.5 89t-90.5 241zM920 315q0 -140 27 -242t63 -102q34 0 55.5 94 t21.5 230q0 125 -25.5 234.5t-66.5 109.5q-36 0 -55.5 -96.5t-19.5 -227.5zM1417 291q0 69 24 132.5t68 114.5t115 81t158 30q154 0 240.5 -93t86.5 -234q0 -65 -20.5 -126t-62.5 -115t-117 -87t-172 -33q-139 0 -229.5 89t-90.5 241zM1679 315q0 -140 27 -242t63 -102 q34 0 56 94.5t22 229.5q0 125 -25.5 234.5t-66.5 109.5q-36 0 -56 -96.5t-20 -227.5z" />
<glyph unicode="&#x2039;" horiz-adv-x="628" d="M57 707v22l502 481l6 -10l-221 -481l221 -481l-6 -11z" />
<glyph unicode="&#x203a;" horiz-adv-x="628" d="M57 238l222 481l-222 481l6 10l502 -481v-22l-502 -480z" />
<glyph unicode="&#x2044;" horiz-adv-x="790" d="M106 -20l560 1474h18l-557 -1474h-21z" />
<glyph unicode="&#x205f;" horiz-adv-x="517" />
<glyph unicode="&#x20ac;" horiz-adv-x="1529" d="M-10 610v13h71q-8 92 7 184h-78v12h80q20 138 81.5 255.5t160.5 207t243 140.5t317 51q147 0 262.5 -29t182.5 -77t101 -103.5t34 -114.5q0 -96 -59 -159.5t-172 -63.5q-71 0 -128 33t-89 75q41 45 64.5 106t23.5 120q0 86 -49.5 143t-145.5 57q-276 0 -291 -641h412v-12 h-412v-68q0 -79 2 -116h410v-13h-410q24 -633 303 -633q73 0 153 38t155 107.5t138.5 179t98.5 241.5h12l-63 -498q-82 0 -156.5 -13t-124.5 -29t-132 -29t-177 -13q-332 0 -531 177t-223 472h-71z" />
<glyph unicode="&#x2122;" horiz-adv-x="892" d="M39 1331l8 103q70 -2 160 -2l174 2l-8 -105l-6 2q0 44 -24.5 69t-74.5 25v-272q0 -25 8.5 -33t28.5 -8v-8q-45 2 -92 2l-96 -2v8q37 0 37 57v256q-92 0 -109 -96zM381 1104v8q44 0 49 64l19 206q3 43 -37 43v9q69 -2 157 -2q0 -27 11 -60l51 -184l53 190q4 15 5 28.5 t0 19.5l-1 6l141 2v-9q-37 0 -34 -43l16 -229q1 -25 11 -33t30 -8v-8q-35 2 -86 2l-94 -2v8q20 0 29 8.5t8 32.5l-19 221l-74 -270l-59 -8l-102 293l-15 -197q-7 -80 56 -80v-8q-33 2 -60 2z" />
<glyph unicode="&#x2212;" horiz-adv-x="903" d="M0 713v14h903v-14h-903z" />
<glyph unicode="&#x221a;" horiz-adv-x="1107" d="M94 1018l15 8l446 -1006l524 1614h693v-14h-682l-525 -1620h-18z" />
<glyph unicode="&#x221e;" horiz-adv-x="1265" d="M57 717q0 109 69.5 179.5t174.5 70.5q34 0 69 -12.5t58.5 -25.5t60 -46.5t49 -46.5t51.5 -57t44 -50q8 9 37 43t42 48t41 42.5t48.5 42.5t48.5 31t56.5 24t58.5 7q105 0 174 -70t69 -180q0 -115 -68 -182.5t-175 -67.5q-30 0 -58.5 7t-56.5 24t-48.5 31t-48.5 42.5 t-41 42.5t-42 48t-37 43q-10 -11 -43 -50t-48.5 -56.5t-48.5 -48t-58.5 -45t-61 -26.5t-72.5 -12q-107 0 -175.5 67.5t-68.5 182.5zM74 717q0 -98 62.5 -166t164.5 -68q35 0 69.5 11.5t59 26.5t56 44t48.5 47.5t48 55t43 49.5q-9 10 -37 42.5t-42 47t-41 42t-47.5 42 t-47.5 31t-54 23.5t-55 7q-101 0 -164 -68.5t-63 -166.5zM641 717q6 -7 43 -49t50.5 -56.5t48.5 -47t58.5 -45.5t57.5 -25.5t66 -12.5q101 0 164 69t63 167t-63 166.5t-164 68.5q-28 0 -55 -7t-54 -23.5t-47.5 -31t-47.5 -42t-41 -42t-42 -47t-37 -42.5z" />
<glyph unicode="&#x2248;" horiz-adv-x="931" d="M57 479q44 164 191 164q54 0 114.5 -28t106 -61t106 -61t113.5 -28q61 0 107 34t73 124l11 -9q-44 -163 -191 -163q-55 0 -116 28t-106 61t-105 61t-113 28q-61 0 -107 -34t-73 -124zM57 768q44 164 191 164q54 0 114.5 -28t106 -61t106 -61t113.5 -28q61 0 107 33.5 t73 123.5l11 -8q-44 -164 -191 -164q-46 0 -93.5 18.5t-88 44.5t-81 52.5t-87 45t-90.5 18.5q-61 0 -107 -34t-73 -124z" />
<glyph unicode="&#x2260;" horiz-adv-x="903" d="M0 524v15h283l319 360h-602v14h614l207 234h19l-207 -234h270v-14h-282l-318 -360h600v-15h-612l-207 -235h-21l207 235h-270z" />
<glyph unicode="&#x2264;" horiz-adv-x="903" d="M0 256v12h903v-12h-903zM0 731v12l903 416v-14l-883 -408l883 -407v-15z" />
<glyph unicode="&#x2265;" horiz-adv-x="903" d="M0 256v12h903v-12h-903zM0 315v15l883 407l-883 408v14l903 -416v-12z" />
<glyph unicode="&#x25ca;" horiz-adv-x="921" d="M53 754l400 805h16l399 -805l-399 -805h-16zM72 754l389 -783l389 783l-389 782z" />
<glyph unicode="&#x25fc;" horiz-adv-x="1433" d="M0 0v1434h1434v-1434h-1434z" />
<glyph unicode="&#xf6c3;" horiz-adv-x="538" d="M90 -264q0 76 50.5 123t125.5 47q85 0 132.5 -52t47.5 -133q0 -117 -71 -193t-205 -134l-4 6q63 54 63 135q0 49 -33.5 90.5t-97.5 59.5q-8 32 -8 51z" />
<glyph horiz-adv-x="2267" d="M41 0v10q77 0 115.5 67t38.5 189v975q0 105 -36 143.5t-118 38.5v11q180 -7 393 -7q95 0 193 1.5t149 3.5l51 2v-11q-76 0 -114.5 -66.5t-38.5 -189.5v-512q9 53 34 95.5t56 67.5t69.5 42t73 23t68.5 6q112 0 195 -62t96 -159q-5 77 -56.5 144t-136.5 91v338 q0 106 -34.5 144t-118.5 38v11q180 -7 393 -7q94 0 379.5 3t453.5 4v-439h-10q-23 197 -154 309.5t-321 112.5q-67 0 -109 -12v-633h117q111 0 185.5 74t74.5 213h10v-645h-10q0 64 -18 123.5t-52.5 109.5t-93 79.5t-133.5 29.5h-80v-572q0 -99 36 -134.5t118 -35.5 q81 0 162 38.5t150.5 107t122.5 173t75 228.5h14l-94 -561q-163 1 -438.5 3.5t-384.5 2.5l-393 -6v10q73 0 113 62t40 170v149q47 8 83 28.5t56 44.5t33 55t17.5 53.5t5.5 45.5q-7 -79 -67.5 -140.5t-160.5 -61.5q-69 0 -121.5 27t-76.5 65q38 36 68 102t30 123 q0 49 -23.5 78t-68.5 29q-16 0 -35.5 -7t-45 -27.5t-45.5 -51.5t-34 -85t-14 -122v-354q0 -105 35.5 -144t117.5 -39v-10q-180 6 -393 6z" />
<glyph horiz-adv-x="3041" d="M47 983l37 451q284 -7 666 -7q530 0 873 1.5t421 3.5l78 2v-11q-77 0 -115.5 -67t-38.5 -189v-512q9 53 34 95.5t56 67.5t69.5 42t73 23t68.5 6q112 0 195 -62t96 -159q-5 77 -56.5 144t-136.5 91v338q0 105 -35.5 143.5t-117.5 38.5v11q180 -7 393 -7q95 0 193 1.5 t149 3.5l51 2v-11q-76 0 -114.5 -66.5t-38.5 -189.5v-974q0 -105 35.5 -144t117.5 -39v-10q-180 6 -393 6l-393 -6v10q76 0 114.5 66.5t38.5 189.5v125q47 8 83 28.5t56 44.5t33 55t17.5 53.5t5.5 45.5q-7 -79 -67 -140.5t-160 -61.5q-69 0 -122 27t-77 65q38 36 68 102 t30 123q0 49 -23.5 78t-68.5 29q-16 0 -35.5 -7t-45 -27.5t-45.5 -51.5t-34 -85t-14 -122v-354q0 -105 36 -144t118 -39v-10q-180 6 -393 6l-394 -6v10q77 0 115.5 67t38.5 189v854q0 74 -14.5 124t-45.5 85t-88.5 53.5t-133.5 26.5t-191 8v-1224q0 -104 39 -143.5 t125 -39.5v-10q-191 6 -404 6l-403 -6v10q82 0 123 66.5t41 189.5v1151q-189 0 -317 -117t-163 -319z" />
<glyph horiz-adv-x="3532" d="M47 983l37 451q284 -7 666 -7q530 0 873 1.5t421 3.5l78 2v-11q-77 0 -115.5 -67t-38.5 -189v-512q9 53 34 95.5t56 67.5t69.5 42t73 23t68.5 6q112 0 195 -62t96 -159q-5 77 -56.5 144t-136.5 91v338q0 105 -35.5 143.5t-117.5 38.5v11q180 -7 393 -7q94 0 380.5 3 t453.5 4v-439h-11q-23 197 -154 309.5t-321 112.5q-66 0 -108 -12v-633h116q112 0 186.5 74t74.5 213h10v-645h-10q0 64 -18 123.5t-52.5 109.5t-93 79.5t-133.5 29.5h-80v-563q0 -104 35.5 -141.5t117.5 -37.5q81 0 162 38.5t150.5 107t122.5 173t75 228.5h15l-95 -561 q-175 1 -449.5 3.5t-373.5 2.5l-393 -6v10q76 0 114.5 66.5t38.5 189.5v125q47 8 83 28.5t56 44.5t33 55t17.5 53.5t5.5 45.5q-7 -79 -67 -140.5t-160 -61.5q-69 0 -122 27t-77 65q38 36 68 102t30 123q0 49 -23.5 78t-68.5 29q-16 0 -35.5 -7t-45 -27.5t-45.5 -51.5 t-34 -85t-14 -122v-354q0 -105 36 -144t118 -39v-10q-180 6 -393 6l-394 -6v10q77 0 115.5 67t38.5 189v854q0 74 -14.5 124t-45.5 85t-88.5 53.5t-133.5 26.5t-191 8v-1224q0 -104 39 -143.5t125 -39.5v-10q-191 6 -404 6l-403 -6v10q82 0 123 66.5t41 189.5v1151 q-189 0 -317 -117t-163 -319z" />
<glyph horiz-adv-x="2506" d="M47 983l37 451q284 -7 666 -7h952l756 7l-37 -453l-8 2q0 197 -115 315.5t-330 118.5v-1224q0 -104 39 -143.5t125 -39.5v-10q-190 6 -403 6l-404 -6v10q82 0 123 66.5t41 189.5v1149h-473v-1222q0 -104 39 -143.5t125 -39.5v-10q-191 6 -404 6l-403 -6v10q82 0 123 66.5 t41 189.5v1151q-189 0 -317 -117t-163 -319z" />
<glyph horiz-adv-x="2498" d="M31 0v10q153 0 153 297v934q0 105 -35.5 143.5t-117.5 38.5v11q314 -7 694 -7q7 -67 94 -198l309 -461v473q0 105 -35.5 143.5t-117.5 38.5v11q314 -7 694 -7q7 -67 94 -198l527 -783v680q0 69 -15 121.5t-40.5 85.5t-62.5 53.5t-77 28.5t-88 8v11q219 -7 291 -7l184 7 v-11q-76 0 -127 -72.5t-51 -224.5v-1126l-315 -37l-629 971v-934l-316 -37l-845 1307v-963q0 -159 73.5 -228t225.5 -69v-10q-221 6 -293 6zM1143 748l203 -302v510l-203 314v-522z" />
<glyph horiz-adv-x="2715" d="M31 0v10q153 0 153 297v934q0 105 -35.5 143.5t-117.5 38.5v11q314 -7 694 -7q7 -67 94 -198l527 -783v795q0 105 -36 143.5t-118 38.5v11q314 -7 694 -7q7 -67 94 -198l527 -783v680q0 69 -15 121.5t-40.5 85.5t-62.5 53.5t-77 28.5t-88 8v11q219 -7 291 -7l184 7v-11 q-76 0 -127 -72.5t-51 -224.5v-1126l-315 -37l-846 1307v-1270l-316 -37l-845 1307v-963q0 -159 73.5 -228t225.5 -69v-10q-221 6 -293 6z" />
<glyph horiz-adv-x="2541" d="M41 1423v11q180 -7 393 -7q95 0 193 1.5t149 3.5l51 2v-11q-76 0 -114.5 -66.5t-38.5 -189.5v-712q-114 4 -180 -61.5t-66 -168.5q0 -83 40 -144.5t103 -90.5q-376 53 -376 475v776q0 105 -36 143.5t-118 38.5zM428 225q0 80 61.5 143.5t167.5 63.5q59 0 108.5 -25 t72.5 -57q-86 -77 -86 -188q0 -77 53.5 -124.5t140.5 -47.5q101 0 176.5 29.5t117.5 74t67.5 110.5t33 125.5t7.5 131.5v682q0 151 -55.5 215.5t-176.5 64.5v11q130 -7 471 -7q94 0 380.5 3t453.5 4v-439h-11q-23 197 -154 309.5t-321 112.5q-66 0 -108 -12v-633h117 q111 0 185.5 74t74.5 213h10v-645h-10q0 64 -18 123.5t-52.5 109.5t-93 79.5t-133.5 29.5h-80v-563q0 -104 35.5 -141.5t117.5 -37.5q81 0 162 38.5t150.5 107t122.5 173t75 228.5h15l-95 -561q-175 1 -449.5 3.5t-373.5 2.5q-95 0 -179.5 -1.5t-121.5 -2.5l-37 -2v10 q99 0 99 164v117q-15 -78 -45 -135t-72.5 -94.5t-103.5 -60t-130.5 -31.5t-160.5 -9q-177 0 -292.5 69.5t-115.5 194.5z" />
<glyph horiz-adv-x="2480" d="M41 1423v11q180 -7 393 -7q95 0 193 1.5t149 3.5l51 2v-11q-76 0 -114.5 -66.5t-38.5 -189.5v-712q-114 4 -180 -61.5t-66 -168.5q0 -83 40 -144.5t103 -90.5q-376 53 -376 475v776q0 105 -36 143.5t-118 38.5zM428 225q0 80 61.5 143.5t167.5 63.5q59 0 108.5 -25 t72.5 -57q-86 -77 -86 -188q0 -77 53.5 -124.5t140.5 -47.5q96 0 169.5 26.5t116.5 68.5t70 101.5t36.5 117t9.5 124.5v715q0 149 -56 214.5t-176 65.5v11q140 -7 471 -7q94 0 380.5 3t453.5 4v-439h-11q-23 197 -154 309.5t-321 112.5q-66 0 -108 -12v-657h117 q112 0 186 73.5t74 212.5h10v-645h-10q0 64 -18 123.5t-52.5 109.5t-93 79.5t-133.5 29.5h-80v-538q0 -104 43 -143.5t137 -39.5v-10q-207 6 -420 6q-95 0 -179.5 -1.5t-121.5 -2.5l-37 -2v10q99 0 99 164v117q-15 -78 -45 -135t-72.5 -94.5t-103.5 -60t-130.5 -31.5 t-160.5 -9q-177 0 -292.5 69.5t-115.5 194.5z" />
<glyph horiz-adv-x="2875" d="M41 1423v11q180 -7 393 -7q95 0 193 1.5t149 3.5l51 2v-11q-76 0 -114.5 -66.5t-38.5 -189.5v-712q-114 4 -180 -61.5t-66 -168.5q0 -83 40 -144.5t103 -90.5q-376 53 -376 475v776q0 105 -36 143.5t-118 38.5zM428 225q0 80 61.5 143.5t167.5 63.5q59 0 108.5 -25 t72.5 -57q-86 -77 -86 -188q0 -77 53.5 -124.5t140.5 -47.5q101 0 176.5 29.5t117.5 74t67.5 110.5t33 125.5t7.5 131.5v665q0 161 -54.5 229t-177.5 68v11q140 -7 471 -7q95 0 193 1.5t149 3.5l51 2v-11q-76 0 -114.5 -66.5t-38.5 -189.5v-446h65l303 340q129 144 129 244 q0 55 -44 86.5t-130 31.5v11q119 -7 336 -7q90 0 163 1.5t101 3.5l27 2v-11q-121 0 -248.5 -73t-249.5 -211l-73 -84l530 -893q40 -65 76.5 -95t87.5 -30v-8q-16 -8 -44 -19t-113.5 -30t-168.5 -19q-159 0 -260.5 61t-175.5 205l-211 410q-20 37 -42.5 54.5t-57.5 17.5v-516 q0 -105 35.5 -144t117.5 -39v-10q-180 6 -393 6q-95 0 -179.5 -1.5t-121.5 -2.5l-37 -2v10q99 0 99 164v117q-15 -78 -45 -135t-72.5 -94.5t-103.5 -60t-130.5 -31.5t-160.5 -9q-177 0 -292.5 69.5t-115.5 194.5z" />
<glyph horiz-adv-x="2533" d="M41 1423v11q180 -7 393 -7q95 0 193 1.5t149 3.5l51 2v-11q-76 0 -114.5 -66.5t-38.5 -189.5v-712q-114 4 -180 -61.5t-66 -168.5q0 -83 40 -144.5t103 -90.5q-376 53 -376 475v776q0 105 -36 143.5t-118 38.5zM428 225q0 80 61.5 143.5t167.5 63.5q59 0 108.5 -25 t72.5 -57q-86 -77 -86 -188q0 -77 53.5 -124.5t140.5 -47.5q101 0 176.5 29.5t117.5 74t67.5 110.5t33 125.5t7.5 131.5v665q0 161 -54.5 229t-177.5 68v11q140 -7 471 -7q95 0 193 1.5t149 3.5l51 2v-11q-76 0 -114.5 -66.5t-38.5 -189.5v-974q0 -104 35.5 -141.5 t117.5 -37.5q79 0 152.5 34.5t131 92.5t106 134.5t81.5 160t52 170.5h10l-86 -606q-189 0 -479 3t-361 3l-338 -6v10q99 0 99 164v117q-15 -78 -45 -135t-72.5 -94.5t-103.5 -60t-130.5 -31.5t-160.5 -9q-177 0 -292.5 69.5t-115.5 194.5z" />
<glyph horiz-adv-x="2840" d="M47 983l37 451q284 -7 666 -7q517 0 860 1.5t428 3.5l84 2v-11q-77 0 -115.5 -67t-38.5 -189v-712h-12q-106 0 -169 -63.5t-65 -160.5q3 79 65.5 140t164.5 61q59 0 108 -25t72 -57q-86 -77 -86 -188q0 -77 53.5 -124.5t141.5 -47.5q73 0 133 15.5t101 40.5t71.5 62.5 t48.5 77t29 89t14.5 93t3.5 93.5v665q0 157 -70.5 227t-206.5 70v11q213 -7 285 -7l184 7v-11q-76 0 -127 -72.5t-51 -224.5v-661q0 -150 -32 -249.5t-101.5 -155t-162.5 -77.5t-230 -22q-169 0 -282.5 62.5t-125.5 175.5q6 -72 46 -127.5t98 -81.5q-377 54 -377 475v657 q0 74 -14.5 123.5t-45.5 84t-88.5 53t-133.5 26.5t-191 8v-1224q0 -104 39 -143.5t125 -39.5v-10q-191 6 -404 6l-403 -6v10q82 0 123 66.5t41 189.5v1151q-189 0 -317 -117t-163 -319z" />
<glyph horiz-adv-x="2895" d="M47 983l37 451q284 -7 666 -7q65 0 601.5 3.5t782.5 3.5q567 0 567 -340q0 -348 -647 -351q156 8 156 328q0 156 -48.5 253t-142.5 97q-30 0 -51 -8v-676q-96 -8 -166 -37.5t-106 -72t-52 -85t-16 -87.5q0 -98 59.5 -165t151.5 -67q73 0 129 27v-57q0 -105 36 -144 t118 -39v-10q-180 6 -393 6l-394 -6v10q77 0 115.5 67t38.5 189v856q0 74 -14.5 123.5t-45.5 84t-88.5 53t-133.5 26.5t-191 8v-1224q0 -104 39 -143.5t125 -39.5v-10q-191 6 -404 6l-403 -6v10q82 0 123 66.5t41 189.5v1151q-189 0 -317 -117t-163 -319zM1628 455 q0 63 29 111.5t74.5 77t110.5 46.5t129 24.5t138 6.5q103 0 194.5 -18t172 -56t137.5 -104.5t80 -155.5l64 -244q13 -53 43 -86.5t75 -33.5q22 0 37 6l4 -6q-30 -22 -131 -42t-194 -20q-187 0 -287 77t-127 257l-37 250q-22 162 -110 162q-40 0 -63 -38.5t-23 -101.5 q0 -138 102 -227q-30 -39 -85 -65.5t-122 -26.5q-100 0 -155.5 63t-55.5 144z" />
<glyph horiz-adv-x="1024" d="M0 0v1434h1024v-1434h-1024zM23 37l473 680l-473 680v-1360zM41 23h940l-471 673zM43 1409l467 -672l469 672h-936zM524 717l477 -684v1366z" />
<glyph horiz-adv-x="1722" d="M41 0v10q77 0 115.5 67t38.5 189v975q0 105 -36 143.5t-118 38.5v11q180 -7 393 -7q95 0 193 1.5t149 3.5l51 2v-11q-76 0 -114.5 -66.5t-38.5 -189.5v-446h65l303 340q129 144 129 244q0 55 -44 86.5t-130 31.5v11q119 -7 336 -7q90 0 163 1.5t100 3.5l28 2v-11 q-121 0 -248.5 -73t-249.5 -211l-73 -84l530 -887q68 -114 120 -195.5t109.5 -162.5t106 -133.5t100 -95t103 -62t104.5 -19.5q93 0 140 58t47 133q0 91 -54 166q67 53 148 53q84 0 135 -49t51 -117q0 -40 -13.5 -75t-48.5 -69t-91 -58t-147 -39t-210 -15q-201 0 -368 40.5 t-318 130.5t-280.5 239t-241.5 360l-201 379q-20 37 -42.5 54.5t-57.5 17.5v-516q0 -105 35.5 -144t117.5 -39v-10q-180 6 -393 6z" />
<glyph horiz-adv-x="1601" d="M41 0v10q77 0 115.5 67t38.5 189v975q0 105 -36 143.5t-118 38.5v11q180 -7 393 -7q70 0 202 3.5t204 3.5q567 0 567 -340q0 -351 -655 -351q163 0 163 328q0 156 -48 253t-142 97q-30 0 -51 -8v-676q-96 -8 -166 -37.5t-106 -72t-52 -85t-16 -87.5q0 -98 59.5 -165 t151.5 -67q73 0 129 27v-57q0 -105 35.5 -144t117.5 -39v-10q-180 6 -393 6zM334 455q0 63 29 111.5t74.5 77t110.5 46.5t129 24.5t138 6.5q227 0 375.5 -108.5t222.5 -301.5l88 -225q228 -586 625 -586q98 0 151.5 59t53.5 132q0 91 -54 166q67 53 148 53q84 0 135 -49 t51 -117q0 -48 -26 -91.5t-81.5 -81.5t-155.5 -60.5t-234 -22.5q-502 0 -785.5 182t-394.5 588l-80 291q-24 88 -49.5 123t-69.5 35q-40 0 -63 -36.5t-23 -103.5q0 -137 103 -227q-30 -39 -85 -65.5t-122 -26.5q-100 0 -155.5 63t-55.5 144z" />
<glyph horiz-adv-x="1628" d="M49 297q0 157 112 263t285 145q-67 94 -102 172t-35 163q0 96 48.5 179t126 137.5t173.5 85.5t193 31q174 0 267 -66t93 -166q0 -45 -18 -83t-44.5 -63.5t-66.5 -46.5t-74.5 -33t-78.5 -21t-68 -12.5t-53 -6.5q93 -98 317 -275q4 100 28 174t61.5 114t78.5 58.5t86 18.5 q90 0 145.5 -55t55.5 -131q0 -52 -28.5 -99t-86.5 -78q-62 101 -157 101q-115 0 -174 -109q185 -133 264.5 -258t79.5 -252q0 -176 -127 -286.5t-314 -110.5q-172 0 -313 107l6 8q76 -49 131 -49q56 0 88.5 36t32.5 86q0 97 -94 211q-170 -225 -451 -225q-171 0 -279 92 t-108 244zM420 563q0 -94 39.5 -195t111 -173t152.5 -72q96 0 156 74q-61 83 -210.5 247.5t-215.5 251.5q-33 -50 -33 -133zM688 1268q0 -139 113 -285q65 47 98 138.5t33 176.5q0 77 -26.5 119.5t-76.5 42.5q-63 0 -102 -53t-39 -139z" />
</font>
</defs>
</svg>
